<?xml version="1.0" encoding="utf-8"?>
<!-- Generator: Adobe Illustrator 25.3.0, SVG Export Plug-In . SVG Version: 6.00 Build 0)  -->
<svg version="1.1" id="Capa_1" xmlns="http://www.w3.org/2000/svg" xmlns:xlink="http://www.w3.org/1999/xlink" x="0px" y="0px"
	 width="60px" height="60px" viewBox="0 0 60 60" style="enable-background:new 0 0 60 60;" xml:space="preserve">
<style type="text/css">
	.st0{fill:#FFFFFF;}
</style>
<path class="st0" d="M0.3,59.7C0.5,59.9,0.7,60,1,60c0.1,0,0.2,0,0.3,0l15.9-4.2c4.1,2.1,8.7,3.2,13.4,3.2C46.8,59,60,45.8,60,29.5
	S46.8,0,30.5,0C14.2,0,1,13.2,1,29.5c0,5.1,1.3,10.2,3.9,14.7L0.1,58.7C-0.1,59,0,59.4,0.3,59.7z M40,30c0-2.2,1.8-4,4-4
	c2.2,0,4,1.8,4,4s-1.8,4-4,4C41.8,34,40,32.2,40,30z M27,30c0-2.2,1.8-4,4-4s4,1.8,4,4s-1.8,4-4,4S27,32.2,27,30z M14,30
	c0-2.2,1.8-4,4-4s4,1.8,4,4s-1.8,4-4,4S14,32.2,14,30z"/>
</svg>
