<?xml version="1.0" encoding="UTF-8"?>
<svg id="Layer_2" data-name="Layer 2" xmlns="http://www.w3.org/2000/svg" viewBox="0 0 317.12 73.99">
  <defs>
    <style>
      .cls-1 {
        fill: #fff;
      }
    </style>
  </defs>
  <g id="Graphic_Elements" data-name="Graphic Elements">
    <g>
      <path class="cls-1" d="m299.07,34.14c5.25-.4,10.5-.78,15.75-1.2,1.21-.1,2.54-.41,2.26-2-.2-1.14-1.33-1.49-2.43-1.37-7.69.85-15.48.63-23.08,2.35.23,0,.45,0,.68,0-.23,0-.45,0-.68,0,0,0,.17.06.17.06-.23-.1-.45-.08-.65.05-1.65-1.36-4.09.79-5.58-1.27.17-.24.25-.51.26-.8.77-.13,1.54-.27,2.31-.4,1.5.28,1.79-.47,1.48-1.73-.44-1.61-1.69-.5-2.53-.74-.91.41-1.82.81-2.72,1.22h0c.91-.41,1.81-.81,2.72-1.22-1.36-.98-2.94-.37-4.4-.61-.16-1.92-1.6-2.12-3.09-2.4-1.86-.35-3.78-.65-5.83-2.14,1.98-.15,3.42-.25,4.87-.36-.37-.34-.61-.62-.76-.85.15.23.39.51.76.85.7.65,1.22.03,1.78-.26,5-.32,10-.64,15.01-.96,2.07-.16,4.13-.31,6.2-.47,1.01.66,1.76-.33,2.65-.42,2.07-.08,4.14-.15,6.21-.23.99.13,1.79-.21,1.89-1.24.11-1.15-.84-1.42-1.73-1.38-1.29.05-2.57.26-3.85.39-.3,0-.59,0-.89,0-2.07.14-4.15.29-6.22.43-.89-.06-1.77-.11-2.66-.17.21-.89.41-1.79.62-2.68-2.7-3.24-6.39-2.64-9.95-2.56.05.24.09.49.11.74.82,0,1.67-.16,2.46.2-.79-.36-1.64-.21-2.46-.2-.02-.25-.06-.49-.11-.74-2.36-.14-4.73-.28-7.09-.41-2.38-.23-4.74-.87-7.15-.32-.27-.08-.55-.15-.82-.21,1-1.75.44-3.06-1.48-3.06-2.26-.01-4.72-.48-6.73,1.18.37.49.74.97,1.11,1.46h0c-.37-.49-.74-.97-1.11-1.46-8.89-.26-17.77-.52-26.66-.79,0,.27.04.54.11.8.63.02,1.25.05,1.88.07-.63-.02-1.25-.05-1.88-.07-1.49.19-2.98.38-4.47.57.03.44.06.88.08,1.32-.03-.44-.06-.88-.08-1.32-.58,0-1.15,0-1.73,0-.32.37-.64.73-.96,1.1h0c-1.17.05-2.34.1-3.51.14-.22,0-.45,0-.67,0-1.07-.62-2.29-.38-3.49-.3,1.2-.08,2.42-.31,3.49.3.22,0,.45,0,.67,0,1.17-.05,2.34-.1,3.51-.14.32-.37.64-.73.96-1.1-3.84-1.01-7.77-.94-11.69-.96.03.34.05.67.08,1.01-.05.03-.09.06-.14.09.05-.03.09-.06.14-.09-.03-.33-.05-.67-.08-1.01-.57.03-1.14.06-1.71.09.57-.03,1.14-.06,1.71-.09,3.92.02,7.85-.05,11.7.96.58,0,1.15,0,1.73,0,1.49-.19,2.98-.38,4.47-.57-.07-.27-.1-.53-.11-.81-6.56-.35-13.13-.71-19.69-1.06-1.79-.21-3.58-.41-5.37-.62h0c-.61-.49-1.21-.99-1.82-1.48l-.13-.18c6.21-.44,12.41-.88,18.62-1.32h0c.29,0,.59,0,.88,0,1.21.39,2.43,1.13,3.58-.14,2.04.75,4.11.41,6.18.22,0,0,0,0,0,0,.89-.08,1.78-.16,2.67-.24.52.05,1.05.09,1.57.14,1.37,1.11,2.53.22,3.73-.37,2.65.94,5.34.99,8.05.3,2.94,1.2,5.91.24,8.88.17,4.17,1.65,8.26-.24,12.4-.14-3.8-1.51-7.68-1.14-11.57-.81-3.84-.78-7.71-1.32-11.64-.82-2.08-.12-4.16-.24-6.24-.36,0,0,0,0,0,0-.6.03-1.2.05-1.8.08-.51-.05-1.02-.1-1.53-.15-3.63-.91-7.25-.28-10.88.02-1.14-.97-2.41-.57-3.67-.38-.55.03-1.1.05-1.66.08-1.2.08-2.41.17-3.61.25-1.45.12-2.9.23-4.35.35-.31-.01-.62-.02-.94-.03-2.65.21-5.3.41-7.95.62-1.76.14-3.52.27-5.28.41-1.18.11-2.37.21-3.55.32-1.46.26-3.01-1.11-4.42.23-7.36.53-14.73,1.06-22.09,1.58-3.44.2-6.88.4-10.32.59-5.14-.53-10.28-.92-15.45-.45-4.68-1.38-9.37,0-14.05-.05-.92-.23-1.84-.47-2.76-.7-5.04-1.57-10.17-.67-15.27-.47-1.81-.51-3.56-.36-5.28.37-4.74-.11-9.46,1.79-14.21.17-.73-1.68-1.96-2.73-3.8-3.01-1.47,0-2.93-.01-4.4-.02-3.54-.92-7.12-1.41-10.78-.86-3.26-.94-6.54-.51-9.82-.12-.55,0-1.11.01-1.66.02-4.49-.9-8.95-.65-13.4.3-3.82.24-7.64.48-11.46.72h0c-3.54.31-7.08.63-10.62.94,0,0,0,0,0,0-1.76.07-3.52.15-5.27.22-.89.1-1.78.19-2.68.29-2.05.15-4.1.31-6.14.46-.29.04-.58.09-.88.13.01.24.02.48.03.72.04.61.08,1.23.12,1.84-.04-.61-.08-1.23-.12-1.84-.01-.24-.02-.48-.03-.72-.44-.02-.88-.05-1.32-.07-2.26-.06-4.79.1-6.04,1.94-1.54,2.29,2.6,2.36,2.45,4.43-.88,0-1.77.07-2.63-.03-1.53-.17-3.96-1.17-4.1.78-.17,2.36,2.49,1.62,4.08,1.65,3.79.08,7.59.03,11.38.09,1.27.02,2.9-.17,2.17,2.04.58-.04,1.17-.09,1.75-.13.52-1.46.07-2.7-.52-3.91.59,1.21,1.04,2.46.52,3.91-.58.04-1.17.09-1.75.13-1.42.14-2.84.28-4.26.42.32.56.65,1.13.97,1.69-.18,0-.34.04-.47.09.13-.06.29-.09.47-.09-.32-.56-.65-1.13-.97-1.69-4.3-.56-8.66-1.61-12.44,1.68-.12.9.03,1.64,1.09,1.83,2.81,1.79,5.91,1.27,8.96,1.1,2.88.58,6.03.47,8.13,3.12.36-.11.72-.22,1.08-.33h0c2.06-.18,4.13-.44,6.08.56-.24.36-.48.73-.73,1.09-2.32.18-4.64.35-6.97.53-.33-.04-.66-.08-.98-.11-1.16.15-2.31.3-3.47.45-3.14-.11-6.26-.1-8.79,2.2-1.53-.7-2.93.29-4.41.35h0c-1.45.29-2.96-.74-4.37.22-1.1-.03-3.04-1.93-2.71,1.22,1.52,1.82,3.82.32,5.54,1.3,5.31.85,10.63,1.61,16.02.81,1.22.22,2.41.96,3.7.28,0,0,0,0,0,0,.26.02.52.05.77.09.78,1.64,2.98-.19,3.72,1.52-.22.26-.45.52-.67.79,0,0,0,0,0,0-1.83-.88-3.69-.47-5.56-.17-.31-.09-.62-.17-.94-.26-2.18.19-4.37.34-6.54.58-.82.09-1.93.1-1.85,1.33.05.79.79,1.22,1.58,1.25.87.03,1.74-.07,2.62-.12,1.47-.1,2.94-.21,4.41-.31.24.17.5.21.77.1,1.88.91,3.68.59,5.44-.36l2.74.65-.08-.17c.03.07.08.17.08.17-.01.24-.03.47-.05.71-.56.08-1.13.16-1.69.23-1.59.13-3.18.38-4.77.35-1.83-.04-1.89,1.28-2.42,2.46-.8,1.81.24,2.35,1.58,2.83.25-.03.5-.05.75-.08,0,0,0,0,0,0-.25.03-.5.05-.75.08-.04.56-.07,1.12-.11,1.68-1.1,2.1-3.7.92-5.11,2.34-3.11-.85-5.95-.8-7.84,2.39.81,2.47,2.88,1.52,4.54,1.69.77,1.35,2.1-.88,2.87.45.31-.05.63-.1.95-.15h0c-.31.05-.63.1-.95.15-.09,1.44-.13,2.75,2.03,2.19,2.15-.55,4.2.96,6.44.35,1.34-.37,2.32.77,2.42,1.97.13,1.68-1.46.95-2.27,1.1-1.57.29-3.19.32-4.79.46h0c-3.63.25-3.75.39-2.45,2.72,1.09,1.08,2.36.73,3.62.48.7.65,2-.43,2.48.86-.2.29-.4.59-.6.88-1.36.19-2.25.82-1.7,2.31.71,1.94,2.35,1.19,3.73,1.11.87-.02,1.74-.05,2.61-.07.02-.15.07-.3.12-.45h0c-.06.14-.1.29-.12.45,2.98.92,5.96.2,8.94.05l2.69.15c.29.4.58.8.88,1.2-.24.16-.48.3-.74.43-.31,0-.62,0-.93-.01-.89.05-1.77.1-2.66.15.03.66.06,1.32.1,1.98.28.23.55.47.83.7.43-.22.79-.49,1.07-.8-.28.31-.64.58-1.07.8,2.54.28,5.08.55,7.62.83-2.54-.28-5.08-.55-7.62-.83-.28-.23-.55-.47-.83-.7,0,0,0,0,0,0-.03-.66-.06-1.32-.1-1.98-3.35.25-6.69.49-10.04.76-1.8.14-3.07,1.27-3.34,2.86-.22,1.28.51,2.63,2.36,2.33,1.13-.07,2.27-.13,3.4-.2,1.01.18,2.15.86,2.73-.68.5-.09,1.01-.18,1.51-.28.88,1.38,2.13.89,3.33.67,1.94-.16,3.87-.31,5.81-.47-1.94.16-3.87.31-5.81.47,1.84,1.34,3.86.15,5.77.41,2.36.71,4.76.44,7.15.21,5.9.04,11.81.04,17.71.16,1.4.03,2.59,0,3.31-1.39.09-.16.19-.31.3-.45h0c-.11.14-.21.29-.3.45,2.12,2.98,4.96.22,7.37.94,6.23.78,12.43-.35,18.65-.4,2.65-.24,5.3-.49,7.94-.73.29-.04.59-.07.89-.11,1.51.18,3.02.35,4.22-.91,0,0,.04-.04.07-.08-.04.04-.07.08-.07.08,1.34,2.1,3.03,1.05,4.65.5,3.68.79,7.27.52,10.8-.77.18.06.35.03.52-.06,6.9.48,13.73,0,20.47-1.61,1.47-.11,2.94-.22,4.42-.34-.03-.29-.06-.59-.07-.88h0c.01.29.04.59.07.88,2.67-.15,5.34-.31,8.01-.46,4.74.17,9.49.73,14.23-.14.25.15.5.15.76.02,9.19.57,18.37.01,27.55-.35,5.05.62,10.06-.18,15.09-.43.11.03.24.11.34.09.21-.05.41-.16.62-.24,8.88.76,17.7-.36,26.54-.88-.02-.3-.05-.6-.07-.89-1.81.11-3.61.21-5.42.32,1.81-.11,3.61-.21,5.42-.32,0,0,0-.02,0-.02h0v.02c.01.3.04.6.06.89,1.49-.14,2.99-.28,4.48-.42,3.9.61,7.67-.23,11.47-.92.28.1.56.11.85.03.05-.09.1-.17.16-.25-.06.07-.11.15-.16.25,1.9.94,3.62.05,5.37-.52.23.06.46.05.69-.03,3.07-2.85,7.02-1.82,10.6-2.39,1.48-.14,2.96-.28,4.44-.43.29-.06.57-.12.86-.17,7.61-.6,15.22-1.19,22.83-1.83,1.08-.09,2.74.09,2.57-1.62-.14-1.53-1.63-1.36-2.82-1.37-3.81-.03-7.61-.08-11.42-.12h0c-.3-.02-.59-.03-.89-.05-4.71-1.09-9.5-.88-14.28-.87-1.18.12-2.36.24-3.53.36.64.54,1.27,1.08,1.91,1.61,1.47.52,3.72-1.39,4.46,1.42,0,0,0,0,0,0-.83.14-1.66.29-2.49.43.31.52.63,1.03.94,1.55-.31-.52-.63-1.03-.94-1.55-.89.07-1.78.13-2.67.2-.92.05-1.84.11-2.76.16h0c-.29-.06-.57-.12-.85-.2-.84.16-1.68.32-2.52.48-.64-.02-1.27-.04-1.91-.06-1.2.16-2.41.32-3.61.47.5.29,1.02.57,1.46.9-.43-.33-.96-.61-1.46-.9-.54.1-1.07.2-1.61.3,0,0,0,0,0,0-1.03-.44-2.35.19-3.22-.86-3.42,1.6-6.87-.08-10.3.1-2.05-.32-4.1-.65-6.15-.97-.22.06-.45.11-.68.14h0c-.98-1.07-2.73-.09-3.62-1.37,1.69-.17,3.37-.34,5.06-.51.26-.29.52-.58.78-.86-.32-.22-.64-.44-.97-.66-2.33.16-4.74-.9-6.99.45,0,.28-.01.57,0,.85.12.92.46,1.19.9,1.17-.44.02-.78-.25-.9-1.17-.17.11-.34.19-.5.26.17-.07.34-.15.5-.26,0-.28,0-.57,0-.85,2.25-1.35,4.66-.3,6.99-.45.58-.39,1.15-.79,1.73-1.18-.33-.56-.67-1.13-1-1.69-2.58.14-5.15.28-7.73.41-.94.23-1.53.38-1.86.55.33-.17.92-.32,1.86-.55-.11-.22-.25-.41-.42-.59-2.61.1-5.23.2-7.84.3-.29.14-.58.29-.87.43-5.33-1.05-10.65,0-15.97.08-.19-.14-.4-.18-.63-.12h0c-.05-.26-.17-.49-.34-.69,1.91-2.76,4.61-1.34,7.04-1.31.88-.08,1.75-.15,2.63-.23,1.42-.95,2.91-.3,4.37-.2.06.22.17.41.31.59,1.04-1.31,2.16-1.17,3.34-.2,2.37-.12,4.73-.25,7.1-.37,1.46-.12,2.92-.24,4.38-.36.89-.14,1.77-.28,2.66-.42,1.23-.7,2.41-.35,3.58.17.61.12,1.22.23,1.82.35l-.18.14.1.21c1.84-.25,3.67-.41,5.45.27-1.46,1.82-3.49.94-5.3,1.11-.26.16-.53.2-.83.11-.89.1-1.79.21-2.68.31.33.56.67,1.13,1,1.69-.58.39-1.15.79-1.73,1.18.32.22.64.44.97.66.34.13.68.27,1.02.4.77-.17,1.53-.34,2.3-.51.99-.47,1.98-.94,2.98-1.4,0,0,0,0,0,0-.99.47-1.99.93-2.98,1.4.16.18.28.37.37.6.57-.03,1.13-.06,1.7-.1,5.35.82,10.71,1.3,16.11.55,0,0,0,0,0,0,.24.05.48.02.71-.07,1.21-.03,2.41-.06,3.62-.09.27-.3.53-.59.8-.89.27-.18.54-.35.81-.53-.27.18-.54.35-.81.53-.27.3-.53.59-.8.89.65.5,1.3,1.01,1.95,1.51,1.31-.86,2.81-1.03,4.32-1.16-.64-.54-1.27-1.08-1.91-1.61-.61-.26-1.22-.51-1.83-.77-.02-.28-.04-.56-.06-.84-.28-.01-.56-.01-.84,0-.02-.11-.04-.23-.06-.34.02.11.04.23.06.34.28-.01.56-.01.84,0,1.48-.09,2.96-.18,4.44-.28,1.17-.12,2.34-.23,3.51-.35,5.93-.63,11.97-.36,17.79-2.04,4.27,1.06,8.44-.53,12.68-.45,1.04.02,2.1-.54,2.11-1.81,0-1.38-1.13-1.56-2.19-1.58-6.09-.15-12.18-.27-18.26-.4-2.04-1.19-4.24-.17-6.35-.44-.61.04-1.21.07-1.82.11h0c-.31-.48-.62-.97-.94-1.45,1.16-.07,2.32-.14,3.48-.21.64-.27,1.38-.43,1.49-1.31.1-1.91-.35-3.32-2.71-3.04-.32-.02-.64-.04-.96-.06.96-2.39,4.12.05,5.09-2.32.53-.91.99-1.78-.39-2.43-2.57-1.2.8-1.05.42-1.77,2.31.05,4.63.14,6.86-.7Zm-3.81-15.58h0c-.03-.24-.07-.49-.1-.74.03.25.06.49.1.74Zm-11-3.87c.32.58.65,1.15.97,1.73-.32-.58-.65-1.15-.97-1.73h0Zm-6.37,5.16c.69-.43,2.51-.29,2.17-1.23h0c.34.94-1.48.8-2.17,1.23Zm2-5.73c.13.04.26.1.39.15-.13-.05-.26-.1-.39-.15,0,0,0,0,0,0Zm-1.66.2c-1.05.16-2.07.43-2.94,1.18,0,0,0,0,0,0,.88-.74,1.89-1.02,2.94-1.18ZM17.21,7.05h0c-.2,0-.4.01-.6.02.2,0,.4-.01.6-.02Zm-1.89.04c-.41-.03-.81-.12-1.13-.28.32.16.72.25,1.13.28Zm-.32,3.88c1.08-.5,2.08-2.12,3.24-1.42,0,0,0,0,0,0-1.16-.7-2.16.92-3.24,1.42Zm-.94,5.14s0,0,0,0c-.18-.52.13-.72.49-.79-.36.07-.66.26-.49.79Zm2.93,12.31c-.02.53-.12,1.07-.4,1.4.28-.33.38-.88.4-1.4.11-.03.22-.07.33-.1-.11.03-.22.07-.33.1Zm10.72-.68c-.32.03-.65.06-.97.09h0c.32-.03.65-.06.97-.09Zm-3.79-.99h0c.02-.19.02-.39.02-.58,0,.19,0,.39-.02.58Zm1.06,2.79c.03.16.06.31.09.47-.03-.16-.06-.31-.09-.47-.5-.27-.72-.65-.83-1.08.11.43.33.81.83,1.08,1.18-.12,2.36-.23,3.54-.35,0,0,0,0,0,0-1.18.12-2.36.23-3.54.35Zm9.3,41.31s0,0,0,0c-.88-.03-1.76-.07-2.64-.1-.8-.07-1.71-.48-2.5-.53.8.05,1.7.46,2.5.53.88.03,1.76.06,2.64.1.53-.2,1.09-.27,1.66-.33-.57.06-1.13.13-1.66.33Zm256.83-12.05h0c-.29.27-.58.55-.9.85.32-.3.61-.58.9-.85Zm-7.02.45c1.25-2,2.69-1.7,4.21-.34h0c-1.13.15-2.27.31-3.4.46-.27-.03-.54-.07-.81-.12-.21.01-.41.02-.62.03.21-.01.41-.02.62-.04Zm-5.21,2.25h0c-.18-.07-.32-.16-.44-.27.12.11.27.19.44.27Zm-27.58.25c.72.07,1.42.2,2.09.39-.67-.19-1.37-.32-2.09-.39h0Zm-2.47,1.96c.47-.04.95-.07,1.36-.19-.41.12-.89.15-1.36.19h0s0,0,0,0Zm-7.15-.34c.29.47.58.94.86,1.41-.29-.47-.58-.94-.86-1.41-.63-.56-1.26-1.11-1.89-1.67.63.56,1.26,1.11,1.89,1.67Zm-1.93-1.68c.31-.34.62-.68.92-1.02h0c-.31.34-.61.68-.92,1.02,0,0,0,0,.02,0h-.02c-.11-.95-.47-1.36-.94-1.53.47.17.82.58.94,1.53Zm56.12-12.13c.41-.01.79.04,1.12.2-.33-.16-.71-.21-1.12-.2-1.03-.04-2.02-.23-3.03-.68,1.01.45,1.99.64,3.03.68Zm-6.35,1.47h0c-.09.25-.19.46-.29.63.1-.18.19-.39.29-.63Zm-4.57-15.75c.59.39,1.16.55,1.71.56-.55-.01-1.11-.16-1.71-.56-.56.46-1.16.4-1.77.29.6.11,1.2.17,1.76-.29Zm-2.92-3.36c.09-.11.18-.21.27-.32-.09.11-.18.21-.27.32-.07.1-.14.19-.22.27.08-.08.15-.16.22-.27Zm.83,14.17c-.56.13-1.08.41-1.52.99h0c.44-.59.97-.87,1.52-.99Zm-4.67-5.9c.02.33.04.66.06.99t0,0c-.02-.33-.04-.66-.06-.99,0,0,0,0,0,0Zm-.5-7.13s-.03.07-.03.07l.03-.07Zm-2.77-.7s0,0,0,0c0,0,0,.04,0,.09,0-.05,0-.09,0-.09Zm1.96.59c-.66-.09-1.31-.18-1.97-.27,0,0,0,0,0,0,.66.09,1.31.18,1.97.27Zm-1.18,1.7c-.03.36-.28.51-.64.56.35-.05.61-.2.64-.56Zm.38,1.31c.59-.06,1.18-.11,1.77-.17-.59.06-1.18.11-1.77.17h0c-1.18.09-2.36.18-3.53.27h0c1.18-.09,2.36-.18,3.53-.27Zm-9.49-7.28s0,0,0,0c.29-.04.57-.07.86-.11-.29.04-.57.07-.86.11Zm.3,4.32c-.23.1-.47.2-.7.29,0,0,0,0,0,0,.24-.09.47-.19.7-.29Zm.06-7.12c-.76.06-1.57.28-2.28.2.71.08,1.52-.14,2.28-.2Zm-1.02-5.19c.1,0,.22-.02.22-.02.28-.05.55-.07.83-.07-.27,0-.54.02-.83.08l-.22.02Zm.85,7.29c.3.13.57.31.75.58h0c-.18-.28-.45-.45-.75-.58Zm.19-2.1c.38-.03.75,0,1.09.11-.34-.12-.7-.14-1.09-.11Zm.52-1.97c.21.07.41.13.62.2.21.35.49.54.81.64-.32-.1-.6-.29-.81-.64-.21-.07-.41-.13-.62-.2Zm.19-3.27c.66.1,1.29.32,1.91.61-.62-.29-1.26-.51-1.91-.61Zm3.34,11.23c-.48.06-.96.11-1.43.06,0,0,0,0,0,0,.47.05.95,0,1.43-.06Zm-1.37-10.6c.27-.75.69-1.24,1.22-1.55-.53.3-.95.8-1.22,1.55h0Zm4.09,19.27c.89-.05,1.77-.09,2.66-.14-.89.05-1.77.09-2.66.14-1.48.11-2.95.22-4.43.33,1.48-.11,2.95-.22,4.43-.33Zm-1.11-2.7s0,0,0,0c.88,0,1.76.02,2.65.02-.53.61-1.07,1.22-1.6,1.82h0c.53-.61,1.07-1.21,1.6-1.82-.88,0-1.76-.02-2.64-.02Zm3.53-.1s.05-.07.05-.07h0l-.05.07Zm-3.7-2.46c-.6.06-1.19.12-1.79.17h0c.6-.06,1.19-.12,1.79-.17-.36-.82-.71-1.64-1.07-2.47h0c.36.82.71,1.64,1.07,2.47.07-.04.15-.06.24-.08-.09.02-.17.05-.24.08Zm.12-9.67c-.55.21-1.11.53-1.67.92,0,0,0,0,0,0,.56-.4,1.12-.71,1.67-.92Zm-6.15-12.07c1.46-.01,2.92-.03,4.38-.04.31-.16.62-.31.93-.47-.01-.48-.02-.96-.04-1.44h0c.01.48.02.96.04,1.44-.31.16-.62.31-.93.47-2.03.53-4.01,2.25-6.15.26.59-.07,1.18-.15,1.77-.22Zm-1.47,16.05h0c.3.62.72,1.09,1.29,1.41-.56-.32-.99-.79-1.29-1.41-.53.08-1.07.17-1.6.25.85,2.05-.86,1.58-1.82,1.85,0,0,0,0,0,0,.96-.26,2.67.21,1.82-1.85.54-.08,1.07-.17,1.6-.25Zm-2.32,3.65c-.34-.25-.68-.49-1.01-.74,0-.03,0-.06-.01-.1,0,.03,0,.06.01.1.34.25.67.49,1.01.74,0,0,0,0,0,0,.22.79.19,1.31,0,1.66.18-.35.21-.87,0-1.66Zm-14.55-14.74c-1.16.07-2.32.14-3.48.21-.52.93-1.05,1.87-1.57,2.8,0,0,0,0,0,0-.62-.26-1.23-.51-1.85-.77h0c.62.26,1.23.51,1.85.77.52-.93,1.05-1.87,1.57-2.8,1.16-.07,2.32-.14,3.48-.21,2.71.37,5.42.75,8.13,1.12.32.26.63.51.95.77.63-.59,1.22-.69,1.8-.57-.57-.12-1.16-.03-1.8.57-.32-.26-.63-.51-.95-.77-2.71-.37-5.42-.75-8.13-1.12Zm3.3,18.28h0s-.06.04-.12.08l.12-.08Zm-2.06-1.44c-.88.01-1.75.03-2.63.04.88-.01,1.75-.03,2.63-.04h0c.62.23,1.24.45,1.86.67l-1.86-.67Zm.31,2.57s0,0,0,0c-.39-.13-1.09.04-1.56.01.46.02,1.16-.14,1.56-.01Zm-2.94-16.55c.56.06,1.12.26,1.7.59.59-.2,1.16-.31,1.7-.32-.54.02-1.11.12-1.7.32-.58-.33-1.14-.53-1.7-.59Zm-6.06,14.44c-.39-.55-.78-1.1-1.17-1.65h0c.39.55.78,1.1,1.17,1.65Zm1.4-6.21s0,0,0,0c-.19-.83-.63-1.35-1.32-1.58.69.22,1.13.75,1.32,1.58Zm-.78,3.62c.29-.03.57-.02.84.03-.28-.05-.56-.07-.84-.03-.12.28-.29.46-.5.59.2-.12.37-.31.5-.59Zm-.81-10.62c-.57.32-1.13.65-1.7.97.57-.32,1.13-.65,1.7-.97.73.62,1.42.87,2.08.73-.66.14-1.35-.11-2.08-.73Zm12.94-5.35c.89-.03,1.78-.07,2.66-.1-.89.03-1.78.07-2.66.1-.75.78-1.64.97-2.56,1.02.92-.06,1.81-.24,2.56-1.02Zm-2.04-.46c.08-.15.16-.31.24-.46-.08.15-.16.31-.24.46,0,0,0,0,0,0Zm5.05,15.07c-.08-.25-.15-.49-.22-.74.07.25.14.49.22.74.81.05,1.63.09,2.44.14.32-.08.64-.17.96-.25-.32.08-.64.17-.96.25,0,0,0,0,0,0-.81-.05-1.63-.09-2.44-.14Zm2.25.55c-.41.76-.99.88-1.61.83.62.06,1.19-.07,1.61-.83Zm-.89-3.87c.58-.11,1.15-.21,1.73-.32h0c.34.04.69.09,1.03.13-.34-.04-.69-.09-1.03-.13-.58.11-1.15.21-1.73.32,0,0,0,0,0,0Zm-1.14,8.87c-.6-.27-1.2-.54-1.8-.81.6.27,1.2.54,1.8.81.91-.39,1.81-.77,2.72-1.16.21-.19.48-.3.78-.38-.3.08-.58.19-.78.38-.91.39-1.81.77-2.72,1.16.02.3.04.6.06.9,1.28.34,2.44.07,3.56-.34-1.12.41-2.28.68-3.56.34-.62.26-1.25.36-1.88.38.63-.02,1.26-.12,1.88-.38-.02-.3-.04-.6-.06-.9Zm2.12-7.35c-.04-.07-.09-.13-.13-.2.04.07.09.13.13.2.59-.03,1.19-.06,1.78-.1-.59.03-1.19.06-1.78.1Zm.36-7.02h0c.86-.06,1.72-.12,2.58-.17.07.26.12.52.15.79-.04-.26-.09-.53-.15-.79-.86.06-1.72.12-2.58.17Zm5.18,2.8c-.35-.1-.84-.02-1.33.05.49-.07.98-.15,1.33-.05Zm-.86-13.07c-.77.3-1.8.1-2.57.39h0c.77-.29,1.81-.09,2.57-.39Zm-9.43.72c.88-.05,1.76-.09,2.64-.14.93.3,1.86.59,2.79.89.96,1.19,2.76,0,3.68,1.29-.29.3-.59.61-.88.91-1.71.99-3.51.37-5.28.29-1.69-1.2-3.56-.25-5.34-.46,0,0,0,0,0,0-2.32-1.2-5.29-.09-7.4-2.04,3.19-1.22,6.57.08,9.79-.75Zm-13.61-4.13c.08.21.12.4.14.57-.02-.17-.06-.36-.14-.57h0Zm-.45,4.19c1.14.11,2.28.21,3.43.32,0,0,0,0,0,0,0,.13,0,.26,0,.38,0-.13,0-.26,0-.38-1.14-.11-2.28-.21-3.43-.32-.42-.44-.84-.88-1.25-1.33.42.44.84.88,1.25,1.32Zm-1.78,1.22c.77.44.89,1.13.95,1.85-.06-.72-.18-1.41-.95-1.85h0Zm2.48,10.47c.29-.03.53,0,.74.07-.21-.07-.45-.1-.74-.07-1.95,2.29-5.39-2.2-7.02,1.54,0,0,0,0,0,0,1.63-3.74,5.07.75,7.02-1.54Zm-2.57,9.05c-.06,0-.12.01-.18.02-.29.04-.57.08-.86.1.29-.02.57-.05.86-.1.06,0,.12-.01.18-.02Zm-4.25-6.8c-.09-.18-.14-.36-.17-.56.03.19.08.38.17.56.25.02.51.03.77.01-.26.01-.51.01-.77-.01Zm.62.87c-.23.02-.45.02-.68.02h0c.22,0,.45,0,.68-.02Zm.36-12.37c-.28.1-.54.25-.76.49.22-.24.48-.39.76-.49Zm-1.19-1.8c.12.13.25.23.37.32-.13-.09-.25-.19-.37-.32-.02-.3-.05-.59-.07-.89.02.3.05.59.07.89Zm-1.04,26.82c-.75-.06-1.51-.03-2.27-.04,0,0,0,0,0,0,.76,0,1.52-.03,2.26.04Zm-4.31-26.57c1.25.35,2.43-.48,3.66-.64-1.22.16-2.41.99-3.66.64,0,0,0,0,0,0Zm-1.13,1.14c.62.06,1.32-.16,1.98-.21-.65.05-1.36.26-1.98.21-.04.16-.08.31-.13.45.05-.14.09-.29.13-.45Zm-.17,5.29c.26-.25.51-.5.77-.76.69.07,1.38.15,2.08.22-.69-.07-1.38-.15-2.08-.22,0,0,0,0,0,0-.26.25-.51.5-.77.76-.19.04-.38.05-.57.06.19-.01.38-.02.57-.06Zm.44,4.45c.55-.43.68-.97.67-1.53,0,.56-.12,1.1-.67,1.53-.02.29,0,.57.06.85.52-.22,1.07-.4,1.61-.6-.54.2-1.09.38-1.61.6,0,.56,0,1.13,0,1.69,0-.56,0-1.13,0-1.69-.06-.28-.08-.57-.07-.85Zm-6.82,4.93c-.32-.54-.63-1.08-.95-1.62h0c.25-.13.51-.24.79-.32.29-.27.58-.54.87-.81-.29.27-.58.54-.87.81.63.06,1.25.11,1.88.17.61.47,1.23.94,1.84,1.41.58.03,1.17.05,1.75.08.22.22.39.52.56.81-.17-.3-.34-.59-.56-.81-.58-.03-1.17-.05-1.75-.08-.61-.47-1.23-.94-1.84-1.41-.63-.06-1.25-.11-1.88-.17-.27.08-.53.19-.79.32.32.54.63,1.08.95,1.62Zm4.03-15.47c.05-.03.11-.05.16-.06h0c-.05.02-.11.04-.16.06Zm1.46,2.02s0,0,0,0c-.13-.67-.27-1.34-.4-2.01.13.67.27,1.34.4,2.01Zm-5.1-4.24c1.23-.1,2.67.58,3.85.27-1.17.31-2.62-.37-3.85-.27,0,0,0,0,0,0Zm-.44,1.91c-.05.23-.11.46-.16.69h0c.05-.23.11-.46.16-.69Zm-.44,8.7s0,0,0,0c-.32-.27-.64-.54-.96-.81.32.27.64.54.96.81Zm-1.23,8.12c.61.25,1.22.51,1.83.76-.61-.25-1.22-.5-1.83-.76,0,0,0,0,0,0Zm1.44,4.95c-.52-.41-1.19-.54-1.97-.48-.12.27-.27.47-.47.62.19-.15.35-.35.47-.62.78-.06,1.45.07,1.97.48Zm-1.98-24.61s0-.08-.01-.17v.17Zm.54,2.33c-.49.48-1.3.53-2.1.61,0,0,0,0,0,0,.8-.08,1.62-.14,2.1-.61Zm-5.49,26.61c.02.27.04.54.07.81-.03-.27-.05-.54-.07-.81-.01-.29-.03-.58-.05-.87.18-.44.36-.89.53-1.34-.18.44-.36.89-.53,1.34,0,0,0,0,0,0,.02.29.04.58.05.87Zm-1.19-3.39c-1.14,0-2.28.01-3.42.02,1.14,0,2.28-.01,3.42-.02.3-.06.61-.11.91-.17-.39-1.14-.78-2.28-1.16-3.43-.44-.01-.88-.04-1.24-.23.36.19.8.22,1.24.23.56-.34,1.12-.67,1.68-1.01.04.26.09.52.13.78-.05-.26-.09-.52-.13-.78-.56.34-1.12.67-1.68,1.01.39,1.14.78,2.29,1.16,3.43-.3.06-.61.11-.91.17.62.23,1.25.45,1.87.68,0,0,0,0,0,0-.62-.23-1.25-.45-1.87-.68Zm-2.48-22.13c-.15-.27-.34-.45-.56-.58.22.12.41.3.56.58.2-.01.39-.02.59-.04-.2.01-.39.03-.59.04Zm.39,17.79s0,0,0,0c-.16-.28-.36-.46-.58-.59.23.13.42.31.58.59Zm1.1-.34c.27-.16.49-.4.65-.75h0c-.15.36-.37.59-.65.75Zm2.15-4.4h0c.32.26.63.51.95.77-.32-.26-.63-.51-.95-.77Zm.41,5.28s0,0,0,0h0c.37,1.17.75,2.34,1.12,3.51-.37-1.17-.75-2.34-1.12-3.51Zm-.42-9.36c1.16-.05,2.3.25,3.43,1.02.24-.31.48-.63.72-.94-.03-.53-.06-1.05-.09-1.58.03.53.06,1.05.09,1.58-.24.31-.48.63-.72.94-1.13-.77-2.27-1.08-3.43-1.02Zm1.82-7.52h0c-.63-.55-1.26-1.11-1.9-1.66.63.55,1.26,1.11,1.9,1.66Zm-1.69,9.84c-.68.03-1.36.05-2.04.08-.33-.53-.66-1.06-.98-1.59.33.53.66,1.06.98,1.59.68-.03,1.36-.05,2.04-.08Zm-5.56-12.07c-1.37,1.31-2.93.29-4.4.36-.03-.29-.06-.58-.09-.87.03.29.06.58.09.87,1.47-.07,3.03.95,4.4-.36.72-.87,1.69-.99,2.68-1.02-.99.03-1.95.14-2.68,1.02Zm-2.65,21.7c.42.29.25.68.09,1.06.16-.38.33-.77-.09-1.06Zm1.68,1.56c.29.31.54.37.77.3-.23.06-.47,0-.77-.3-.58-.02-1.16-.03-1.74-.05.58.02,1.16.03,1.74.05Zm.53-16.9h0s0,.06.01.12v-.12Zm.04.7c0,.07,0,.13,0,.13h0v-.13Zm-3.23,4.61s0,.12-.01.22v-.22h.01Zm-2.51,2.11c-.58-.47-1.37-.24-2.14-.07.77-.17,1.55-.4,2.14.07.83-.59,1.66-1.18,2.49-1.77-.83.59-1.66,1.18-2.49,1.77Zm1.41,7.01h0c-.34.08-.68.16-1.01.24.34-.08.68-.16,1.01-.24Zm-2.66,12.73s0,0,0,0c1.47-.07,2.94-.13,4.41-.2.7.51,1.87-.4,2.69-.26-.82-.14-1.99.77-2.69.26-1.47.07-2.94.13-4.41.2Zm3.66,1.57c.49-.07.98-.13,1.48-.2-.49.07-.98.13-1.48.2-.91,1.07-2.23.93-3.49.98,1.26-.05,2.58.09,3.49-.98Zm-3.98,5.49h0c-.07-.87-.13-1.74-.2-2.61.07.87.13,1.74.2,2.61Zm2.12,5.39c.03.46.05.92.08,1.38-.03-.46-.05-.92-.08-1.38-1.18-.05-2.37-.09-3.55-.14,0,0,0,.02.01.04,0-.02-.01-.04-.01-.04h0c1.18.05,2.37.09,3.55.14Zm-2.43,2.62h0s0,0,0,0c-.27.16-.53.31-.8.44.27-.14.54-.29.8-.44Zm-1.94-1.6c.61.3,1.21.61,1.82.91.04.23.08.45.12.68h0c-.04-.23-.08-.45-.12-.68-.61-.3-1.21-.61-1.82-.91Zm.9-.84s0,0,0,0c-1.48-.17-2.95-.33-4.43-.5,1.48.17,2.95.33,4.43.5Zm-13.53-1.87h0c1.43-.13,2.85-.26,4.28-.38.05-.62-.14-.97-.46-1.18.32.21.51.56.46,1.18-1.43.13-2.85.26-4.28.38Zm3.07,5.16s0,0,0,0c-.62-.53-1.24-1.05-1.86-1.58.62.53,1.24,1.05,1.86,1.58Zm-.44-18.73c-1.5.17-3.01.35-4.51.52,0,0,0,0,0,0-.26-.04-.51-.07-.77-.1,0,0,0,0,0,0,.26.03.51.07.77.1,1.5-.17,3.01-.35,4.51-.52-.02-.24-.04-.48-.05-.72,0,.24.02.48.05.72,1.11.62,2.27.98,3.56.7.22-.22.45-.44.67-.66-.22.22-.45.44-.67.66-1.29.28-2.45-.08-3.56-.7Zm-3.03,7.41c-.11.32-.25.61-.43.87.18-.26.32-.55.43-.87h0Zm-1.07-2.64c-.25.64-.5,1.29-.75,1.93,0,0,0,0,0,0,.25-.64.5-1.29.75-1.93Zm-3.26-3.2c1-.01,1.97-.15,2.79-.99-.82.84-1.79.98-2.79.99Zm15.09,7.75c-.6.02-1.19.04-1.79.06-.49.02-1.12-.46-1.59-.43.47-.03,1.1.45,1.59.43-.09-.33-.24-.63-.41-.92.18.29.33.59.41.92.6-.02,1.19-.04,1.79-.06.03.52.05,1.03.08,1.55,0,0,.02.08.03.16l-.03-.16h0c-.03-.51-.05-1.03-.08-1.55Zm-3.26-2.33c-.18-.26-.34-.52-.46-.8.12.28.28.55.46.8Zm-.62-4.36c.16.31.41.55.81.7h0c-.4-.15-.65-.39-.81-.7Zm.82,1.02c0,.06,0,.11,0,.11v-.11Zm4.53-22.96c.2-.38.48-.6.81-.73-.33.13-.61.35-.81.73-1.16-.17-2.32-.34-3.48-.51,1.16.17,2.32.34,3.48.51Zm-2.03-4.14h0c.25.45.51.75.77.95-.27-.2-.53-.51-.77-.95Zm4.22,10.11s0,0,0,0c-.99.97-2.07.91-3.17.73,1.1.17,2.18.24,3.17-.73Zm-1.19-16.66c-.89.08-1.77.15-2.66.23.89-.08,1.77-.15,2.66-.23h0Zm-2.36,3.71h0c-1.22.08-2.44.17-3.66.25,1.22-.08,2.44-.17,3.66-.25Zm-3.64,23.42c-.04-.6-.09-1.19-.13-1.79h0c.04.6.09,1.19.13,1.79Zm-.56,4.64l-.04-.26v-.31c0,.12,0,.31,0,.31,0,0,.03.19.04.26Zm3.4,9.27s0,0,0,0c-1.43.81-2.98.08-4.49-.1,1.51.19,3.06.91,4.49.1Zm2.7,1.68c-.58.04-1.15.08-1.73.12.58-.04,1.15-.08,1.73-.12.35.77.69,1.55,1.04,2.32-.35-.77-.69-1.55-1.04-2.32Zm-1.38-6.96c-.47.38-.67.8-.73,1.25.07-.45.26-.87.73-1.25.51.61,1.01,1.22,1.52,1.83-.51-.61-1.01-1.22-1.52-1.83Zm-2.42-17.71c-.11,1.76,2.31,1.16,3.03,2.15,1.18.76,2.4-.02,3.6-.21-1.2.18-2.42.96-3.6.21-.72-.99-3.14-.39-3.03-2.15Zm5.05-2.31c-.34-1.42,1.38-1.44,2.31-1.99-.92.56-2.64.57-2.31,1.99Zm.98-9.61c.19.28.38.55.58.83,1.17-.49,2.38-.45,3.6-.37-1.21-.08-2.42-.12-3.6.37-.19-.28-.38-.55-.58-.83Zm7.62-11.22c.97-.02,1.98-.22,2.77.6.03.62.06,1.25.09,1.87-2.07.15-4.14.31-6.21.46-.38-.58-.76-1.15-1.15-1.73,1.42-.69,3.34.48,4.49-1.2Zm-3.76,9.09s0,0,0,0c-1.11.67-2.56.18-3.7.73,1.14-.55,2.59-.06,3.7-.73Zm-3.57-12.19c.12.04.24.06.36.08-.12-.02-.24-.05-.36-.08-.03-.12-.04-.24-.04-.35,0,.11.01.22.04.35Zm-15.11.31c-.21.02-.41.05-.61.1.19-.05.4-.09.61-.1-.19-.36-.46-.55-.77-.66.31.11.58.3.77.66Zm-1.73.94c.52.04,1.09-.05,1.58.05-.49-.1-1.06,0-1.58-.05,0,0,0,0,0,0Zm-14.96.95v-.22c0,.1,0,.22,0,.22Zm-4.49-.42c1.09-.05,2.18-.11,3.27-.16-1.09.05-2.18.11-3.27.16-.23-.34-.58-.49-.97-.61.39.11.75.26.97.61Zm-.73,2.02c-.04-.55-.07-1.1-.11-1.64.04.55.07,1.1.11,1.64,2.01-1.04,4.24,1.44,6.2-.41-.32-.4-.65-.79-.97-1.19,1.79-.36,3.8.52,5.4-.95,1.05-.08,2.1-.15,3.15-.23.4-.02.8-.09,1.2-.16-.4.07-.8.14-1.2.16.06.3.22.53.47.7.09.57.18,1.14.28,1.71.42-.34.84-.69,1.26-1.03,2.35-.03,4.7-.06,7.05-.09,0,0,0,0,0,0,.34.11.69.22,1.03.33,1.86-1.36,3.66-.87,5.44.2,1.49-.46,2.96-.57,4.4.19.61.29,1.22.59,1.83.88,1.1-.36,2.16-.5,2.98.58-.82,1.45-1.89,1.13-3.01.41.09.19.15.4.17.61-1.23-.49-2.36.03-3.52.33-.92-.62-1.85-1.24-2.77-1.86-.99.9-2.18,1.33-3.48,1.48-.29,0-.58.01-.88.02,0,1.41-.23,2.22-.62,2.66.39-.44.63-1.25.62-2.66-.51-.04-1.02-.07-1.53-.11-2.79-1.57-6.51,1.31-8.97-1.83-1,.1-2,.2-2.99.3-.28-.11-.57-.11-.85,0-.12,2.28-.02,4.75-3.4,2.22-.73-.55-1.95-.2-2.6.79-1.56-1.76-4.05,1-5.53-1.15.67-.46.9-1.12.89-1.9Zm19.76,26.65c-.03-.44-.05-.89-.08-1.33,1.72-.16,3.43-.32,5.15-.48-1.72.16-3.43.32-5.15.48.03.44.05.89.08,1.33Zm3.32-14.24h0c.48.05,1.02-.05,1.54-.1-.52.04-1.06.14-1.54.1Zm.75,1.16c-.49.07-.97.28-1.45.66-.04-.41-.07-.83-.11-1.24.04.41.07.83.11,1.24.47-.38.96-.59,1.45-.66Zm-.22,5.14s0,0,0,0c-.03-.32-.07-.64-.1-.96.03.32.07.64.1.96Zm-.66-8.01h0c-2.27.11-4.55.21-6.82.32-1.03-.55-2.1-.51-3.17-.43,1.07-.08,2.15-.12,3.17.43,2.27-.11,4.55-.21,6.82-.32,1.5-.16,3-.32,4.49-.47-1.5.16-3,.32-4.49.47Zm-4.98,4.78s0,0,0,0c.58-.01,1.15-.06,1.71-.15-.56.09-1.13.14-1.7.15Zm-12.32,1.73c-.54.34-1.09.69-1.64,1.03-.04-.26-.08-.53-.11-.79.04.26.07.53.11.79.55-.34,1.09-.68,1.64-1.03Zm-1.48-6.87c.1.23.19.47.27.71.27-.02.54,0,.8.04-.27-.05-.53-.06-.8-.04-.08-.24-.17-.48-.27-.71Zm2.94,2.31c1.42.75,2.76.36,4.1-.01-1.34.38-2.68.77-4.1.02-.57-.47-1.13-.95-1.7-1.42.57.47,1.13.95,1.7,1.42Zm-.2-5.91c.56.1,1.12.27,1.67.51,0,0,0,0,0,0-.55-.24-1.1-.41-1.67-.51Zm5.28,7.35c-.57,0-1.11.06-1.5.43.39-.37.93-.44,1.5-.43Zm-2.09,1.91h0c-.36.01-.72.03-1.07.04.36-.01.72-.03,1.07-.04Zm-3.72-1.67c-.04-.5-.08-1-.11-1.5.04.5.08,1,.11,1.5.82.19,1.62.4,2.18.99-.56-.59-1.36-.8-2.18-.99Zm1.12,1.81c-.32.08-.64.15-.94.27.3-.12.62-.19.94-.27,0,0,0,0,0,0Zm-2.68,11.76s0,0,0,0c1.45-.42,2.9-.83,4.35-1.25h0c-1.45.42-2.9.83-4.35,1.25-.66.2-1.32.4-1.98.6.66-.2,1.32-.4,1.98-.6Zm.46-4.39c.34.57.68,1.13,1.02,1.7.13.02.25.03.38.03-.13,0-.25,0-.38-.03-.34-.57-.68-1.13-1.02-1.7-.08-.61-.16-1.22-.24-1.84,0,0,0,0,0,0,0,0,0,0,0,0,0-.12.02-.24.03-.35,0,.12-.02.24-.03.35.08.61.16,1.22.24,1.84,1.75-.43,3.49-.86,5.24-1.3-.03-.32-.07-.64-.1-.95-.15-.1-.3-.21-.45-.31.15.1.3.21.45.31.39-.69.97-.85,1.59-.89-.62.04-1.2.2-1.59.89.03.32.07.64.1.95,2.02-.15,4.05-.29,6.07-.44,0,0,0,0,0,0,.25-.3.66-.37,1.09-.42-.43.05-.84.13-1.09.42-2.02.15-4.05.29-6.07.44-1.75.43-3.49.86-5.24,1.3Zm8.07-11.28s0,0,0,0c.26,0,.52,0,.78-.01-.26,0-.52,0-.78.01Zm.98,1.76c.59-.05,1.19-.1,1.78-.16-.59.05-1.19.1-1.78.16,0,0,0,0,0,0Zm.82-12.07c.04.1.08.22.1.36-.1.03-.2.07-.31.1.11-.03.21-.07.31-.1-.02-.14-.06-.26-.1-.36Zm.61,5.66s0,0,0,0c-.67-.53-1.34-1.06-2.01-1.58.67.53,1.34,1.05,2.01,1.58Zm7.63.93c.36,0,.73-.07,1.1-.21-.37.13-.74.2-1.1.21Zm1.62-.43c.14-.08.28-.16.42-.26.25-.3.48-.52.7-.68-.22.16-.46.38-.7.68-.14.1-.28.18-.42.26Zm1,5.99c.26-.08.51-.18.76-.31-.24.13-.49.23-.76.31.14.37.29.66.44.9.16.23.32.41.49.53-.17-.12-.33-.3-.49-.53-.16-.23-.3-.53-.44-.9Zm.42,7c-.33-.29-.66-.57-.99-.86h0c.33.29.66.57.99.86Zm.79-2.84s0,0,0,0c-.13.14-.25.28-.38.42.13-.14.25-.28.38-.42Zm-.13,6.09c-.77-.12-1.54-.15-2.24.5h0c.7-.65,1.47-.62,2.24-.5Zm-24.88-18.43c.28.29.56.58.84.87-.28-.29-.56-.58-.84-.87-1.28-1.74-2.68-1.21-4.08-.73,1.4-.48,2.8-1.01,4.08.73Zm.29,16.06s-.02.09-.02.1c0,0,0,0,0,0,0,0,0-.05.02-.1Zm-2.4,16.12s0,0,0,0c.03.29.05.59.07.88,0,.29,0,.59-.02.88-.55.06-1.09.12-1.64.17.55-.06,1.09-.12,1.64-.17.02-.29.03-.58.02-.88-.02-.29-.05-.59-.07-.88Zm1.15,12.87c-.15-.25-.4-.49-.69-.73.28.24.53.48.69.73Zm-.46-15.42c.3-.07.6-.14.91-.22.01-.07,0-.15.01-.22,0,.07,0,.15-.01.22-.3.07-.61.14-.91.22Zm-11.95,6.07h0c.95.54,1.91,1.07,2.86,1.61,0,0,0,0,0,0-.41.61-.85.76-1.3.72.45.04.89-.11,1.3-.72-.96-.54-1.91-1.07-2.86-1.61Zm5.19-26.14h0c.28-.31.55-.54.81-.68-.26.15-.53.37-.81.68Zm.06.93h0c-.01-.15-.02-.31-.03-.46.01.15.02.31.03.46Zm-.26,7.05c.57-.05,1.14-.1,1.72-.14-.57.05-1.14.1-1.72.14-.36-.26-.72-.53-1.07-.79-.56-.36-1.14-.45-1.73-.44.59-.01,1.17.08,1.73.44,0-.36.02-.7.13-1.01-.11.31-.14.65-.13,1.01.36.26.72.52,1.07.79Zm-.45-4.4c.05.61.1,1.22.15,1.83h0c-.05-.61-.1-1.22-.15-1.83Zm2.17,4.26h0c.25-.57.5-1.13.75-1.7-.25.57-.5,1.13-.75,1.7.04.63.08,1.26.13,1.89.27-.02.53-.05.79-.09-.26.04-.53.07-.79.09-.29.29-.59.59-.88.88.29-.29.59-.59.88-.88-.04-.63-.08-1.26-.13-1.89Zm1.42,7.94c.03.87.06,1.75.08,2.62-1.2.1-2.4.2-3.49-.13,1.09.33,2.29.23,3.49.13-.03-.87-.06-1.75-.08-2.62Zm-1.19,8.07c-.62,1.26-1.42,1.66-2.29,1.69.87-.04,1.67-.43,2.29-1.69h0Zm-3.54-23.69c.17.07.34.14.51.21-.17-.07-.34-.14-.51-.21h0c.25-.59.5-1.19.74-1.78.55-.06,1.1-.12,1.64-.18-.55.06-1.1.12-1.64.18-.25.59-.5,1.19-.74,1.78Zm-.3-5.21c.27.52.61,1.07.66,1.53-.05-.46-.38-1-.66-1.53,1.46.17,2.93.35,4.39.52-1.46-.17-2.93-.35-4.39-.52Zm.27,5.21c-1.48.14-2.97.28-4.45.42,0,0,0,0,0,0,1.48-.14,2.97-.28,4.45-.42Zm-2.45,3.65c.18-.28-.62-.99-.78-1.4.16.41.96,1.12.78,1.4-.64.09-1.29.25-1.87.07.58.19,1.23.02,1.87-.07Zm-1.3,5.46c.33.3.66.6.99.9-.33-.3-.66-.6-.99-.9,0,0,0,0,0,0Zm2.79,1.71h0c.86-.31,1.72-.68,2.62-.61-.9-.07-1.76.3-2.62.61Zm2.57,10.45c.32.27.64.53.95.79-.32-.26-.64-.53-.95-.79-.61-.33-1.22-.66-1.82-.99.61.33,1.22.66,1.82.99Zm5.89,6.69c-2.37.16-4.8-.02-7.11.55,0,0,0,0,0,0,2.31-.57,4.74-.39,7.11-.55Zm-1.02-24.89c-.05-.59-.1-1.19-.14-1.78-.02-.29-.04-.58-.07-.88,0,0-.02-.01-.04-.02l.04.02c.02.29.04.58.07.88.05.59.1,1.19.14,1.78,0,0,0,0,0,0Zm-3.63-.65c-.58.04-1.16.07-1.74.11h0c.58-.04,1.16-.07,1.74-.11h0c.86.4,1.74.69,2.67.72-.93-.03-1.81-.32-2.67-.72Zm1.54-1.65s.09-.09.13-.14h0s-.09.09-.13.14Zm-3.62-10.94c-.48.01-.91.21-1.22.87.31-.66.74-.86,1.22-.87Zm-1.39,1.32c.04-.14.09-.26.14-.37-.05.11-.1.23-.14.37,1.47-.1,2.95-.2,4.42-.3.41.55.92.71,1.46.73-.54-.02-1.05-.17-1.46-.73-1.47.1-2.95.2-4.42.3-.06.07-.12.13-.17.2.06-.07.12-.13.17-.2Zm-5.98-6.78c.7.2,1.4.46,2.11.63-.71-.17-1.4-.43-2.11-.63h0Zm-.57,9.97c1.19-.06,2.53-.49,3.29.54.56-.04,1.13-.08,1.69-.13.29-.28.58-.57.87-.85,0,0,.06-.09.06-.09,0,0-.05.09-.06.09h0c-.29.28-.58.57-.87.85.36.59.72,1.18,1.08,1.77h0c-2.06.15-4.13.3-6.19.45h0c2.06-.15,4.13-.3,6.19-.45-.36-.59-.72-1.18-1.08-1.77-.56.04-1.13.08-1.69.13-1.18.12-2.37.24-3.55.36h0c-.21.17-.42.32-.64.43.22-.11.43-.25.64-.43,1.18-.12,2.37-.24,3.55-.36-.76-1.02-2.1-.6-3.29-.54Zm-2.7-7.93c.66.25,1.33.5,2,.75-.67-.25-1.33-.5-2-.75h0Zm-.23,20.5v.02c.33-.5.67-.85,1.02-1.1-.35.24-.69.6-1.02,1.1,0,0,0-.01,0-.02Zm1.01,2.04c-.03-.4-.06-.79-.1-1.19t0,0c.03.4.06.79.1,1.19Zm-1.13-16.22c-.55.66-1.1,1.32-1.65,1.99,0,0,0,0,0,0,.55-.66,1.1-1.32,1.65-1.99Zm-.42,7.16c-.34-.25-.69-.5-1.03-.76t0,0c.34.25.69.51,1.03.76Zm-26.74,24.46c.96.18,1.93.37,2.89.55,0,0,0,0,0,0-.96-.18-1.92-.37-2.89-.55Zm2.31,5.64c-.31.11-.62.22-.92.34.31-.11.62-.22.92-.34,0,0,0,0,0,0Zm-17.28,5.77c.41,0,.82,0,1.23,0-.41,0-.82,0-1.23,0-.64.12-1.28.25-1.92.37,0,0,0,0,0,0,.64-.12,1.28-.24,1.92-.37-.96-.78-1.91-1.56-2.87-2.34,1.43-.29,2.87-.48,4.31-.6-1.44.12-2.88.31-4.31.6.96.78,1.92,1.56,2.87,2.34Zm-.66,2.7s0,0-.01.02v-.02h.01Zm-3.25-6.77h0c.3.54.59,1.08.89,1.62,0,0,.02.01.03.02-.01,0-.03-.02-.03-.02h0c-.3-.54-.59-1.08-.89-1.62Zm-10.73.61c.92.16,1.87.12,2.83.08.26-.32.52-.64.78-.96.29,0,.57,0,.86-.03-.29.02-.57.03-.86.03-.26.32-.52.64-.78.95,0,0,0,0,0,0-.95.04-1.9.08-2.83-.08Zm2.14,3.59c.03.27.03.54,0,.81-.27.03-.54.07-.81.12.27-.05.54-.09.81-.12.04-.27.04-.54.01-.81Zm-18.36-31.31c-2.05.06-4.09.11-6.14.17-3.28-.34-6.55-.67-9.83-1.01.24-.79.94-.96,1.61-1.16,0-.23,0-.47,0-.71.61-.06,1.21-.12,1.82-.18,2.08.36,3.16-.6,3.44-2.61.19-.08.39-.09.59-.03h0c1.45,1.7,2.86,4.01,4.72.36.52-.03,1.04-.05,1.56-.08h0c.41,1.91,1.88,1.41,3.12,1.36,2.61-.1,5.21-.24,7.82-.37,1.21.39,2.31-.09,3.43-.41,5.62-.1,11.24-.19,16.87-.29.88-.14,1.77-.28,2.65-.42h0c-.88.14-1.77.28-2.65.42.57.32,1.14.65,1.71.97.38,2.9-1.04,3.64-3.74,3.56-2.73-.09-5.54-.52-8.21.56-6.25-1.12-12.51.03-18.77-.15Zm13.33,2.45c-.21.04-.5-.04-.77-.08.26.04.55.12.77.08Zm-1.43,12.36c-.25.48-.5.89-.76,1.2.26-.32.51-.73.76-1.2h0Zm-3.3,8.11c-.09-.3.15-.61,1.12-.96,0,0,0,0,0,0-.97.35-1.21.66-1.12.96Zm-.13-5c.38.41.51.78.5,1.12,0-.34-.13-.71-.5-1.12-.72.01-1.44.03-2.16.04.72-.01,1.44-.03,2.16-.04Zm-.24-2.77s0,0,0,0c.46.79.89,1.26,1.29,1.46-.4-.2-.83-.66-1.29-1.46Zm.69-3.54c.01.29.03.57.05.86-.02-.29-.04-.57-.05-.86.28-.34.56-.68.84-1.02-1.32-.8-2.54-.31-3.77.11,1.23-.41,2.46-.9,3.77-.11,0,0,0,0,0,0-.28.34-.56.68-.84,1.02Zm-2.86.49c-.24.21-.42.51-.51.97.09-.46.27-.77.51-.97Zm2.57-4.08s0,0,0,0c.57-.33,1.14-.65,1.71-.98-.57.33-1.14.65-1.71.98Zm1.9,1.63h0c-.1.13-.21.25-.31.38.1-.13.21-.25.31-.38Zm-6.69,5.91c-.28-.04-.56,0-.82.12,0,0,0,0,0,0-2.39-.2-4.78-.41-7.16-.61-1.19.17-2.37.34-3.56.51.34.24.68.48,1.03.72-.34-.24-.68-.48-1.03-.72-1.2-.23-2.41-.47-3.61-.7,2.22-2.35,4.65-1.61,7.12-.5.97-.8,2.08-1.26,3.35-1.31.56-.62,1.12-1.23,1.68-1.85-.9-.2-1.79-.4-2.69-.6.9.2,1.79.4,2.69.6h0c-.56.62-1.12,1.23-1.68,1.85,1.5-.07,2.99-.15,4.49-.22,1.06.83.94,1.75.19,2.71Zm.23,2.53c-.34.09-.71.12-1.07.16.36-.05.73-.07,1.07-.16,0,0,0,0,0,0Zm-2.55,1.28c-.02-.09-.05-.18-.08-.28h0c.04.1.06.19.08.28Zm-8.11,12.18c-.86.06-1.73.11-2.59.17.86-.06,1.73-.11,2.59-.17.69.72.89,1.21.81,1.58.08-.37-.12-.86-.81-1.58Zm-4.3,4.56c-.37-1.37,1.4-.71,2.05-1.12,0,0,0,0,0,0-.64.41-2.42-.25-2.05,1.12Zm.34.96l-.04-.24h0s.03.15.04.24Zm1.55-14.27c-.31-.29-.62-.58-.92-.87h0c0-.3,0-.61-.01-.91h0c.7-.39,1.22-1.07,1.88-1.52-.66.45-1.19,1.13-1.88,1.52,0,.3,0,.6.01.91.31.29.62.58.93.87.01.78,1.92.23,1.12,1.58,0,.27,0,.54-.02.82.01-.27.02-.54.02-.82.8-1.35-1.1-.8-1.12-1.58Zm-3.28,2.54h0c.96-.9,2.12-.86,3.26-.88-1.15.02-2.31-.02-3.26.88Zm1.88,1.72c-.38-.05-.76-.13-1.13-.27.37.15.75.22,1.13.27Zm-2.74-.33c.29-.14.63-.21.97-.26,0,0,0,0,0,0-.35.05-.68.12-.97.26Zm-2.42-10.97c-.34.09-.68.18-1.02.28,0,0,.09.15.09.15h0l-.09-.15s0,0,0,0c.34-.09.68-.19,1.02-.28.1-.2.19-.41.27-.61-.08.21-.17.41-.27.61,1.15.03,2.29.05,3.44.08h0c-1.15-.02-2.29-.05-3.44-.08Zm1.12,4.62c-.3.33-.59.67-.89,1h0c.3-.34.59-.67.89-1Zm-8.11,10.23c-.04.39-.08.79-.12,1.19,0,0,0,0,0,0,.04-.4.08-.79.12-1.19h0c2.65-.18,5.3-.35,7.96-.53,0,0,0,0,0,0-2.65.18-5.31.35-7.96.53Zm4.09,2.52c-.2.32-.46.57-.79.73.32-.16.59-.4.79-.73Zm-8-42.86c.03.28.06.56.08.84-.03-.28-.06-.56-.08-.84-.84.35-1.66.91-2.51,1.01.85-.1,1.68-.66,2.51-1.01Zm-.98,2.05c.29-.26.64-.44,1.14-.41h0c-.5-.02-.85.15-1.14.41Zm.64,5.9h0c-.02-.86-.05-1.71-.07-2.57.02.85.05,1.71.07,2.57Zm-2.36,4.08c.04.17.07.34.09.52-.25.27-.51.54-.76.82.25-.27.51-.54.76-.82-.02-.18-.05-.36-.09-.52Zm.25,2.16s0,0,0,0c1.14-.33,2.29-.67,3.43-1h0c-1.14.33-2.29.67-3.43,1-.34.36-.67.71-1.01,1.07,0,0,0,0,0,0,.34-.36.67-.71,1.01-1.07Zm4.37-22.69c-.18-.39-.49-.78-.35-1.16-.15.39.17.77.35,1.16Zm2.22,28.57c-.9.3-1.8.6-2.7.9,0,0,0,0,0,0,.9-.3,1.8-.6,2.7-.9Zm2.6-27.79c-.74,0-1.47-.09-2.19-.34-.24-.09-.48-.19-.72-.32h0c.24.13.48.23.72.32.72.26,1.45.34,2.19.34Zm-1.44-2.35c.06-.07.12-.14.18-.21h0c-.06.07-.12.14-.18.21Zm-1.17,5.06c.3-.02.61-.04.91-.06.71-.91,1.66-.9,2.61-.89-.95-.01-1.9-.03-2.61.89-.3.02-.61.04-.91.06-.33.35-.66.7-.98,1.05-.22.01-.45.04-.67.08.22-.04.44-.06.67-.08.33-.35.66-.7.98-1.05Zm3.58.75c.01.27.02.55.03.83-.46.07-.92.14-1.38.21.46-.07.92-.14,1.38-.21,0-.28-.02-.55-.03-.83Zm4.48-.38c.51.03,1.02.07,1.53.1.63-.14,1.25-.29,1.67-.79-.42.5-1.04.65-1.67.79,0,0,0,0,0,0-.51-.03-1.02-.07-1.53-.1-1.2-.44-2.39-.89-3.59-1.33,1.2.44,2.39.89,3.59,1.33Zm-2.07-3.3h0c.18.2.36.39.55.56-.19-.17-.38-.36-.55-.56Zm1.8,1.48c.31.18.64.32.97.44-.33-.12-.66-.26-.97-.44Zm2.61-1.8h0c-.05-.82-.1-1.64-.15-2.46.36-.04.71-.09,1.07-.13-.36.04-.71.09-1.07.13.05.82.1,1.64.15,2.46Zm1.58,8.96s0,0,0,0c-.48.07-.97.14-1.45.19.48-.05.97-.12,1.45-.19Zm-4.17,13.41l1.44-.15c.02-.28.04-.56.05-.84h0c.31.01.63-.02.95-.05-.32.03-.64.06-.95.05-.01.28-.03.56-.05.84-.48.05-.96.1-1.44.15-.93.37-1.86.74-2.78,1.11-.29-.35-.57-.55-.85-.65.28.1.56.3.85.65.93-.37,1.86-.74,2.78-1.11Zm-1.25-1.65c.04-.74.28-1.15.62-1.38-.34.23-.58.63-.62,1.38h0Zm10.62,5.09c-.74.05-1.49-.08-2.26-.42-.23-.19-.46-.38-.69-.58.23.19.46.38.69.58.76.34,1.52.47,2.26.42Zm-4.13-1.98s0,0,0,0c.6-.37,1.61-.39,2.24-.74-.63.34-1.64.37-2.24.74Zm-.1-1.84h-.02s.02,0,.02,0c.27-.58.53-1.17.8-1.75-.27.58-.53,1.17-.8,1.75Zm-.25-3.35c.01.18.04.36.08.52-.04-.16-.07-.33-.08-.52.74-.53,1.63,0,2.45,0-.82,0-1.71-.52-2.45,0Zm6.16,10.82s0,0,0,0c-3.29,0-6.58,0-9.87-.01,3.29,0,6.58,0,9.87.01Zm-.5-8.57c.34,1.41.67,2.81,1.01,4.22,0,0,0,0,0,0-.34-1.41-.67-2.81-1.01-4.22Zm-9.09,4.94c.12-.02.25-.05.37-.07t0,0c-.13.02-.25.04-.37.07Zm.44-.92c.09-.24.24-.44.42-.63-.17.19-.32.39-.42.63Zm-.92,1c-.26.9-.51,1.8-.76,2.7h0c.25-.9.51-1.8.76-2.7Zm-1.16-.76c-1.13.04-2.27.08-3.4.12t0,0c1.13-.04,2.27-.08,3.4-.12Zm-2.83-4.34c.43-.03.86-.05,1.3-.08-.43.03-.86.05-1.3.08,0,0,0,0,0,0Zm5.07-14.55c-.29.04-.58.08-.86.13-1.48.94-3.01,1.13-4.57.84,1.56.29,3.09.1,4.57-.84.29-.04.58-.08.86-.13Zm-5.94-8.83s0,0,0,0c.19.07.38.15.57.22-.19-.07-.38-.15-.57-.22Zm1.85,14.99c-.88,0-1.71.25-2.38,1.28.31.07.62.15.94.22,0,0,0,0,0,0-.31-.07-.62-.15-.94-.22-.62-.18-1.23-.36-1.85-.54.62.18,1.23.36,1.85.54.68-1.03,1.51-1.29,2.38-1.28Zm-3.89,5.25c.05.53.09,1.06.14,1.58-.05-.53-.09-1.05-.14-1.58-.58.25-1.16.27-1.73.21.57.06,1.15.04,1.73-.21Zm-1.58-9.73c.57-.41,1.14-.82,1.7-1.23,0,0,0,0,0,0-.57.41-1.14.82-1.71,1.23Zm1.09,13.85c-.02.4-.03.79-.05,1.19.09.21.15.43.2.66.78-.32,1.54-.98,2.34-.88-.8-.1-1.56.56-2.34.88-.05-.23-.11-.45-.2-.66h0c.02-.4.03-.79.05-1.19Zm-1.8-5.38c.18-.15.33-.34.44-.59,0,0,0,0,0,0-.11.25-.27.44-.44.59Zm.09,3.79c-.12.25-.18.58-.18.99-.16.37-.41.6-.7.74.29-.15.54-.37.7-.75,0-.42.06-.74.18-.99Zm.05,2.93c-.6.19-1.17.49-1.76.74.3.32.59.63.89.95.46.58.77,1.2.95,1.87-.18-.67-.49-1.29-.95-1.87-.3-.32-.59-.63-.89-.95-.02-.22-.06-.43-.12-.64h0c0-.34-.02-.68-.03-1.02,0,.34.02.68.03,1.02.05.21.09.43.12.64.59-.25,1.16-.54,1.76-.73Zm-.06,12.32c.31.26.73.32,1.15.38-.42-.05-.83-.12-1.15-.38-1.18.09-2.35.18-3.53.27,1.18-.09,2.35-.18,3.53-.27Zm-.53,4.47h0c-.25,0-.5.01-.74.02.25,0,.5-.01.74-.02Zm-.81-.81s0,0,0,0c.23-.32.46-.64.69-.96-.23.32-.46.64-.69.96Zm-3.39-10.96c-.47.36-.88.78-1.02,1.44-.34.5-.79.77-1.28.95.49-.18.94-.45,1.28-.95.13-.67.55-1.08,1.02-1.44Zm-.5,7.71s0,0,0,0c-.67-.09-1.34-.18-2-.28.67.09,1.34.18,2,.28Zm-1.72.96s-.04.02-.06.04c.37.83.74,1.66,1.1,2.49.63-.47,1.2-1.22,1.81-1.77-.61.55-1.18,1.3-1.81,1.77-.37-.83-.74-1.66-1.1-2.49h0s.04-.02.06-.04Zm2.41,8.64s0,0,0,0c-.43.25-.87.5-1.3.74.43-.25.86-.5,1.3-.74Zm-.23-1.69c.61-.05,1.22-.11,1.83-.16t0,0c.3.03.58-.01.85-.14.62-.61,1.24-1.22,1.51-1.99-.27.76-.89,1.38-1.51,1.99-.27.12-.56.17-.85.14-.61.05-1.22.11-1.83.16Zm4.4,7.12c-.26-.17-.6-.21-.96-.21.36,0,.69.04.96.21Zm.79,2.36s0,.1.02.19l-.02-.19c-.31-.08-.62-.15-.93-.23.31.08.62.15.93.23Zm-.23-1.06s0,0,0,0c.69-.05,1.37-.09,2.06-.14,0,0,0,0,0,0-.69.04-1.38.09-2.06.14Zm-.1-3.97s0,.09.01.19v-.19Zm3.09-4.96c-.86.28-1.72.55-2.58.83,0,0-.12.17-.12.17-.2.01-.39.02-.59.03.19,0,.39-.01.59-.03l.12-.17c.7-.45.08-1.7.58-2.27-.5.58.12,1.82-.58,2.28.86-.27,1.72-.55,2.58-.83,0,0,0,0,0,0,0,0,0,0,0,0Zm-.5-16.92c-.53.04-1.06.08-1.58.12.2.34.37.68.43.96-.06-.29-.23-.62-.43-.96-.04-.59-.08-1.18-.12-1.77.04.59.08,1.18.12,1.77.53-.04,1.05-.08,1.58-.12h.09s-.09,0-.09,0c1,.8,1.99,1.61,2.99,2.41,0,0,.01.02.03.03-.02-.02-.03-.03-.03-.03-.99-.8-1.99-1.61-2.98-2.41Zm2.5,6.93c-.65.11-1.17.08-1.6-.06.43.14.96.17,1.6.06h0Zm-.09,10.83s0,0,0,0c-.57,0-1.14,0-1.55-.37.41.36.98.36,1.55.37Zm-.15-1.96c-.32-.55-.64-1.09-.96-1.64.32.55.64,1.09.96,1.64.3,0,.6.24.9.34-.3-.1-.61-.34-.9-.34Zm.74-1.78s0,0,0,0c.29-.31.58-.63.86-.94-.29.31-.58.63-.86.94Zm4.79-6.38h0c.41.32,1.04.61,1.37.95-.32-.34-.95-.63-1.37-.95Zm1.88,6.05c-.82.3-1.65.73-2.46.85.8-.12,1.64-.55,2.46-.85Zm4.08,9.38c.35-.12.65-.28.87-.51-.22.23-.52.39-.87.51Zm.33-3.63c-.34-.28-.67-.55-1.01-.83.34.28.67.55,1.01.83h0c.33.56.66,1.12.99,1.68-.33-.56-.66-1.12-.99-1.68Zm-.13-1.83c-.22-.35-.51-.54-.83-.64.32.1.61.29.83.64.66.08,1.31.16,1.97.24-.66-.08-1.31-.16-1.97-.24Zm-.62-6.93l.08-.1c-.04.05-.08.1-.08.1Zm4.02-11.64c.2.17.41.34.61.52h0c-.2-.17-.41-.34-.61-.52Zm1.95-.5c.08.29.3.61.36.89,0,0,0,0,0,0-.06-.29-.28-.6-.36-.89Zm2.9,1.35c.24.61.39,1.26.38,1.95.32.27.63.55.95.82-.32-.27-.63-.54-.95-.82-.6-.23-1.21-.46-1.81-.69,0,.53,0,1.06,0,1.59,0,0,0,.01.01.02v-.02c0-.53,0-1.06,0-1.59.6.23,1.21.46,1.81.69.02-.7-.14-1.34-.38-1.95Zm-4.14-22.6c.84-.03,1.48.18,1.96.59-.48-.41-1.13-.61-1.96-.59h0Zm-.67,2.67c.05.28.08.57.09.86,2.4.02,4.82.33,7.15-.58-.08-.21-.15-.43-.19-.65.04.22.1.44.19.65,1.29.11,2.63-.57,4.02.4-1.4,2.48-3.94,1.18-5.83,1.8-1.41.7-2.84,1.07-4.35.29-1.76.06-3.51.12-5.27.18,0-1.29-1.29-1.51-1.88-2.31,2.03-.21,4.06-.42,6.08-.63Zm-1.61-5.59c.21,0,.42-.02.63-.05-.21.03-.42.04-.63.05Zm7.35-.98s.03.06.04.06c0,0,0,0,0,0,0,0-.02-.03-.03-.06Zm3.39-2.91c2.91-.2,5.83-.41,8.74-.61.05.28.09.57.11.86h0c-.02-.29-.06-.57-.11-.86l-8.74.61c.3.27.6.54.9.81.33.54.65,1.09.98,1.63-.33-.54-.65-1.09-.98-1.63-.84.65-1.67,1.3-2.51,1.96-.13.01-.25.03-.38.04.13-.01.25-.03.38-.04.84-.65,1.67-1.3,2.51-1.95-.3-.27-.6-.54-.9-.81Zm17.98,3.17s0,0,0,0c-.8-.01-1.82.12-2.5-.18.68.3,1.7.17,2.5.18Zm-.52-6.1c.05.54.11,1.09.16,1.63.1.04.19.09.29.13-.1-.04-.19-.09-.29-.13-.05-.54-.11-1.09-.16-1.63Zm-3.39,13.39s0,0,0,0c1.17-.02,2.35-.05,3.52-.07.2-.05.41-.1.61-.15-.2.05-.41.1-.61.15-.28.29-.56.58-.83.86.28-.29.56-.58.83-.87-1.17.02-2.35.05-3.52.07Zm-.03-11.24c.65-.4,1.42-.39,2.18-.39-.76,0-1.53,0-2.18.39Zm-4.48-1.8c-.01-.14-.04-.27-.08-.39.04.13.07.26.08.39,1.58-.07,3.16-.14,4.74-.21-1.58.07-3.16.14-4.74.21Zm2.39,10.81c.16.17.38.32.65.44-.27-.12-.49-.27-.65-.44Zm.48,4.19h0c-.34-.55-.69-1.1-1.03-1.65.34.55.69,1.1,1.03,1.65Zm.82-.08c.01-.11.02-.21.03-.32-.01.11-.02.21-.03.32-.26.04-.52.06-.78.07.26-.01.52-.04.78-.07Zm-1.87-12.62c.64-.21,1.3-.14,1.98.14,0,0,0,0,0,0-.68-.28-1.34-.35-1.98-.14Zm.59,6.64c-1.46.05-2.92.1-4.38.15h0c1.46-.05,2.92-.1,4.38-.15Zm-10.07,8.54c1.2.33,2.64-.59,3.67.69,0,0,0,0,0,0-1.03-1.28-2.46-.35-3.67-.69h0s0,0,0,0Zm-1.78-1.61c-.34-.47-.79-.6-1.29-.63.49.03.95.15,1.29.63.86-.03,1.73-.06,2.59-.09-.86.03-1.73.06-2.59.09Zm4.8-6.55c-.11-1.09.14-1.67.55-1.99-.42.32-.66.9-.55,1.99.9-.09,1.8-.18,2.7-.28-.9.09-1.8.18-2.7.28Zm23.43,16.99c.29-.96.61-1.51.96-1.77-.35.26-.67.82-.96,1.77.65.51,1.3,1.02,1.95,1.53-.25.08-.51.13-.77.16.26-.03.52-.08.77-.16-.65-.51-1.3-1.02-1.95-1.53-.15,0-.29,0-.43-.01.14.02.29.02.43.01Zm-.35-13.67c.73.03,1.47,0,2.2.05h0c-.72-.05-1.47-.02-2.2-.05Zm.63,28.82c.3.61.6,1.21.9,1.82t0,0c-.3-.61-.6-1.21-.9-1.82-1.43.35-2.68-.7-4.05-.89,1.36.18,2.61,1.24,4.04.88Zm-2.14-4.39c-.25-.44-.5-.88-.76-1.36.27.47.51.92.76,1.36h0Zm-.58-7.04c-.58-.27-1.17-.54-1.75-.81.58.27,1.17.54,1.75.81h0Zm-1.43-18.33c-.31.58-.94.75-1.54.95-.74,1.33-1.53,1.42-2.34,1.04.81.38,1.6.29,2.34-1.04.6-.2,1.22-.37,1.54-.95Zm-.89-1.98c.27-.3.53-.59.8-.89.44-.07.87-.13,1.31-.2-.44.07-.87.13-1.31.2-.27.3-.53.59-.8.89Zm-.21,33.82h0s0,0,0,0c.05.23.1.45.15.68-.05-.23-.1-.45-.15-.68-.4-.02-.81.01-1.21.05.41-.04.81-.07,1.21-.05Zm-.2-2.77s0,0,0,0c.07.92.14,1.85.21,2.77-.07-.92-.14-1.85-.21-2.77Zm-.95-14.03s0,0,0,0c-.33-.03-.73.03-1.09.04.37,0,.76-.07,1.09-.04Zm-3.4,16.26c-1.22.03-2.43.06-3.65.09-.79.09-1.59.18-2.38.27-.48.08-.99.11-1.45.23.46-.13.97-.15,1.45-.23h0c.79-.09,1.58-.18,2.38-.27-.03-.51-.05-1.02-.08-1.52.03.51.05,1.02.08,1.52,1.22-.03,2.43-.06,3.65-.09.7.59,1.45.7,2.22.68-.77.02-1.53-.09-2.22-.68Zm2.46,2.57c-.07-.32-.22-.64-.46-.95.24.31.39.63.46.95Zm-1.35,9.67h0c-.36.22-.72.41-1.08.58.36-.17.72-.36,1.08-.58Zm-2.5-1.64c.51.28,1.3.45,1.45.88.33.25.66.51.99.76-.33-.25-.66-.51-.99-.76-.15-.43-.94-.6-1.45-.88Zm-1.1-2.02c-.14-.1-.26-.24-.37-.41v-.03s0,.03,0,.03c.11.17.24.31.37.41Zm-.36-.45v-.03h0s0,.01,0,.03Zm-5.81-18.22c.3-.01.6-.03.9-.04.3.08.51.32.67.61-.17-.29-.37-.52-.67-.61-.3.01-.6.03-.9.04h0Zm-.07-.83h0c.23-.03.47-.05.71-.07-.24.02-.48.04-.71.07Zm3.63,5.53c1-.23,2-.47,3-.7.55-.11,1.04-.1,1.5.02-.45-.12-.95-.14-1.5-.02-1,.23-2,.47-3,.7Zm-4.01-9.9c2.38.44,4.74.62,7.07.4-2.33.22-4.69.04-7.07-.4-.27-.02-.54,0-.8.07.26-.06.53-.09.8-.07Zm5.91,30.64h0c.63.52,1.25,1.04,1.87,1.56-.62-.52-1.25-1.04-1.87-1.56-.69-.01-1.41.1-2.03-.16.62.26,1.34.15,2.03.16Zm1.3-1.08c1.32-.12,2.64-.24,3.96-.37h0c-1.32.12-2.64.24-3.96.37Zm3.37-18.9c.29-.32.58-.64.87-.97,1.06-.52,1.54-1.56,2-2.6-.46,1.05-.94,2.08-2,2.6-.29.32-.58.64-.87.97.38.9.76,1.8,1.14,2.7.19.23.35.34.51.37-.15-.03-.32-.14-.51-.37h0c-.38-.9-.76-1.8-1.14-2.7Zm4.79,9.88c1.03-.08,2.04-.3,3.05-.64.34.53.69,1.06,1.03,1.59-.34-.53-.69-1.06-1.03-1.59-1.01.34-2.03.56-3.05.64Zm2.94-3.35c-.6.12-1.26.1-1.84.3.58-.21,1.24-.19,1.84-.3,0,0,0,0,0,0,1.44-.08,2.89-.15,4.33-.23.77,1.3,1.99,2.08,3.18,2.88-1.19-.8-2.4-1.59-3.18-2.88-1.44.08-2.89.15-4.33.23Zm7.5-44.09c.25,0,.49,0,.73-.04-.24.04-.49.05-.73.05,0,0,0,0,0,0Zm.81,16.63c-1.62.77-3.46.29-5.2.43,0,0,0,0,0,0,1.73-.13,3.58.34,5.2-.42Zm6.42-4.01c-.72-.18-1.43-.37-2.15-.55-.87.13-1.74.25-2.61.38,0,0,0,0,0,0,.87-.13,1.74-.25,2.61-.38h0c.72.18,1.43.37,2.15.55Zm-2.08-.94c.03-.17.06-.34.09-.52,0,0,0,0,0,0-.03.17-.06.34-.09.52Zm12.81-5.83c.13-.24.28-.36.43-.42-.15.06-.29.18-.43.42-.26.31-.55.53-.86.68.31-.15.6-.37.86-.68,0,0,0,0,0,0Zm1.59,8.71c0-.27,0-.53,0-.8,0,.27,0,.53,0,.8.35.25.69.49,1.04.74.71,0,1.46.08,2.02-.33-.56.41-1.31.33-2.02.34-.34-.25-.69-.49-1.04-.74-.59.04-1.18.09-1.77.13.59-.04,1.18-.09,1.77-.13Zm-.48-7.02h0c.33.56.67,1.12,1,1.68.11-.05.22-.12.34-.18-.11.06-.23.12-.34.18-.33-.56-.67-1.12-1-1.68Zm2.84,14.89c.59.23,1.18.46,1.76.69,1.01-.86-.08-1.54-.84-2.2.76.66,1.85,1.34.84,2.2-.59-.23-1.18-.46-1.77-.69Zm1.23-9.16c.27-.69-.85-.78-1.42-1.11.57.33,1.69.42,1.42,1.11Zm-1.55-7.65c0,.49-.1.85-.27,1.11.17-.26.27-.62.27-1.11.11,0,.23,0,.34,0-.11,0-.23,0-.34,0Zm.05,21.07c-.12-.13-.2-.27-.21-.44,0,0-.06-.11-.1-.2l.1.2c.01.17.1.31.21.44Zm-2.14-6.02c.21.62.43,1.23.64,1.85-.29.03-.57.08-.86.14.28-.06.57-.1.86-.14-.21-.62-.43-1.23-.64-1.85Zm-.56-3.04c.11-.72.72-1.15,1.19-1.65-.47.51-1.08.93-1.19,1.65Zm-1.59-9.09h0c.35.5.7,1,1.05,1.49-.35-.5-.7-1-1.05-1.49Zm1.59,9.56s0,0,0,0c-.72.04-1.53-.79-2.21-.3.67-.49,1.48.34,2.21.3Zm-.6,4.61c-.93-.03-1.81-.31-2.66-.75-.25-.27-.36-.52-.39-.76.03.24.15.49.39.76.85.44,1.73.72,2.66.75Zm-2.13-17.65c-.02-.3-.04-.6-.07-.91.02.3.04.6.07.91h0Zm0,8.99c-1.3-.5-2.57-.72-3.72,1,0,0,0,0-.02,0,0,0,.02,0,.02,0,1.15-1.72,2.43-1.5,3.72-1Zm-.94,8.26c-.32.4-.38.92-.4,1.45-.25.03-.5.05-.76.08.25-.03.5-.06.75-.08.02-.53.08-1.05.4-1.45Zm-3.6,5.36c-.02-.3-.03-.6-.05-.9-.86-.05-1.72-.1-2.58-.15-.64-.17-1.29-.34-1.93-.51.64.17,1.29.34,1.93.51.86.05,1.72.1,2.58.15.51-.16,1.09-.13,1.61-.28-.51.15-1.1.12-1.61.28.02.3.03.6.05.9Zm-6.01,8.44c-.16-.27-.32-.54-.48-.81-.91.01-1.82.03-2.74.04t0,0c.91-.01,1.82-.03,2.74-.04,1.74-.16,3.49-.31,5.23-.47-1.74.16-3.49.31-5.23.47.16.27.32.54.48.81Zm.47.79h0c-.9.3-1.8.6-2.7.9.9-.3,1.8-.6,2.7-.9Zm1.19-19.63c-.29.04-.57.02-.85-.05-.61,0-1.22.02-1.84.03h0c.61,0,1.22-.02,1.84-.03-.01-.11-.02-.22-.03-.33.01.11.02.22.03.33.28.07.56.08.85.05Zm-1.09-2.55h0c-.57-.03-1.15-.05-1.72-.08-.54-.58-1.17-.62-1.82-.58.65-.04,1.29,0,1.82.58.57.03,1.15.05,1.72.08.24-.12.44-.26.63-.41-.19.16-.4.3-.63.41Zm-2.41,2.67c-.64-.51-1.27-1.02-1.91-1.52-.02-.29-.04-.59-.07-.88.03.29.05.59.07.88.64.51,1.27,1.02,1.91,1.52Zm-1.22,8.26c.07.53.13,1.07.19,1.6.53,0,1.05,0,1.58,0-.53,0-1.05,0-1.58,0-.19.15-.33.29-.44.42.11-.14.25-.28.44-.42-.06-.54-.13-1.07-.19-1.6Zm.73,8.76c-.19.2-.38.4-.58.6.19-.2.38-.4.58-.6,0,0,0,0,0,0Zm-.35-5.1h0c-.51-.3-.82-.61-.87-.95.05.34.36.66.87.95Zm4.3,4.1c1.39-.12,2.77-.29,3.91-1.29h0s0,0,0,0h0s0,0,0,0c0,0,0,0,0,0-1.14,1-2.52,1.17-3.91,1.29Zm5.79-22.83s0,0,0,0c-1.86.14-3.72.27-5.58.41,1.86-.14,3.72-.27,5.58-.41Zm-4.83-4.03s.09-.05.13-.07c-.04.02-.09.05-.13.07h0Zm4.41,3.05c-.02-.19.02-.35.13-.48-.11.13-.15.29-.13.48Zm-1.4,12.79v.09h0s0-.04,0-.09Zm-2.17-9.12c.21.08.41.17.62.25.27-.06.49-.04.7.01-.21-.05-.43-.07-.7-.01-.2,1.21-.4,2.42-.6,3.62h0c.2-1.21.4-2.42.6-3.62-.21-.08-.41-.17-.62-.25Zm5.6-4.57c-.29.03-.57.05-.86.07-.36-.51-.71-1.02-1.07-1.53.36.51.71,1.02,1.07,1.53.29-.02.57-.05.86-.07.42-.35.85-.55,1.3-.58-.44.03-.88.22-1.3.58Zm-1.36-4.52c-1.52-.02-3.03-.05-4.55-.07,1.51.02,3.03.05,4.54.07.81-.78,1.62-1.04,2.45-.38-.83-.67-1.64-.4-2.45.38Zm-6.44-4.61c-.42.21-.84.4-1.26.58.42-.17.84-.37,1.26-.58.53.35,1.07.54,1.61.64-.54-.1-1.08-.3-1.61-.64Zm-4.7,6.42c-.11-.23-.19-.46-.25-.71.06.25.14.48.25.71.9.12,1.85-.18,2.77-.27-.92.09-1.87.39-2.77.27Zm.27,6.47c-.23.56-.46,1.12-.68,1.68h0c.23-.56.46-1.12.68-1.68Zm.04,6.03c-.98.11-1.95.22-2.93.33.36,1.32.35,2.55-.75,3.56,0,0,0,0,0,0,1.1-1.01,1.11-2.24.75-3.56.98-.11,1.95-.22,2.93-.33Zm-5.16,7.7c-.22-.02-.44-.04-.62-.11.18.07.4.09.62.11Zm-1.02-7.05c-.16-.09-.35-.18-.56-.27h0c.21.1.4.19.56.27Zm1.97,7.62c-.9.09-1.8.18-2.71.27h0c.9-.09,1.8-.18,2.71-.27Zm-3-5.14h0c.06-.11.17-.21.3-.3-.13.1-.24.19-.3.3Zm1.31,7.26c.67-.17,1.35-.33,2.12-.52-.77.19-1.45.36-2.12.52-.22.85-.44,1.7-.66,2.56.31.26.61.52.92.78-.31-.26-.61-.52-.92-.78h-.23c.08,0,.15,0,.23,0,.22-.85.44-1.7.66-2.56-.59.04-1.18.07-1.77.11h0c.59-.04,1.18-.07,1.77-.11Zm.89,12.4c0,.22.04.44.08.66-.05-.22-.07-.44-.08-.66-.9-.27-1.8-.54-2.69-.81.9.27,1.8.54,2.69.81Zm1,.9c.93.24,1.85.48,2.78.72,0,0,0,0,0,0-.93-.24-1.85-.48-2.78-.72Zm2.43-4.21c.26-.22.52-.44.78-.65.17.05.34.1.51.15-.17-.05-.34-.1-.51-.15-.26.22-.52.44-.78.65Zm2.23,7.17c.36.85.71,1.7,1.07,2.55-.36-.85-.71-1.7-1.07-2.55-.26-.27-.56-.4-.89-.45.33.05.63.18.89.45Zm.63-3.86c-.07-1.08-.14-2.16-.21-3.24,2.38.38,4.75.77,7.13,1.15.64.56,1.29,1.11,1.93,1.67.29,0,.58-.05.86-.13-.28.08-.57.12-.86.13-.64-.56-1.29-1.11-1.93-1.67-2.38-.38-4.75-.77-7.13-1.15.07,1.08.14,2.16.21,3.24Zm9.82.44s0,0,0,0c-.57.93-1.19,1.02-1.83.85.64.17,1.26.07,1.83-.85Zm-.91-12.48s0,0,0,0c1.22-.14,2.52.12,3.71-.2-1.18.32-2.49.06-3.71.2Zm1.45,8.7c.74-.58,1.38-.62,1.98-.42-.6-.21-1.24-.17-1.98.42-.12,0-.24,0-.36.02.12-.02.24-.03.36-.03Zm1.66,9.81c.03.23.06.46.09.68h0c-.04-.23-.07-.45-.09-.68-.05-.59-.09-1.17-.14-1.76.05.59.09,1.17.14,1.76Zm1.89,1.8c.29-.05.59-.1.88-.15-.29.05-.59.1-.88.15-.64.51-1.25.85-1.8.91.55-.06,1.16-.4,1.8-.91Zm-.4-16.97h0c1.46-.33,2.91-.46,4.37-.5-1.46.03-2.91.17-4.37.5Zm2.25,3.24c.2.06.45.1.63.17.1.44.2.88.3,1.33-.1-.44-.2-.88-.3-1.33-.18-.06-.42-.11-.63-.17Zm.53,1.69c-.2.1-.41.21-.61.31-.02.05-.02.11-.01.17,0-.06,0-.12.01-.17.2-.1.41-.21.61-.31Zm.43,2.53c-.11.26-.59.44-1.73.43h0c1.15,0,1.62-.16,1.73-.43Zm-1.6,2.13c.37.86.73,1.73,1.1,2.59-.37-.86-.73-1.73-1.1-2.59h0Zm1.82,10.38s0,0,0,0c-.33.09-.65.19-.98.28.33-.09.65-.19.98-.28Zm-.48-4.26s0,0,0,0c.92-.11,1.82-.14,2.68,0-.86-.14-1.76-.11-2.68,0Zm2.59-22.02c1.57.03,3.08-.69,4.64-.78.25-.38.5-.77.76-1.1-.26.33-.51.71-.76,1.1-1.56.09-3.07.8-4.64.78Zm4.44-3.37c.29-.01.57-.04.86-.1-.1-.56.08-.96.35-1.3-.27.35-.44.75-.35,1.3-.28.06-.57.09-.86.1-.32-.28-.65-.55-.95-.84.3.3.63.56.95.84Zm-.41-5.24c.29.05.59.05.88.02.03.25.06.51.08.76-.02-.25-.05-.51-.08-.76-.29.03-.59.03-.88-.02Zm0,9.95c-.38.19-.75.47-1.11.83-.28.15-.55.32-.83.47.28-.15.55-.32.83-.47.36-.37.74-.64,1.11-.83Zm.4,19.27c.21-.35.39-.77.61-1.1-.22.33-.4.76-.61,1.1-.86-.02-1.72-.02-2.56-.09.84.07,1.71.07,2.56.09Zm.04,2.9c.09.23.15.46.18.71h0c-.03-.24-.09-.48-.18-.71-.32-.06-.64-.12-.96-.17.32.06.64.12.96.17Zm1.45,1.15h0c-.65.42-1.31.85-1.96,1.27.65-.42,1.31-.85,1.96-1.27Zm-.35-35.13s0,0,0,0c-.85.01-1.69.03-2.54.04-.34-.52-.68-1.03-1.01-1.55.34.52.68,1.03,1.01,1.55.85-.01,1.69-.03,2.54-.04.32-.05.65-.09.97-.14-.32.05-.65.09-.97.14Zm-2.96-5.22h0c.31,0,.62-.01.92-.02-.31,0-.62.01-.92.02Zm1.42,1.76c-.42.06-.82.3-1.22.88,0,0-.02.01-.02.01,0,0,0,0,0,0h.02c.39-.59.8-.84,1.22-.89Zm-24.36-13.44c.53-.08,1.05-.17,1.58-.25,0,0,0,0,0,0,.9.04,1.8.08,2.7.13,2.97-.25,5.95-.5,8.92-.74.14,0,.27-.03.4-.07.13-.04.26-.09.38-.16.18-.29.41-.47.67-.58-.25.12-.48.29-.67.58,1.17,0,2.34.01,3.51.02,2.94.35,5.88.85,8.8.86-2.93-.02-5.87-.51-8.8-.86-1.17,0-2.34-.01-3.51-.02-.12.07-.25.12-.38.16-.13.04-.27.06-.4.07,0,.28-.02.55-.06.81.05-.26.06-.53.06-.81-2.97.25-5.95.5-8.92.75h0c-.9-.04-1.8-.08-2.7-.13-.53.08-1.05.17-1.58.25-.6-.41-1.24-.51-1.88-.52.65,0,1.28.1,1.88.52Zm-3.43,15.51s0,0,0,0c.25-.6.49-1.21.74-1.81-.25.6-.49,1.21-.74,1.81Zm.54-4.66c-.49.32-.98.64-1.48.96-.13.33-.31.55-.54.71.23-.16.41-.38.54-.71.49-.32.99-.64,1.48-.96-.06-.77-.11-1.54-.17-2.31.06.77.11,1.54.17,2.31Zm-1.7-11.34c.19.04.38.06.57.07-.19,0-.38-.03-.57-.07h0Zm-4.24,3.01c1.33-.23,2.71-.19,4.03-.46-1.32.27-2.7.24-4.03.46h0Zm-.39,2.74c-.53.18-.95.48-1.11,1.14h0c.16-.65.59-.96,1.11-1.14Zm-2.67,3.61c1.17-.09,2.35-.19,3.52-.28h0c1.18-.08,2.37-.17,3.55-.25,0,0,0,0,0,0,.5.06,1.01.13,1.51.19-.5-.06-1.01-.13-1.51-.19-1.18.08-2.37.17-3.55.25-1.17.09-2.35.19-3.52.28h0c-.33-.52-.66-1.03-.99-1.55-.6-.03-1.19-.07-1.79-.1-.51-.75-1.15-1.23-1.96-1.39.81.16,1.45.64,1.96,1.39.6.03,1.19.07,1.79.1.6-.33,1.21-.66,1.81-1-.6.33-1.21.66-1.81,1,.33.52.66,1.03.99,1.55Zm-1.29-6.07c-.03-.27-.06-.53-.09-.8.02.27.05.54.09.8.64.31,1.27.61,2.01.97-.74-.36-1.38-.67-2.01-.97Zm.64-2.56c-1.77.14-3.55.28-5.32.41,0,0,0,0,0,0,1.77-.14,3.55-.27,5.32-.41Zm-5.05,2.21s0,0,0,0c0,0-.06-.09-.1-.14l.1.14Zm-.41,6.12h0c-.26-.34-.54-.56-.84-.69.3.13.58.35.84.69Zm-.73,3.51c.21-.15.38-.35.55-.56-.16.21-.34.41-.55.56,0,.34-.02.69-.02,1.03h0c0-.34.01-.69.02-1.03-.08-.87-.16-1.74-.24-2.6.08.87.16,1.73.24,2.6Zm2.05,4.29c.78-1,1.62-1.08,2.48-.91-.86-.17-1.7-.08-2.48.91-1.24-.5-2.49-.99-3.73-1.49,1.24.5,2.49.99,3.73,1.49Zm-3.64-13.01h0c.25-.03.49-.07.71-.14-.22.07-.46.11-.71.14ZM21.55,6.79c-.26.29-.53.59-.79.88.26-.29.53-.59.79-.88.83-.69,1.75-.54,2.66-.41-.91-.12-1.83-.27-2.66.41Zm2.88,2.41c1.23.13,2.45.26,3.68.39.67.02,1.33,0,2-.02-.67.03-1.33.04-2,.02-1.23-.13-2.45-.26-3.68-.39Zm5.09,9.33h0c.06,0,.12,0,.17,0-.06,0-.12,0-.17,0Zm-4.7-1.21c2.09-.54,4.18-1.09,6.27-1.63-.32-.5-.64-1.01-.96-1.51-.65-.57-1.31-1.15-1.96-1.72-.42.33-.71.85-1.07,1.26.36-.41.65-.93,1.07-1.26,0-.17.01-.33.02-.5,0,.17-.01.33-.02.5.65.57,1.31,1.15,1.96,1.72.32.51.64,1.01.96,1.52-2.09.54-4.18,1.09-6.27,1.63Zm4.73-12.87c1.13-.13,2.26-.26,3.39-.39h0c1.18-.04,2.36-.08,3.54-.12,1.77-.18,3.55-.36,5.32-.54,0,0,0,0,0,0,1.8.34,3.73-.89,5.46.42,2.41-1.44,5.26-.48,7.76-1.41h0c6.51,1.4,13.07-1.01,19.58.29,0,0,0,0,0,0,5.09-.35,10.15,0,15.2.59,1.42-.11,2.86.81,4.27-.07.04-.02.07-.06.11-.08-.04.03-.07.06-.11.08.91.87,2.51.88,2.94,2.35,0,0,0,0,0,0-2.97.26-5.94.52-8.91.77h0c-3.76.3-7.51.6-11.27.9-.3.35-.6.7-.9,1.05,0,0,0,0,0,0,.3-.35.6-.7.9-1.05-5.9.35-11.81.7-17.71,1.05-2.98-.53-5.95-1.09-8.96-.19,0,0,0,0,0,0-.73-.94-1.76-.65-2.72-.66-.74-.96-1.77-.7-2.75-.64.07.84.15,1.69.22,2.53.87-.05,1.74-.1,2.61-.15,0,0,0,0,0,0,.6,0,1.2.01,1.8.02.22-.28.43-.57.65-.85-.22.29-.43.57-.65.86,0,.06,0,.13.01.19,0-.06,0-.13-.01-.19-.6,0-1.2-.01-1.8-.02-.87.05-1.74.1-2.61.15-.07-.85-.15-1.69-.22-2.53-.58.02-1.15.04-1.73.06-2.41-.4-4.82-.8-7.23-1.19-.6.06-1.2.12-1.8.18-1.17-1.36-3.61,1.28-4.38-1.39Zm17.98,4.58c-.09-.25-.73-.48-1.08-.72.34.24.99.47,1.08.72Zm-7.91,13.23c-.28.32-.55.64-.83.97.28-.32.55-.64.83-.97h0c.55-.34,1.1-.69,1.65-1.03l-.02-.43s.02.43.02.43c-.55.34-1.1.69-1.65,1.03Zm1.27,5.26h0c-.02-.25-.06-.51-.1-.76.04.25.08.5.1.76Zm-.49,5.35c-.83.64-1.66,1.29-2.5,1.93-1.79.11-3.57.22-5.36.33,1.79-.11,3.57-.22,5.36-.33.83-.64,1.66-1.29,2.5-1.93Zm-1.15-1.04c.07.07.15.14.21.22h0c-.06-.08-.14-.15-.21-.22Zm-6.49-7.15s0,0,0,0c.1.27.23.48.38.66-.15-.17-.28-.39-.38-.66Zm2.1-6.49h0c-.11-.33-.22-.66-.32-1,0,0,0,0,0,0,.53-.54,1.08-.81,1.64-.91-.57.1-1.12.37-1.64.91.11.33.22.67.32,1Zm.77,10.64h0c.08-.16.18-.29.28-.41-.1.11-.2.25-.28.41.62.24,1.25.49,1.87.73h0c-.62-.24-1.25-.49-1.87-.73Zm1.11-12.59c.77,0,1.56.26,2.35.53.02-.48.04-.97.06-1.45-.02.48-.04.97-.06,1.45-.79-.27-1.58-.53-2.35-.53Zm1.86,4.33h0c-.59.04-1.18.09-1.77.13.59-.04,1.18-.09,1.77-.13Zm.42-6.24c1.76-.15,3.52-.29,5.28-.44,0,0,0,0,0,0-1.76.15-3.52.29-5.28.44Zm5.11-3.06c-.27.59-.55,1.19-.82,1.78-.88-.21-1.77-.42-2.65-.63.88.21,1.77.42,2.65.63.27-.59.55-1.19.82-1.78-.6-.26-1.19-.51-1.79-.77-.58.34-1.17.68-1.75,1.03-.62-.49-1.23-.98-1.85-1.47.62.49,1.23.98,1.85,1.47.58-.34,1.17-.68,1.75-1.03h0c.6.26,1.19.51,1.79.77.13-.18.27-.33.41-.46-.14.13-.27.28-.41.46Zm-10.97,30.96s0,0,0,0c-.68-.16-1.35-.32-2.03-.47.68.16,1.35.31,2.03.47Zm-6.03.35c-.64-.17-1.28-.32-1.91.17,0,0,0,0,0,0,.62-.48,1.26-.34,1.91-.17Zm-7.79,6.08c-.18.25-.26.48-.27.7,0-.22.09-.45.27-.7.19-.17.39-.31.6-.44-.2.12-.4.26-.6.44Zm.91,2.54c-.08-.01-.15-.02-.23-.01.07,0,.15,0,.23.01.62-.8,1.51-.81,2.37-.9-.86.09-1.75.1-2.37.9Zm5.39-1.17c-.43.46-.9.73-1.39.89.49-.16.97-.43,1.39-.89.88-.06,1.77-.12,2.65-.18-.88.06-1.77.12-2.65.18Zm2.66-.22c0-.06.03-.18.03-.18,0,0,0,0,0,0,0,0-.02.12-.03.18Zm.37-7.12c-.32-.58-.63-1.16-.95-1.73-.74-.3-1.49-.61-2.23-.91.74.3,1.49.61,2.23.91t0,0c.32.58.63,1.16.95,1.73.29-.05.58-.11.87-.16-.29.05-.58.11-.87.16h0Zm.25,2.41s0,0,0,0c.33.47.65.94.98,1.41-.33-.47-.65-.94-.98-1.41Zm1.1,4.58c.49.02.88-.08.96-.63-.08.55-.48.65-.96.63Zm.75,7.66c.18-.12.35-.26.46-.47-.11.21-.28.35-.46.47Zm.66-1.56c0,.24,0,.44-.04.62.03-.18.05-.39.04-.62,0-.15,0-.29,0-.41,0,.12-.01.26,0,.41Zm7.52,6.56c-.87.03-1.75.06-2.62.09-.36.04-.72.08-1.08.12h0c.36-.04.72-.08,1.08-.13.87-.03,1.75-.06,2.62-.09h0c.12.03.24.04.36.05-.12,0-.24-.02-.36-.05Zm-1.22-4.28c-.27-.01-.54-.04-.81-.08-1.52-.02-3.05.36-4.57.46,1.52-.1,3.05-.48,4.57-.46h0c.27.04.54.07.81.08.62-.07,1.23-.14,1.85-.21-.05-.59-.1-1.17-.15-1.75.05.58.1,1.17.15,1.75-.61.07-1.23.14-1.85.21,1.03.48,2.31.86,2.37,1.69-.06-.83-1.34-1.22-2.37-1.69Zm-4.01-7.75c.05.58.09,1.17.14,1.75,0,0,0,0,0,0-.05-.58-.09-1.17-.14-1.75Zm3.2,1.85c-.12-.12-.27-.23-.45-.32.23-.58.46-1.16.68-1.74-.23.58-.46,1.16-.68,1.74.18.09.32.19.45.32Zm-.12,4.88c0-.16,0-.32.02-.47,0,.16-.02.32-.02.48-.6-.14-1.2-.28-1.8-.42.6.14,1.2.28,1.8.42Zm2.41-4.49s0,0,0,0c0,.28.02.55.03.83-.02-.28-.03-.55-.03-.83.22-.91.44-1.83.66-2.74-.22.91-.44,1.83-.66,2.74Zm.06,1.75s0,0,0,0c0-.29,0-.57-.02-.85.02.28.03.57.02.85Zm.26-8.86c-1.67,1.6-3.26,2.46-4.46-.46-.6-.02-1.2-.04-1.8-.05-.65.03-1.29.06-1.94.09.65-.03,1.29-.06,1.94-.09-.04-.55-.08-1.1-.13-1.65.04.55.08,1.1.13,1.65.6.02,1.2.04,1.8.05,1.2,2.92,2.79,2.06,4.47.46.21,1,.69,1.37,1.27,1.5-.58-.13-1.06-.5-1.27-1.5Zm.57-16.05c-.88.03-1.76.07-2.65.1h0c.56-.65,1.12-1.3,1.68-1.95-.26.07-.53.12-.8.14.27-.02.54-.07.8-.14.14-.36.35-.55.6-.66-.25.1-.47.3-.6.66-.56.65-1.12,1.3-1.68,1.95.88-.03,1.76-.07,2.65-.1.38.46.83.62,1.3.67-.48-.04-.93-.2-1.31-.67Zm1.76-13.54c.94,0,1.87.02,2.67.67.56-.16,1.16-.51,1.72-.68-.56.17-1.16.52-1.72.68,0,.33,0,.67,0,1-.19.19-.38.32-.58.43.2-.1.39-.24.58-.43,0-.33,0-.67,0-1-.8-.65-1.73-.67-2.67-.67Zm1.87,4.25c-.56.29-1.11.67-1.69.66.58,0,1.13-.37,1.69-.66Zm-1.21,42.79c1.12-.14,2.25-.29,3.37-.43-.29-.38-.58-.77-.88-1.15-.26-.06-.51-.13-.77-.18h0c-.67-.43-1.34-.86-2-1.29.67.43,1.33.86,2,1.29.26.06.51.12.77.18,1.21-.25,2.41-.49,3.62-.74,0-.13,0-.25,0-.38,0,.13,0,.25,0,.38-1.21.25-2.41.49-3.62.74.29.38.58.77.88,1.15-1.12.14-2.25.29-3.37.43Zm3.92,4.45c1.19,0,2.38-.13,3.55-.55v-.05s0,.05,0,.05c-1.17.41-2.36.54-3.55.55Zm.72,5.16c.51-.24.98-.61,1.41-1.11h0c-.43.5-.9.87-1.41,1.11Zm3.93-3c-.38-.07-.77-.42-1.15-.43.38.01.77.36,1.15.43.1,1.07.69,1.38,1.39,1.5-.7-.12-1.28-.43-1.39-1.5Zm1.73-2.13c.85-.03,1.72-.11,2.55.04.31.24.61.48.92.71-.31-.24-.61-.48-.92-.71-.83-.15-1.69-.07-2.55-.04Zm3.35.97c.05-.06.1-.13.15-.19h0c-.05.06-.1.13-.15.19Zm.28,1.58h0c.06.08.13.16.19.24-.06-.08-.13-.15-.19-.24Zm-2.4-6.77s0,0,0,0c1.25-.12,2.51-.25,3.76-.37-1.25.12-2.51.25-3.76.37Zm4.22-4.82c-.29-.04-.58-.06-.87-.06-.53.11-1.05.21-1.58.32,0,0,0,0,0,0-1.01-.01-2.02-.02-3.03-.04,1.01.01,2.02.02,3.03.04.53-.11,1.05-.21,1.58-.32h0c.29,0,.58.01.87.06.13.17.28.3.43.4-.15-.1-.3-.22-.43-.4Zm.93,2.69c1.55-.15,3.09-.31,4.64-.46,0,0,0,0,0,0-1.55.15-3.09.31-4.64.46.09.51.18,1.01.27,1.52-.09-.51-.18-1.01-.27-1.52-.21-.04-.42-.11-.62-.19.2.07.41.14.62.19Zm2.63,9.41c-.98,1-1.91,1.41-2.79,1.31.88.1,1.8-.31,2.79-1.31,1.53.46,3.06.91,4.59,1.37-1.53-.46-3.06-.91-4.59-1.37Zm3.42-3.8c-.58.24-.85.68-1.02,1.19.17-.51.44-.95,1.02-1.19.82-.07,1.64-.13,2.45-.2-.82.07-1.63.13-2.45.2Zm1.95-6.26h0c.96.47,1.93.95,2.89,1.42.55-.34,1.1-.67,1.65-1.01.29-.33.58-.66.86-.99t0,0c1.45-.39,2.91-.79,4.36-1.18,0,0,0,0,0,0-1.45.39-2.91.79-4.36,1.18-.29.33-.58.66-.86.99-.55.34-1.1.67-1.65,1.01-.96-.47-1.93-.95-2.89-1.42Zm10.14,1.84h0c-.33,0-.66.01-.99.02.33,0,.66-.01.99-.02Zm-4.8,1.36c-.25-.64-.19-1.31.16-2,0,0,0,0,0,0-.35.69-.41,1.35-.16,2Zm-.44.89s0,0,0,0c-.32-.02-.63-.05-.95-.07.32.02.63.05.95.07Zm-.54,6.11h0s.05,0,.07,0c-.02,0-.05,0-.07,0Zm2.69,2.2c.33.03.65-.12.95-.59-.3.47-.62.62-.95.59Zm-1.11-4.77c.23.99,1.27.66,2.19.54-.92.13-1.96.45-2.19-.54Zm6.63,4.63c-.39.02-.73-.02-1.01-.14.28.12.62.16,1.01.14h0Zm-5.82-5.83c-.28.03-.56.09-.83.18,0,0,0,0,0,0-.58,0-1.17,0-1.75,0,.58,0,1.17,0,1.75,0,.27-.09.54-.15.82-.18,0-.2,0-.41-.01-.61,0,.2,0,.41.01.61,2.37-.16,4.74-.33,7.11-.49h0c-2.37.16-4.74.33-7.11.49Zm4.8-7.44s.02,0,.02,0h0s-.02,0-.02,0Zm1.73,11.58s0,0,0,0c.58-.13,1.16-.25,1.74-.38-.42-.3-.84-.6-1.26-.91h0c.42.3.84.6,1.26.91-.58.13-1.16.25-1.74.38Zm1.65-2.94c-.42-.43-.63-.97-.25-1.77,0,0,0,0,0,0-.38.81-.18,1.34.25,1.77Zm1.75-11.68c-.03.26-.07.52-.13.78-1.97.16-3.94.32-5.91.48,0,0,0,0,0,0-.06-.23-.12-.47-.18-.7-.26-.06-.52-.1-.79-.13-1.28.17-2.6.6-3.62-.67-.61.08-1.21.17-1.82.25.05.15.1.3.15.45-.05-.15-.1-.3-.15-.45-1.87.12-1.78-1.27-1.91-2.48-.33-.23-.67-.46-1-.7-.44,0-.88-.01-1.33-.02.44,0,.88.01,1.33.02,1.15-.18,2.3-.36,3.45-.53.01-.25,0-.51-.02-.76-.62-.53-1.23-1.06-1.85-1.59.62.53,1.23,1.06,1.85,1.59.03.25.04.51.02.76-1.15.18-2.3.36-3.45.53.33.23.67.47,1,.7.88,1.35,2.57.93,3.71,1.7,1.47-.13,2.94-.26,4.41-.39,1.46.15,2.91.29,4.37.44l-.06.06c.9-.53,1.66-.65,1.92.66.14-.12.28-.21.42-.28-.14.07-.28.16-.42.28Zm.28-20.45h0c.91.23,1.82.45,2.73.68.48-.31.67-.74.72-1.23-.05.49-.24.92-.72,1.23,0,.29.01.59.02.88,0-.29-.02-.59-.02-.88-.91-.23-1.82-.45-2.73-.68Zm2.26,6.96s0,.01,0,.01h0s0-.01,0-.01h0Zm23.32,26.85c-2.72-.37-5.52,1.22-8.19-.35-.26.02-.5.08-.74.19h0l-1.73.63c-.69.16-1.42.28-1.71,1.07,0,0,0,0,0,0-1.13-.51-2.3-.8-3.55-.52-.1-.24-.21-.48-.33-.72-.98.42-2.35-.28-3.02,1.03-1.54-.24-3.09-.49-4.63-.73h0c-.05-.53-.1-1.05-.14-1.58,3.78-.49,7.56-1.26,11.35-.1,1.23-1.41,2.98-.48,4.41-.95.05-.16.12-.32.21-.46,0,0,0,0,0,0-.09.14-.16.3-.21.46.1.21.23.41.39.58.24-.13.46-.12.68.05,3.28-.49,6.57-1.09,9.83.11-.39,1.41-1.65,1.07-2.62,1.29Zm-.36-5.43c.3.03.61.06.91.09,0,0,0,0,0,0-.3-.03-.61-.06-.91-.09Zm2.15-8.28c-.02.3-.04.6-.06.91h0c.02-.3.04-.6.06-.91-.58-.67-1.11-.62-1.63-.39.52-.23,1.05-.28,1.63.39,1.42-.08,2.84-.16,4.26-.25,0,0,0,0,0,0-1.42.08-2.84.16-4.26.25Zm2.65,13.2c.29-.03.58-.03.88,0h0c-.29-.03-.58-.03-.88,0Zm-.33-9.13c.97-.1,1.96-.7,2.93-.81l.31-.08s0,0,0,0c0,0-.31.08-.31.08-.97.11-1.97.71-2.93.81Zm6.22,5.21s0,0,0,0c-1.24-.23-2.48-.46-3.71-.69,1.24.23,2.48.46,3.71.69Zm-.54,4.41c.76-.02,1.54.01,2.13-.54-.59.55-1.37.52-2.13.54Zm1.86-10.79c.19-.55.39-1.1.58-1.65-.69-.03-1.41.05-2.02-.26.61.31,1.33.23,2.02.26-.19.55-.39,1.1-.58,1.65Zm.6,9.84s0,0,0,0c.68-.24,1.4-.12,2.11-.02-.71-.1-1.43-.22-2.11.02Zm4.4-1.23c-.57-.3-1.13-.61-1.7-.91.57.3,1.13.61,1.7.91.03.26.09.52.16.77-.07-.25-.12-.51-.16-.77Zm1.83-10.83c-.45.84-.91,1.68-1.36,2.52.45-.84.91-1.68,1.36-2.52l.2-.13s0,0,0,0c0,0-.2.13-.2.13Zm2.06,3.44c-.24-.02-.48-.07-.72-.12.24.06.48.1.72.12.01.03.03.06.04.1-.01-.03-.03-.06-.04-.1Zm.15,8.13c.53.11,1.03.15,1.39-.35h0c-.36.5-.87.46-1.39.35Zm14.67-1.27c-1.47-.09-2.59-.99-3.76-1.8,1.17.8,2.3,1.7,3.76,1.79,0,0,0,0,0,0Zm-3.23-5.93c-2.32.15-4.63.29-6.95.44-.53.55-1.18.69-1.85.74.67-.05,1.32-.19,1.85-.74-.32-.26-.65-.52-.97-.78-1.14.02-2.28.04-3.41.06,0,0-.09.11-.14.17l.14-.17s0,0,0,0c1.14-.02,2.28-.04,3.41-.07.32.26.65.52.97.78,2.32-.15,4.63-.29,6.95-.44,2.04.15,3.25,1.52,4.52,2.81-1.27-1.29-2.48-2.66-4.52-2.81Zm4.56-24.37c-.06.24-.11.48-.16.71.05-.24.11-.48.16-.71-.03-.32-.07-.63-.1-.95.03.32.07.63.1.95t0,0Zm1.78-.28c-.41.07-.83.13-1.24.2.41-.07.83-.13,1.24-.2h0Zm.33-1.2c.25-.45.6-.57,1-.54-.4-.03-.75.09-1,.54Zm2.63,18.99c.63.7,1.02,1.47,1.14,2.35-.11-.88-.51-1.65-1.14-2.35-.57.2-1.15.4-1.72.6.57-.2,1.15-.4,1.72-.6Zm2.76,12.94c0-.25-.01-.5-.05-.75-1.01-.13-1.99-.45-2.99-.61,1,.17,1.99.48,2.99.61.3-.06.61-.11.91-.17,0-.19,0-.38,0-.57,0,.19,0,.38,0,.57-.3.06-.61.11-.91.17.04.25.05.5.05.75Zm.06-1.78c.29.02.65,0,.79.1h0c-.14-.1-.5-.08-.79-.1Zm1.26-5.32c-.72.3-1.44.56-2.18.58.74-.02,1.46-.29,2.18-.58.33.55.67,1.09,1,1.64-.33-.55-.67-1.09-1-1.64Zm2.84,3.32h0c.06.11.12.2.18.28-.06-.08-.12-.17-.18-.28Zm4.16-3.74c-.57,0-1.14,0-1.71,0-.1-.24-.22-.48-.34-.71-.47-.06-.95-.12-1.42-.18.47.06.95.12,1.42.18.12.23.23.47.33.71.57,0,1.14,0,1.71,0,.34.32.77.64,1.18.96-.4-.32-.84-.63-1.18-.96Zm3.05,4.11c-.54.02-1.08.04-1.62.05.54-.02,1.08-.04,1.62-.06.33.54.67,1.08,1,1.63-.33-.54-.67-1.08-1-1.63Zm.83-13.48c.27-.34.55-.67.82-1.01,0,0,0,0,0,0-.27.34-.55.67-.82,1.01Zm-1.23-5.1h0c-.56-.02-1.12-.04-1.67-.06,0,0,0,0,0,0-.42-1.1-.84-2.21-1.26-3.31,1.16-.09,2.33-.18,3.49-.27.87-.03,1.73-.05,2.6-.08.3-.13.6-.26.9-.39,0-.21-.02-.43-.03-.64l15.09-.32h0c1.24-.36,2.85.63,3.69-.99.06-.12-.74-.7-1.15-1.06-.03-.22-.07-.45-.12-.67l1.77-.25s.01.33.01.32c.93.42,1.85.84,2.78,1.26.35.55.69,1.1,1.04,1.65-1.23.17-2.47.33-3.7.5-.3.47-.6.93-.91,1.4-.72.49-1.43.98-2.15,1.47.09.12.18.21.28.29-.1-.08-.19-.17-.28-.29-.32-.06-.63-.12-.95-.18-1.39-1.31-3.04-.35-4.57-.51-.59.34-1.17.67-1.76,1.01-.88-.21-1.76-.42-2.64-.62h0c-3.19,2.36-7.03.84-10.46,1.74Zm13.35,1.55v-.12c0,.07,0,.12,0,.12-.27.26-.55.52-.82.78.27-.26.55-.52.82-.78Zm-.06-.84h0s0,.11.02.21l-.02-.21Zm-4.28,2.13c.39-.38.81-.62,1.24-.74-.43.12-.84.36-1.24.75.04.58.07,1.15.11,1.73.58-.09,1.16-.18,1.74-.27-.58.09-1.16.18-1.74.27-.55.05-1.11.11-1.66.16.55-.05,1.11-.11,1.66-.16-.03-.58-.07-1.15-.11-1.73Zm-.45,6.19h0c-.02-.29-.04-.59-.05-.88-.29-.16-.58-.28-.86-.37.28.09.57.22.86.37.1-.19.22-.36.36-.52-.14.15-.27.32-.36.52.02.29.04.59.05.88Zm2.74,2.55c.25.25.54.36.84.38-.31-.02-.59-.13-.84-.38-1.44.07-2.87.13-4.31.2,1.44-.07,2.87-.13,4.31-.2Zm-1.53-4.64c.82-.51,1.72-.94,1.98-1.92-.26.98-1.17,1.42-1.98,1.92Zm-5.89,6.87c.31-.25.6-.58.87-1.01h0c-.27.43-.56.76-.87,1.01Zm-.49-9.82c.7-.2,1.35-.6,2.03-.88.46.37.92.74,1.38,1.11-.46-.37-.92-.74-1.39-1.11-.68.28-1.33.68-2.03.88Zm2.79,16.91c.29-.14.65-.26.92-.4h0c-.27.15-.63.26-.92.4Zm5.56-3.14c-1.59.34-3.18.68-4.77,1.02-.11,0-.23.02-.34.04.11-.01.23-.03.34-.04,1.59-.34,3.18-.68,4.77-1.02.36.25.72.49,1.08.74-.36-.25-.72-.49-1.09-.74Zm3.46-13.7c-1.12.06-2.25.12-3.37.19,1.12-.06,2.25-.12,3.37-.19-.02-.7-.23-1.1-.55-1.34.32.24.53.64.55,1.34.33,0,.65-.01.98-.02.08.26.18.51.29.76-.11-.25-.21-.5-.29-.76-.32,0-.65.01-.97.02Zm6.8,18.16c-1.4.06-2.81.22-4.21.23,1.39,0,2.81-.17,4.21-.23.33-.36.66-.72.99-1.07-.33.36-.66.72-.99,1.07Zm1.64-1.77s0,0,0,0c-.33-.28-.65-.56-.98-.84.33.28.65.56.98.84,2.34-.22,4.67-.44,7.01-.66h0c-2.34.22-4.67.44-7.01.66Zm5-3.74c.05.55.11,1.1.16,1.66.6.47,1.21.94,1.81,1.4-.6-.47-1.21-.94-1.81-1.4-1.14,0-2.29,0-3.43.01,1.14,0,2.29,0,3.43-.01-.05-.55-.11-1.11-.16-1.66-.84-.06-1.68-.12-2.52-.17-.16.11-.3.24-.41.37.11-.13.25-.26.41-.37h0c.84.06,1.68.12,2.52.17.91-.09,1.83-.19,2.74-.28,0,0,0,0,0,0-.91.09-1.83.19-2.74.28Zm6.6,3.82c-.78-.17-1.56-.34-2.34-.51.78.17,1.56.34,2.34.51,0,0,0,0,0,0Zm2.79,2.34l.07-.26s0,0,0,0c0,0-.04.15-.07.26Zm.65-3.58c-.94.1-1.84.08-2.57-.32.73.41,1.63.42,2.57.32h0Zm.72-2.82h0c.02.62.04,1.24.06,1.85-.02-.62-.04-1.24-.06-1.85Zm.56-3.54h0c.17.28.35.57.52.85-.17-.28-.35-.57-.52-.85Zm.78-.04c.62-.03,1.24-.07,1.86-.1.36.59.73,1.18,1.09,1.78-.36-.59-.73-1.18-1.09-1.78-.62.03-1.24.07-1.86.1Zm4.25,6.93c-1.22.06-2.43.11-3.65.17.04.27.1.54.17.8.74.1,1.25.38,1.2.73.05-.34-.45-.63-1.2-.73-.07-.26-.13-.53-.17-.8h0c1.22-.06,2.43-.11,3.65-.17,0,0,0,0,0,0Zm1.62-1.13c-.37-.1-.75-.23-1.13-.37.38.13.76.27,1.13.37-.05-.58-.1-1.16-.14-1.74-.39-.04-.81.01-1.21.02.4,0,.82-.06,1.21-.02.05.58.1,1.16.14,1.74,0,0,0,0,0,0h0Zm2,2.51s0,0,0,0c-.42.62-.91.87-1.42.94.51-.06,1-.32,1.42-.94-.04-.29-.07-.59-.1-.88.24-.05.47-.09.71-.12-.24.03-.48.08-.71.12.03.29.07.59.1.88Zm2.21-4.5c-.27-.05-.53-.04-.79.06.26-.09.52-.11.79-.06,1.02.52,2.05,1.03,3.1,1.41-1.05-.38-2.08-.89-3.1-1.41Zm7.25.35c-.89-.57-1.85-.71-2.83-.75.98.04,1.94.18,2.82.75.23.4.47.8.7,1.21-.23-.4-.47-.8-.7-1.2Zm2.78-.36c.38-.02.72-.1.97-.31-.25.21-.59.28-.97.31Zm6.03.54c-.57.07-1.14.14-1.72.21.65,1.01,1.01,1.79,1.01,2.37,0-.58-.37-1.37-1.01-2.37-.1-.06-.21-.1-.32-.14.11.03.22.08.32.14.57-.07,1.14-.14,1.72-.21.04.3.07.59.11.89-.04-.3-.07-.59-.11-.89Zm.43-.35c.15-.18.24-.38.3-.6-.06.22-.15.42-.3.6Zm.37-1.46c-.88-.08-1.67,0-2.28.4.61-.4,1.4-.48,2.28-.4.01.13,0,.25,0,.38,0-.12,0-.24,0-.38Zm5.44-2.87c-.17.07-.34.11-.52.15.17-.03.34-.08.52-.15Zm-.72,6.01c-.55.08-.76.92-1.15,1.37.39-.45.6-1.29,1.15-1.37Zm-1.17-3.63s0,0,0,0c0,0,0,.03,0,.06,0-.03,0-.06,0-.06Zm-.21-2.49h0c-.24.1-.49.17-.73.24.25-.07.49-.14.73-.24Zm-4.48.39c.37.76.75,1.53,1.12,2.29,1.18.02,2.36.03,3.54.05,0,0,0,0,0,0-1.18-.02-2.36-.03-3.54-.05-.38-.76-.75-1.53-1.13-2.29-.88.05-1.75.1-2.63.15.88-.05,1.75-.1,2.63-.15Zm-4.45-.59c.32.26.65.52.97.78-.32-.26-.65-.52-.97-.78-1.25-.77-2.35.08-3.51.32,0,0,0,0,0,0,1.16-.24,2.26-1.09,3.51-.32Zm-6.96,2.32c.04.28.08.55.11.83,1.45-.07,2.89-.15,4.34-.22.03.51.06,1.03.1,1.54-.03-.51-.07-1.03-.1-1.54-1.45.07-2.89.15-4.34.22-.04-.28-.07-.55-.11-.83-.89-.68-1.77-.27-2.65-.05.88-.22,1.76-.62,2.65.05Zm-3.53.06c.22-.32.34-.64.36-.95-.03.31-.14.63-.36.95-.3.11-.61.21-.91.32.78.84,1.83.51,2.77.63,0,0,0,.12.02.21l-.02-.21c-.94-.12-1.99.21-2.77-.63-.15-.03-.29-.06-.43-.11.14.05.28.08.43.11.3-.11.61-.21.91-.32Zm-1.11-2.47s0,0,0,0c-.21.83-.42,1.65-.63,2.48.21-.83.42-1.65.63-2.48Zm-.64,2.51c-.29.17-.58.34-.86.52-.23.22-.45.44-.68.67-.04.26-.02.52.07.77-.09-.25-.12-.51-.07-.77.23-.22.46-.44.68-.67.29-.17.58-.34.86-.52h0Zm-.1-2.45h0c-.85.65-1.7,1.29-2.55,1.94.85-.65,1.7-1.29,2.55-1.94Zm-2.12-3.52c-1.49.2-2.99.41-4.48.61-.81.55-1.62,1.1-2.44,1.65-.59.14-1.18.27-1.77.41h0c.59-.14,1.18-.27,1.77-.41.81-.55,1.62-1.1,2.44-1.65-.59-.28-1.18-.56-1.77-.83-.22-.07-.45-.12-.68-.13.23,0,.46.05.68.13,1.82-.15,3.65-.29,5.47-.44-.35-.33-.69-.67-1.04-1-.16-.12-.32-.23-.48-.34-.48-.32-.98-.57-1.48-.7.5.14.99.38,1.48.7.16.11.32.22.48.34.35.33.69.67,1.04,1,.12-.04.24-.06.36-.08-.12.01-.24.04-.36.08-1.82.15-3.65.29-5.47.44.59.28,1.18.55,1.77.83,1.49-.2,2.99-.41,4.48-.61Zm-.29-5.16h0c.37.28.74.46,1.12.58-.38-.12-.75-.3-1.12-.58Zm5.2-.42s0,0,0,0c.32.28.64.56.97.84-.32-.28-.64-.56-.97-.84Zm16.6-3.63c-2.94.19-5.88.38-8.82.57-.29-.06-.58-.1-.87-.1-.23.89-.46,1.77-.68,2.66,1.49-.07,2.99-.14,4.48-.21,0,0,0,0,0,0-1.49.07-2.99.14-4.48.21-.25.3-.49.6-.74.9.25-.3.49-.6.74-.9.23-.89.46-1.77.68-2.66-.91-.15-1.83-.29-2.74-.44l-2.54,1.03c-4.71-1.52-9.55.02-14.29-.59-1.77-.01-3.55-.03-5.32-.04-.57.03-1.15.05-1.72.08-.6.15-1.2.29-1.8.44h0c.6-.15,1.2-.29,1.8-.44-.03-.47-.06-.95-.09-1.42,2.03-.23,4.05-.45,6.08-.68,2.67-.2,5.34-.4,8.01-.6.28.07.56.11.85.12.06-.09.13-.17.19-.26-.06.09-.13.17-.19.26-.06.26-.02.51.1.75,1.17-.16,2.24-1.58,3.51-.25,1.87-.1,3.78-.64,5.57.39.85-1.08,2.27-.35,3.25-1.02,2.03,1.19,4.16.18,6.23.28.57.01,1.14.03,1.71.04.34.3.67.6,1.01.91.02.32.04.63.07.95.63.49,1.3.54,1.99.49-.69.04-1.36,0-1.99-.49Zm3.86,2.96c.41.21.89.18,1.36.19-.47,0-.94.03-1.36-.19-.03-.24-.05-.47-.06-.71.54-.06,1.07-.13,1.61-.19-.54.06-1.07.13-1.61.19,0,.24.03.47.06.71Zm2.53-1.02h0c.11-.26.23-.52.34-.78-.11.26-.22.52-.34.78Zm-.64-2.85c.42-.2.87-.36,1.25-.61,0,0,0,0,0,0-.38.25-.83.41-1.25.61Zm2.28,1.11s0,0,0,0c-.31.03-.62.07-.93.1,0,0,0,0,0,0,.31-.03.62-.07.93-.1.24-.31.48-.62.72-.93-.24.31-.48.62-.72.93Zm1.06,2.3s0,0,0,0c.53.1,1.1,0,1.63.05-.54-.05-1.11.05-1.63-.05Zm3.67.92s0,0,0,0c.38-.44.8-.6,1.24-.62-.44.01-.86.18-1.24.62Zm-.45-5.43c-1.78.14-3.55.29-5.33.43,0,0,0,0,0,0-.62-.59-1.24-1.17-1.86-1.76-1.17.13-2.33.27-3.5.4.33.52.66,1.05.99,1.57.4.15.67.38.82.67-.15-.29-.42-.52-.82-.67-.33-.52-.66-1.05-.99-1.57,1.17-.13,2.33-.27,3.5-.4h0c.62.59,1.24,1.17,1.86,1.76,1.78-.14,3.55-.29,5.33-.43-.7-.52-1.39-1.05-2.09-1.57-.21,0-.4-.08-.57-.21.57-.3,1.14-.59,1.72-.89-.65-.23-1.31-.46-1.96-.7h0c.65.23,1.31.46,1.96.7,2.17.16,4.38-.54,6.51.34,4.31.03,8.61.06,12.91.08.06.19.11.38.16.58,1.33,1.91,3.11.67,4.71.66,2.04.23,4.08.47,6.49.75-.95.76-1.56,1.26-2.17,1.75,2.06-.13,4.12-.26,6.17-.39,0,0,0,0,0,0-2.06.13-4.12.26-6.17.39-.61-.14-1.23-.29-1.84-.43-2.94-.07-5.88-.14-8.81-.21h0c-.91-.06-1.82-.12-2.73-.17-2.06.17-4.12.33-6.17.5-.21-.13-.43-.17-.67-.12-.22-.46-.45-.91-.67-1.37-2.22.86-4.58-1.53-6.75.31Zm16.19,2.38c-.88-.57-1.84-.65-2.82-.6.98-.05,1.93.03,2.82.6,1.15.24,2.27.67,3.39,1.08-1.12-.41-2.24-.84-3.39-1.08Zm.15,2.03c-.29.24-.59.47-.88.71,0,0,0,0,0,0,.29-.24.59-.47.88-.71Zm-1.87,1.99c-.42-.22-1.15-.27-.93-.86-.21.59.52.63.93.86Zm16.11-.78c-4.08.68-8.15,1.37-12.23,2.05,0,0,0,0,0,0,4.08-.68,8.15-1.37,12.23-2.05Zm-18.33-1.09c-.87.11-1.78.66-2.61.33.83.33,1.74-.22,2.61-.33Zm-5.55,1.16c.96-.04,1.9-.16,2.67-.97,0,0,0,0,0,0-.77.81-1.71.94-2.67.97Zm2.91,3.36s0,0,0,0c-.19.51.07.83.38,1.14-.31-.31-.57-.64-.38-1.14Zm.47,0c.17,0,.35,0,.52,0,0,0,0,0,0,0-.17,0-.35,0-.52,0Zm3.22,2.36c-.34.39-.68.79-1.01,1.18.34-.39.68-.79,1.01-1.18.26-.52.53-1.04.79-1.56-.26.52-.53,1.04-.8,1.56h0Zm-1.19-4.17c0,.25.02.5.04.75h0c-.02-.25-.03-.5-.04-.75.88-.15,1.75-.29,2.63-.44-.88.15-1.75.29-2.63.44Zm15.35,4.09h0c2.66-.22,5.32-.45,7.98-.67-.02-.28-.03-.57-.05-.85h0c.02.28.03.57.05.85-2.66.22-5.32.45-7.98.67Zm6.05-3.08c-.61.08-1.21.15-1.82.23.53.65,1.31.58,2.06.61-.75-.03-1.53.04-2.06-.61-.89-.03-1.77-.06-2.66-.09-.58.14-1.15.28-1.73.42-.22.82-.44,1.65-.66,2.47.22-.82.44-1.65.66-2.47-1.79.13-3.59.26-5.38.39-.55-.04-1.1-.08-1.65-.11-.88.12-1.75.24-2.63.35.64.78,1.27,1.56,1.91,2.33-.64-.78-1.27-1.56-1.91-2.34-.31-.05-.62-.11-.93-.16-.61.11-1.22.23-1.83.34h0s-.09.01-.14.02c.05,0,.09-.02.14-.02.61-.11,1.22-.22,1.83-.34-.34-.5-.68-.99-1.02-1.49.28-.32.56-.64.84-.96,0,0,0-.01-.01-.02v.02c-.26.32-.54.64-.82.96.34.5.68.99,1.02,1.49.31.05.62.11.93.16.88-.12,1.75-.24,2.63-.35-.08-.28-.16-.56-.25-.85,2.98-.15,5.97-.3,8.95-.45l4.42-.42c1.71-.13,3.42-.25,5.13-.38.03.29.06.58.09.88-1.7.13-3.41.25-5.11.38Zm5.34-10.1c-1.1,0-2.2.02-3.29.02,1.1,0,2.2-.02,3.3-.03.36.47.81.69,1.33.71-.52-.02-.97-.24-1.33-.7Zm.77-.94s0,0,0,0c.37-.11.74-.22,1.11-.34-.37.11-.74.22-1.11.34Z"/>
      <path class="cls-1" d="m177.67,10.3s.03,0,.04,0h0s-.01-.06-.02-.09c-.02.02-.04.04-.07.05.01.02.03.03.04.04Z"/>
    </g>
  </g>
</svg>