<?xml version="1.0" encoding="UTF-8"?>
<svg id="Layer_2" data-name="Layer 2" xmlns="http://www.w3.org/2000/svg" viewBox="0 0 181.52 118.23">
  <defs>
    <style>
      .cls-1 {
        fill: #fff;
      }
    </style>
  </defs>
  <g id="Graphic_Elements" data-name="Graphic Elements">
    <path class="cls-1" d="m25.3,114.47c.42-5.02.38-9.96-2.35-14.46,1.35-2.96,2.67-5.92-.76-8.44,2.01-4,.58-7.69-1.04-11.36.63-3.64,1.86-7.3,1.71-10.91-.12-2.93-1.76-5.65.06-8.75.85-1.44-.22-3.24-1.62-4.41-.43-1.33.26-3.01-1.29-3.98l-.03-.05c-.05-1.15,1.49-1.89.85-3.2.11-5.18.23-10.35.34-15.53.84-.48,3.68.44,1.8-1.97-1.86-2.38,1.2-2.06,1.35-3.22-.3-.41-.6-.81-.9-1.22.53-1.1.23-2.09-.41-3.03-1.1.79-1.63,1.51-1.27,2.1-.36-.59.17-1.31,1.27-2.1,1.62-.9.31-3.38,2.22-4.12,0-.74,0-1.49,0-2.23h0c0,.74,0,1.49,0,2.23,0,.02,0,.05,0,.07.04,0,.08.01.11.02.68.69,1.36,1.37,2.04,2.06.68.33,1.37.65,2.05.98.15,7.33.29,14.65.48,21.97.03,1,.33,1.98.5,2.97h0c.07,3.47.13,6.93.2,10.4-1.27,7.46,1.82,14.72,1.04,22.15-.31,2.95.39,5.56,2,7.99-.96.88-1.32,1.93-.9,3.19-.45,4.04,2.33,7.47,2.1,11.68-.08,1.45,3.8,3.11,5.94,4.74.81-1.03-.9-2.78,1.11-3.16,3.44,2,4.83-.5,6.28-2.87.8-.13,1.88.3,2.07-1.03,1.66.6,2.39,3.8,4.99,1.79,1.15-.24,2.4-.89,3.44-.65,3.7.85,4.56-.92,4.26-4.08.28-.75.57-1.5.85-2.25-1.55-3.32-3.37-6.58-2.14-10.46,1.13-1.8-1.08-4.71,1.93-5.89-4.42.12-1.1-3.08-1.94-4.5-1.03.29-2.06,2.03-3.1.01h0c1.96-1.82.86-4.16,1.05-6.28-.29-.66-.58-1.31-.87-1.97,1.09-.13,2.19-.27,3.28-.4-.54-.78-1.07-1.56-1.61-2.35-1.63-.8-.08-2.48-.95-3.49-.73-.71-1.46-1.42-2.18-2.13-.94-.47-1.03-1.28-.88-2.19.01-1.7.03-3.41.04-5.11h0c-.01,1.7-.03,3.41-.04,5.11,1.48.06,2.13-.75,2.26-2.12,1.15.11,2.35.39,3.01-.99.13-.43.26-.86.39-1.29.28.46.55.92.83,1.37.02.71.04,1.42.06,2.13-.55,1.15-2.49,1.25-2.25,2.99.32.03.63.05.95.07.11.34.12.67.03,1.02-.05.71-.11,1.43-.16,2.14.81,1.37,1.63,2.75,2.44,4.12-1.38,2.07,1.73,4.21-.11,6.27.19.38.38.77.57,1.15.19,1.7.38,3.4.57,5.1l-.3-.09c.49.71.98,1.42,1.47,2.13-1.58,2.96-.17,5.27,1.63,7.5.06,1.92,1.6,3.79.21,5.77.51.07,1.22-.04,1.49.25,1.07,1.19,2.01,2.5,3,3.76,2.15-2.92,5.78-1.53,8.43-2.93.2-.1-.13-1.19-.21-1.82.87.23,1.56.09,1.84-.9.23-.82-.22-1.13-.92-1.28-.12-.31-.15-.63-.09-.95,2.4-3.88-.56-6.46-2.27-9.34-1.2-.76.04-1.48.03-2.22-.08-3.19,1.25-6.52-.87-9.52-.08-.62-.17-1.25-.25-1.87.11-.32.23-.64.35-.95,1.58-1.89-1.32-3.45-.38-5.29.2-.28.23-.58.08-.89.73-2.11.86-4.23.08-6.35,2.32-2.2-.21-4.23-.22-6.35-.44-1.44,2.2-2.59.4-4.16-.21.12-.42.24-.63.36h0c.21-.12.42-.24.63-.36.93-2.16-.28-5.14,2.71-6.62.57-.28-.1-1.63-.96-2.46-1.79-1.73.79-1.46,1.26-2.2,2.27-.33,3.45-1.82,4.14-3.84.68.24,1.35.48,2.03.71.33.39.67.77,1,1.16-.2,1.55-.89,3.2.89,4.34.1.59.19,1.17.29,1.76-1.32,3.95,1.65,7.54.98,11.44.03,9.76.31,19.5,1.93,29.15-1.43,5.04.33,9.63,2.25,14.09,2.14,4.96,6.14,3.21,9,1.38,2.45-1.56,3.41-4.63.74-7.39,2.39-.3,4.62-.71,2.64-3.94,1.39-2.34-.24-3.37-1.9-4.39,2.59-.56,4.82-1.38,3.1-4.73-1.25-2.42,1.57-5.93-2.08-7.69,3.53-3.71,4.33-8.25,2-11.31-.68-2.78,3.45-4.35,1.84-7.35.02-.63.05-1.26.07-1.89-1.39-2.09,2-2.51,1.5-4.29-.86-1.31-1.74-2.62-1.43-4.32,3.51-1.9,2.6-3.95.21-6.06,0-.26,0-.53.02-.79,1.35-.14,2.71-.28,4.06-.41,2.23,1.21.47,4.51,2.94,5.6-.06.34.05.61.32.82-.12,1.72-.24,3.44-.37,5.16.04,7.29.08,14.58.12,21.87-1.87,1.39-1.46,2.78-.01,4.17,1.02,5.69-.81,11.38,1.6,17.36,1.58,3.91,3.02,2.49,4.97,2.2.91-.14,1.68-1.11,2.8-.79,2.47,1.46,1.6-1.1,2.23-1.85,3.17-1.87,1.32-4.94,1.77-7.46-.02-1.82-.04-3.64-.05-5.46-.3-1.33-.61-2.65-.91-3.98-.65-.71-1.3-1.41-1.95-2.12.79-.74,1.31-1.55,1.62-2.41-.31.86-.83,1.67-1.62,2.41.65.71,1.3,1.41,1.95,2.12,1.26-3.15,1.77-6.32.34-9.56-.07-1.3-.14-2.59-.2-3.89,1.64-2.05,1.56-4.08-.11-6.07-.88-.57-.8-1.38-.53-2.22,1.73-.75.6-2.08.65-3.17,2.14-1.79.32-4.27,1.11-6.3,2.46-2.28,3.74-5.1,3.83-8.45-.18-1.12-2.9-.83-1.55-2.8.28.01.51-.09.69-.32,1.38.43,2.76.85,4.13,1.28.7,6.94-.45,13.84-.6,20.76-.29,12.8.26,25.57.7,38.36.08,2.28.91,4.19,1.72,6.17-1.37,1.52.69,2.72.93,2.63,3.02-1.16,6.06-2.21,9.15-3.18,1.13-.35,1.8-3.86,1.75-5.9-.08-2.66.29-5.48-1.02-8.02,1.64-2.67.55-5.58.76-8.38.01-.64.02-1.27.03-1.91.83-2.27,1.21-4.48-.9-6.33l-.12.04c1.98-4.46-.25-9.11.63-13.62.9-.34,1.8-.69,2.69-1.03,3.72,1.27-.26,4.68,1.77,6.42.74,4.44-.39,9.05,1.22,13.41,0,0,0,0-.01,0,.04,1.72-.73,3.46.15,5.15-.07.34-.11.68-.13,1.02-1.28,2.07,1.67,3.28,1.05,5.22-.95,2.88,1.01,5.32,1.27,8.03.17,1.76,2.34,2.9,3.19,2.33,2.65-1.79,5.55.42,8.05-1.01.57,1.54,1.89,1.78,3.28,1.91,2.02.3,4.09.76,5.29-1.63,2.48-1.53.68-3.63.72-5.48.23-.28.33-.6.28-.97-.4-.02-.81-.04-1.21-.05-.98-.63-1.64-1.35-2.05-2.15.4.8,1.06,1.52,2.05,2.15.4.02.81.04,1.21.05,1.3-4.91,1.76-9.81-.1-14.7h0c.96-2.05-1.93-4.05-.07-6.11,1.17-.84-.4-1.33-.26-2.03,2.05-2.93-.56-5.69-.31-8.55.84-4.68-5.03-4.49-5.82-7.99-1.3-.77-2.42-4.06-4.05-.29-1.79-.18-3.92,1.62-5.32-.89,2.75-2.01,1.8-4.03.04-6.06-.31-.4-.62-.8-.94-1.2,1.9-1.69.5-4.38,1.88-6.23.76-1.98-1.06-3.43-1.1-5.24.84-2.48.28-4.09-2.64-4.24-1.03-1.1-1.26-3.11-3.37-3.01-.02.34-.03.67-.03,1.01.05.6.1,1.21.15,1.81.68.31,1.36.63,2.05.94-.68-.31-1.36-.63-2.05-.94-.05-.61-.1-1.21-.14-1.81h0c0-.34,0-.68.03-1.01-4.31-2.23-7.6,1.36-11.41,2-1.2-2.63-4.25-2.52-6.13-4.15-.33-3.11-2.83-1.25-4.25-1.86-1.32-.64-2.82-2-3.26.83-1.93,1.09-3.59,1.99-2.71,4.98.64,2.17-3.76-.73-3.31,2.37,2.06,0,4.12,0,6.18-.01,1.34-.48,1.49-1.25,1.37-2.1.12.84-.03,1.62-1.37,2.1-2.06,0-4.12,0-6.18.01-.08.33-.15.65-.23.98-1.71.05-3.41.1-5.12.15-1.77-3.66-4.72-4.17-8.26-3.1-5-.95-5.4,3.37-7.09,6.2-.45,1.35-.9,2.69-1.35,4.04-1.68.83-.22,3.5-2.37,4.05-1.3,1.66-.44,3.55-.57,5.34-.31.7-.62,1.4-.93,2.1-.7.7-1.41,1.4-2.11,2.1,1.66,3.06-1.4,1.1-1.94,1.82,0,0,0,0,0,0,.1-.67-.49-1.57.63-1.91-.01-.33.04-.65.16-.95,2.66-1.07,1.22-2.11-.01-3.16-.08-3.13.36-6.44-2.94-8.42.44-2.01.08-3.57-2.28-3.99-.58-.41-1.16-.82-1.74-1.23-1.5-4.91-4.6-2.92-7.52-1.74-1.88.74-4.15.77-5.29,2.88-1.86,2.91-4.62,5.43-4.23,9.36-1.14.54-2.47.75-3.19,1.97-.27-.04-.54-.05-.81-.04-.67-.35-1.34-.69-2.01-1.04.55-2.04-.18-3.43-2.11-4.22,1.4-1.68,1.64-3.37.02-5.06-1.01-1.61-2.21-2.96-4.31-3.02-1.14-3.56-3.15-2.25-5.17-.92-4.93-2.5-3.71,1.73-4.33,3.95-1,.3-1.05,1.14-1.11,1.97-2.91.97.1,3-.75,4.34-.36.37-.72.74-1.08,1.1-1.37.15-1.47,2.3-3.13,1.99.03-.67.06-1.34.08-2.01,1.21-1.69,1.57-3.03-1.25-3.06-.67-.38-1.35-.75-2.02-1.12-1.62-3.55-1.37-8-5.09-10.53.02-1.94,3.09-1.45,2.85-3.59-.95-.15-1.91-.31-2.86-.46-.96-2.1,1.06-2.28,2.02-3.13C37.53,2.97,35.23-.34,30.46.03c-.64,2.08-2.64,1.66-4.1,2.22-.75,1.34-1.51,2.69-2.26,4.03,1.07,1.46,1.65,2.77-.97,3.05-.66.77-1.33,1.55-1.99,2.32-1.78,2.01-.19,5.76-3.57,6.94,1.09.51,1.37,1.5,1.5,2.57,0,0,0,0,0,0-.13-1.07-.4-2.06-1.5-2.57-2.9,1.11-3.81-1.64-5.44-2.88-4.14-3.17-7.02-2.53-8.63,2.04-.35,1.42-.7,2.83-1.05,4.24C-.26,29.5.81,37.35.18,45.05c-.3,3.63-.38,7.1,1.02,10.49-2.14,5.12.03,10.17.24,15.24-.84.66-1.66,1.31-.09,2.07.84,4.08,1.72,8.06,1.33,12.38-.24,2.65,1.24,5.52,2.21,8.19.23.64,1.19,1.22,2.55.54,2.29-1.15,4.7.27,4.43,2.5-.51,4.2,2.06,7.69,1.81,11.7-.6,1.24.25,1.74,1.14,2.23.06,1,.13,2,.19,3-.1.85-.44,1.78.79,2.14,1.32.2.4,3.95,3.1,1.96l.22.14c2.98.75,6.05,1.68,6.17-3.16ZM79.39,22.47c.02-.2.01-.41-.03-.64.05.23.05.44.03.64Zm55.56-12.24c.41-.39.58-.93.61-1.54.32-.44.63-.88.95-1.32-.32.44-.63.88-.95,1.32-.04.61-.21,1.14-.62,1.54Zm12.95,4.45c-1.93-.02-2.97.3-3.47.82.5-.52,1.54-.84,3.47-.82Zm.04,1.01c0-.34-.02-.68-.03-1.01h0c.01.34.02.68.03,1.01Zm28.86,50.55c.43,1.04.42,2.28.29,3.59h0c.13-1.31.14-2.55-.29-3.59Zm-26.71,7.55c-.29,3-1.4,5.71-2.59,8.4,1.19-2.69,2.3-5.4,2.59-8.4h0Zm13.44-33.14c-.33.68-.66,1.36-.99,2.05.66,1.02.74,1.93.45,2.59.29-.66.2-1.57-.45-2.59.33-.68.66-1.36.99-2.05Zm-11.47-18.21c0,.15,0,.29,0,.44-3.27,4.14-1.32,9.09-2.1,13.61.51,1.83-.96,3.45-1.74,5.14.77-1.69,2.25-3.31,1.73-5.14.78-4.53-1.17-9.47,2.1-13.61,0-.15,0-.29,0-.44Zm-20.81-2.61c.35,0,.69.01,1.04.02-.35,0-.69,0-1.04-.02h0Zm16.14-.41c-.16-.27-.26-.58-.29-.93.03.35.13.66.29.93Zm-10.37-1.4c.48.74.94,2.02,1.6,3.93h0c-.66-1.9-1.13-3.19-1.6-3.93Zm-9.38,35.75c-.24.49,0,1,1.51,1.57.26.64.12,1.22-.17,1.79.3-.57.43-1.15.17-1.79-1.5-.57-1.76-1.08-1.51-1.57Zm.8-4.79c.8.05,1.51.29,1.73,1.49.09.1.14.2.17.31-.02-.11-.08-.21-.16-.31-.22-1.21-.92-1.45-1.73-1.5Zm-2.59-25.67c.93,1.76,1.72,3.63,4.23,3.86.08.35.16.7.24,1.05-.08-.35-.16-.7-.24-1.05-2.51-.23-3.31-2.11-4.23-3.86Zm-18.78,11.52c.11-.11.21-.23.3-.38.08-.33.16-.66.24-.99-.08.33-.16.66-.24.99-.09.15-.19.28-.3.38Zm-13.17,34.87c.2,1.4.27,2.78-.06,4.08.34-1.3.26-2.68.06-4.08h0Zm10.45-9.28c1.38-.39,1.83-.95,1.86-1.58-.03.63-.47,1.19-1.86,1.58l.03.5s-.03-.5-.03-.5Zm-5.28-3.15s.13.08.13.08h0c-.37.34-.75.69-1.12,1.03-.01.67-.02,1.34-.04,2.01.01-.67.02-1.34.04-2.01.37-.34.75-.69,1.12-1.03,0,0-.13-.08-.13-.08Zm-1.05-3.19s0,0,0,0c-.33.72-.65,1.44-.98,2.15h0c-.14.07-.29.14-.43.21.14-.07.29-.14.43-.21.33-.72.65-1.44.98-2.15Zm-2.63-4.12c.51.05,1.13-.04,1.57.08-.07.94.1,1.82.41,2.66-.31-.84-.48-1.72-.41-2.66-.45-.12-1.07-.03-1.57-.08Zm1.87-3.23c.27.39.54.79.78,1.19h0c-.23-.41-.51-.8-.78-1.19Zm9.67-1.41c-.29.02-.55.17-.74.53h0c.2-.36.45-.51.74-.53Zm-10.98-2.58c-.15.82-.03,1.52.23,2.17-.26-.65-.39-1.35-.23-2.17h0Zm13.92-4.32c-.56-.12-1.07-.41-1.46-1.05-.32.07-.65.13-.97.17,0,.04-.01.08-.02.13,0-.04.01-.08.02-.13.33-.05.65-.11.97-.17h0c.39.64.9.93,1.46,1.05Zm-13.99-7.8c.07.53-.03,1.18.05,1.68-.44.21-.68.54-.84.9.15-.37.4-.69.84-.9-.08-.5.02-1.15-.05-1.68Zm-4.02-5.94c.33-.19.62-.41.83-.71-.21.3-.5.53-.83.71Zm-4.66,1.41c-.2-.01-.4-.01-.6-.04.19-1.22-.1-2.02-.8-2.41.7.39.99,1.19.8,2.41.2.03.4.03.6.04Zm-7.77,3.23c-.18-.36-.42-.61-.69-.78.28.17.52.42.7.78,0,0,0,0,0,0Zm-5.81,36.5c.33,2.2.34,4.5,2.39,6.03-.1,1.12,1.56,1.61,1.56,2.87,0-1.26-1.66-1.75-1.56-2.87-2.05-1.52-2.06-3.82-2.39-6.03Zm-10.84-7.55s-.02.02-.03.02c-.05,1.38,1.78,2.44,2.64,3.67-.87-1.23-2.7-2.29-2.64-3.67.01,0,.02-.02.03-.02Zm.92-1.63c.02.24-.03.48-.14.71.11-.23.16-.47.14-.71Zm-15.6,40.29c.06.52.17,1,.51,1.31-.34-.31-.45-.79-.51-1.31-.7.27-1.39.54-2.09.81.7-.27,1.39-.54,2.09-.81Zm2.06-.2c-.19.63-.49,1.25-.8,1.83.35.09.51.24.57.44-.06-.19-.22-.35-.57-.44.31-.58.61-1.2.8-1.83Zm10.45-1.12c.27.81.62,1.61,1.1,2.39h0c-.48-.79-.83-1.58-1.1-2.39Zm-14.16-12.15c1.45,1.79,4.15,2.83,4.78,5.05,0,0,0,0,0,0-.64-2.22-3.33-3.26-4.78-5.04Zm10.01-21.11c.5,1.34.88,2.74.99,4.24-1.72.01-3.44.02-5.16.04,1.72-.01,3.44-.02,5.16-.04-.12-1.5-.49-2.9-.99-4.24Zm-10.75-14.32c.22.64.36,1.3.35,1.97-.07.32-.29.67-.48,1.01.19-.34.42-.68.48-1.01.02-.67-.13-1.33-.35-1.97Zm23.33-1.13c-.39.36-.77.72-1.16,1.08-1.72.16-2,1.71-2.48,3.07.48-1.36.77-2.91,2.48-3.07.39-.36.77-.72,1.16-1.08Zm-1.15-6.23c.35-.03.66-.09.94-.18-.28.1-.59.16-.94.18Zm-4.85,2.28c.04-.69-.09-1.48-.34-2.35,0,0,0,0,0,0,.25.86.38,1.65.34,2.35Zm-3.45.79c-.36-1.04-.71-2.09-1.07-3.13.36,1.04.71,2.09,1.07,3.13.04.69.09,1.39.13,2.08,0,0,0,0,0,0-.04-.69-.08-1.39-.13-2.08Zm-4.2-4.16c.38.38.75.77,1.13,1.15h0c-.38-.38-.75-.77-1.13-1.15Zm-10.89-3.98c-.09.25-.23.49-.43.7h0c.2-.21.34-.45.43-.7Zm13.01-1.18c-.34.67-.69,1.35-1.03,2.02-.46.28-.72.63-.86,1.02.15-.39.4-.74.86-1.02.34-.67.69-1.35,1.03-2.02Zm-20.48-15.56c-.72.28-1.49.74-2.13.65.64.09,1.41-.38,2.13-.65Zm-3.35-1.07c-1.18.02-2.36.05-3.54.07,1.18-.02,2.36-.05,3.54-.07h0Zm-16.72,5.25h0c.72-.13,1.54-.11,2.27-.22-.73.11-1.55.09-2.27.22Zm-.83,7.75c-.23-.84-.45-1.68-.43-2.49-.02.81.2,1.65.43,2.49Zm2.94,19.84c-.22-1.2.29-2.55-.21-3.69.66-4.56-.97-9.31,1.13-13.74.11-.72-.02-1.41-.2-2.1.18.69.31,1.38.2,2.1-2.11,4.44-.48,9.18-1.13,13.74.5,1.14,0,2.49.21,3.69Zm5.35,64.05c-.41-.42-.81-.84-1.22-1.26-.12,0-.25.02-.36.03.12-.02.24-.03.36-.03.03-.22.07-.43.13-.65-.06.22-.1.43-.13.65.41.42.81.84,1.22,1.26h0Z"/>
  </g>
</svg>