<?xml version="1.0" encoding="UTF-8"?>
<svg id="Layer_2" data-name="Layer 2" xmlns="http://www.w3.org/2000/svg" viewBox="0 0 140.69 138.34">
  <defs>
    <style>
      .cls-1 {
        fill: #fff;
      }
    </style>
  </defs>
  <g id="Graphic_Elements" data-name="Graphic Elements">
    <path class="cls-1" d="m140.41,54.24c-.68-1.51-1.22-2.46-3.42-1.24-3.47,1.92-5.25,5.33-8.06,7.77-.31.35-.62.7-.94,1.05-3.78,1.16-5.59,4.12-6.89,7.54-1.26,1.12-1.8,3.25-4.54,2.89,2.32-2.68,1.61-5.94-.45-7.2-1.73-1.04-4.83-.13-6.85,2.19-.8.92-1.89,1.91-2.9,2.81-.69.43-1.37.9-2.09,1.29-3.44,1.91-5.02,5.46-7.37,8.33-.06.22-.05.44.04.66-3.3.94-4.76,3.89-6.79,6.22-2.17.03-2.04,2.04-2.82,3.27-2.49-.15-3.76,1.14-4.09,3.51-.56.31-1.13.62-1.69.93-.21-.43.19-1.83-.97-.79-1.01.91-1.75,2.12-2.61,3.2l-.04.04c-.78.92-1.55,1.84-2.33,2.76-3.28,3.61-7.76,5.99-10.41,10.23-3.18-1.14-3.77,1.77-5.22,3.34-1.68,1.52-3.93,2.41-5.11,4.5-2.74,1.77-4.23,5.51-8.27,5.23.68,2.49-1.59,2.48-2.83,3.34-1.25.1-1.99-.31-1.7-1.73.92-.81,1.17-2.24,2.48-2.69,1.49-2.18,2.97-4.37,4.46-6.55,1.69-.65,2.62-1.8,2.42-3.69.64-1.09,3.1-.23,2.66-2.48.77-.29,2.03-.4,2.23-.91,1.26-3.3,4.48-4.97,6.26-7.8,2.89-1.16,3.46-4.62,6.05-6.07,1.42-1.43,3.6-2.08,4.3-4.23,1.03-1.16,2-2.38,3.11-3.47,9.09-9,18.04-18.15,27.21-27.07,2.76-2.69,5.95-5.01,8.32-8.16,4.63-6.16,10.94-10.78,15.76-16.74,2.49-3.07,7.08-4.31,7.72-8.94,1.3-.27,2.04-.75.77-2,.04-.26-.04-.47-.24-.64.56-1.97-1.7-2.8-1.88-4.61-.09-.88-.87.53-1.47.52-.56,0-1.12,0-1.68,0-1.62.07-3.76-1.47-4.45,1.45-.82,1.84-2.81,2.37-4.1,3.68-1.27,1.11-3.34,1.68-2.78,4.05-1.66,1.22-3.92,1.83-4.35,4.3-2.23,2.03-4.51,4.04-6.71,6.07-4.98,4.6-9.35,9.86-14.07,14.76-4,4.16-8.34,8-11.75,12.71-.26.06-.52.08-.78.04-2.43-2.04-2.11.62-2.76,1.61-3.37,1.75-4.72,5.54-7.72,7.65v.03c-.79.37-1.57.73-2.36,1.1-.98.71-2.99.25-2.72,2.39-1.49.72-1.48,2.52-2.55,3.54-.87.51-2.26.33-2.39,1.81-.16.66.14,1.59-.99,1.67-1.13-1.52-2.3.56-3.43-.04-.33-1.57-.77-2.91,1.14-4.13,5.7-3.63,8.05-10.51,13.89-14.27,2.42-1.56,4.15-4.72,6.03-7.12,5.26-6.77,11.84-12.36,16.72-19.4,1.25-.33,1.8-1.36,2.37-2.37.28-.05.42-.21.4-.5.86-.91,2.05-1.56,2.42-2.88.96-.73,2.36-1.06,2.42-2.63.73-.79,1.33-1.6.23-2.56-.72-1.81.59-4.65-2.63-5.21-1.28-.81-2.02-1.9-1.85-3.48.18-2.14,2.17-2.46,3.48-3.46,1.24-3.55-.27-6.57-3.39-6.76-5.17-.39-7.41,3.74-10.39,6.74-1.16.85-2.33,1.7-3.5,2.56h0c-1.56-.02-1.51,1.07-1.51,2.14-.66-.04-1.18-.17-1.78.57-1.91,2.37-4.03,4.57-6.07,6.84-.25,1-.6,1.88-1.06,2.66.46-.77.81-1.65,1.06-2.66-2.21,1.61-4.38,3.27-6.64,4.8-.86.59-1.55,1.06-.94,2.19-.6.87-1.2,1.74-1.79,2.6-2.17-1.55-3.36-1.06-3.46,1.67-1.38.73-2.81,1.41-2.67,3.35-1.88.98-2.77,2.94-4.23,4.34-3.07-.14-4.08,2.11-5.08,4.37-8.13,7.09-15.69,14.88-24.92,20.65-1.7.58-3.4,1.16-5.1,1.73-.73-.3-.83-.96-.91-1.63l-.1-.23c.69.02,1.5.36,1.81-.67,1.23-1.63,3.38-2.35,4.27-4.31,4.1-.56,3.55-6.5,7.85-6.83l.02.02c2.28-2.33,4.57-4.67,6.85-7,3.65-1.94,6.02-5.36,9.12-7.94,5.74-4.78,11.27-9.84,16.71-14.97,4.8-4.53,9.36-9.32,14.01-14.01.39-.4.76-.67,1.29-.92,2.59-1.22,4.57-3.08,5.23-6.03,3.55-2.52-.33-2.45-1.2-3.43-1.55-2.67-3.88-2.75-5.78-.19-.7.95-1,3.01-2.71.75-.66-.87-1.46.29-1.45.65.11,3.18-2.5,3.67-4.52,4.75-.56,0-1.12.02-1.67.03-.31-1.39-.77-2.62-2.53-2.6-.4-3.66-4.11-5.72-7.74-4.29-3.27-2.96-3.75-2.85-7.05,1.67-.51.29-1.03.57-1.54.86-1.24-.19-1.75.51-1.94,1.59-3.58,1.63-6.24,4.17-7.74,7.85-3.32,1.81-6.31,3.95-7.64,7.73l.23.19h0s-.23-.19-.23-.19c-2.39,1.28-4.31,3.08-5.95,5.21-.55-.15-1.09-.3-1.64-.45-.05-.45-.1-.9-.15-1.35.95-2.36,4.1-3.06,4.42-5.89,1.03-.62,1.97-1.59,1.69-2.72-.74-2.96,1.42-4.63,2.63-6.73,1.14-1.14,2.28-2.28,3.43-3.42,0,0,0,0,0,0h.01c1.08-1.25,2.38-2.39,1.69-4.33-.89-.93.83-3.27-1.77-3.28-.27-.18-.53-.16-.77.04-.82-.71-1.65-1.42-2.47-2.12-.14-.5-.61-1.43-.71-1.24-1.37,2.58-5.25,3.09-5.45,6.58-.29.05-.57.11-.86.16-1.52-1.19-2.96-2.52-4.6-3.52-1.5-.91-4.08-2.17-4.35.47-.32,3.13-2.35,6.5.06,9.67-.23-.15-.42-.11-.56.14q-2.39-1.42-2.59,1.71c-.87.94-.77,2.16-.98,3.29l.07.07c-1.29-.05-2.7-.29-2.6,1.74-1.21-.03-1.41.93-1.73,1.77-.56.3-1.12.6-1.69.89-.27,4.87-1.53,9.35-5.06,12.95C-.04,38.23,1.38,41.71.07,44.45c-.43.91,1.21,2.18,2.43,2.07,2.09-.2,4.5.15,5.92-2.09,1.73-2.31,5.12-2.94,6.1-6.01,1.33-.55,2.66-1.11,3.91-1.64,1.29,2.05-2.27,3.23-.44,5.09.28,0,.55,0,.83-.02.14-.9.5-1.63.98-2.25-.48.62-.84,1.35-.98,2.25-.28.01-.55.02-.83.02-.28.98-1.74,1.28-1.45,2.58-1.34.95.28,2.28-.43,3.31-.77,1.83.52,2.39,1.82,2.93-.14.22-.14.42.02.63.57-.01,1.15-.02,1.72-.03.06-.33.12-.66.19-1-.02-.41,0-.84-.06-1.22.05.38.04.81.06,1.22.15.07.28.07.39.01-.12.05-.25.05-.39-.01-.06.33-.12.66-.19,1-.57.01-1.15.02-1.72.03-.68,2.5-3.42,4.01-3.28,6.9.83,1.95-3.69,5.22,1.51,6.08,2.55,2.65-1.3,3.41-1.54,5.24-.44,1.92-3.15,2.61-2.7,5.01-3.05-.97-3.68,1.22-4.35,3.34-3,.47-3.93,2.6-4.18,5.26-2.86,6.93-2.37,7.62,4.94,7.08.37-.03.77.34,1.02-.22.28-.05.57-.1.85-.16,2.03-1.22,3.01-.47,3.21,1.72-2.95,1.73.2,4.77-1.37,6.96-.26.36,1.52,1.1,2.5.16,2.43-.49,5.43.59,6.89-2.53,1.37-.19,2.91-.04,3.38-1.86,1.4-.91,2.79-1.82,4.19-2.73,1.21-.4,2.62-.4,3.4-1.68,1.49-1.39,2.97-2.78,4.46-4.18,1.08,0,1.06-1.2,1.75-1.63,2.82-1.86,5.64-3.72,8.46-5.58-.25-2.72,3.85-1.29,3.72-3.9h.34s.34.01.34.01c0,.57,0,1.13,0,1.7.1.76-.03,1.41-.82,1.75-1.8-.61-1.47,2.5-3.27,1.89-.63,1.07-1.25,2.14-1.88,3.21.19,1.71-1.05,2.5-2.06,3.58-1.44,1.54-4.16,2.1-4.05,4.91-.83-.25-2.03-1.49-2.41-.04-.8,3.04-3.72,3.98-5.38,6.12-.98.17-1.39.85-1.56,1.75-2.42,1.77-5.02,3.41-5.2,6.88l-.95,1.58c-4.25-.28-3.53,4.35-5.88,5.95-.07-.13-.11-.28-.21-.37-.08-.07-.33-.12-.34-.1-1.42,3.01-4.39,5.09-5.06,8.54-.71,5.2.33,6,5.52,4.22,1.64.34,2.2-1.37,3.43-1.81,3.17.91,3.7-2.91,6.1-3.39,1.09.05,1.71-.58,2.5-1.29,2.58-2.32,5.2-4.64,8.61-5.74.5,1.4-1.1,2.21-.97,3.51-2.38,2.27-3.92,5.14-5.71,7.84-.1.51-.2,1.01-.31,1.52-1.27.85-1.21,2.33-1.68,3.55-1.33.57.32,1.11.02,1.67-2.04,2.32.16,4.28,1.16,5.61.82,1.08,3.35.87,5-.27,0,0-.08-.06-.08-.06,3.7-.38,6.71-1.89,8.57-5.27.57-.05,1.14-.1,1.72-.15,1.49-1.6,3.8-2.35,5.1-3.84,2.05-2.36,5.09-3.09,7.14-5.46,1.46-1.69,4.65-.05,6.66-1.67,3.73-2.53,7.95-4.46,10.36-8.58.27-.32.54-.64.81-.95,4.05-1.05,5.87-4.41,7.87-7.59,1.63-1.23,3.25-2.47,4.88-3.7.59-.23,1.19-.46,1.78-.69,0-.3,0-.59,0-.89,2.09-2,2.81-5.89,6.92-5.1-.1,1.38-1.99,1.87-1.71,3.43-.3.27-.59.54-.89.81-1.52.14-2.23,1.16-2.67,2.48-.21.1-.43.19-.66.25-.32.53-.65,1.07-.97,1.6-2,.27-3.27,1.27-3.41,3.4-.03.28-.07.56-.13.83-.56.52-1.12,1.03-1.68,1.55-1.74.95-4.34,1.37-2.76,4.4-1.19.91-1.84,2.04-1.47,3.59q1.92,5.41,5.26,3.46c.27-.34.54-.68.8-1.02,1.62-1.43,3.25-2.76,4.7-4.47,2.87-3.38,6.47-6.14,9.76-9.16,1.68-2.87,5.44-4.04,6.22-7.64,1.85-1.04,2.88-2.87,4.25-4.38h0c1.42-1.22,3.09-2.22,3.48-4.28,4.41-2.59,6.09-7.54,9.5-11,1.64-1.21,2.99-2.67,3.92-4.5,2.34-2.99,5.14-5.67,6.31-9.44,3.15-1.22,5.89-6.46,4.71-9.11Zm-60.45,14.12h0c-.57.73-1.14,1.46-1.73,2.15.6-.69,1.17-1.42,1.73-2.15Zm14.54-41.73c-.53-.43-.78-.77-.85-1.04.06.27.31.61.85,1.04h0Zm5.04,7.41c.42-.72.95-1.29,1.69-1.53-.74.24-1.27.81-1.69,1.53-1.47.43-2.79.94-2.81,2.25.01-1.31,1.34-1.82,2.81-2.25Zm-2.34-8.73c-.31.03-.64.11-1.01.23.37-.12.7-.19,1.01-.23Zm-6.23.22c.85-1.9,2.26-2.49,4.22-1.82-.58-1.55.31-1.85,1.23-2.12-.92.27-1.81.57-1.23,2.12-1.96-.67-3.37-.08-4.22,1.81-1.86-.07-2.05,1.51-2.56,2.78.51-1.27.7-2.85,2.56-2.78Zm-3.37-6c.94-.42,1.72-1.02,2.43-1.69-.71.67-1.49,1.27-2.43,1.69-.45.07-.83.55-1.21.99.38-.43.76-.92,1.21-.99Zm-4.33,17.9s0,0,0,0c.58.06,1.16.11,1.73.17.74-.08.95-.41,1-.82-.05.41-.26.74-1,.82-.58-.05-1.16-.11-1.73-.17.05,1.57-.87,2.65-1.96,3.41,1.09-.76,2.01-1.83,1.96-3.41Zm-10.28,17.33c-.5,1.07-1.07,1.82-1.84,1.81.77.01,1.34-.74,1.84-1.81h0Zm4.27-14.64c-2.74.07-5.36,1.64-7.5,4.41,2.14-2.78,4.76-4.35,7.5-4.41Zm-8.59,11.22c.17.24.21.51.19.8.02-.28-.02-.55-.19-.8-.57.85-1.12,1.71-1.78,2.34.66-.63,1.22-1.49,1.78-2.34Zm-14.69-24.15c.4-.31.78-.69,1.2-.93-.42.24-.8.62-1.2.93-1.05.49-2.01,1.09-2.85,1.82.84-.73,1.8-1.33,2.85-1.82Zm-.82-8.59s0,0,0,0c-1.02.78-1.67,2.39-2.86,2.8,1.18-.41,1.83-2.02,2.86-2.8Zm-4.17,12.99h0c-.5-.51-.97-.93-1.42-1.23.45.3.92.72,1.42,1.23Zm-4.46,9.61c-.75.35-1.66.51-2.49.68-.59.58-1.18,1.16-1.76,1.75.59-.58,1.18-1.16,1.76-1.75.83-.17,1.75-.33,2.49-.68Zm-4.12-1.17h0,0s0,0,0,0Zm-6.12,5.22c1.68-.5,1.99-3.21,4.31-2.66.57-.53,1.13-1.06,1.7-1.59-.57.53-1.13,1.06-1.7,1.59-2.32-.55-2.63,2.16-4.31,2.66-.96-.96-1.49-.58-1.96,0,.46-.59,1-.97,1.96,0Zm-5.93-13.29c-.56.04-1.1.34-1.63,1.03.54-.69,1.07-.99,1.63-1.03Zm-12.78-15.82c.35-.23.69-.48.96-.76-.27.28-.61.52-.96.76ZM4.02,86.39c-.29-1.48,1.21-2.96.98-4.35h0c.24,1.39-1.27,2.87-.98,4.35Zm12.22-11.02c-.21-.57-.27-.95-.23-1.21-.04.26.02.64.23,1.21-.51.3-1,.61-1.4.98.41-.37.89-.69,1.4-.98Zm-3.45,5.16c.05-.09.11-.19.16-.28-.05.09-.1.19-.16.28-.04,0-.07,0-.11,0,.04,0,.07,0,.11,0Zm.03,2.58h0c-.25.02-.49.06-.7.11.22-.05.45-.09.7-.11Zm-.81-2.55h0c-.56-.55-1.12-1.11-1.68-1.66.56.55,1.12,1.11,1.68,1.66Zm3.35,9.84c.06-.28.08-.59.08-.92-.69-.45-.92-1.08-.93-1.82,0,.74.25,1.38.93,1.82,0,.33-.02.65-.08.93Zm-.85-3.07c-1.41-.53-2.42-.37-3.13.29.71-.66,1.72-.82,3.13-.29.87-.27,1.74-.55,2.61-.82-.87.27-1.74.55-2.6.82Zm2.8-7.56c-.06.27-.12.54-.16.81.04-.27.1-.54.16-.81.58-.16,1.17-.02,1.76.11-.59-.13-1.18-.26-1.76-.11Zm4.04,15.29c-1.32-.05-2.21,1.31-3.31,1.99,1.1-.67,1.99-2.04,3.31-1.99.03-.12.04-.25.05-.38-.02.13-.02.26-.05.38Zm6.07-5.94c-.43,0-.86,0-1.29,0,.43,0,.86,0,1.29,0h0Zm1.84.88c-.22.07-.44.15-.65.21.21-.06.43-.14.65-.21h0Zm11.91-18.95c-.78.31-1.14.94-1.45,1.61.31-.67.66-1.3,1.45-1.61.68.1,1.14-.27,1.57-.69-.43.42-.89.79-1.57.69Zm7.74-1.7c.01-.37.02-.75.03-1.12-.43-.66-.64-1.27-.65-1.85.01.57.22,1.18.65,1.84-.01.37-.02.75-.03,1.12Zm.06.05h0c.09.06.18.11.27.17-.09-.06-.18-.11-.27-.17Zm11.19-12.94s0,0,0,0c-.52-.29-.95-.46-1.32-.52.37.07.8.24,1.32.52Zm-.05,10.26c0,.26,0,.52,0,.78,0-.26,0-.52,0-.78-1.61-1.43-3.18-1.6-4.32-.87,1.14-.73,2.71-.55,4.32.87Zm-5.15-3.28c.3-.32.59-.63.89-.95h0c-.3.32-.59.63-.89.95h0c-.72-.48-.94-.94-.93-1.39-.02.45.21.91.93,1.39Zm-1.97,7.14c-.28.21-.57.3-.88.3.31,0,.6-.09.88-.3Zm.18,17.31c.09-.81.52-1.32,1.34-1.47-.81.16-1.25.66-1.34,1.48-.62.31-1.17.72-1.89.44.73.28,1.28-.12,1.89-.44Zm-.79,4.67c1.47.06,2.26-1.17,3.37-1.79.02-.25.05-.49.09-.74-.04.24-.07.49-.09.74-1.11.63-1.9,1.85-3.37,1.79-.56.37-1.12.74-1.68,1.11.56-.37,1.12-.74,1.68-1.11Zm-2.22-13.38c-.19.44-.2.88.45,1.36,0,0,0,0,0,0-.66-.47-.64-.92-.45-1.36Zm-.4,33.13c.26-.28.51-.57.77-.85-.26.28-.51.57-.77.85-.45.02-.9,0-1.32.1.42-.09.87-.08,1.32-.1Zm-.75-21.38h0c-.06-.34-.13-.68-.19-1.01.06.34.13.68.19,1.01Zm-.85,4.21c.28,0,.56.02.83.02-.27,0-.55,0-.83-.02,0,.91-.15,1.78-.53,2.58.38-.8.54-1.66.53-2.58Zm-.91,3.63c.12.67-.12,1.5-.11,2.23-.01-.74.23-1.56.11-2.23Zm-12.94,15.26h0c.1.02.19.04.28.04-.09,0-.18-.02-.28-.04Zm-1.2-6.17c.49.46.95.94,1.31,1.45-.36-.52-.82-.99-1.31-1.45Zm.53-9.22c-.6.28-1.19.57-1.79.85.6-.28,1.19-.57,1.79-.85.54-.79,1.23-1.44,1.96-2.07-.73.63-1.43,1.28-1.96,2.07Zm3.84,13.58c.33-.2.69-.3,1.1-.24-.42-.06-.77.05-1.1.24Zm1.97.09c.5-.35,1-.7,1.5-1.05.09-.48.18-.97.26-1.45-.09.48-.17.97-.26,1.45-.5.35-1,.7-1.5,1.05h0Zm.93,16.38c-.05.55-.09,1.09-.14,1.63.05-.54.09-1.09.14-1.63.15-.58.65-.69,1.23-.7-.58,0-1.08.12-1.23.7Zm19.75-14.6c-.17.74-.46,1.3-.83,1.74.37-.44.66-1.01.83-1.74.56-.56,1.23-.98,1.91-1.4-.68.41-1.36.84-1.91,1.4Zm17.15-6.07h0c.25.05.52.08.76.15-.24-.07-.51-.11-.76-.15Zm5.05,7.82s0,0,0,0c.49-.16.96-.57,1.45-.69-.49.12-.96.53-1.45.69Zm32.75-43.95h0c-.07-.11-.14-.23-.21-.34.07.11.14.22.21.34Zm-8.47-.81c1.1-.06,1.82-.64,2.48-1.32-.66.68-1.38,1.26-2.48,1.32-1.91,1.32-3.29,3.22-4.84,4.95,1.54-1.73,2.93-3.63,4.84-4.95Zm-7.86,26.64c.29.02.59.02.9-.02,0,0,0,0,0,0-.31.04-.61.04-.9.02Zm9.33-13.04c-.87.61-1.74,1.22-2.62,1.83-1.05,3.06-3.82,4.66-5.85,6.89-.56,0-1.11-.01-1.67-.02-.35-1.53-.03-2.91.94-4.15,1.69-1.19,3.68-1.98,4.92-3.75,1.57-1.81,3.09-3.66,4.72-5.41.69-.75,1.49-2.01,2.63-.42-1.03,1.68-2.06,3.36-3.09,5.04Zm5.29,2.72c-.28-.02-.55-.03-.83-.03-.31-.28-.61-.56-.92-.84-.19.02-.36.05-.51.09.15-.04.32-.07.52-.09.31.28.61.56.92.84.28,0,.55,0,.83.03h0Zm-.86-8.83h0c1.15,1.51,2.29,3.01,3.44,4.52-1.15-1.51-2.29-3.01-3.44-4.52Zm2.25-1.63c-.75.49-1.5.97-2.25,1.46-2.44-2.83,2.04-3.29,1.84-5.35,3.36.96,1.44,2.47.41,3.9Z"/>
  </g>
</svg>