<?xml version="1.0" encoding="UTF-8"?>
<svg id="Layer_2" data-name="Layer 2" xmlns="http://www.w3.org/2000/svg" viewBox="0 0 104.3 187.55">
  <defs>
    <style>
      .cls-1 {
        fill: #fff;
      }
    </style>
  </defs>
  <g id="Graphic_Elements" data-name="Graphic Elements">
    <path class="cls-1" d="m100.7,18.85c-3.9-2.56-6.97-7.1-12.68-5.37-1.25-2.87-3.82-3.1-6.44-3.26l.14-.2c-.08-.8-.16-1.61-.24-2.41-.39-.11-.78-.21-1.17-.3-1.25.08-2.5.16-3.75.23,0,0,0,0,0,0,1.25-.08,2.5-.15,3.75-.23,0,0,0,0,0,0,.39.09.78.19,1.17.3,2.99-.68,6.44.31,8.89-2.41,1.03-.06,2.14.12,3.06-.22,1.63-.61,4.25-.91,3.27-3.54-.98-2.63-2.78,0-4.22-.09-.71-.04-1.45.51-2.18.79-1.23.22-2.47.44-3.7.67-3.47-.67-6.73.39-10.01,1.25-2.16-.25-4.31-.44-6.2.99,0,0,0,0,0,0-1.74-1.66-3.42-.59-5.11.12-.67-.05-1.34-.09-2.01-.14-1.94.14-3.89.29-5.83.43,1.94-.14,3.89-.29,5.83-.43-2.32-1.12-4.65-1.13-6.97,0-.38-.09-.73-.03-1.05.19-1.25-.04-2.5-.07-3.75-.11-5.09.42-9.91-2.19-15.04-1.33-1.41-1.25-3.23-.94-4.88-1.28-2.84-1.55-5.96-.73-8.95-1.05C19.37.96,16.13.38,12.87.04c-1.72-.18-3.47.08-2.75,2.65,1.3,4.33,4.81,2.26,7.49,2.58.27.25.56.29.88.12h0c3.59,2.24,7.68,2,11.65,2.35,6.28.63,12.5,2.03,18.87,1.35.41.1.8.08,1.2-.07,1.19,1.18,2.41.01,3.61.05h0c3.29,1.38,6.73,1.31,10.19,1.06,0-.38,0-.76.03-1.14-1.77-.07-3.53-.14-5.3-.21,0,0,0,0,0,0,1.76.07,3.53.14,5.29.21h0c-.03.38-.04.76-.03,1.14,7.92,1.8,15.84,3.6,23.76,5.4,3.22,1.64,6.44,3.28,9.65,4.92,1.1,1.95,3.15,3.85.32,6.02-6.71,2.76-14.11,1.83-20.94,3.91-1.29,2.14-2.66.19-3.99.08-4.65.19-9.38-.69-13.93.96-.4-.12-.78-.06-1.13.17-2.09-.07-4.18-.13-6.27-.2-9.2-.62-18.4-.77-27.59.14-.27-.3-.59-.35-.94-.15-3.45-.87-6.89-1.58-10.3.18-3.19,3.4-.64,4.33,2.21,5.14,3.74,1.54,7.5,1.26,11.27.12,7.85,1.78,15.81,1.25,23.75,1.24,10.57,1.55,21.15,3.09,31.72,4.64,1,.81,2.46,1.11,2.84,2.59-1.2,1.97-2.89-.97-4.15.41-1.25,1.15-2.51,2.3-3.76,3.45h0c1.25-1.15,2.51-2.3,3.76-3.45-2.17-.4-4.24-.13-6.22.87-2.89-.11-5.77-.23-8.66-.34-3.81-.22-7.61-.45-11.41-.67-.43.02-.85.03-1.28.05-3.74-.17-7.47-.33-11.21-.5-1.53-.96-3.05-.58-4.56.06-1.46.1-2.93.21-4.39.31t0,0c1.46-.1,2.93-.2,4.39-.31-5.53-1.65-11.18-1.14-16.82-.91-5.02-.53-10.03-.71-15.06-.13-1.56-.68-3.36-1.36-3.42,1.27-.06,2.8,1.49,4.42,4.49,4.22,1.62-.05,3.3.83,4.86-.28.7.32,1.38.83,2.11.94,13.56,2.13,27.24.99,40.86,1.51,1.72,1.2,3.34-.38,5.03-.18,3.91,2.21,8.61.47,12.56,2.5-.03.88,1.27,1.81-.1,2.63-3.22.34-6.44.68-9.67,1.02-3.11-1.61-6.21-1.12-9.31.01-1.6.28-3.21-1.01-4.8.04-3.76-.31-7.51-1.03-11.26.08-.4-.04-.81-.09-1.21-.14-1.73-1.04-3.43-1.33-5.1.12-.4-.12-.8-.12-1.21,0-4.45-2.13-9.22-.67-13.81-1.21-2.12-1.31-4.13,1.5-6.25.17-2.09-.11-4.19-.22-6.28-.33-1.97-1.26-2.68-.25-2.55,1.6.34,4.94,3.93,4.95,7.56,4.82,4.08.06,8.16.12,12.25.18,5.07.39,10.14.77,15.21,1.16.92-.41,1.84-.82,2.76-1.23,1.71.58,3.42,1.04,5.13,1.2-1.71-.16-3.42-.62-5.13-1.2-.92.41-1.84.82-2.76,1.23,13.03,2.51,26.33,3.88,38.76,9,1.2.82,2.39,1.63,3.59,2.45-.56,4.67-4.57,3-7.18,3.9-5.57.03-11.16-.84-16.68.56h0c-1.52.07-3.03.15-4.55.22-.84.04-1.67.08-2.51.11-3.33-1.16-6.68-1.69-10.08-.26-6.26.07-12.54-1.02-18.78.35-.34-.2-.71-.28-1.1-.25-2.52-1.62-5-1.63-7.42.22-.03.8-.06,1.6-.09,2.41-.51,4.18,2.24,3.81,4.92,3.53.04-.36.06-.73.06-1.09-.42-.04-.85-.08-1.27-.12-.41-1.49-.82-2.97-1.23-4.46.41,1.49.82,2.97,1.23,4.46.42.04.84.08,1.27.12h0c0,.36-.02.73-.07,1.09,2.85,1.22,5.78-.12,8.65.28,9.4,2.72,19.3,1.97,28.79,4.04,5.87,1.6,11.74,3.2,17.6,4.8,2.85,1.37,5.71,2.74,8.56,4.11.03-.16.06-.32.09-.47-.03.15-.06.31-.09.47,0,0,.06.4.06.4-1.9,2.74-5.22-.09-7.32,1.86-1.4-1.48-3.1-1.79-5-1.25-1.26-.02-2.51-.04-3.77-.06-11.28,0-22.56,0-33.83.01-1.67.01-3.34.02-5.01.03-4.31-.06-8.62-.19-12.93-.16-1.47.01-3.82-.81-3.86,1.68-.03,2.17.52,4.77,3.12,5.41,1.94.48,4.06.2,6.1.26,5.37,1.16,10.83,1.37,16.3,1.46,4.48,1.64,9.14,1.4,13.78,1.27,3.23,2.69,7.17,2.43,11.01,2.61.58-.15,1.16-.29,1.75-.44,0,0,0,0,0,0-.58.15-1.16.29-1.75.44,4.24,1.22,8.48,2.45,12.72,3.67,3.74,2.17,7.48,4.34,11.22,6.51-.32.73-.64,1.46-.97,2.2-1.16,2.23-2.52.26-3.8.18-5.98.11-12.01-.8-17.91.86-.72.03-1.45.06-2.17.09-1.75-1.17-3.52-.94-5.28-.02-.63-.03-1.25-.06-1.88-.09-1.23-.83-2.48-.51-3.73-.05-4.01-1.4-8.01-1.15-12.01.07-1.18-.55-2.34-1.69-3.55-.05-5.53-.25-11.07-1.98-16.6.07,3.47.46,6.94.92,10.41,1.38,2.09.05,4.18.1,6.27.14-2.09-.05-4.18-.1-6.27-.14-3.47-.46-6.94-.92-10.41-1.38-2.42-1.11-4.76-.22-7.1.33-2.53,3.39-.46,4.82,2.49,5.88,1.21.6,2.44,1.01,3.72.16,1.68.26,3.33,1.26,5.08.28.29.14.58.14.88,0,2.21-.16,4.42-.32,6.63-.48,0,0,0,0,0,0-2.21.16-4.42.32-6.63.48,8.71,2.38,17.62,3.25,26.59,3.65,3.95,2.03,8.36,1.84,12.58,2.53,5.71,2.11,11.42,4.21,17.13,6.32.45.42.9.83,1.36,1.25,1.18,1.93,3.66,1.53,5.17,2.89,1.38,1.49,2.75,2.98,4.13,4.47-4.15,4.8-10.06,2.89-15.18,4.01-.44.02-.87.04-1.31.06-6.71-.02-13.47-1.27-20.1.79-1.57-.88-3.15-1.5-4.73-.02-4.65-1.89-9.41-.76-14.14-.52-.67.16-1.34.32-2.01.49-7.36-1.28-14.72-1.55-22.06.11,4.76.09,9.51.17,14.26.26h0c-4.75-.08-9.51-.17-14.26-.26-1.53.16-3.16.65-2,2.5,1.22,1.96,1.58,5.52,5.45,4.13,2.73-.19,5.48-.24,8.15-.81-2.67.56-5.42.62-8.15.81,6.34,1.56,12.81.84,19.22,1.16,4.12,2.05,8.49,1.23,12.8,1.1,6.12,1.99,12.41,2.69,18.83,2.39,4.71,2.14,9.84,2.33,14.83,3.15,1.06,1.42,2.51.9,3.88.79,1.52,1.18,3.04,2.36,5.13,2.27.74.1,1.49.2,2.23.3.47.4.94.8,1.41,1.2-.02.79-.04,1.59-.06,2.38-3.71.61-7.81-1.71-11.16,1.53-.32-.21-.66-.31-1.04-.29-.43-1.17-1.48-1.4-2.49-1.4-8.48,0-16.99-.41-25.4,1.2-5.45-1.12-10.9-2.67-16.35-.01-.34.15-.67.14-1.01,0-3.57-.32-6.98-2.34-10.71-1.09-2.38-.93-4.77-1.66-7.12.08-.37,0-.73.07-1.06.25-1.68-.04-3.35-.08-5.03-.13-2.6,4.46.93,4.47,3.67,5.06,9.13,2.41,18.44.82,27.66,1.16,7.53-.02,15.06-.04,22.59-.05,7.11,1.31,14.22-.38,21.33.09,3.24-.04,6.5.17,9.7-.19,5.57-.62,7.36-5.16,4.09-9.93-.93-1.31-1.98-2.46-3.77-2.44-.42,0-.84,0-1.26.01-1.91.08-2.73-1.59-4.01-2.51-1.64-1.7-3.88-1.94-6.01-2.44-2.09-.38-4.18-.77-6.27-1.15-1.25-.55-3.03.35-3.85-1.39.46-.83.93-1.66,1.39-2.5,3.71-.33,7.42-.67,11.14-1,3.91.02,7.43-1.03,8.65-5.13,1.38-4.61-.99-7.89-4.78-10.31-2.09-1.7-3.14-4.65-6.23-5.14-2.27-1.74-4.44-3.66-7.56-3.62-1.26-2.24-3.57-2.35-5.71-2.87-2.26-.55-4.96-.4-5.86-3.36.56-.12,1.12-.24,1.68-.35,2.48-.86,5.22,1.24,7.61-.68,3.23-.17,6.48-.16,9.68-.53,6.36-.75,8.32-3.86,6.37-9.69-.51-1.79-1.72-2.72-3.56-2.84-1.03-3.13-4.27-3.23-6.49-4.72-1.74-1.62-3.75-2.64-6.17-2.74-1.7-.83-3.4-1.66-5.1-2.5-.38-.65-.77-1.31-1.15-1.96,5.32-.35,10.65-.59,15.95-1.09,2.36-.22,4.5-1.39,5.05-3.93.62-2.8-.61-4.82-3.42-5.74-3.47-2.59-7.1-4.86-11.45-5.67-1.24-.04-2.47-.07-3.71-.11-2.41-.94-4.82-1.87-7.23-2.81,3.69-4.29,9.49-.64,13.54-3.58,1.24.02,2.47.04,3.71.06,8.52-1.72,9.81-3.81,6.31-10.23-2.13-.55-1.86-4.55-5.08-3.53-.46-.44-.91-.88-1.37-1.32-.13-1.68-1.45-1.12-2.39-1.27l-.03-.02c-1.99-2.41-6.14-1.64-7.47-5.05,5.88-.58,12.08.99,17.54-2.52,3.62-1.53,3.32-4.28,2.24-7.26-.22-.08-.44-.17-.67-.25.22.08.44.17.67.25-.28-.88-.56-1.77-.84-2.65,1.78-.48,3.99-.46,5.23-1.54,2.02-1.77,4.77-4.36-.36-6.05-1.3-.74-1.82-2.72-3.79-2.4-.4.38-.81.76-1.21,1.14h0c.4-.38.81-.76,1.21-1.14-1.21-.38-1.75-2.19-3.42-1.59-.49-.42-.99-.84-1.48-1.26.4-.72.79-1.44,1.19-2.15.89-.51,2.04-.44,2.81-.74,6.13-2.4,13.78-.79,18.52-6.87,2.91-3.91.7-6.54-2.24-9ZM58.74,6.2c.61.14,1.25.26,1.53.52-.28-.26-.93-.39-1.53-.52Zm-33.55,28.98c-2.41,1.57-5.1,1.24-7.73,1.27,2.63-.03,5.32.3,7.73-1.27h0Zm22.48-1.1h0c.39,0,.79,0,1.18,0-.39,0-.79,0-1.18,0Zm5.16,2.59c-.77-.23-2.04.03-2.65-.34.62.38,1.89.11,2.65.34h0Zm8.64-2.48h0c.17.21.34.38.53.52-.19-.14-.37-.31-.53-.52Zm14.2,2.23c-.3.02-.61.04-.93.04.31,0,.63-.02.93-.04t0,0Zm-10.36,10.46s0,0,0,0c.09-.21.12-.43.11-.65.01.23-.02.45-.11.66Zm-45.14,37.36c.07-.81-.21-1.37-.63-1.84.42.47.7,1.03.63,1.84h0Zm25.01,2.34c-3.07-.03-6.14-.06-9.21-.08,3.07.03,6.14.06,9.21.08.02-.36.03-.73.04-1.09,0,.36-.02.73-.04,1.09Zm6.39,19.19c-.84.26-1.22.79-.55,1.77-.67-.98-.29-1.51.55-1.77Zm1.17,4.82c-.4-.8-.79-1.6-1.19-2.4.4.8.79,1.6,1.19,2.4h0Zm.03-5.03c2.07-.17,4.15-.18,6.23-.26,0,0,0,0,0,0-2.08.08-4.16.09-6.23.26Zm4.38-2.57c-.29-1.22,1.9-1.1,3.28-1.41-1.38.31-3.57.19-3.28,1.41Zm-14.44,27.69c0-.16-.02-.32-.05-.49.02.17.04.33.05.49h0Zm1.22,6.25l.16-.24s0,0,0,0c0,0-.1.15-.16.24Zm-.05-2.63h0c.23.03.45.07.67.12-.22-.04-.45-.09-.68-.12Zm6.38-2.42c-.88.02-1.76.04-2.64.06,0,0,0,0,0,0,.88-.02,1.76-.04,2.64-.06.07-.54-.34-.88-.92-1.15.58.27,1,.61.92,1.15h0Zm1.14.01h0c.28-.56.6-1.05.99-1.44-.39.39-.71.88-.99,1.44Zm1.37,1.17h0c.4,1.26.81,2.52,1.21,3.78-.4-1.26-.81-2.52-1.21-3.78Zm-22.56,32.73c-1.43-.28-2.93-.04-4.4.01,1.47-.05,2.98-.29,4.4-.01t0,0Zm3.8-1.35c.42-.46.86-.81,1.3-1.09-.44.27-.88.63-1.3,1.09.75.04,1.45.18,1.98.66-.53-.48-1.23-.62-1.98-.66Zm31.33,21.15c2.08-.17,4.15-.48,6.18-1.08,0,0,0,0,0,0-2.04.6-4.1.91-6.18,1.07Zm14.99.2h0c.25-.13.5-.24.76-.31-.26.07-.51.17-.76.31Zm9.97-3.88c.02.33.05.66.07.99-.02-.33-.05-.66-.07-.99h0Zm-45.01-19.89c1.06-.08,1.74-.49,2.1-1.18-.35.7-1.04,1.1-2.1,1.18-.04.39-.05.78-.04,1.17,0-.39,0-.78.04-1.17Zm.04,1.15h0c-.04,1.07-.43,1.64-1,1.97.56-.33.96-.9,1-1.97Zm-5.14,3.98h0c3.07,1.55,6.25.39,9.4.23-3.15.15-6.34,1.32-9.4-.23Zm16.24-7.59c-.82.81-1.64,1.63-2.47,2.44.82-.81,1.64-1.63,2.47-2.44,2.46-.46,5.01.12,7.5-.02-2.49.13-5.05-.44-7.51.02Zm2.59,9.93c-.33-.33-.69-.57-1.06-.76.37.19.73.43,1.06.76,1.72.24,3.45.46,5.17.58-1.72-.12-3.45-.34-5.17-.58Zm13.79-.03h0c-1.79.46-3.59.66-5.39.7,1.8-.04,3.59-.24,5.39-.7Zm12.49-11.25c-.69.12-1.44.02-2.19-.05.74.07,1.5.17,2.19.05.01-1.25.02-2.49.04-3.74-.01,1.25-.02,2.49-.04,3.74Zm0-8.74c.45,1.22.9,2.45,1.35,3.67,1.01,1.19,2.09,2.38,2.16,3.56-.07-1.18-1.15-2.37-2.16-3.56-.45-1.22-.9-2.45-1.36-3.67-1.43-1-2.79-2.06-3.96-3.31,1.17,1.25,2.53,2.31,3.96,3.31Zm-25.02-20.11c-.01-.52-.12-.94-.3-1.28.18.34.29.76.3,1.28h0Zm21.39-3.73s0,0,0,0c-.1,1.34-.01,2.99-.92,3.84.91-.85.82-2.5.92-3.84Zm-6.5-11.16l-.19.21h0s.1-.11.19-.21Zm3.9-11.48c.26-.04.5-.09.71-.15-.21.06-.45.1-.71.15-.4.18-.81.33-1.22.46.41-.12.81-.28,1.22-.46Zm-9.78-7.83h0s0,.01-.02.02c0,0,.02-.02.02-.02Zm-4.07-3.35c.42.34.84.69,1.26,1.03-.42-.34-.84-.69-1.26-1.03-2.38.05-4.46-1.18-6.63-2.01,2.17.82,4.25,2.06,6.63,2.01Zm-11.19-2.62c-.73.04-1.4.18-1.92.57.52-.39,1.19-.53,1.92-.57h0Zm-.06-1.23h0c.31-.31.62-.45.93-.48-.32.03-.63.17-.93.48Zm26.38-10.02h0c-.79-.84-1.58-1.67-2.36-2.51.79.84,1.58,1.68,2.36,2.51Zm-27.54-16.38c-.91.02-1.82.03-2.73.05.91-.02,1.82-.03,2.73-.05t0,0Zm3,4.01c1.08.21,2.14.48,3.12.99-.97-.52-2.03-.78-3.12-.99Zm5.69-1.4h0s.01-.02.02-.03l-.02.03Zm-1.23-2.55h0c.62-.04,1.24-.1,1.85-.15-.62.06-1.24.11-1.85.15Zm20.2-10.26h0c.59,1.61,2.02,3.02,2.62,4.63-.61-1.6-2.04-3.02-2.62-4.63Z"/>
  </g>
</svg>