<?xml version="1.0" encoding="UTF-8"?>
<svg id="Layer_2" data-name="Layer 2" xmlns="http://www.w3.org/2000/svg" viewBox="0 0 89.71 117.65">
  <defs>
    <style>
      .cls-1 {
        fill: #fff;
      }
    </style>
  </defs>
  <g id="Graphic_Elements" data-name="Graphic Elements">
    <path class="cls-1" d="m85.25,5.4c-3.61-.76-7.2-1.04-10.81-1.48-3.28.03-6.57.07-9.85.1-5.15-.11-10.49-2.11-15.29,1.49-5.46-2.37-10.11-7.89-17.09-4.38-5.52,2.77-10.77,4.44-16.95.71-2.17-1.31-7.15-1.3-7.89,3.87-2.37,2.68-.38,5.4-.09,8.1-4.64,1.11-6.02,3.68-5.98,8.73.14,19.43-.45,38.86-.77,58.29-1.25,8.6-.03,17.15.6,25.7.19,2.53,1.93,3.66,4.21,4.16.26-.24.51-.49.77-.74h0c-.26.25-.51.49-.77.74,2.71,6.16,6.15,6.84,10.41,1.39,6.66-.73,12.59,7.32,19.66,1.62,4.18.03,8.35.06,12.53.09,10.73,1.97,22.02,9.16,31.17-3.38.39,3.31.96,7.47,5.11,6.63,2.35-.48,4.93-3.61,3.63-7.71-.87-2.73-.42-5.89-.56-8.85.2-3.27,1.37-6.51.3-9.82-1.76-10.3-3.38-20.62-3.43-31.11,2.05-4.25,3.53-8.5.16-12.82,1.92-3.89-.87-7.69-.22-11.55-1.01.57-2.02,1.14-3.02,1.71-.05,2.68-.11,5.35-.16,8.03.05-2.67.11-5.35.16-8.03,1.01-.57,2.02-1.14,3.02-1.71.03-1.11.06-2.22.1-3.33.08-1.61.15-3.23.23-4.84-.37-2.72,4.79-5.55-.16-8.19,0,0-.06-.05-.06-.05,2.31-1.55,1.72-4.47,3.06-6.48,0,0,.57-.15.58-.16,0,0,.78.03.78.03l.78-.06c.81-3.59.21-5.8-4.15-6.71Zm-.9,49.62c-.1,1.41-.45,2.9-.23,4.25-.22-1.34.13-2.84.23-4.25Zm-1.85,51.89s0,0,0,0c.04,1.45-.45,2.39-1.35,2.93.9-.55,1.39-1.49,1.35-2.94Zm-19.71-48.87s0,0,0,0c-.04,4.86-.07,9.72-.11,14.58.04-4.86.07-9.72.11-14.58Zm.22,30.91c0,.59,0,1.17.02,1.76,0-.59-.01-1.17-.02-1.76h0c-.9-2.25-1.35-4.54-1.56-6.87.21,2.33.66,4.62,1.56,6.87Zm-1.68-70.19c.13-1.04.4-2.06.81-2.96-.41.9-.68,1.91-.81,2.96-1.09.55-2.18,1.1-3.27,1.65,1.09-.55,2.18-1.1,3.27-1.65Zm-1.63,19.68h0c-.01-.56-.03-1.12-.04-1.69h0c.01.56.02,1.12.04,1.69Zm-.06,1.9c-.15,1.56-.76,2.83-3.1,2.98-.05.54-.11,1.09-.16,1.63.05-.54.11-1.09.16-1.63,2.35-.14,2.95-1.41,3.1-2.98Zm-3.63-2.64c.18.11.36.17.56.19-.19-.02-.38-.07-.56-.19Zm1.6,65.25c-.4-.79-.54-1.82-1.21-2.36-1.62,0-3.25-.01-4.87-.02,1.62,0,3.25.01,4.87.02.02-.59.04-1.17.06-1.76-.53-1.62-1.07-3.25-1.6-4.87h0c.53,1.62,1.07,3.25,1.6,4.87h0c-.02.59-.04,1.17-.06,1.76.67.55.8,1.57,1.21,2.36Zm-5.94-48.08c-.02,1.06-.05,2.12-.07,3.18.47-.1,1.06-.3,1.59-.46-.53.15-1.12.36-1.59.46-2.32.88-3.75,3.54-6.63,3.29h0c2.88.25,4.31-2.41,6.63-3.29.02-1.06.05-2.12.07-3.18,1.34-.88,3.08-1.41,3.99-2.67-.91,1.26-2.65,1.79-3.99,2.67Zm1.65-5.08s-.05,0-.12,0c.07,0,.12,0,.12,0-.62-2.63-.12-4.54,3.05-4.73h0c-.04,1.54-.07,3.09-.11,4.63-.98.03-1.96.07-2.94.1Zm-29.57-22.81c-1.86.49-3.71,2.61-5.61.71-1.86-1.87-.16-3.77.71-5.55,3.31-.08,4.74,1.73,4.9,4.84Zm-2.89,4.93c-.61.14-1.29.15-2.06-.01h0c.77.16,1.44.15,2.06.01Zm-3.65-11.44h0c1.13-1.41,2.5-1.73,3.94-1.75-1.44.02-2.81.34-3.94,1.75Zm-11.81,16.61c-.18-.54-.26-1.1-.21-1.69-.05.59.03,1.15.21,1.69.36,1.07,1.1,2.05,1.97,2.99h0c-.87-.95-1.61-1.92-1.97-2.99Zm1.97,3.01c.1,1.06-.36,2.02-.94,2.97.58-.94,1.04-1.91.94-2.97Zm-1.64,44.15h-.02s0,0,0,0c0,0,.03,0,.03,0Zm0-52.33c.01.54.02,1.08.03,1.62-.01-.54-.02-1.08-.03-1.62-1.01-.9-1.43-1.9-1.58-2.96.15,1.05.57,2.06,1.58,2.96Zm1.49,68.69c-1.28-.18-2.86.1-3.76-.8.89.9,2.48.62,3.76.8,0,0,.09-.02.19-.03l-.19.03Zm5.08-1.7c-1.56.54-3.12,1.09-4.68,1.63,1.56-.54,3.12-1.09,4.68-1.63.25-.4.53-.7.84-.93-.31.23-.59.53-.84.93Zm-3.52-62.12h.24c.26-1.28.6-2.54.92-3.8-.31,1.26-.66,2.52-.92,3.8,0,0-.11,0-.24,0Zm3.04-9.05c-.04-.86.38-1.65,1-2.4-.63.76-1.05,1.55-1,2.4Zm-4.45-10.56h0c4.21-1.1,8.44-2.12,12.64-3.26-4.2,1.14-8.43,2.17-12.64,3.26Zm9.83,76.83c-.45-.04-.9-.05-1.36-.06.45.01.91.03,1.36.06h0Zm3.13-11.39c.07.51.08,1.02.03,1.54-1.91,1.46-3.33,3.07-3.83,4.99.49-1.91,1.92-3.53,3.82-4.99.05-.51.04-1.03-.03-1.54,0,0,0,0,0,0,.28-.48.56-.73.84-.84-.28.11-.56.37-.84.85Zm6.63,19.55c-1.64-.21-3.59.49-4.62-1.53,0,0,0,0,0,0,.46-.02.91-.09,1.35-.21,2.27-.28,1.04-4.57,3.3-3.69,3.21,1.25-.65,3.56-.03,5.44Zm1.77-36.08c-.65.81-1.2,1.57-1.62,2.28.42-.7.97-1.47,1.62-2.28h0Zm-3.01-9.14c1.57.93,2.08,2.92,3.01,4.49-.93-1.57-1.44-3.56-3.01-4.49Zm2.9-15.26c-1.04,3.61-4.61,5.94-5,9.88,0,0,0,0,0,0,.39-3.94,3.96-6.27,5-9.88h0c.81,0,1.63.01,2.44.02-.81,0-1.63-.01-2.44-.02Zm5.09,37.8c.94-.16,2.68-.52,2.69-.47.55,2.29,1.12,4.64-1.08,6.48-.53-.53-1.05-1.06-1.57-1.59,0,0,0,0,0,0-.01-1.48-.03-2.95-.04-4.42-.62-2.23-1.25-4.45-1.87-6.68.62,2.23,1.25,4.46,1.87,6.68Zm2.78,19.4c-1.3-.75-3.84-.28-4.53-1.63-.16-1.38.04-2.67.45-3.91-.41,1.24-.61,2.53-.45,3.91.69,1.35,3.23.88,4.53,1.63.26.15.47.35.61.62-.14-.27-.35-.47-.61-.62Zm5.02-52.34c-1.67,1.62-3.92,3.02-4.06,5.2.14-2.18,2.39-3.58,4.06-5.2.61-1.82.88-3.91,2.14-5.22-1.26,1.31-1.53,3.4-2.14,5.22Zm.2-19.56c-.99,1.27-1.98,2.53-2.98,3.79-1.66-.77-3.32-1.53-4.98-2.3q-1.44-8.18,11.5-6.51c.46,0,.92,0,1.39-.04-.95-3.59-3.07-4.23-6.12-3.91,3.05-.31,5.17.32,6.12,3.91,2.68,2.92,5.4,2.95,8.15.11,0,0,0,0,0,0,3.01,2.68.2,3.68-1.45,5.02h0c-2.64-.09-5.15-.03-4.84,3.72q3.91.71,1.38,7.58c-1.05.54-2.09,1.08-3.14,1.61-.02-1.57-.05-3.15-.07-4.72-.41-3.51-.18-7.39-4.96-8.27Zm5.64,72.49c.19.23.4.42.65.56-.25-.14-.46-.33-.65-.56Zm.88-10.45h0c-4.31-.35-3.89-2.31-1.66-4.89h0c.65.64,1.3,1.28,1.95,1.91-.1.99-.19,1.98-.28,2.97Zm3.3-5.01c.76-1.44,1.83-2.42,3.25-2.85-1.42.43-2.48,1.41-3.25,2.85-.96.65-1.93,1.3-2.89,1.95.96-.65,1.93-1.3,2.89-1.95Zm6.59,24.77c-4.31,1.1-6.58,1.64-8.56,1.62,1.98.02,4.25-.53,8.56-1.62h0Zm-.41-47.62c-.63,1.23-1.25,2.45-1.88,3.68.63-1.23,1.25-2.45,1.88-3.68.16-.46.31-.93.45-1.41h0c1.01.06,2.02.11,3.03.17-.34,2.72,1.36,5.82-1.51,8.07-.65-2.28-1.31-4.56-1.97-6.83Zm1.98,24.72s0,0,0,0c.85.79,1.69,1.57,2.54,2.36-.85-.79-1.69-1.57-2.54-2.36Zm7.98,12.84c-1.84.27-3.67.45-5.06-1.19.42-2.94,2.17-3.89,4.95-3.3h0c.04,1.5.08,3,.12,4.5,0,0,0,0,0,0Zm2.21-5.65c1.25-.86,1.57-1.96,1.53-3.17.03,1.21-.28,2.31-1.53,3.17Zm6.03,7.56c-.71,1.5-1.55,3.22-3.5,2.58-1.99-.66-1.09-2.75-1.34-4.24,2.98-3.44,3.21,1.16,4.84,1.66h0Zm.16-47.34h0s0,0,0,0h0Zm4.86-31.19c.02,4.91.03,9.82.05,14.74-.59-.55-1.18-1.1-1.77-1.65-1.05.54-2.09,1.08-3.14,1.61.03.57.06,1.15.09,1.72-1.6,3.1-3.83,5.99-3.44,9.79,3.38.02,3.32,2.42,3.31,4.79-3.96,2.24-3.71-1.43-4.7-3.35-.8-2.08-4.24-3.32-2.02-6.36-2.46-4.57,1.22-7,3.47-9.93-.19-3.25-2.56-3.18-4.87-3.19-1.77,3.09-3.23,0-4.83-.25-.56-2.08,1.41-3.12,1.96-4.74l-.27.38-.44-.16c.27-1.56.54-3.13.81-4.69.8-.02,1.61-.04,2.41-.06,1.76-.11,3.52-.22,5.27-.33,1.6.55,3.21,1.09,4.81,1.64.55-.55,1.1-1.1,1.65-1.65h0c.54.56,1.09,1.13,1.63,1.7,1.08.76,1.48,1.74,1.61,2.81-.14-1.07-.54-2.05-1.61-2.81Z"/>
  </g>
</svg>