<?xml version="1.0" encoding="UTF-8"?>
<svg id="Layer_2" data-name="Layer 2" xmlns="http://www.w3.org/2000/svg" viewBox="0 0 95.05 88.74">
  <defs>
    <style>
      .cls-1 {
        fill: #fff;
      }
    </style>
  </defs>
  <g id="Graphic_Elements" data-name="Graphic Elements">
    <g>
      <path class="cls-1" d="m39.82,2.79s-.03-.05-.05-.07v-.02s-.02.04-.02.07c.02,0,.04.02.07.03,0,0,0,0,0,0Z"/>
      <path class="cls-1" d="m13.22,17.03c.35-.68,2.24,1.09,1.54-.62-.5-1.22-.42-3.7-2.41-3.48-1.4.16-.28,2.19-.86,3.38-.47.95.73,1.32,1.74.71Z"/>
      <path class="cls-1" d="m91.9,45.89c.08-.14.11-.29.1-.44-.11.14-.16.28-.1.44Z"/>
      <path class="cls-1" d="m82.66,73.68c-.25.29-.4.72.04,1.02.14.1.53.13.54.1.53-1.34,2.82-1.85,2.27-3.45-.43-1.25-1.55.23-2.46.15,1.29.89.22,1.49-.39,2.18Z"/>
      <path class="cls-1" d="m82.88,71.46c.06.02.12.03.18.04-.05-.03-.09-.06-.14-.1,0,0,0,0,0,0,0,.02-.02.04-.02.06,0,0,0,0,0,0Z"/>
      <path class="cls-1" d="m94.12,51.69c-.38-.37.15-1.19-1.18-1.99,1.37,2.01-.71,2.7-.5,4.12.26-.09.52-.24.78-.23,1.83.08,2.58-.28.9-1.9Z"/>
      <path class="cls-1" d="m57.77,84.55q1.2,3.09,3.67,1.22c-1.41.05-2.51.07-3.67-1.22Z"/>
      <path class="cls-1" d="m42,2.4c.49-.34-.26-1.25-.56-1.37-1.83-.71-1.04,1.18-1.62,1.75.91,1.43,1.64-.01,2.17-.38Z"/>
      <path class="cls-1" d="m91.13,40.49c-.06.07.42.59.64.89-1.76,1.48.21,2.93.23,4.07.68-.87,3.8-1.6.64-3.5.45-.49.9-.97,1.55-1.67-1.2.02-2.17-.84-3.06.21Z"/>
      <path class="cls-1" d="m62.95,2.76c.13-.84-.45-1.57-1.05-1.47-1.25.21-.58,1.08-.35,1.75.48-.06,1.19,1.06,1.41-.28Z"/>
      <path class="cls-1" d="m61.55,3.04s-.04,0-.06.01c0,.02-.01.04-.02.07.04,0,.07-.01.11-.01,0-.02-.01-.04-.02-.07Z"/>
      <path class="cls-1" d="m29.33,3.48c.35.05.85-.52.79-1.09-.08-.65-.59-.96-1.13-1.19-.56-.05-.69.29-.64.72.08.67.22,1.45.98,1.55Z"/>
      <path class="cls-1" d="m85,26.73c.55.05.5-.49.51-.87.05-1.39-1.26-.79-1.91-1.18.57.66.28,1.95,1.39,2.05Z"/>
      <path class="cls-1" d="m2.14,42.4c.04-.27-.03-.78-.18-.83-1.18-.45-1.42.69-1.96,1.48.66-.38,1.89,1.02,2.14-.65Z"/>
      <path class="cls-1" d="m90.01,26.2c-1-.15-1.78.13-2.71,1.08,1.28.03,2.49.68,2.71-1.08Z"/>
      <path class="cls-1" d="m4.54,56.45s0,.04,0,.07c0,0,0,0,0,0,.04,0,.08.02.13.03-.01-.04-.03-.08-.05-.11-.03,0-.05.01-.08.02Z"/>
      <path class="cls-1" d="m3.29,55.37c-.55.04-.64.55-.48.82.44.71,1.12.38,1.73.26,0-.82-.45-1.14-1.25-1.08Z"/>
      <path class="cls-1" d="m29,4.31c-.18-.05-.62.23-.63.37-.04.94.45,1.39,2.01,1.31-.98-.51-.47-1.45-1.38-1.68Z"/>
      <path class="cls-1" d="m2.14,48.35c.64.3.59-.17.62-.53.04-.55-.05-1.08-.74-.93-.34.07-.81.45-.85.75-.09.66.8.26.98.71Z"/>
      <path class="cls-1" d="m91.5,52.93c.11-.58.37-1.66.3-1.68-2.68-.81-1.42-2.82-1.39-4.43-.29-1.13.57-2.4-.48-3.96-.34,1.64-.58,2.81-.82,3.97-.39.02-.78.04-1.16.07l.02-.09s-.04,0-.06,0c-.58-1.21-2.03-2.1-.08-3.84.78-.69,2.9-1.46,2.46-3.43,1.03-1.96,1.55-3.68-1.72-3.57-.03-.28-.06-.55-.09-.83-2.13.23-1.96-1.89-2.65-2.93-.38-.57,1.18-1.11,2.1-1.28,2.23,2.49,3.07,2.64,4.62.81-.56-.35-1.54.61-1.83-.68-.35-1.59-1.61-1.35-2.79-1.18-1.02-.27-3.02.61-2.17-1.85-1.31.31-2.63.83-3.89-.16-.42-.38-.85-.77-1.27-1.15-.35-1.43,2.03-1.99,1.14-3.59.15-.48.05-1.11.72-1.31.45.18.78-.63,1.31-.1,1.71,1.75,1.7.18,1.88-1,.59.31,1.13.28,1.54-.29.04-.06-.12-.35-.25-.45-1.01-.8-1.47.21-2.11.66-.99.03-1.97.07-2.96.1-.17-.11-.35-.14-.54-.1-.33-.43-.66-.87-.99-1.3.2-.49.17-.93-.19-1.36-.39-.47.62-1.41-.57-1.67-.54-.11-.94.31-.73.51.91.85-2.18,2.19.37,2.7.08.59.16,1.18.25,1.76-.03,0-.06,0-.09,0,0,0,0,0,0,0-1.38-.38-2.7-1.23-4.5-.25,1.5-1.22,2.2-2.15.33-3.29-.43-.26-.4-1.26-.58-1.92.57.05,1.14.09,1.71.14.37.44.74.88,1.12,1.32.23-.68,1.14-1.33.12-2.08.02,0,.04,0,.05,0,.01-.03.02-.05.03-.08,2.51-1.35,2.49-2.61-.07-4.81-.65-2.14-2.56-2.09-4.24-2.43,1.3-1.96-.66-.93-1.15-1.25-.11-1.55-1-2.1-2.46-1.91-.02-.36.11-1.02-.35-.92-.5.11-1.08.61-1.29,1.09-.42.95,1.18.32,1.07,1.17-.51,3.22,2.17,1.92,3.53,2.5,1.15.81.13,1.5-.38,2.84,2.5-2.69,2.93,1.14,4.66.75.12.57.1,1.07-.62,1.21-.51.11-.67.46-.64.94-1.29-.83-1.25,1.46-2.38,1.01-.59-.04-1.22-.22-1.76-.07-.97.26-1.85,1.1-2.89.21.88-1.02,1.06-2.69,2.54-3.1.51-.14,1.09,0,1.57-.56-1.35-.32-2.24-1.56-3.69-1.57-.92-2.52-1.89-2.72-5.51-1.14-.48-.33-.96-.66-1.43-1,.47-.08.93-.15,1.4-.23.72-.15.71-.69.66-1.25.55-.06,1.1-.12,1.65-.18-.28-.79-.9-1.13-1.69-1.24-.25-.09-.5-.18-.75-.27-1.09-.17-2.7.19-1.97-1.84-2.51.17-4.11,1.57-5.02,4.08.21-2.66-.57-3.84-3.16-2.85-.02-.74-.24-1.32-1.13-1.31-.24-.15-.49-.29-.73-.44-1.26.86-1.25-2.31-1.97-.9-.42.83-2.62,1.54-1.22,3.1-.52-.07-.96-.01-1.07.68-.24.27-.45.26-.64-.06.5-2.23-.92-1.16-1.79-1.04-.68-.07-1.13-.44-2.08-.1-2.14.78-2.4,2.67-3.37,4.16-.57-.61-1.14-1.21-1.71-1.82.85-.9.3-1.65-.25-2.4,1.41.48,2.15-.12,2.42-1.46-1.48-.64-3.47-2.13-4.26-1.64-1.41.86-.95,3.07-.45,4.72.19.62-.93.91-.23,1.51-.31.63-.71,1.61-1.45,1.12-1.75-1.16-2.85-.29-4.39.52-1.01.54-3.01-.58-2.24-2.08.65-1.26-.19-.68-.49-.9-.59-.42-1.22-.84-1.89-.35-.42.31-.48.99-.06,1.34,2.27,1.88,1.06,2.38-.97,2.86-.9.21-2.06.77-1.07,2.16.68.96.15,1.44-.75,1.56-.69.1-1.64,1.41-2.09-.27-.68-2.54-2.81-2.26-4.92-2.52,3.43.61,1.49,3.91,2.53,5.61,1.34-.5.51-1.85,1.47-2.42.61.65,1.2,1.27,1.78,1.89.05.79.1,1.58.15,2.37-.49,1.63-1.37,1.8-2.27.4-1.31-2.05-2.95-.23-2.95.28-.03,1.86-1.88,1.92-2.45,3.1-.63-.06-1.27-.12-1.9-.18-.1-.19-.21-.37-.31-.56-.11-.51,1.16-.59.41-1.32-1-.98-1.34.35-2.01.55-.23.25-.46.49-.69.74-.77-.13-1.53-.26-2.35.26.21.96,2.07,1.37,1.12,2.72-.82-.36-1.81-1.19-1.82.68-2.59.68.66,1.18.06,1.8-.23.01-.46.02-.69.03-.54.17-1.28.57-1.01,1.04.44.78,1.15,1.54,2.29,1.37.14,1.58-.77,2.85-1.26,4.25-1.06.27-1.36-.3-1.33-1.22.16-.77,1.78-.39,1.31-1.61-.47-1.24-1.26.17-1.93-.16-.31-.16-.79.45-1.33.05-.33-.25-.87-.11-.93.36-.03.31.27.69.48,1,.52.76,1.33.1,1.95.36.52,1.23-.96,2.44-.03,3.67-.86.34-1.06,1.06-1.09,1.88-.22.31-.44.61-.66.92.62,0,1.03,1.19,1.81.32,1.08-.77-.76-2.1.53-2.83.62-.7,1.24-1.4,1.86-2.1.2-.07.39-.15.59-.22,1.15.3.96,2.06,2.32,2.12-.04.61-.08,1.22-.12,1.83,0,0,0,0,0,0-.1.24-.21.48-.31.72.52.32,1.05.64,1.57.95.13.1.26.2.39.3-.13-.1-.26-.2-.39-.3-.52-.32-1.05-.64-1.57-.95-.23.33-.45.67-.68,1,.31.81-1.06.98-.68,1.81.14,1.2.19,2.4-1.57,1.6-.43-.2-.5-1.59-1.24-.4-.37.59.46.93.92,1.25,1.01.7,2.93-.14,3.16,1.86-.2.41-.41.82-.61,1.24-.8.2-1.85-.71-2.41.55-.89.85.08,2.8-1.82,3.05-.52.12-.87.41-1.01.94,1.38-.43,1.52,2.1,2.44,1.39,1.72-1.32,2.75,1.22,4.2.39-.4,1.21.37,2.62-.65,3.71-.07.07-.09.18-.13.27-.99-.22-1.98-.43-2.97-.65.32.81-1.24,2.56,1.17,2.31.78.18.63.75.55,1.29-1.38.49-2.17-1.16-3.89-1.11.62,1.7,1.9,2.51,2.73,3.61.96,1.3,3.03,2,2.26,4.22-.58-.08-1.17-.23-1.58.48.59.13,1.15.25,1.71.37v.21c-.33.52-1.16.9-.62,1.68.48.69,1.21.15,1.82.24,1.32,2.72,2.79.43,4.2.12-.18.6-.35,1.21-.53,1.81-.33.63-1.65.73-.87,1.98.5.8.92.69,1.53.36.62.35.72,1.76,2.04.54,1.56-1.45,3.59-.14,5.34.03.8.08-.25,1.82-.32,2.82-.08,1.11,1.03,1.87.56,3.25-.27.8.91.39,1.46.02,1.29.59,1.82-.36,2.42-1.19.04-.19.01-.37-.07-.54.25-.52.7-.78,1.14-.4.5.42.41,1.06.16,1.64.12.16.17.35.16.55-.52.52-1.07,1.32-.63,1.84.6.71,1.55-.18,2.36-.04.99.88,2.02-.01,3.02.08.44.88,1.02,1.8-.49,2.27-.26-2.44-1.85.24-2.67-.68-.41-.47-1.12.15-.99.81.06.3.31,1.68,1.22.43.13-.17.51-.16.78-.23.32,2.86,2.24.7,3.35,1.06.39.62,1.12.89,1.25,1.83.17,1.21.76-.03,1.18-.01.75-.04,1.52,0,2.25-.16.67-.14,1.03-.53.2-1.05-.12-1.41-.3-2.96,1.49-3.35.29-.06.76,1.24,1.95.57,2.39-1.35,1.46.45,1.24,1.5-.49-.05-.98-.1-1.07.59-.08.58.26.99.7,1.15.74.27.37-1.02,1.09-.91.28,2.15,2.24.25,2.99,1.24,1,.97,2.06-.41,3.07.09.2-3.91,3.15-2.17,4.66-1.83,1.98.45,1.29-.74,1.5-1.49,1.72,1.12,2.3.88,2.89-1.24,1.32.16,2.3-1.85,3.8-.59.23.45.45.91.68,1.36-.11,1.51,1.03.93,1.76,1.05.48,1.17.85.84,1.2.01.03,0,.06,0,.09,0,0-.04,0-.07,0-.1.59-.17,1.09,1.44,1.73.09,1.57-.49.65-1.56.56-2.43.4-.83,1.83-1.11,1.91-1.04,2.62,2.39,3.59-3.22,6.04-1.21,1.76-3.62,6.56-4.84,7.33-9.25l.28-.04s.14.21.16.22c.3-.86,1.02-1.6.74-2.62-.02-.85-.34-1.36-1.29-1.16.02.32.04.64.07.96h0c-.02-.32-.04-.64-.07-.96-.63-.8-1.52-1.61.05-2.37-.74-.07-1.49-.13-2.32-.21q1.88-1.96,2.35-.48c1.29-.38,2.02.74,3.03,1.12,1.3.05,2.58.06,2.52-1.8-.02-.61-.05-1.23-.07-1.84.16-.99.31-1.98.47-2.97.19-.01.37-.04.55-.07.31.21.62.6.94.61,1.59.03.16,2.91,1.76,2.17.99-.46-.39-2.19-.03-3.39.75-.63,1.85-1.05,1.19-2.44-.66-1.38-1.2.1-1.8.02l-.71-.04c-.01-.15,0-.31.01-.46.02-.4.04-.79.06-1.19.68-.15,1.37-.3,2.05-.45,0,0,.04,0,.04,0h0s0,0,0,0c0,0,0,0,0,0,0,0,0,0,0,0,0,0,0,0,0,0-.31-.3-.62-.59-.93-.89ZM8.85,43.86h0c.07-.07.15-.11.24-.14-.09.03-.17.08-.24.14Zm26.16,42.19c.02-.36-.06-.64-.18-.86.13.22.2.5.18.86.12.04.23.11.34.19-.1-.08-.21-.15-.34-.19Zm16.64-60.65c-.63.44-.36.98-.39,1.25-.81.14-1-.12-1.06-.57-.07-.58-.25-1.23.7-1.12.31.04,1.36.02.76.43Zm8.54-16.43c-.05.05-.52-.23-.65-.45-.48-.78,0-1.24.86-1.76.1.86.48,1.6-.21,2.2Zm15.74,65.19c-.36.14-.88-.06-.72-.58.13-.43.49-.83.86-1.1.11-.08.59.36,1.07.67-.51.44-.81.85-1.21,1.01Zm7.96-34.84c-.36-.26-.68-1.2.4-1.4.47.63,1.5.59,1.78,1.46-.74,1.05-1.59.36-2.18-.06Z"/>
      <path class="cls-1" d="m55.69,86.86c-.37.11-.63.34-.6.81.03.57.48.61.82.51.44-.12.49-.56.35-.95-.07-.21-.07-.66-.57-.37Z"/>
      <path class="cls-1" d="m26.36,2.46c.54.06.95-.18,1.12-.87-.18-.12-.37-.33-.59-.37-.58-.09-.94.25-1.04.79-.02.12.32.43.51.45Z"/>
      <path class="cls-1" d="m60.33,2.21c.63-.69-.24-1.1-.8-1.52-.06.31-.14.58-.15.86-.04.74.41,1.25.95.66Z"/>
      <path class="cls-1" d="m53.42,1.52c.7.24.26-.49.4-.6.27-.57.1-.86-.4-.91-.46-.05-.83.16-.7.64.09.34.39.77.7.88Z"/>
    </g>
  </g>
</svg>