<?xml version="1.0" encoding="UTF-8"?>
<svg id="Layer_2" data-name="Layer 2" xmlns="http://www.w3.org/2000/svg" viewBox="0 0 36.5 213.03">
  <defs>
    <style>
      .cls-1 {
        fill: #fff;
      }
    </style>
  </defs>
  <g id="Graphic_Elements" data-name="Graphic Elements">
    <path class="cls-1" d="m35.13,155.95c-1.12-.53-2.77-.6-3.35.77-.97,2.33-3.09,4-3.56,6.57-1.32,2.16-2.93,4.19-3.09,6.87.16.12.17.33.12.59.05-.26.04-.47-.12-.59-.96,1.36-1.92,2.73-2.89,4.09-.47-.77-.94-1.55-1.41-2.32,1.74-3.74,3.89-7.33,4.33-11.55.26-.5.52-1.01.78-1.51,2-3.05,2.81-6.56,3.86-9.97.04-.42.09-.83.13-1.25,0,0,0,0,0,0,1.36-1.35,1.74-3.14,2.18-4.9,1.04-1.35,1.33-2.95,1.47-4.59-.71.25-1.43.51-2.14.76-.57,1.26-1.13,2.52-1.7,3.78.57-1.26,1.13-2.52,1.7-3.78.71-.25,1.43-.51,2.14-.76.9-1.39,1.54-2.89,1.71-4.55-.13-.06-.25-.12-.36-.2h0c.11.07.23.14.36.2.54-1.37,2.33-3.16.13-4.02-1.55-.61-3.76.12-4.24,2.56-.14.73-.43,1.43-.65,2.15-.84.22-.74.88-.71,1.51-.88.52-1.16,1.45-1.54,2.3.02.79.04,1.59.06,2.38t0,0c-.02-.79-.04-1.59-.05-2.38-1.34,1.87-2.55,3.8-3.15,6.05h0c-.89.57-1.43,1.35-1.4,2.45-.22.76-.44,1.52-.66,2.28-.24.09-.33.26-.28.51-.25.28-.49.55-.74.83-1,1.59-2,3.19-3,4.78-.43-.25-.86-.49-1.29-.74,1.18-2.47,2.54-4.87,3.13-7.59,3.46-6.31,5.3-13.22,7.39-20.03.72-2.18,2.7-4.65.46-6.57-1.57-1.35-3.05.76-4.29,1.93-1.53.08-1.45,1.25-1.56,2.29l.05.04c-1.02.44-1.49,1.23-1.52,2.31h0c-.51.79-1.01,1.57-1.52,2.35-1.25.58-1.34,1.85-1.76,2.93-.45.78-.9,1.56-1.35,2.34-3.07,4.33-6.15,8.66-9.22,12.99-.27.25-.53.5-.8.75h0c-1.25-.43-.13-1.53-.62-2.17.48-1.31.95-2.62,1.43-3.93,1.15-.66,1.52-1.74,1.63-2.96.64-.32.67-.94.76-1.53,1.54-3.07,3.58-5.88,4.64-9.19,1.29-2.64,3.44-4.96,3.09-8.22.25-.01.47-.11.66-.28,1.26-.66.9-2.09,1.48-3.07,1.02-.69.7-1.84.96-2.79,1.04-.87,1.4-2.01,1.25-3.33.03-.5.06-1.01.08-1.51q-2.61-1.48-2.35-3.87c.59-1.7,1.19-3.4,1.78-5.1.72-1.55,1.7-3.03,1.26-4.88.8-1.44,1.7-2.84,1.68-4.59q1.18-3.71-.87-3.91c-1.48.12-3.05.12-3.02,2.25.03.31.06.63.1.94h0c-.03-.31-.06-.63-.1-.94-2.74,3.21-4.21,7.14-6.19,10.79,0,0,0-.02,0-.03-.77,1.05-1.55,2.09-2.32,3.14-.69,0-1.38,0-2.07.01-.63-1.69,1.8-2.18,1.47-3.75.68-.31.64-.97.76-1.55,1.64-1.14,1.7-3.01,2.19-4.69.33-.99.66-1.99.98-2.98,1.19-.42.23-2.03,1.37-2.47,1.16-1.58,2.25-3.19,2.26-5.26.62-.59.93-1.32.91-2.18,1.85-3.13,2.82-6.59,3.71-10.08,0-.52-.02-1.03-.02-1.55.28-.81.57-1.61.85-2.42,1.34-1.27,1.11-3.3.04-3.77-1.7-.74-3.12.67-3.83,2.42-2.29,3.95-5,7.69-6.2,12.2-.3.24-.59.48-.89.72-1.92-.16-1.18-1.53-1.17-2.57,1.22-2.93,2.44-5.86,3.66-8.79.94-1.74,2.21-3.35,2.21-5.47h-.24c.11,0,.24,0,.24,0,.06-.43.12-.86.18-1.29.22-.32.44-.65.65-.97.94-1.11,1.51-2.36,1.43-3.85.27-.82-.14-1.88.85-2.44,1.07-1,1.48-2.28,1.57-3.7.67-1.76,1.52-3.47,1.96-5.28.5-2.07,2.12-4.15.39-6.37,0-.2.03-.39.06-.59.42-.18,1.13-.28,1.21-.56.38-1.24.46-2.75-1.07-3.07-2.04-.43-3.59.53-4.18,2.69-1.53,2.55-3.07,5.11-4.6,7.66-2.88,4.62-5.76,9.23-8.64,13.85-1.01.46-1.4,1.27-1.3,2.35-1.03-.36-1.08,2.11-2.42.84.04-1.03.07-2.05.11-3.08.73-.52.13-1.02-.03-1.53.13-.66.02-1.44.83-1.78.81-2.42,1.61-4.83,2.42-7.25.45-1.35.89-2.69,1.34-4.04-.01-.5-.03-1-.04-1.49.29-.33.57-.66.86-1,1.28-1.17,1.34-2.81,1.69-4.34,1.75-2.59,1.66-5.82,2.94-8.58,1.21-2.13,2.18-4.34,2.39-6.82-.4-1.81.91-3.08,1.45-4.6.79-3.04,1.58-6.08,2.38-9.11-.24-.32-.45-.49-.63-.57.18.08.39.26.63.57,1.05-.4.75-1.34.86-2.13.63-1.5,1.57-3.48-.54-4.06-1.69-.46-2.83,1.23-3.18,3.09-.49,2.54-1.12,5.06-1.69,7.59-.3,1.02-.61,2.05-.91,3.07-2.17,4.39-2.88,9.27-4.67,13.78-1.1,1.26-1.1,2.92-1.56,4.41-2.22,2.46-1.83,5.82-3,8.64.11.06.22.13.33.2,0,0,0,0,0,0-.11-.07-.21-.14-.33-.2-1.19,1.29-1.36,2.93-1.59,4.55,0,0,0,0,0,0-.5,1.55-1.01,3.11-1.51,4.66-1.71,3.37-1.65,7.19-2.73,10.73-.37,1.22-.21,2.51,1.11,3.29h.02c2.98,2.74,4.84.82,6.58-1.58.12-.3.24-.6.36-.9,1.43-1.69,3.44-2.96,3.89-5.36.32-.41.64-.82.96-1.23,1.41-.69,1.88-1.98,2.16-3.38h0c1.03-1.09,2.05-2.17,3.08-3.25,1.23.96,0,1.8-.21,2.61-1,3.87-3.24,7.32-3.97,11.29-.4.8-.8,1.59-1.19,2.39-.93,2.96-3.7,5.1-3.77,8.45-1.09,2.78-2.18,5.56-3.27,8.33-1.48,1.85-2.02,4.1-2.74,6.28-1.46,1.41-1.23,3.32-1.26,5.03-.05,2.41,1.15,3.27,3.41,1.92-.03-.3-.05-.61-.08-.91,0,0,0,0,0,0,.03.3.05.61.08.91,2.12-.5,2.61-2.66,4.01-3.9.67,0,1.34,0,2.02-.01-.61,2.94-2.98,5.24-3.08,8.38h.04c-1.77,1.92-2.45,4.35-3.16,6.76-1.97,2.4-2.24,5.45-2.92,8.29-.3,1.24-.13,2.92,1.73,3.26,1.77.33,3.31.11,3.55-2.17.28-.26.56-.53.84-.79,1.36-.07,1.34-1.31,1.82-2.13,1.46-1.1,2.11-2.74,3.03-4.22.28-.45.97-2.46,2.14-.5-1.23.99-.57,2.54-1.11,3.74-.52.74-1.21,1.39-1.18,2.4-.04.25-.09.5-.13.75-.8,2.03-1.6,4.05-2.4,6.08-.24.73-.49,1.45-.73,2.18-1.94,2.83-2.75,6.03-3.01,9.4-1.42,1.69.7,3.44-.09,5.15-1.22,1.65-2.22,3.4-2.48,5.48-.79.88-1.35,1.86-1.28,3.09-1.48,1.29-1.25,3.21-1.78,4.84-.5,1.52.63,2.38,1.63,3.06,1.05.71,2.1.45,2.99-.61.46-.55,1.19-.86,1.8-1.29,2.05-2.03,4.32-3.88,5.41-6.69-1.53,1.29-3.06,2.58-4.58,3.87-.27.51-.54,1.03-.8,1.55h0c-.26,0-.52-.02-.78-.03-.07.07-.14.15-.2.24.07-.08.14-.17.2-.24.26.01.52.02.78.03.27-.52.54-1.03.8-1.55,1.53-1.29,3.06-2.58,4.58-3.87,2.33-1.59,3.02-4.54,5.21-6.25,1.44.36,0,1.86.96,2.41-.06.68-.12,1.35-.18,2.03-3.05,3.81-3.36,8.76-5.37,13-1.72,2.07-2.76,4.45-3.28,7.08-.41.79-.82,1.58-1.23,2.37-.46,1.06-.92,2.12-1.39,3.19l-.05.06c-1.48,2.03-2.28,4.32-2.49,6.82.45,1.8,1.13,3.15,3.26,1.68,3.26-1.64,4.41-4.93,6.11-7.8,1.12-.76,2.15-1.59,2.14-3.13.56-.75,1.11-1.51,1.67-2.26.09-.6.13-1.23.79-1.55.46.25.92.5,1.38.75-.46,1.02-.41,2.28-1.42,3.05-.5,1.81-1,3.63-1.5,5.44-1.3,3.23-2.77,6.41-3.83,9.73-.58,1.84-2.81,3.13-1.87,5.46-1.33.9-1.05,2.4-1.36,3.68-1.29,2.81-2.94,5.57-1.56,8.85,3.2,2.23,3.74-1.43,5.47-2.47,1.42,1.32-.58,2.76.15,4.1-.3,2.38-2.49,4.04-2.49,6.53,0,0,0,0,0,0-.24.54-.48,1.07-.72,1.61-.87,1.03-1.75,2.05-.99,3.58,1.37-.1,1.96-.99,2.42-2.04.02-.25.04-.51.06-.76,1.69-2.72,4.19-4.99,4.64-8.4,1.82-1.96,2.07-4.62,3.1-6.93,3.71-7.41,6.55-15.17,9.28-22.97,1.79-4.43,3.59-8.86,5.36-13.3.36-.9,1.09-2.08-.14-2.67Zm-11.15-23.84c-.12-.34-.44-.64-1.05-.88h0c.61.24.92.55,1.05.88Zm-1.14-2.5c.11.06.2.12.27.19-.07-.06-.16-.13-.27-.19h0Zm-.95-65.15c-.35.21-.71.5-1.08.82.37-.32.73-.61,1.08-.82Zm-2.02,6.95h0c.4-.01.8,0,1.18-.06-.38.06-.79.04-1.18.06-.13.26-.11.56-.04.85-.07-.3-.09-.59.04-.85Zm-4.6,10.57c.49-.46.98-.91,1.47-1.37h0c-.49.46-.98.91-1.47,1.37Zm1.69-1.33c.41-.06.65-.92.92-1.63-.27.71-.51,1.56-.92,1.63Zm-1.69-3.84c.79-1.56,1.59-3.12,2.38-4.68-.79,1.56-1.59,3.12-2.38,4.68-.2.86-.33,1.79-.88,2.37.55-.58.68-1.5.88-2.37Zm-1.32,10.08s0,0,0,0c0,0-.14-.1-.21-.14.07.05.21.14.21.14Zm8.94-52.37c.87-.51,1.38-.56,1.69-.33-.3-.24-.82-.19-1.69.33-.25.53-.5,1.05-.75,1.58.25-.53.5-1.06.75-1.58Zm-5.97-23.63c.96-.78.51-2.06.79-3.07-.28,1.02.17,2.29-.79,3.08-.31.98-.61,1.97-.92,2.95.31-.98.61-1.97.92-2.95Zm-.85,4.47h0c-1.33,2.13-1.85,4.55-2.51,6.91.66-2.36,1.18-4.77,2.51-6.91ZM1.21,61.78c-.08-.62-.09-1.2.24-1.57-.33.37-.31.95-.24,1.57Zm4.15-.41c.52-.18,1.04-.81,1.57-1.47,0,0,0,0,0,0-.52.66-1.04,1.29-1.57,1.47Zm5.3-5.33c-.51.24-1,.52-1.54.64.54-.13,1.03-.4,1.54-.64-.21-.85-.02-1.54.32-2.17-.34.63-.53,1.32-.32,2.17Zm7.67-8.45c-.8-.12-1.17.45-1.57.97.4-.52.78-1.09,1.57-.97.51-.22.63-.74.79-1.26-.16.51-.28,1.04-.79,1.26Zm-1.81,15.71c.3-.9.7-1.77,1.05-2.65-.35.88-.75,1.75-1.05,2.65Zm-.5-3.42c.52-.76,1.05-1.52,1.57-2.28-.1-1.72.44-3.3,1.09-4.86-.64,1.56-1.18,3.15-1.09,4.86h0c-.52.76-1.05,1.52-1.57,2.28-.45.21-.58.69-.74,1.15.16-.46.29-.93.74-1.15Zm-9.8,21.58s-.13-.09-.22-.14l.22.14h0Zm3.05,8.52h0c.29-.01.51-.09.68-.23-.17.13-.4.22-.68.23Zm.21-9.27c-.07-.23-.09-.44-.07-.65-.02.2,0,.42.07.65.35.03.61.14.8.3-.19-.16-.45-.26-.8-.3Zm-.28-4.7c.24-1.02.47-2.04.71-3.06-.24,1.02-.47,2.04-.71,3.06.52,0,1.03.02,1.55.03-.52,0-1.03-.02-1.55-.03Zm2.03,12.12c.35.35.71.69,1.06,1.04h0c-.35-.35-.71-.69-1.06-1.04Zm-6.67,25.5h0c.22-.28.45-.56.67-.84-.12-.83-.44-1.69-.28-2.46-.16.76.16,1.63.28,2.46-.23.28-.45.56-.67.84Zm12.25-5.38c.47.01.94.03,1.42.04-.47-.01-.94-.03-1.42-.04h0Zm0,2.29c.23.02.43.06.6.12-.17-.06-.36-.1-.6-.12-.14.23-.27.34-.41.38.13-.04.27-.15.41-.38Zm-1.52,7.67s.15,0,.26,0h-.26Zm0-6.9c.04-.27.07-.54.11-.8-.03.27-.07.54-.1.8-.04.65-.22,1.18-.54,1.56.32-.38.49-.91.54-1.56Zm-3.87,14.55c.28-1.77.56-3.53.84-5.3-.28,1.77-.56,3.53-.84,5.3,0,0,0,0,0,0,0,0,0,0,0,0Zm-.8-.03c.26,0,.53.02.79.03-.26,0-.53-.02-.79-.03h0Zm-.7,7.76c1.07-.96,1.41-2.56,2.19-3.77-.78,1.21-1.13,2.8-2.19,3.77-.45.6-.58,1.52-1.23,1.91.65-.4.79-1.31,1.23-1.91Zm2.29,33.72c-.51,1.54-1.03,3.07-1.54,4.61-.26,0-.51,0-.77,0h0c.26,0,.51,0,.77,0,.51-1.54,1.03-3.07,1.54-4.61.32-.56.53-1.21.84-1.77-.31.57-.52,1.21-.84,1.77Zm2.32-4.32c.05-.37.19-.72.58-1.01-.42-.72-.43-1.32-.26-1.85-.17.53-.15,1.12.26,1.85-.39.29-.53.64-.58,1.01Zm-3.04,35.79c-.2.3-.44.47-.69.56.25-.09.49-.27.69-.56.63-.29,1.01-.7,1.23-1.18-.22.49-.6.89-1.23,1.18Zm5.29-11.6s0,0,0,0c.01.28.02.57.03.85-.01-.28-.02-.57-.03-.85Zm.03-3.74c-.76-.27-1.51-.55-2.27-.82-.11.07-.2.14-.27.22.08-.08.17-.15.27-.22h0c.75.27,1.51.55,2.27.82h0Zm.66,9.68h0c.03.17.06.34.09.51-.03-.17-.06-.34-.09-.51Zm6.26-33.48c-.12,0-.24,0-.37,0,.12,0,.24,0,.37,0h0Zm1.58-13.78c1-1.54,2.01-3.09,3.01-4.63.26.52.52,1.04.77,1.56h0c-.26-.52-.52-1.04-.77-1.56-1,1.54-2,3.09-3.01,4.63-.06.21-.11.42-.14.64.03-.22.07-.43.14-.64Zm-.83,2.28c.12.12.25.23.38.32-.13-.1-.26-.2-.38-.32h0Zm-2.38,5.27c.55.32,1.1.63,1.66.95.94-.61,2.17-1.19,2.29-1.86-.12.67-1.36,1.25-2.29,1.86.05.71-.07,1.38-.33,2.01.26-.63.38-1.3.33-2.01-.55-.32-1.1-.64-1.66-.95h0Zm.74,6.19c-.07-.02-.14-.04-.14-.04h0s.07.02.14.04Zm-1.31,1.54c-.19.11-.42.18-.72.17h0c.3,0,.53-.06.72-.17Zm-2.42-1.51c-.93.99-1.45,2.39-2.36,3.4.91-1.01,1.43-2.41,2.36-3.4h0Zm-.04-1.59c-.27,0-.54.02-.81.03.27-.01.54-.02.81-.03.69-.83.82-1.95,1.21-2.95-.38.99-.51,2.12-1.21,2.95Zm.09,1.59c.46.02.93.03,1.39.05.07.22.1.45.1.69,0-.23-.03-.46-.1-.69-.46-.02-.93-.03-1.39-.05Zm.58,26.95c.3.06.56.2.77.43-.21-.23-.47-.37-.77-.43Zm-1.4-13.87c1.56-4.35,3.12-8.7,4.68-13.05h0c-1.56,4.35-3.12,8.7-4.68,13.05Zm3.05,4.54h0s.05,0,.08,0c-.03,0-.05,0-.08,0Zm1.55,3.81s0,0,0,0c.3.29.46.55.53.78-.07-.23-.23-.49-.53-.78Z"/>
  </g>
</svg>