<?xml version="1.0" encoding="UTF-8"?>
<svg id="Layer_2" data-name="Layer 2" xmlns="http://www.w3.org/2000/svg" viewBox="0 0 111.76 117.5">
  <defs>
    <style>
      .cls-1 {
        fill: #fff;
      }
    </style>
  </defs>
  <g id="Graphic_Elements" data-name="Graphic Elements">
    <g>
      <path class="cls-1" d="m111.64,12.35c.01-.8.15-1.76-.88-1.98-1.57-.34-2.28.89-3.05,1.93-1.3.61-2.09,1.52-1.85,3.06.61-.03,1.22-.05,1.83-.08h0c-.61.03-1.22.05-1.83.08-1.51,3.21-2.41,6.6-3.07,10.07-1.22,3.91-2.55,7.79-2.93,11.91-.1.31-.2.62-.3.94-1.65,6-3.3,12.01-4.95,18.01-1.03,1.86-1.99,3.73-1.9,5.95.04.73.08,1.45.12,2.18,0,0,0,0,0,0-.04-.73-.08-1.45-.12-2.18-1.96,1.94-2.48,4.49-3,7.04-1.18.68-2.08,1.54-1.99,3.04-.42.78-.96,1.3-1.93.9-.58-2.67-1.15-5.34-1.73-8.01-.42-1.33-.84-2.66-1.26-3.98.11-.34.04-.64-.21-.9-.26-2,.74-4.19-.86-6-.12-3.1.34-6.26-.87-9.26-.45-4.91-.9-9.82-1.35-14.73-.27.01-.53.02-.8.03h0c.27,0,.53-.01.8-.03-.32-7.42-1.04-14.79-2.76-22.03-.16-1.07.41-2.3-.71-3.15-2.88-2.26-3.49.27-4.43,2.1,0-.02,0-.04-.02-.06h0s0,0,0,0h0c-.67,4.63-1.8,9.25-1.88,13.9-.06,3.87-2.33,7.48-1.09,11.42-.63,2.93-1.27,5.85-1.9,8.78-1.37,6-2.74,12-4.11,18-1.97,1.93-.89,4.72-1.93,6.91-2,3.8-2.85,7.99-4.11,12.04,0-.01-.02-.02-.03-.03-2.22,1.78-.98,5.44-3.74,6.93-.07-.6-.14-1.21-.22-1.81,0-.33,0-.65,0-.98,0-.66-.02-1.32-.03-1.98-.28-8.01.92-16.07-.78-24.03-.31-6.37.69-12.81-.97-19.12-.04-.96-.08-1.92-.12-2.87.03-1.73.61-3.52-.58-5.11-.17-.64-.35-1.28-.52-1.92.08-2.82.12-5.63-1.75-8.02-2.66-1.57-4.73-1.44-5.34,2.07-.68,3.95-1.21,7.93-1.8,11.9h0c-1.84,1.68-.55,3.98-1.16,5.9-1.79,3.16-1.63,6.69-1.9,10.13,0,0,.05,0,.05,0-1.57.64-1.89,1.65-.93,3.05-.17.29-.26.61-.27.94-2.68,4.43-3.01,9.66-4.75,14.44-1.58,4.36-3.84,8.77-3.92,13.65.02.32.03.64.05.96-.71,1.32-1.42,2.64-2.13,3.96.04.71.07,1.41.11,2.12,0,0,0,0,0,0-.37.97-.74,1.94-1.11,2.92-.37-.02-.74-.04-1.12-.06-1.08,1.51-2.13,3.03-2.01,5.02-1.65.56-.73,1.98-1.02,3-1.57.36-1.75,2.09-2.86,2.91-1.62.92-2.82,2.12-2.78,4.14.03,1.61-1.83,1.56-2.35,2.68-1.88,2.09-1.95-.38-2.72-1.08.49-3.55-.17-7.06-.43-10.58.05-.34.11-.67.16-1.01-.35-.63-.69-1.26-1.04-1.89-1.23,0-2.45,0-3.68,0,1.22,0,2.45,0,3.68,0,.34.63.69,1.26,1.04,1.89-.2-3.33.64-6.74-.67-10-.08-1.64.36-3.39-.98-4.76,2.35-2.23.27-4.85.64-7.26-.01-1.32-.02-2.64-.03-3.96-.03-3.09.89-6.25-.73-9.21-.04,1.07-.07,2.13-.11,3.2h0c.04-1.07.07-2.13.11-3.2,1.22-2.95-.08-5.88-.07-8.82.52-5.41.32-10.78-.98-16.09,0-.97,0-1.94,0-2.91.23-.26.25-.53.08-.82.64-.74.56-1.48,0-2.22,1.5-1.74-.45-3.29-.28-4.96-.16-3.02.76-6.14-.74-9.05-.11-1.3-.22-2.61-.32-3.91-.28,0-.55,0-.83-.03-.65,0-1.3,0-1.95-.01.65,0,1.3,0,1.95.01.27.02.55.04.82.03.46-3.12.24-6.2-.54-9.25-.43-1.16.55-3.59-1.85-3.02C1.19.54-.14,2.2.01,4.58c.61,9.24,1.18,18.49,1.76,27.73.31,0,.61-.02.92-.03.02-.59.04-1.19.06-1.78-.02.59-.04,1.19-.06,1.78-.31.01-.61.02-.92.03.39,10.31.47,20.65,1.87,30.9-1.98,1.74-.08,3.4.12,5.1,0,.33,0,.66,0,1-.95,9.35-.15,18.69.22,28.04.61,5.33,1.22,10.65,1.83,15.98-.14,2.11.77,3.49,2.84,4.02,3.49.89,4.38-2.22,6.13-4.01,1.45-.44,1.38-1.92,2.01-2.92,3.69-2.4,4.79-6.67,7.19-10,.56-.17.82-.52.68-1.11.04-.63.08-1.26.12-1.89,0-.17.02-.36.03-.56-.02.2-.03.39-.03.56,1.73-1.22,2.97-2.75,3.09-4.98,1.1-.74.8-1.92.93-2.97,1.47-1.42,2.55-3.05,2.75-5.15,2.35-6.67,4.7-13.34,7.05-20,.1-.98.2-1.95.29-2.93,1.04-.41.88-1.22.67-2.05.49-1.64,1.47-3.16,1.26-4.98,2.79-2.83,1.19-6.87,2.77-10.03.02-.35.03-.69.05-1.04.79-1.93,1.51-3.87,1.06-6.02,2.3.76.5,2.79,1.24,4.03,1.44,10.41-.31,20.97,1.59,31.35.08,4.89-1.53,9.79.18,14.66-.01,2.05-.3,4.14.02,6.13.53,3.28,2.18,4.66,5.23,2.09,3.82-4.44,5.88-9.77,7.58-15.26,1.25-2.91,3.38-5.52,3.06-8.97.23-.22.31-.49.23-.8,2.38-2.85,2.03-6.56,3.1-9.82,1.36-.8,1.03-2.09.97-3.31,1.73-1.01.63-2.63.85-3.97,1.27-1.5.96-3.33,1.04-5.08,1.4-2.47,1.89-5.18,2.12-7.97,1.01-.63.11-1.21-.05-1.8.81-.63.46-2.15,1.82-2.36.02-.6.04-1.2.06-1.8-.02-.36-.04-.72-.07-1.09-.34-.02-.69-.03-1.03-.05.34.02.69.03,1.03.05.02.36.04.72.07,1.09,2.01,1.34.67,3.24.82,4.9,1.45,1.13-.59,3.05.93,4.16,0,0,0,0,0,0h0s0,0,0,0h0c-.13,3.02.25,5.98,1.15,8.88.19,2.36-.49,4.85,1.04,7.01l.17-.16c-.08.08-.17.16-.17.16-.34,6.71,1.99,12.84,4.14,19,.46,1.33,1.26,2.34,2.93,1.77.24.17.5.26.79.27,2.86,2.42,3.57.09,4.41-1.98,2.03-1.53,1.96-4.02,2.82-6.09,1.42-.96,1.79-2.43,1.98-4,2.45-5.16,4.18-10.57,5.82-16.03l.25-1.82c1.64-1.77,1.99-3.89,1.72-6.19.41-1.32.83-2.64,1.24-3.96,1.5-.67.86-1.9.79-2.99,1-4.02,2-8.04,3-12.06.11-.92.22-1.84.33-2.75,1.24-1.52,1.96-3.22,1.84-5.22.1-.64.2-1.28.29-1.93.29-.29.58-.58.87-.87.92-.5.94-1.29.72-2.17ZM2.77,10.33h0c-.18-.27-.35-.55-.5-.81.15.27.32.54.5.81Zm-.05,14c-.62-1.57-.94-3.13-.97-4.69.03,1.56.35,3.13.97,4.69.01,2,.02,4,.04,6-.01-2-.02-4-.04-6Zm.38,10.36c.14.23.34.45.63.63.33.78.56,1.56.7,2.35-.14-.79-.37-1.57-.7-2.35-.29-.18-.49-.4-.63-.63Zm.54,28.54c.7.03,1.39.07,2.09.1.05.1.11.19.17.27-.06-.08-.12-.17-.18-.27-.7-.03-1.39-.07-2.09-.1Zm1.83,18.58c-.18.59-.33,1.24-.7,1.49.41.76.85,1.49,1.43,2.04-.58-.54-1.02-1.28-1.43-2.04.37-.24.52-.89.7-1.49Zm2.24,32.51h0c0-.54.11-1.03.31-1.45-.19.42-.3.91-.31,1.45Zm2.95-2.87s0,0,0,0c.95-.12,1.55-.5,1.81-1.16-.25.66-.86,1.05-1.81,1.17Zm7.56-7.75c-.13-.14-.29-.27-.49-.38.2.11.36.23.49.38Zm-.09,2.85c.22-.4.43-.81.59-1.24,0-.1,0-.2-.02-.3,0,.1.01.2.02.3-.16.43-.37.83-.59,1.24Zm18.68-47.17h0c.46-1.51.48-3.04.35-4.57.13,1.53.11,3.06-.35,4.57Zm4.15-18.81c-.13-.37-.22-.78-.23-1.24.37-.58,1.1-1.03,1.32-1.65-.22.62-.95,1.08-1.32,1.65.01.46.1.87.23,1.24Zm10.55,32.6c.07,2.13.13,4.26.2,6.4-.07-2.13-.14-4.27-.2-6.4,0,0,0,0,0,0Zm-6.73-37.87c-.7.02-1.43-.05-2.06.18.63-.23,1.36-.16,2.06-.18,0,0,0,0,0,0Zm-.09-9.01h0c.42-.19.82-.34,1.15-.36-.33.02-.73.16-1.15.36Zm2.28,12.9c.13-.33.36-.64.73-.89-.02-.99-.03-1.99-.05-2.98.02.99.03,1.99.05,2.98-.37.26-.6.56-.73.89Zm.75-9.89c-.64.01-1.29.02-1.93.03-.07.29-.11.59-.11.88.49,1,.56,1.92.35,2.79.21-.87.14-1.8-.35-2.79,0,0,0,0,0,0,0-.3.04-.59.11-.88.64-.01,1.29-.02,1.93-.03.13.36.17.72.15,1.08.02-.36-.01-.72-.15-1.08Zm1.04,28.91c.31-.3.63-.61.94-.91-.31.3-.63.61-.94.91-.17-.23-.47-.52-.65-.75.18.24.48.52.65.75Zm-.47,12.48c.48.64.83,1.43,1.41,1.94-.58-.52-.93-1.3-1.41-1.94Zm.83,22.9c.03.42.2.75.49.99-.29-.24-.46-.57-.49-.99Zm2.61-13.32c-1.05-.03-1.93.1-2.61.47.68-.37,1.56-.5,2.61-.47h0Zm9.96-11.04c-.31-.65-.61-1.3-.91-1.95.3.65.61,1.3.91,1.94.69.05,1.3.23,1.75.69-.45-.46-1.06-.64-1.75-.69Zm12.31-47.73c-.26-.47-.31-1.04-.32-1.74.01.7.07,1.27.32,1.74Zm-2.26-3.21c.63-2.1.82-4.19.69-6.27.13,2.09-.06,4.18-.69,6.27.9.59.94,1.34.81,2.13.13-.78.09-1.54-.81-2.13Zm.96,12.98c-.29,0-.56-.03-.81-.09.25.06.52.1.81.09.2-.1.35-.22.48-.35-.13.13-.29.25-.48.35Zm.96-1.9h0c-.05-1.11.17-2.14.59-3.13-.42.99-.64,2.02-.58,3.13Zm2.05,2.91c-.2,0-.39.02-.57.04.18-.03.38-.04.57-.04.07.27.09.57.09.87,0-.3-.02-.6-.09-.87Zm-.45-1.47c-.03-.38.04-.64.23-.8-.18.16-.26.42-.23.8Zm-.54-5.54c-.01-.67-.03-1.35-.04-2.02-.65.33-1.29.67-1.94,1-.02-.32-.03-.63-.04-.95,0,.32.02.63.04.95.65-.33,1.29-.67,1.94-1,0-.34,0-.69,0-1.03,0,0,0,0,0,0,0,.34,0,.69,0,1.03.01.67.03,1.34.04,2.02.41.02.83,0,1.24.03-.41-.03-.83-.01-1.24-.03Zm5.99,34.01c-.32,0-.65-.01-.97-.02.32,0,.65.01.97.02h0Zm20-12c0-.07-.03-.13-.05-.19.03.06.05.12.05.19h0Zm.87-2.2c-.62-.27-1.24-.54-1.86-.81.03-.17.06-.33.09-.5-.03.17-.06.33-.09.5.62.27,1.24.54,1.86.81.03-.27.07-.54.12-.81-.2-.47-.27-.87-.24-1.23-.02.36.05.76.24,1.23-.05.27-.09.54-.12.81Zm6.1-29.83h0c.21-1.17.56-1.77,1.01-1.95-.45.17-.8.78-1.01,1.95Z"/>
      <path class="cls-1" d="m25.84,88.39c-.03-.71-.07-1.41-.1-2.12-2.18,1.03-1.61,3.23-2.12,4.98.37.02.74.04,1.12.06.37-.97.74-1.94,1.11-2.92Z"/>
    </g>
  </g>
</svg>