<?xml version="1.0" encoding="UTF-8"?>
<svg id="Layer_2" data-name="Layer 2" xmlns="http://www.w3.org/2000/svg" viewBox="0 0 191.72 178.93">
  <defs>
    <style>
      .cls-1 {
        fill: #fff;
      }
    </style>
  </defs>
  <g id="Graphic_Elements" data-name="Graphic Elements">
    <g>
      <path class="cls-1" d="m46.37,141.71c.26-2.32.47-4.63-1.25-6.57-.03-.43-.06-.87-.08-1.3.17-2.23.14-4.38-2.4-5.4-1.86-4.38-4.66-6.49-9.41-3.87-1.46-.04-3.02-.38-3.91,1.29-.37-.18-.74-.21-1.13-.09-2.51-2.83-3.72-8.1-9.39-5.07-1.56-.28-3.14-.61-4.11,1.17-.43.37-.86.74-1.29,1.11-.8,2.25-5.41,1.52-4.2,5.35-.38-.11-.68,0-.91.32-3.61,4.05-5.62,8.74-5.65,14.21.52.03,1.05.06,1.57.09.16-.78.32-1.55.48-2.33.23-1.25.57-2.44,1.36-3.4-.79.96-1.13,2.15-1.35,3.4.09.09.2.17.31.23-.12-.06-.22-.14-.32-.23-.16.77-.32,1.55-.48,2.33.02.44.04.88.06,1.32-.4.88-.79,1.75-1.19,2.63.4-.88.79-1.75,1.19-2.63-.02-.44-.04-.88-.06-1.32-.52-.03-1.05-.06-1.57-.1C.57,146.74-.02,151.06,0,155.24c.03,7.92.1,16.16,9.43,19.78.05-.56.09-1.13.14-1.69-.65-.45-1.29-.91-1.9-1.4.61.48,1.25.95,1.9,1.4-.05.56-.09,1.13-.14,1.69,1.29,2.02,3.19,2.56,5.44,2.23,7.24,1.99,14.42,2.87,21.33-1.16,3.57-2.1,7.46-3.91,7.85-8.83,2.08-.84,2.46-2.52,2.2-4.5.3-.33.39-.71.27-1.14,1.9-6.65,2.03-13.29-.14-19.91ZM1.74,154.81c0-.35,0-.7,0-1.06,0,.35,0,.7,0,1.05,1.14,1.23,1.34,2.6,1.31,4,.03-1.41-.17-2.78-1.31-4Zm18.22-25.35c-2.52.6-4.35,1.03-6.17,1.46,1.72-3.59,1.74-3.58,6.17-1.46Zm-6.64,2.25c-.37.7-.73,1.4-1.1,2.09,1.4.02,2.66-.34,3.86-.85-1.2.51-2.46.87-3.86.85.37-.7.73-1.4,1.1-2.09Zm.2,12.65c.91.03,1.75-.03,2.41-.27-.66.24-1.5.29-2.41.27-.46,1.34-.93,2.68-1.39,4.01.46-1.34.93-2.68,1.39-4.01Zm1.6,4.55c-.98.23-1.97.47-2.95.7h0c.98-.23,1.97-.47,2.95-.7Zm-2.95.7s-.02-.03-.02-.03h0s.02.03.02.03Zm-5.29-13.19c1.17-.43,2.07-1.41,3.14-2.05-1.07.64-1.97,1.62-3.14,2.05,0,0,0,0,0,0Zm2.28,5.42c.5.42.75,1.18.5,2.58h0c-.04.84-.08,1.69-.12,2.53-.8.47-1.59.95-2.39,1.42.8-.47,1.59-.95,2.39-1.42.04-.84.08-1.69.12-2.53.25-1.41,0-2.16-.5-2.58Zm-2.59,24.55c.42,0,.83-.07,1.18-.35-.35.28-.76.36-1.18.35Zm2.16-1.92c.27-.55.54-1.11.8-1.66-.79-.4-1.12-1.04-1.28-1.78.16.74.5,1.39,1.28,1.78-.27.55-.54,1.11-.81,1.66Zm-.45-8.3c-.43-.88-.87-1.76-1.3-2.64.43.88.87,1.76,1.3,2.64.86-.87,1.73-1.75,2.59-2.62.06-.89-.03-1.84.26-2.66-.28.82-.19,1.77-.26,2.66-.86.87-1.73,1.75-2.59,2.62Zm2.66,6.58s-.02.01-.04.02c.02,0,.04-.02.04-.02,1.43.28,2.86.56,3.89,1.39-1.03-.83-2.46-1.1-3.89-1.39Zm6.46-9.09c-1.73.41-3.46.82-5.19,1.23-.02.54-.08,1.05-.28,1.5.2-.45.26-.96.28-1.5,1.73-.41,3.46-.82,5.19-1.23.1,1.26-.03,2.61.07,3.87-.11-1.26.03-2.6-.08-3.87Zm1.54,20.68c-.03.53.21.88.63,1.11-.42-.23-.66-.58-.63-1.11Zm1.14-7.59c-.88,0-1.76,0-2.64.01h0c.88,0,1.76,0,2.64-.01,0,.97,0,1.94,0,2.91,0-.97,0-1.94,0-2.91Zm2.83,9.3l-.29-.15h0s.29.15.29.15h0Zm-2.89-15.69c-.04.4-.07.81-.09,1.21,0,0,0,0,0,0,.02-.4.05-.81.09-1.21,0-1.49-.29-3.06.08-4.46.33-1.27.41-3.46,2.22-3.33,1.87.13,1.5,2.25,1.8,3.64-1.57,1.18-.24,5.22-4.09,4.15Zm1.39-15.38c0,.23,0,.47,0,.71,0,0,0,0,0,0h0c0-.24,0-.47,0-.71Zm.02.7s0,0,0,0c.08,1.28.77,2.33,1.59,3.33-.82-1-1.52-2.05-1.59-3.33Zm5.08-18.62c-.34.05-.68.05-1.03,0,.25-3.27-2.14-3.74-4.22-4.55-.3-.12-.59-.24-.86-.38.28.14.57.26.86.38,2.08.81,4.47,1.28,4.22,4.55.34.05.68.06,1.03,0,0,0,0,0,0,0,.33.21.57.43.74.65-.17-.22-.41-.44-.74-.65Zm4.45,20.37c.31-2.24-.78-4.9-.3-7.09h0c-.48,2.18.61,4.85.3,7.09Zm-.14-15.23c.81,2.35,1.62,4.69,2.44,7.03,0,0,0,0,0,0-.81-2.34-1.62-4.69-2.43-7.04Zm2.36,21.29c-1.37,1.71-1.41,3.6-1.3,5.51-.11-1.91-.07-3.8,1.3-5.51.03-.42.06-.83.09-1.25-.03.42-.05.83-.08,1.25Zm2.81,1.44c-.07.4-.11.8-.15,1.2.03-.4.08-.8.14-1.2,1.46-.6,2.33-.64,2.87-.34-.54-.3-1.42-.26-2.87.34Zm2.15,10.44s0,0,0,0c.27.42.63.56,1.04.55-.41.01-.77-.13-1.04-.55Zm.48-26.47c-1.63-3.36-3.92-5.95-7.79-6.7,0,0,0,0,0,0,2.8-5.18,5.09-2.38,7.38.46h0c-.61,2.13,3.88,3.93.4,6.24Zm1.41,20c.41-.46.83-.91,1.24-1.37,0,0,0,0,0,0-.41.46-.83.91-1.24,1.37Zm1.02-11.76h0c.58-.05,1.16-.1,1.74-.14-.58.05-1.16.1-1.74.14Zm4.05,7.71c.02-.43.03-.86.04-1.29h0c-.01.43-.03.86-.04,1.29Zm1.35-6.48c.2.44.22.96.17,1.49.06-.54.04-1.05-.17-1.49Z"/>
      <path class="cls-1" d="m191.31,102.88c-.37-.87-.73-1.73-1.1-2.6.34-1.98-.24-3.69-1.52-5.19-1.33.04-2.66.08-3.99.12,0,0,0,0,0,0-.79-1.37-1.58-2.74-2.37-4.11-.45-.45-.89-.91-1.34-1.36-.21.12-.43.23-.65.34.22-.11.44-.22.65-.34-.99-1.1-2.16-1.31-3.37-1.32,1.21,0,2.39.22,3.37,1.32.45.45.89.91,1.34,1.36.42-.44.84-.88,1.26-1.32-.86-1.69-1.46-3.59-2.62-5.05-3.06-3.82-4.97-9.38-11.56-8.34-.08.04-.17.06-.25.07-.77-2.43-2.13-3.02-4.26-1.21-2.56-1.05-5-1.57-6.61,1.51-2.9.93-5.81,1.86-8.71,2.79-.06-.04-.12-.08-.18-.11-2.33,2.6-7.28,1.77-8.17,6.25-4.53,2.33-9.03,4.7-12.95,8.02-1.3.87-2.61,1.73-3.91,2.6-1.59,1.95-4.56,2.49-5.37,5.23h0c-.43.1-.87.1-1.31,0-.47.78-.93,1.56-1.4,2.35-5.26,3.95-11.23,7.14-14.41,13.34-1.76,2.19-3.86,4.18-5.24,6.59-5.65,9.83-7.2,23.54,3.67,31.98,1.51,1.8,3.53,2.82,5.64,3.71-.01-.86-.02-1.71-.04-2.57-1.63-.47-3.25-.95-4.88-1.42,1.62.47,3.25.95,4.88,1.42.47-.46.94-.93,1.41-1.39h0c-.47.46-.94.93-1.41,1.39.01.86.02,1.71.04,2.57.96,1.35,1.61,3.14,3.82,2.73,2.65-.02,5.3-.05,7.95-.07-.2-2.55-1.34-3.79-2.84-4.54,1.5.75,2.64,2,2.84,4.54-2.65.02-5.3.04-7.95.07,9.96,4.84,20.18,2.88,30.38,1.13,3.7-.08,7.18-1.03,10.51-2.59,7.2-1.8,13.93-4.62,19.93-9.05,3.21-1.48,6.75-2.55,7.92-6.5,2.95-.62,4.52-2.55,5.11-5.41,2.53-.19,2.44-2.17,2.68-3.92,4.41-3.47,3.89-8.43,3.97-13.21.01-.88.02-1.75.04-2.63,1.33-5.66,1.85-11.37,1-17.16Zm-91.94,36.9c-.88.02-1.77.04-2.65.06.88-.02,1.77-.04,2.65-.06h0Zm-1.38-13.2s0,0,0,0c.54.24,1.01.53,1.39.88-.38-.35-.84-.64-1.39-.88Zm85.85-29.39c-.07.16-.14.31-.21.47.45.41.9.82,1.35,1.23h0c-.03,1.32-.1,2.65.75,3.41-.85-.76-.78-2.09-.75-3.41-.45-.41-.9-.82-1.35-1.23h0c.07-.16.14-.31.21-.47Zm-1.61,23.88c.02.09.04.16.06.25-1.58,1.11-3.19,2.2-4.22,3.72,1.04-1.52,2.64-2.61,4.22-3.72-.02-.09-.04-.16-.06-.25Zm-5.14-19.48c.79,4.55,1.31,9.07-1.22,13.31-.6-.58-1.2-1.16-1.79-1.75-1.13-3-2.27-6-3.41-9,.14-2.22-2.71-3.84-1.28-6.32,2.57,1.25,5.13,2.51,7.7,3.76Zm-10.55,6.82c.41.04.95.6,1.34,1.08,0,0,0,0,0,0-.38-.48-.92-1.04-1.33-1.08Zm.81,16.1c-.24-.65-.55-1.29-.87-1.92h0c.33.63.63,1.27.87,1.92Zm.4-12.08c-.05,1.32.12,2.61,1.3,3.71-.46,1.23-.92,2.46-1.38,3.7.46-1.23.92-2.46,1.38-3.7-1.18-1.11-1.35-2.39-1.3-3.71Zm-15.75-28.15c2.11.17,3.7-1.01,5.33-2.04.03.02.06.03.09.05,3.8-.39,7.6-.59,11.39.1.03-.52.06-1.05.09-1.57-1.33-.57-3.89.49-4.99-.38,1.1.87,3.66-.19,4.99.38.82-2.47-2.9-2.04-2.65-4.15.07-.09.13-.16.2-.23-.24,2.1,3.47,1.67,2.65,4.14-.03.52-.06,1.05-.09,1.57,2.44,1.47,4.52,3.24,5.2,6.19-4.43-.4-8.8-.34-12.94,1.6-4.18-.1-8.2-.83-11.93-2.82h0c.06-1.72,1.96-1.72,2.66-2.84Zm13.19,46.26c-.03.05-.04.11-.05.17,0-.06.03-.11.05-.17h0Zm-2.6-20.38c.02,1.98-1.79,3.97-3.97,5.97,0,0,0,0,0,0,2.17-2,3.98-3.99,3.97-5.97Zm-4.95-14.44c-.4.71-.95,1.36-1.68,1.91-.86.07-1.71.14-2.57.21.86-.07,1.71-.14,2.57-.21.72-.56,1.27-1.2,1.68-1.91Zm-8.26-4.79c0,.48,0,.97,0,1.45,0-.48,0-.97,0-1.45h0Zm-2.6-3.81s0,0,0,0c.68,0,1.36,0,2.05,0-.68,0-1.36,0-2.05,0-.04.26-.05.5-.02.71-.02-.22-.02-.45.02-.71Zm.37,12.05h0c1.66-.39,3.32-.78,4.98-1.17l.39.09.34-.2h0c1.02.81,2.03,1.61,3.05,2.42.88,1.75,1.76,3.5,2.65,5.25-.04,1.77.95,4.24-2.5,3.7-.93-3.38-2.71-5.65-6.65-5.05-1.61-.9-3.23-1.81-4.84-2.71.87-.78,1.73-1.55,2.6-2.33Zm2.24,35.35c.55-.37,1.13-.73,1.69-1.1-.56.37-1.13.73-1.69,1.1-.44,0-.88,0-1.32,0,.44,0,.88,0,1.32,0h0s0,0,0,0Zm-.03-11.75c-.05,1.37-.11,2.74-.16,4.11.05.38.1.77.14,1.15,0,1.31.02,2.61.03,3.92,0-1.31-.02-2.61-.03-3.92-.04-.39-.09-.77-.14-1.15,0,0,0,0,0,0,.05-1.37.11-2.74.16-4.11-3.45-2.22,2.52-5.86-1.2-8.04-.12-.44-.25-.88-.37-1.31.15-.41.24-.82.28-1.25.88-.03,1.76-.05,2.63-.08,1.35,1.33,2.69,2.66,4.04,4-.51,3.57.15,7.02,1.09,10.44h0l.13.1c-1.32.47-2.64.93-3.96,1.4l-2.64-5.26Zm-.14-14.77c-.16.61-.48,1.14-1.18,1.49.69-.35,1.02-.88,1.18-1.49Zm-1.22-1.78c.04.19.06.41.05.65h0c0-.24-.02-.45-.05-.65Zm1.37.6h0c1.37.47,1.82,1.18,1.89,1.98-.06-.8-.52-1.51-1.89-1.98Zm-7.64,2.43c.35.1.7.18,1.06.24,1.75,0,3.5,0,5.25,0-1.75,0-3.5,0-5.25,0-.36-.06-.71-.14-1.06-.24-.56-1.2-1.13-2.39-1.7-3.59.57,1.2,1.13,2.39,1.7,3.59Zm5.09,7.32c-.05.27-.09.56-.1.85,0,0,0,0,0,0,.01-.3.05-.58.1-.85Zm-15.97,29.86c1.26,1.26,2.79,1.22,4.31,1.21-1.53.02-3.06.05-4.31-1.21-3.17.12-5.21-1.09-6.7-2.95,1.49,1.86,3.53,3.08,6.7,2.95Zm-2.49-23.77c.06.02.12.04.12.04h0s-.05-.02-.12-.04Zm5.42,11.68c-1.9.95-3.62.78-5.23-.06,1.61.84,3.33,1.01,5.23.06,0,0,0,0,0,0,1.66.04,3.32.09,4.98.13,0,0,0,0,0,0-1.66-.04-3.32-.09-4.98-.13Zm-3.23-16.98c-.43-.06-.85-.16-1.27-.29,0,0,0,0,0,0,.41.14.84.24,1.27.3.61-1.19,1.23-2.39,1.84-3.58,0,0,0,0,0,0,.38-.21.77-.43,1.15-.64,1.86-1.17,3.72-2.34,5.58-3.51.28.11.55.1.83-.02h0c.92,1.29,1.85,2.58,2.77,3.86.31,4.32.62,8.64.93,12.96-5.96-.72-11.61-1.88-13.1-9.07Zm12.4,11.99c-.06,1.28-.12,2.55-.19,3.83h0c.06-1.28.12-2.55.19-3.83Zm-3.93,5.03c1.24-.41,2.48-.83,3.73-1.24h0c-1.24.42-2.48.83-3.73,1.24Zm1.15,2.11c-.45.21-.91.42-1.33.66h0c.42-.24.88-.45,1.33-.66Zm-3.96-3.96c-.59-.36-.97-.42-1.28-.2.32-.22.69-.15,1.28.2Zm9.23,9.85s0,0,0,0c-2.88,1.99-5.92,3.42-9.2,3.96,3.28-.54,6.32-1.97,9.2-3.96Zm-.07-15.66s.06-.06.09-.09c0,0,.01.03.01.03h0s-.01-.03-.01-.03c-.03.03-.06.06-.09.09Zm-17.1-17.76c.4.11.79.11,1.19,0l2.38-2.2c-.46-1.32-.36-2.57.52-3.71,2.52-1.86,5.85-1.7,8.6-2.98-2.75,1.28-6.08,1.12-8.6,2.98,0,0,0,0,0,0-.88,1.14-.97,2.38-.52,3.71-.8.73-1.59,1.47-2.38,2.2-.39.11-.79.12-1.19.01-.43-1.15-.86-2.29-1.3-3.43.43,1.14.86,2.28,1.3,3.43Zm-3.01,20.16c.57,1.37,1.14,2.74,1.71,4.11,0,2.18.01,4.37.02,6.55h0l-.02-6.55c-.57-1.37-1.14-2.74-1.71-4.12-1.39-2.14-2.82-4.26-3.33-6.73.51,2.48,1.94,4.6,3.33,6.73Zm-5.94-27.35h0s-.07-.05-.14-.11l.14.11Zm-.23,14.3c.11-.08.21-.15.31-.21-.1.06-.2.13-.31.21-.75-.44-1.28-.93-1.63-1.44.36.51.88.99,1.63,1.44Zm-5.29,1.36c.43.71,1.33,1.3,1.94,1.96-.61-.66-1.51-1.25-1.94-1.96-.52-.83-1.62-.66-2.59-.65.97,0,2.06-.18,2.59.65Zm28.98,38.17c-.33,0-.65.01-.95.06.3-.05.62-.07.95-.06h0c.07.25.13.49.18.73-.05-.24-.11-.49-.18-.73Zm11.91,1.41s0,0,0,0c-.89-.47-1.78-.95-2.67-1.42.89.47,1.78.95,2.68,1.42.42-.06.83-.1,1.25-.11-.42.01-.84.05-1.25.11Zm27.65-25.1l-.02.03c-2.51,1.55-2.94,4.64-4.91,6.59-3.23,2.56-6.46,5.11-9.69,7.67-.36.25-.76.43-1.19.53-.78-.94-1.55-1.88-2.33-2.81-.99.4-1.98.79-2.97,1.19-2.81,3.28-7.11,4.18-10.48,6.56-.48.86-.96,1.72-1.43,2.59.89.44,1.78.88,2.68,1.32-.89-.44-1.78-.88-2.68-1.32,0,0,0,0,0,0,.48-.86.96-1.72,1.43-2.59-.9-.9-1.8-1.79-2.7-2.69-1.32.88-2.64,1.76-3.95,2.64-5.63.63-10.5,3.62-15.84,5.13-1.32-.44-2.65-.97-3.91.18-4.63.07-9.09-.68-13.32-2.62-2.93-3.05-5.39-6.4-6.56-10.55-2.5-5.12,2.49-9.51,1.4-14.5,1-1.27,2-2.55,2.99-3.82-1.42-.49-2.83-.97-4.25-1.46-.6-.41-1.08-.88-1.46-1.38.38.5.86.97,1.46,1.38,1.42.49,2.83.97,4.25,1.46,1.93-.32.77-6.22,4.84-2.68.01,2.15-.28,4.35.09,6.43.8,4.52-2.41,9.37,1.14,13.64.1-.62.2-1.24.3-1.86-.1.62-.2,1.24-.3,1.86-.1,2.52.28,4.8,2.97,5.93l.02.13c3.46,3.41,3.99,3.42,5,.06,1.47-2.24,3.18-.99,5.06-.61,3.26.66,6.69,1.92,9.86-.43,4.37-.79,8.74-1.57,11.69-5.42,3.95-.25,5.9-3.8,8.99-5.47-.09-.41-.15-.83-.15-1.26,0,0,0,0,0,0,0,.42.05.84.15,1.26,2.24-.06,4.13-2.1,6.54-1.16.08.37.09.75.03,1.13-2.23.45-3.63,1.84-4.44,3.9-.76.83-1.51,1.67-2.27,2.5-4.14.58-6.45,4.56-10.35,5.59.9.9,1.8,1.79,2.7,2.69,3.37-2.38,7.67-3.29,10.48-6.56.99-.4,1.98-.79,2.97-1.19,1.22-2.17,4.95-1.87,5.05-5.14,4.49-1.59,5.71-5.46,6.63-9.53.35-.3.69-.61,1.04-.91,2.55.48,3.42-4.4,6.01-2.29,1.91,1.56-.93,3.8-.6,5.86Zm1.31-15.86s0,0,0,0c.44,2.19.88,4.37,1.31,6.55-.44-2.18-.88-4.37-1.32-6.55Zm-1.36-9.19c-.01.29-.07.59-.14.89.07-.3.12-.6.14-.89-1.31-1.76-2.63-3.51-3.94-5.27,1.31,1.76,2.63,3.51,3.94,5.27,1.74-.87,3.48-1.75,5.23-2.62-1.74.87-3.48,1.75-5.23,2.62Zm5.6,11.54c.34-.3.69-.61,1.03-.91,0,0,0,0,0,0-.34.3-.69.61-1.03.91Zm1.91-3.28c.23-1.42-.08-2.82-1.01-4.22l-.15.03c-.83-.09-1.49.14-2.09.51.6-.36,1.26-.6,2.09-.51,0,0,.15-.03.15-.03.92,1.39,1.24,2.8,1.01,4.22Z"/>
      <path class="cls-1" d="m184.7,95.21c1.33-.04,2.66-.08,3.99-.12-1.05-2.39-2.8-4.11-5.1-5.32-.42.44-.84.88-1.26,1.32.79,1.37,1.58,2.74,2.37,4.11Z"/>
      <path class="cls-1" d="m84.55,20.93c-.33-1.34-.66-2.69-.99-4.03-.51-3.02-2.22-5.47-3.85-7.95-.94.03-1.89.05-2.83.08h0c.94-.03,1.89-.05,2.83-.08-2.38-6.47-7.56-7.11-13.38-6.41.47.79.95,1.59,1.42,2.38.18.06.37.11.56.15-.19-.04-.37-.09-.56-.15-.47-.8-.95-1.59-1.42-2.38-3.6.26-6.62-3.71-10.5-1.43-.81-.04-1.62-.09-2.43-.13C52.16-.2,50.65,0,49.1.04c-16.03.43-24.39,24.54-22.38,37.98.14.38.16.77.05,1.16l.33,2.55c.34.12.69.2,1.05.23,1.98.32,3.12.14,3.78-.34-.65.48-1.8.67-3.78.35,0,0,0,0,0,0-.36-.03-.71-.11-1.05-.23-.11-.85-.22-1.7-.32-2.55-3.13,12.04-1.69,23.96.95,35.85.65-.1,1.3-.2,1.94-.3,0,0,0,0,0,0,1.26.04,2.52.08,3.78.13.41-.09.83-.14,1.24-.18-.42-1.7-.84-3.4-1.26-5.1.42,1.7.84,3.4,1.26,5.1-.42.03-.83.09-1.24.18h0c-1.26-.04-2.52-.08-3.78-.13-.65.1-1.3.2-1.94.3,1.11,2.12.86,4.87,3.03,6.5,7.86,9.92,14.95,11.53,27.66,6.28,1.33-1.26,2.65-2.52,3.98-3.77h0c-1.33,1.26-2.66,2.52-3.98,3.77,5.99-1.83,10.97-5.08,14.53-10.32,2.79.12,2.87-2.26,3.68-3.97l5.7-11.76c-.94-.88-1.89-1.77-2.83-2.65,0,0,0,0,0,0,.94.88,1.89,1.77,2.83,2.65,1.18-1.06,1.19-2.49,1.2-3.91,1.78-1.47.97-3.55,1.28-5.37,1.95-8.92,1.83-17.86.24-26.82-.17-1.58-.33-3.16-.5-4.74Zm-55.08,11.75c-.17.19-.34.38-.51.57.17-.19.34-.38.51-.57.03-1.76.07-3.53.1-5.3-.03,1.77-.07,3.53-.1,5.3Zm2.19,47.41c.25-.27.53-.47.82-.65-.29.18-.57.38-.82.65Zm41.89-38.21c-1.69.72-1.87,2.91-1.82,5.34h0c-.05-2.43.13-4.62,1.82-5.34Zm-1.91-18.4h0c.25.2.45.41.63.63-.18-.23-.39-.44-.63-.63h0c.01-.74-.04-1.45-.14-2.14.11.7.16,1.41.14,2.14Zm.18,11.56c-.49.63-.96,1.29-1.79,1.46.83-.17,1.3-.83,1.79-1.46Zm-2.44,1.49s0,0,0,0c-.12,1.79-.24,3.58-.36,5.37.12-1.79.24-3.58.36-5.37Zm-1.72-30.79c-.14.81-.46,1.53-1.37,1.93,0,0,0,0,0,0,.91-.4,1.23-1.12,1.37-1.93Zm-4.02,4.58c-1.38.14-2.67.67-3.91,1.36,0,0,0,0,0,0,1.24-.69,2.53-1.22,3.91-1.36Zm-5.15,2.61l3.92,4.02c.16.98-.16,2.12.92,2.8.5.17.96.29,1.39.37-.43-.08-.89-.2-1.39-.37,2.28,4.53,2.81,9.57,4.22,14.35,0,5.36-1.77,10.4-2.8,15.58-1.75,1.75-3.49,3.49-5.24,5.24-.41-.02-.75.12-1.02.42-2.11-1.18-.95-2.77-.73-4.41.58-4.37,1.62-8.82-.51-13.11,0-.82.02-1.64.03-2.46.5-3.17-.71-6.09-2.18-8.59-3.48-5.93-1.68-10.2,3.4-13.84Zm-14.49,63.28h0c-1.29-.73-2.51-1.51-3.21-3.45,2.1.23,4,.43,5.9.64.38,1.05,1.22,1.29,2.21,1.27.19.12.38.23.57.34.64.06,1.14.25.99,1.05h0l-.53.07s-.53-.07-.53-.07c-1.8.05-3.6.09-5.4.14Zm1.69,4.65c-1.01-.35-1.69-1.43-1.7-3.96,0,2.53.69,3.6,1.7,3.96Zm.86-16.51c.2-.01.37-.01.53,0-.16-.01-.34-.01-.53,0-4.06,3.67-4.7-.93-6.51-2.69,1.78.4,3.56.81,5.35,1.21l.03.06c1.72,0,3.43-.02,5.15-.03.46-1.74.93-3.47,1.39-5.21,0,0,0,0,0,0,1.26.54,2.06,1.38,2.37,2.55-.31-1.17-1.11-2.01-2.37-2.55-.46,1.74-.93,3.47-1.39,5.21-1.72,0-3.43.02-5.15.03.38.48.76.95,1.13,1.42Zm-1.38-26.48c-1.2-.85-2.4-1.69-3.6-2.54,0-1.62.52-3.01,1.45-4.21-.93,1.2-1.45,2.58-1.45,4.21,1.2.85,2.4,1.69,3.6,2.54Zm8.48-6.31c-1.7-2.69-2.26-5.85-1.93-9.4,0,0,0,0,0,0-.33,3.54.24,6.71,1.93,9.4Zm-1.9,15.92s0,0,0,0c-1.13,2.26,1.33,6.82-4.07,6.34.23-.41.25-.83.05-1.26-.77-.94-1.54-1.89-2.31-2.83-.02-.41-.06-.81-.13-1.22.07.4.11.81.13,1.21.77.94,1.54,1.89,2.31,2.83.14-2.48.27-4.95.41-7.43,2.17-.37,2.37,1.74,3.61,2.36Zm.21,10.2h0c-.11-1.65-2.36-.94-3.67-1.28,1.3.34,3.55-.37,3.67,1.28Zm-4.09-22.55c-.21-.17-.33-.42-.39-.7.06.29.18.53.39.7,1.38.81,2.26,1.85,2.85,3.03-.59-1.17-1.47-2.21-2.85-3.03Zm-1.32-15.65c-.22.03-.44.05-.66.07.22-.02.44-.04.66-.07.17-1.35.81-2.13,1.86-2.37-1.06.25-1.69,1.02-1.86,2.37Zm.08,5.36c-.33.41-.65.81-.98,1.22-.53,1.28-1.06,2.57-1.59,3.85.53-1.28,1.06-2.57,1.59-3.85.33-.41.65-.81.98-1.22Zm-1.57,4.93c-.32.08-.67.18-1.06.31h0c.39-.14.75-.24,1.06-.31Zm-2.23,18.74h0s-.13,0-.2,0h.2Zm-.25,0h0,.04s-.04,0-.04,0c.09.43.12.86.07,1.3-.61.45-1.39.52-2.19.51.81.01,1.58-.05,2.19-.51.04-.44.02-.87-.07-1.3Zm6.71-43.5c.89.78,1.79,1.57,2.68,2.35-.89-.78-1.79-1.57-2.68-2.35,0-.42-.01-.85-.03-1.27.02.42.03.85.03,1.27Zm-2.74,3.84c.46-.41.91-.82,1.37-1.23.03-.82.2-1.56.72-2.12-.52.56-.69,1.3-.72,2.12-.46.41-.91.82-1.37,1.23h5.76c-3.05,7.75-4.19,8.27-11.04,5.39,1.12-2.42,3.31-3.79,5.28-5.39Zm-8.81,21.49c2.09-2.65,1.14-7.64,6.18-8.02.4.75.81,1.49,1.21,2.24,0,0,0,0,0,0-1.25,3.4-5.15,5.35-5.17,9.42-.03,1.73-.07,3.47-.1,5.2.04,3.1.08,6.21.12,9.31h0c-4.75-2.3-.69-6.01-1.44-8.94-.45-.56-.9-1.11-1.34-1.67-.85.87-1.43,1.84-1.8,2.89.38-1.05.95-2.02,1.8-2.89.12-.38.13-.76.02-1.14.52-.91,1.03-1.82,1.55-2.72-.34-1.22-.68-2.45-1.02-3.67-.22-.17-.44-.34-.65-.51h0c.22.17.43.34.65.51Zm-1.14-10.79c-.05.77.03,1.51.43,2.16-.4-.65-.48-1.38-.43-2.16Zm-.52,7.9c.45-1.74.9-3.49,1.35-5.23-.45,1.74-.9,3.49-1.35,5.23-.43.25-.76.55-1.04.87.28-.33.61-.62,1.04-.87Zm0,52.68c0-.41-.06-.82-.14-1.22,0,0,0,0,0,0-.46-1.15-1.86-1.73-2.34-2.87.48,1.14,1.88,1.72,2.35,2.87.08.4.13.81.14,1.22.08.33.19.62.32.9-.13-.27-.23-.57-.32-.9Zm.86-16.26c1.04,2.14,4.11,2.69,6.86,3.49,0,0,0,0,0,0-2.74-.8-5.81-1.35-6.85-3.49Zm38.77.46c-.09.75-.19,1.5-.28,2.26,0,0,0,0,0,0-1.33,1.85-2.66,3.7-4,5.55-2.05,1.86-3.18,4.85-6.45,5.21-.05.44-.1.89-.15,1.33h0c-1.23.98-2.47,1.97-3.7,2.95,0,.36.02.7.1,1.02-.08-.32-.1-.66-.1-1.02-.88.13-1.75.26-2.63.39-1.11,1.25-2.6.7-3.95.81-.89.48-1.77.97-2.66,1.45-.45-.13-.9-.27-1.35-.4-2,.8-3.78.56-5.26-1.1-1.28.39-2.56.79-3.85,1.18-.5-.92-1-1.84-1.5-2.75,1.78.17,3.56.33,5.34.5l5.19.74c1.12-1.22,2.52-1.28,4.02-.96.49-.44.98-.88,1.46-1.31-.6-.08-1.21-.15-1.81-.23h0c.6.08,1.21.15,1.81.23.8-.09,1.59-.17,2.39-.26.86-1.68,3.83-1.23,3.83-3.78.44-.4.74-1.17,1.56-.62,2.3-1.46,3.82-3.57,4.98-5.98.11-.42.23-.84.34-1.26,1.58-2.59,3.14-5.2,6.66-5.39-.05-1.28-.09-2.56-.14-3.83-.1-.37-.14-.76-.13-1.15-.01.39.02.77.13,1.15.05,1.28.09,2.56.14,3.83,0,.48,0,.96,0,1.44Zm-24.45,13.75c0-.65.24-1.31.56-1.98h0c.14-.39.23-.78.28-1.19.79,0,1.59,0,2.38,0-.79,0-1.59,0-2.38,0-.05.41-.14.81-.28,1.19-.32.67-.56,1.33-.56,1.98Zm8.51-4.51h0c-.61.35-1.23.66-1.87.89.64-.23,1.26-.54,1.87-.89Zm-1.32-2.7c.29.14.52.3.7.49-.18-.19-.41-.36-.7-.49,0,0,0,0,0,0Zm15.84-22.34c-.01.47-.03.93-.04,1.4-1.7,2.63-3.4,5.25-5.1,7.88-.97,1.64-1.95,3.28-2.92,4.92-2.95,1.62-5.68,3.7-9.07,4.42.3.88.61,1.76.91,2.63-.3-.88-.61-1.76-.91-2.63-1.22-.16-2.44-.32-3.66-.48-1.39.55-2.78,1.11-4.18,1.66,1.39-.55,2.78-1.11,4.18-1.66-.15-1.25-.31-2.5-.46-3.75.47-.47.93-.94,1.4-1.42,2.2-.09,4.58.78,6.42-1.21,1.8-1.49,3.64-2.94,5.4-4.47,3.59-3.13,2.26.84,2.89,1.98,1.7-2.63,3.4-5.25,5.1-7.88.01-.47.03-.93.04-1.4.85-.44,1.7-.87,2.55-1.31-.85.44-1.7.87-2.55,1.31Zm2.27-24.86c-.54-.71-.59-1.59-.52-2.51-.06.91-.01,1.79.52,2.51Zm.59-6.85c-.53.03-1.06.06-1.6.1.53-.03,1.06-.06,1.6-.1,0,0,0,0,0,0,.79.47,1.59.95,2.38,1.42-.8-.47-1.59-.95-2.38-1.42Zm2.4,27.74s-.01,0-.03.02c.01,0,.03-.02.03-.02h0Zm-.47-30.76c.63-.11,1.25.51,1.87,1.34-.62-.82-1.24-1.44-1.87-1.34Zm3.11,3.09h0c.02.87-.14,1.37-.43,1.62.29-.25.45-.76.43-1.62Zm2.44,28.98s0,0,0,0c.02-4.81.05-9.62.07-14.43-.89-.13-2.1.03-2.85-.36.76.39,1.97.22,2.86.36-.03,4.81-.05,9.62-.07,14.43Z"/>
    </g>
  </g>
</svg>