<?xml version="1.0" encoding="UTF-8"?>
<svg id="Layer_2" data-name="Layer 2" xmlns="http://www.w3.org/2000/svg" viewBox="0 0 105.03 273.74">
  <defs>
    <style>
      .cls-1 {
        fill: #fff;
      }
    </style>
  </defs>
  <g id="Graphic_Elements" data-name="Graphic Elements">
    <g>
      <path class="cls-1" d="m102.4,40.71c2.7-7.94,2.54-16.12,2.03-24.32q1.12-9.52-3.82-9.31c-3.93-.32-7.02,2.63-7.07,5.27-.2,11.98-4.74,23.75-1.89,35.85.66.02,1.32.05,1.98.07-.34-.98-.6-1.94-.75-2.87.15.94.41,1.89.75,2.87-.66-.02-1.32-.05-1.98-.07-2.86,10.44-1.47,21.13-1.86,31.71.26.2.54.38.83.54h0c-.19,7.58-.37,15.17-.55,22.75h0c.18-7.58.36-15.17.55-22.75-.29-.16-.57-.34-.83-.54-.96,4.28-1.92,8.56-2.88,12.85-.82-.81-1.64-1.63-2.47-2.44.04-3.37.09-6.75.13-10.12-3.57-4.13,1.52-8.32-.08-12.47.56-3.53,1.48-7.06.09-10.6,1.48-8.26-.57-16.52-.02-24.78.15-3.56.3-7.13.46-10.69-.47-3.56.79-7.49-2.2-10.52-1.66,0-3.33-.01-4.99-.02.46,1.43,1.48,2.86,1.52,4.28-.04-1.42-1.06-2.85-1.52-4.28,1.66,0,3.33.01,4.99.02-.03-1.92,1.41-4.07-.89-5.63-1.38.07-2.76.15-4.14.22-1.97-1.68-3.62-1.96-5.02-1.52,1.4-.45,3.05-.16,5.02,1.51,1.38-.07,2.76-.15,4.14-.22-.62-3.32-1.38-6.22-5.99-5.35-5.94,1.13-10.31,3.96-11.48,10.12-1.28,6.73-2.08,13.55-3.09,20.33h0c-1.09,1.78-2.18,3.57-3.27,5.35-.51-.61-1.02-1.22-1.54-1.83-.11-1.2-.22-2.4-.33-3.6,3.48-3.86,2.55-8.17-.16-11.46-2.39-2.9-5.62-.42-8.32.95-1.21.54-2.42,1.09-3.62,1.63-.9-3.98-2.48-7.62-5.29-10.65-.66-3.18,1.71-8.57-2.48-9.04-4.97-.56-8.14,3.48-8.28,9.08-.22,8.74-1.06,17.48-.88,26.21.2,9.71-3.09,19.24-1.19,28.99-.56,5.16-1.12,10.32-1.67,15.49,1.21-1.15,2.42-2.3,3.64-3.44-.58-1.59-.72-3.18-.66-4.77-.06,1.59.08,3.18.66,4.77,0,0,0,0,0,0h0c-1.21,1.15-2.42,2.3-3.64,3.44-.11,6.51.06,12.97-.58,19.54-.81,8.19-2.75,16.55-.75,24.9-.01.59-.03,1.18-.04,1.78h0c-1.57,3.37-2.12,6.91-1.82,10.59-1.75,3.54-1.08,7.44-1.72,11.13-1.85,10.63-1.14,21.71-5.51,31.89.05,1.44.1,2.89.14,4.33,0,0,0,0,0,0-.05-1.45-.09-2.89-.14-4.34-3.24-1.85-1-5.14-2-7.58.12-4.14.23-8.28.35-12.43.33-.54.36-1.1.11-1.68,1.56-3.07,2.42-6.12-.08-9.15.07-.95.14-1.9.21-2.84,2.39-7.66,3-15.54,2.99-23.5v-3.5c.3-9.48,2.98-18.81,1.81-28.39.37-.4.52-.87.44-1.41,2.23-7.09,1.35-14.36,1.28-21.58.1-1.77.19-3.54.29-5.31.1-5.9.2-11.79.3-17.69,2.99-1.72,1.78-4.07.24-5.58-1.97-1.93-3.99.21-5.02,1.51-1.66,2.1-3.29,4.55-2.7,7.6.65.06,1.3.12,1.95.18h0c-.65-.06-1.3-.12-1.95-.18-2.4,8.73-1.72,17.65-1.65,26.53-.05,3.55-.1,7.11-.15,10.66-.3.45-.38.93-.26,1.45,0,0-.17-.12-.17-.12-2.33,4.7-2.87,9.55-1.18,14.58-.12.56-.25,1.13-.37,1.69-1.87,5.15-1.17,10.6-1.79,15.89-3.17,2.11-.45,3.68.5,5.41-3.01,2.77-1.2,5.8-.49,8.78-2.34,4.56-.99,9.53-1.58,14.29-1.33,10.03-2.15,20.09-1.97,30.22-.06.98-.12,1.96-.18,2.93-2.77,14.59-2.24,29.34-1.81,44.04.11,3.8-3.49,8.71,2.2,11.57,2.52,3.12,4.84.96,7.2-.27,1.2,1.18,2.39,2.37,3.59,3.55,1.17,2.05,2.21,4.31,5.27,3.54l-.12.12c.02,2.65-.13,5.31.13,7.93.21,2.11-.62,5.45,2.7,5.45,2.5,0,3.88-2.7,4.24-5.05.98-6.34,2.86-12.61,1.74-19.15.7-3.98,1.39-7.96,2.09-11.94h0c1.15-3.66,2.3-7.31,3.45-10.97,2.02,1.32,1.23,3.62,1.88,5.42-.54,3.49-1,6.98-.07,10.48-3.37,6.99-1.53,14.42-1.78,21.67-.09,2.66,1.23,4.58,4.14,4.7,3.59.16,4.41-2.19,4.36-5.18.11-.57.22-1.14.33-1.72,3.56-3.46,3.1-8.06,3.51-12.41-1.21,1.18-2.42,2.37-3.63,3.55h0c1.21-1.19,2.42-2.37,3.63-3.55,3.32-6.69,3.9-14.05,5.14-21.25,1.96-3.32,2.83-6.81,1.74-10.63.25-.47.36-.96.32-1.49,2.33-1.35,1.44-3.62,1.59-5.59,2.12-6.34,3.63-12.77,3.19-19.53-.05-3.98,2.91-7.77.72-11.88,2.68-2.15.93-4.99,1.17-7.51,1.85-5.18,2.36-10.52,1.97-15.97-.53.03-1.06.04-1.59.04-.04,1.16-.08,2.32-.13,3.48.04-1.16.08-2.32.12-3.48-.63,0-1.26-.02-1.9-.03h0c.63,0,1.26.02,1.9.03.53,0,1.06,0,1.59-.04.69-9.93,1.37-19.86,2.06-29.79-.18-1.05-.36-2.11-.54-3.16-2.62,1.93-4.66,4.05-5.66,6.57,1.01-2.51,3.04-4.64,5.66-6.57.18,1.06.36,2.11.54,3.17,1.96-3.51,1.49-7.26,1.1-11-.44,0-.88.04-1.31.12-.05,1.66-.11,3.33-.16,4.99.05-1.66.11-3.33.16-4.99-.02-2.77-.03-5.54-.05-8.32,0,0,.11-.85.11-.85.03-.52-.05-1.03-.23-1.53,1.14-1.57,3.57-2.66,1.99-5.26.2-.48.26-.98.18-1.49-.17-2.38-.35-4.76-.52-7.15-.74.29-1.31.67-1.76,1.13.45-.46,1.02-.84,1.76-1.13.17,2.38.35,4.77.52,7.15,2.38-3.43,1.29-7.28,1.31-11,.14-5.16.28-10.31.42-15.47,2.31-5.3,1.41-10.85,1.34-16.35-.51,0-1.01.02-1.52.05-.04.54-.08,1.07-.12,1.62.04-.55.08-1.08.12-1.62.51-.03,1.01-.04,1.52-.05,1.38-7.6,3.07-15.18,1.71-22.98.09-2.48,1.21-3.87,3.85-3.71.66,1.82,1.31,3.64,1.97,5.46-.02,19.49-.03,38.98-.05,58.47-2.47,4.08-.13,8.24-.2,12.36-1.88,2.31-1.57,4.71-.28,7.14-.2.51-.26,1.04-.2,1.58-1.93,7.03-2.68,14.14-1.37,21.38.06,1.18.13,2.35.19,3.53-2.9,5.08-1.78,10.58-1.69,15.97-.22.46-.33.95-.32,1.47-2.57,8.79-1.83,17.8-1.79,26.76-2.98,5.61-1.59,11.72-2.04,17.62-1.23,5.96-2.45,11.91-1.43,18.05-.21.36-.29.75-.23,1.17-1.09,4.8-3.69,9.46-1.39,14.59-1.02,1.53-2.09,3.05-.37,4.79h0c-3.8,1.83-1.23,5.07-1.68,7.64-.33,2.04-.8,4.21,1.67,5.24,1.73.72,3.46.78,3.86-1.75.57-1.77,1.15-3.54,1.72-5.31.03-.59.06-1.18.09-1.77,3.37-6.19,1.11-12.95,1.95-19.39,3.2-2.2,1.21-5.58,1.88-8.35h0c2.48-2.9.99-6.3,1.18-9.48-.02-1.74-.04-3.48-.06-5.22-1.08-.04-2.16-.08-3.24-.11h0c1.08.04,2.16.08,3.24.11,2.9-2.43-.36-6.36,2.15-8.88h0c1.09.01,2.18.03,3.26.04-1.33,4.59-1.76,9.25-1.13,14-.02,1.68-.05,3.36-.08,5.05-1.05,2.44-3.53,4.8-.4,7.47.93,2.92-1.29,6.32,1.38,8.97-.18.35-.15.69.07,1.02-5.1,8.97-.18,15.45,5.42,21.76,0,0,.16-.05.16-.05h0c-2.29,10.93-1.04,22.03-1.59,33.04-.17,3.35.62,6.26,4.12,6.63,3.82.4,4.54-2.74,4.62-5.87.01-6.56.03-13.12.04-19.68-.04-8.82-.08-17.63-.12-26.45,0,0,0,0,0,0,.03-1.15.06-2.3.09-3.45h0c-.03,1.15-.06,2.3-.09,3.45.04,8.82.08,17.63.12,26.45,3.13-12.14,3.14-24.57,3.53-36.97.98-6.58,3.16-13.15.29-19.79,1.86-17.89,1.59-35.86,1.77-53.8,2.7-8.66,2.31-17.67,3.13-26.56,1.33-14.54-5.4-28.47-2.94-43.04-.32-.08-.63-.2-.93-.35,0,0,0,0,0,0,.3.15.61.27.93.35,2.09-7.61,3.19-15.35,2.88-23.26.92-1.65-1.34-1.95-1.36-3.2.62-.05,1.11-.32,1.47-.82Zm.04-15.38c.11-.56.14-1.14.13-1.73.01.59-.01,1.17-.13,1.73h0ZM12.13,97.91c.52-.94,1.01-1.89,1.61-2.77-.6.88-1.09,1.83-1.61,2.77.07.57.1,1.14.11,1.71h0c0-.57-.04-1.14-.11-1.71h0Zm6.86,77.26c-.45,1.97-.99,3.93-1.45,5.9,1.62,1.26,1.73,2.54,1.38,3.82.34-1.28.23-2.56-1.38-3.82.46-1.97,1-3.93,1.45-5.9Zm-4.93,10.74c-1.23.61-2.45,1.22-3.68,1.83h0c1.23-.61,2.45-1.22,3.68-1.83Zm-5.42-40.27c.64.02,1.23.11,1.77.3-.54-.19-1.13-.28-1.77-.3h0Zm1.64,59.49c0-.32,0-.64-.04-.96-.57-.05-1.08,0-1.55.13.47-.13.99-.19,1.55-.13.04.32.03.64.03.96Zm-4.37-39.18c-.38,1.08-.2,2.5.89,4.5-1.28.84-1.56,2.11-1.65,3.45.09-1.34.37-2.61,1.65-3.45-1.1-1.99-1.27-3.42-.89-4.5Zm2.77,59.48c-1.44-1.35-2.38-2.58-2.81-3.73.43,1.15,1.37,2.38,2.81,3.73.57.94,1.37,1.37,2.28,1.57-.91-.2-1.71-.63-2.28-1.57Zm3.78-31.89c-.04.38-.06.77-.07,1.16,0-.39.03-.78.07-1.16.22-.24.4-.5.55-.76-.15.26-.33.51-.55.76Zm1.13,12.96c1.01-.89,1.05-3.25,2.06-4.14-.62-.93-.67-1.83-.53-2.73-.14.9-.09,1.81.53,2.73-1.01.89-1.05,3.24-2.06,4.14Zm1.94,17.22h0c1.24,1.13,2.48,2.26,3.72,3.39-1.24-1.13-2.48-2.26-3.72-3.39Zm39.47-79.72s0,0,0,0c-.12-1.85-.25-3.7-.38-5.55h0c.02-2.3.04-4.59.05-6.89-1.11-.02-2.21-.04-3.32-.05,1.11.02,2.21.04,3.32.05-.02,2.3-.04,4.59-.06,6.89.13,1.85.25,3.7.38,5.55Zm-.13,2.98c.16.86.59,1.64,1.58,2.27,0,0,0,0,0,0-.99-.63-1.42-1.41-1.58-2.27Zm1.51,2.5c-.15.54-.39,1.13-.65,1.72.26-.6.51-1.18.65-1.72Zm-1.7-19.51h0c.59-.09,1.18-.17,1.78-.26-.59.09-1.18.17-1.78.26Zm-1.59,23.71c-.09-.93-.27-1.88-.24-2.79-.03.9.15,1.85.24,2.79Zm-1.86,4.27c-.03.64-.05,1.27-.08,1.91-.01.53-.02,1.07-.04,1.6-.44-.16-.89-.33-1.33-.49.46-.37.91-.74,1.37-1.11.03-.64.05-1.27.08-1.91Zm-.19-11.82c.07.45.1.92.14,1.39-.04-.47-.07-.94-.14-1.39Zm1.84-51.92c-.12-1.81-.78-3.29-3.4-3.54.8-3.44,1.29-6.9,1.55-10.39-.26,3.48-.75,6.95-1.54,10.38,2.62.25,3.27,1.73,3.39,3.54Zm-3.36,58.4c.01-1.15,0-2.3-.41-3.35-.4-.08-.73-.07-1.01.01.28-.08.61-.09,1.01-.01.12-1.17.24-2.35.36-3.52h0c-.12,1.17-.24,2.35-.36,3.52.42,1.05.42,2.2.41,3.35Zm-1.79-92.04c.03-.53.05-1.05.05-1.58,0,.53-.01,1.05-.04,1.58,1.53,1.24,2.69,1.04,3.74.42-1.05.62-2.21.82-3.74-.42Zm3.05-37.64c-.54.72-.98,1.58-1.35,2.38,0,0,0,0,0,0,.36-.79.81-1.65,1.35-2.38Zm-.14,22.38c-1.14.78-1.76,2.3-2.84,3.16,2.14,2.64,2.84,5.27,1.72,7.9,1.12-2.63.42-5.26-1.72-7.9,1.09-.85,1.7-2.38,2.85-3.16Zm-4.8-11.2c.53-.61,1.07-1.23,1.6-1.84.19-2.27.37-4.55.56-6.82-.24-.73-.48-1.45-.73-2.18h0c.24.73.48,1.45.73,2.18h0c-.19,2.27-.37,4.55-.56,6.82-.53.61-1.07,1.22-1.6,1.84h0Zm.21,15.58c.2,1.84,1.59,3.7,1.43,5.54-.54.03-1.07.06-1.61.09.54-.03,1.07-.06,1.61-.09.17-1.84-1.22-3.69-1.42-5.53Zm-.25,21.7c.76-.45,1.21-1.02,1.48-1.67-.27.64-.72,1.22-1.48,1.67h0Zm-1.92,33.54c2.76,3.74,2.01,7.16.76,10.54,1.25-3.38,2-6.8-.76-10.54,0,0,0,0,0,0Zm-5.19-63.67c.04,1.18.09,2.37.13,3.55-.04-1.18-.09-2.37-.13-3.55h0Zm1.68,46.95c-.23.92-.7,1.8-1.6,2.61-.02,1.17-.03,2.34-.05,3.51.01-1.17.03-2.34.04-3.51.9-.81,1.37-1.68,1.6-2.6Zm-5.01-31.02c.53-.61,1.07-1.22,1.6-1.83.54-.65,1.07-1.3,1.61-1.95-1.13-2.54-.13-5.02.17-7.52-.3,2.5-1.3,4.98-.17,7.52-.54.65-1.08,1.3-1.61,1.95-.53.61-1.07,1.22-1.6,1.83-.06.5-.05,1,.03,1.5,1.5.13,2.52.7,2.99,1.73-.47-1.03-1.49-1.6-2.99-1.73-.08-.5-.09-1-.03-1.51Zm-.09,31.83s0,0,0,0c-.09-1.08-.29-2.1-.98-2.88.69.77.89,1.79.98,2.87Zm1.44,13.9c-1.8-1.35-2.11-2.95-1.99-4.63-.12,1.67.19,3.27,1.99,4.63-2.74,1.74-2.91,3.74-2.46,5.82-.45-2.07-.29-4.08,2.45-5.82Zm-3.04-39.88c-.21,1.13-.29,2.3-.29,3.48,0-1.18.08-2.35.29-3.48Zm-.26,4.67h0c-1.07.86-1.88.88-2.57.55.69.33,1.5.31,2.57-.55Zm-1.78,40.8h0c0,.9-.1,1.8-.25,2.68.15-.89.25-1.78.25-2.68Zm-3.56-42.5s0,0,0,0c0,0-.05.1-.06.1,0,0,.05-.1.05-.1Zm.03,83.19c-.66.29-1.21.45-1.67.49.46-.04,1.01-.2,1.67-.49Zm-5.25-10.63c.64.52,1.08,1.09,1.36,1.69-.28-.6-.72-1.17-1.36-1.69h0Zm-.75,2.99c-.57,1.89-1.13,3.78-.63,5.84,1.79,1.74,1.31,4.14,1.33,6.4-.02-2.26.46-4.66-1.33-6.4-.5-2.06.06-3.95.63-5.84Zm-1.13,51.85s0,0,0,0c.04-2.23,1.1-3.77,2.83-4.84-1.73,1.08-2.78,2.61-2.82,4.84Zm3.54,16.02c-.9-.04-1.74-.18-2.43-.63.69.45,1.53.59,2.43.63.01,1.16.03,2.32.05,3.49-.02-1.16-.03-2.32-.05-3.49Zm-3.04-49.33c1.03-.12,2.06-.24,3.09-.36,0-.55.01-1.11,0-1.66,0,.55,0,1.11,0,1.66,1.72.65,3.45,1.31,5.17,1.96,0,0,.05-.03.1-.06l-.1.06c-1.72-.65-3.45-1.31-5.17-1.96-1.03.12-2.06.24-3.09.36Zm4.36,55.3c.26.55.54,1.07.93,1.49-.39-.42-.67-.94-.93-1.49Zm1.97-50.38s0,0,0,0c.98,3.05-.29,6.48.48,9.56-.77-3.08.5-6.51-.48-9.56Zm.25,28.29c.06-2.32.11-4.63.17-6.95,1.54-1.38,1.77-3,1.74-4.68.04,1.68-.2,3.3-1.74,4.68-.06,2.32-.11,4.63-.17,6.95Zm1.46,24.55s0,0,0,0c.17,1.37.34,2.75.51,4.13-.17-1.38-.34-2.75-.51-4.13Zm2.22-56.24c-.59-.02-1.17-.05-1.76-.07.59.02,1.17.05,1.76.07h0Zm-.18-12.37c.04-.55.08-1.09.12-1.64-.04.55-.08,1.09-.12,1.64h0Zm.19-5.33c-.05-.72-.15-1.42-.4-2.03.26.62.35,1.31.4,2.03,0,0,0,0,0,0Zm1.63,30.29c0,.4,0,.79-.03,1.18h0c.02-.39.03-.78.02-1.18-1.35-1.52-1.44-3.21-1.24-4.93-.2,1.72-.11,3.41,1.24,4.93Zm1.42-25.2c.17-.53.25-1.07.24-1.63h0c.02.56-.06,1.1-.24,1.63-2.34,2.6-.5,6.21-.95,9.27.45-3.06-1.39-6.67.95-9.27Zm-.03,31.82c-.03-.78-.11-1.55-.28-2.33.17.78.25,1.55.28,2.33Zm.13,21.19c-.31,1.13-.71,2.25-1.05,3.37.34-1.13.74-2.24,1.05-3.37h0Zm-.16-.51c-.13-.95.78-1.78,1.2-2.67-.42.89-1.34,1.72-1.2,2.67Zm2.41,2.65c.67-.64,1.08-1.32,1.33-2.04-.25.71-.66,1.4-1.33,2.04Zm1.49-54.94h0c.07-2.91.14-5.83.21-8.74-.07,2.91-.14,5.83-.21,8.74Zm.05-15.97c-.56,0-1.11,0-1.66,0-.04.62-.09,1.25-.13,1.87h0c.04-.62.09-1.25.13-1.87.5-2.42.99-4.83,1.48-7.25-1.89,1.41-3.92,2.31-6.36,1.72-.72-1.64-1.44-3.28-2.16-4.93.72,1.64,1.44,3.28,2.16,4.92,2.43.59,4.46-.31,6.35-1.72-.51-2.3-1.03-4.61-1.54-6.91.51,2.3,1.03,4.61,1.55,6.91-.49,2.42-.99,4.83-1.48,7.25.55,0,1.11,0,1.66,0,.35-.66.71-1.32,1.06-1.99-.35.66-.71,1.32-1.06,1.99Zm-.29-28.39s0,0,0,0c.23-1.45.72-2.61,1.73-3.22-1.01.61-1.5,1.77-1.73,3.22Zm1.92-22.99c.1-.54.2-1.07.28-1.61,1.28-.84,1.57-1.98,1.64-3.2-.07,1.22-.36,2.36-1.64,3.2-.08.54-.18,1.08-.28,1.61Zm2.01,83.27c-.85-.44-1.3-1.09-1.55-1.84.25.75.7,1.39,1.55,1.84t0,0Zm-.1-12.44h0c.02.6.04,1.21.06,1.81-.02-.6-.04-1.21-.06-1.81Zm-.15-37.4c.85-3.41.59-6.98.48-10.52,0,0,0,0,0,0,.11,3.54.37,7.11-.48,10.52Zm2.96,49.36c-.45-.17-.9-.3-1.35-.27.45-.04.9.09,1.35.27Zm-.37,37.16c.33.39,1.2.63,2.99.62,0,0,0,0,0,0-1.79,0-2.66-.23-2.99-.62Zm3.3-1.08c-.13.42-.21.86-.26,1.3.05-.44.13-.87.26-1.3,1.02.06,2.08-2.21,3.11-2.65-1.03.44-2.09,2.72-3.11,2.65Zm1.33-9.09l-.04-.03c.03-1.88.06-3.76.09-5.64-.03,1.88-.06,3.76-.09,5.64,0,0,.02.02.03.03Zm.04.04c-.61.35-1,.78-1.26,1.25.26-.47.65-.9,1.26-1.25Zm-1.6-26.45c-.32.1-.64.1-.95.05.32.06.64.05.95-.05,1.13-.68,2.27-1.36,3.4-2.04,0-.02-.01-.05-.02-.07,0,.02,0,.05.02.07.17.18.31.37.43.55-.12-.18-.27-.37-.43-.55-1.14.68-2.27,1.36-3.4,2.04Zm4.8,20.46c.4-2.52-.16-5.18-1.21-7.92.49-.47.65-.94.64-1.42.01.48-.15.96-.63,1.42,1.05,2.74,1.61,5.4,1.21,7.92Zm-1.6-23.42s0,0,0,0c1.96-.4,3.96-.99,5.68-.2-1.72-.79-3.72-.19-5.67.2Zm7.32-59.12c-1.12,0-2.24,0-3.36,0,.84,2.41.11,4.55-.79,6.65.9-2.1,1.63-4.24.79-6.65-.17-.57-.21-1.14-.14-1.73,1.04-.64,1.37-1.28,1.34-1.92.03.64-.29,1.28-1.34,1.92-.07.58-.03,1.16.14,1.73,1.12,0,2.24,0,3.36,0h0Zm1.69-19.43h0c-.53-.02-1.06-.04-1.59-.07-.06-1.75-.13-3.5-.19-5.25.22-3.01.43-6.01.64-9.02.3-.52.6-1.03.89-1.55-.29.51-.59,1.03-.89,1.55-.22,3.01-.43,6.01-.65,9.02.06,1.75.13,3.5.19,5.25.53.02,1.06.05,1.59.07,0,0,.02-.02.04-.03l-.04.03Zm-1.76-17.49s0,0,0,0c2.74-.97,3.59-2.45,3.69-4.13-.11,1.68-.95,3.16-3.69,4.13Zm7.69-53.4c-.12.42-.19.84-.2,1.26,0-.42.08-.84.2-1.26Zm2.96,5.31c-.99.66-1.79,1.36-2.43,2.09.64-.73,1.44-1.43,2.43-2.09h0Zm3.53,178.84h0c-.58.04-1.16.06-1.74.07-.61,2.94-1.22,5.88-1.83,8.82.51.95,1.27,1.39,2.14,1.62-.87-.22-1.63-.67-2.14-1.62-.5,0-.99,0-1.49-.02.5,0,.99.01,1.49.02.61-2.94,1.22-5.88,1.83-8.82.58,0,1.16-.03,1.74-.07Zm.64-29.44c.32-.05.58-.24.78-.56-.2.32-.46.5-.78.56Zm2.85-30.75c1.16-.58,2.33-1.17,3.49-1.75.09-.89.04-1.83.17-2.71-.12.88-.07,1.82-.16,2.71h0c-1.16.58-2.33,1.17-3.49,1.75Zm1.27,22.5c.46.7.56,1.86.84,2.7-.27-.85-.38-2-.84-2.7Zm1.03,9.4c.56-.79,1.13-1.59,1.69-2.38,0,0,0,0,0,0-.56.79-1.12,1.58-1.69,2.38Zm18.48-20.7c-.93-1.94-2.96-2.75-6.24-2.35,3.28-.4,5.3.41,6.24,2.35Zm-12.08,57.8h0c1.85.03,3.7.05,5.55.08-1.85-.03-3.7-.05-5.55-.08Zm.8,9.26c.05,1.65-.13,3.29-.63,4.92-.58.03-1.16.05-1.74.05.58,0,1.16-.02,1.74-.05.51-1.64.68-3.28.63-4.92Zm-.69-25.08h0s.08-.04.08-.04c-.03.01-.08.04-.08.04Zm1.81-31.8c.04-.65.07-1.31.11-1.96,0,0,0,0,0,0-.04.65-.07,1.3-.11,1.96Zm3.56-53.24h0c-.68.38-.89.77-.88,1.16-.01-.39.2-.77.88-1.16Zm-2-5.81c.06.12.12.25.18.37-.06-.12-.12-.25-.18-.37h0Zm1.23,35.65c-.56,1.24-2.62,1.72-4.27,2.18-.04,1.11-.09,2.22-.13,3.32,2.18.08,2.09,2.27,2.67,3.85-.58-1.57-.5-3.77-2.67-3.85.04-1.11.09-2.22.13-3.32,1.65-.46,3.72-.94,4.27-2.18Zm-3.07-27.13c-.03,3.13-.68,6.15-3.03,8.88,0,0,0,0,0,0,2.35-2.72,3-5.75,3.04-8.87Zm-2.53,43.85h0s0,0-.01,0h.01Zm-2.33,9.81c.02-.46,0-.92-.08-1.38.08.46.1.91.08,1.38.14.7.24,1.39.22,2.04.02-.65-.08-1.34-.22-2.04Zm3.58,3.72s0,0,0,0c-1.11,2.98-2.22,5.95-3.33,8.93,1.11-2.98,2.22-5.95,3.32-8.93Zm-2,60.4c-1.13-.8-1.34-1.58-1.19-2.36-.15.78.06,1.56,1.2,2.35.76,1.33,2.89,2.13,4.23,3.24-1.34-1.11-3.47-1.91-4.23-3.24Zm5.37,35.29c-.2-.46-.43-.92-.66-1.37.23.46.47.91.66,1.37.49.1,1.05-.65,1.59-1.24-.54.59-1.1,1.34-1.59,1.24Zm1.83-47.74h0c.55-.85.9-1.7,1.06-2.55-.16.85-.5,1.7-1.06,2.55Zm3.52-.02c.45.67.72,1.33.83,2-.11-.66-.38-1.33-.83-2Zm-.01-15.94c-1.47.13-2.53-.24-3.37-.89.84.65,1.9,1.02,3.37.89.39.24.7.52.93.81-.23-.3-.54-.57-.93-.81Zm1.83,5.4c-.02,2.33-.04,4.66-.07,7,.02-2.33.04-4.66.07-7,1.5-1.34,1.58-2.94,1.39-4.59.19,1.65.11,3.25-1.39,4.59Zm3.42-74c.17-2.04-.07-4.02-1.86-5.78,0,0,0,0,0,0,1.79,1.75,2.03,3.73,1.86,5.78Z"/>
      <path class="cls-1" d="m63.56,99.67c.43-.08.87-.12,1.31-.12.11-3.09,1.8-6.4-1.25-9.05l-.11.85c.02,2.77.03,5.54.05,8.31Z"/>
    </g>
  </g>
</svg>