<?xml version="1.0" encoding="utf-8"?>
<!-- Generator: Adobe Illustrator 27.2.0, SVG Export Plug-In . SVG Version: 6.00 Build 0)  -->
<svg version="1.1"
	 id="Layer_1" text-rendering="geometricPrecision" image-rendering="optimizeQuality" shape-rendering="geometricPrecision"
	 xmlns="http://www.w3.org/2000/svg" xmlns:xlink="http://www.w3.org/1999/xlink" x="0px" y="0px" viewBox="0 0 3333 3333"
	 style="enable-background:new 0 0 3333 3333;" xml:space="preserve">
<style type="text/css">
	.st0{fill-rule:evenodd;clip-rule:evenodd;fill:#FFFFFF;}
</style>
<path class="st0" d="M1667,0c920,0,1667,746,1667,1667c0,920-746,1667-1667,1667C747,3334,0,2588,0,1667C0,747,746,0,1667,0z
	 M1667,2677c-557,0-1010-453-1010-1010S1110,657,1667,657s1010,453,1010,1010S2224,2677,1667,2677z M2519,1805c-30-9-267-80-537-37
	c113,310,159,563,168,615c193-131,331-338,370-578H2519z M2004,2462c-13-76-63-339-184-654c-2,1-4,1-6,2c-487,170-662,507-677,539
	c146,114,330,182,530,182C1787,2531,1901,2507,2004,2462z M1026,2245c20-34,257-425,701-569c11-4,22-7,34-10c-22-49-45-98-70-146
	c-431,129-849,124-887,123v26c0,221,84,424,222,577V2245z M823,1491c39,0,394,2,798-105c-143-254-297-468-320-499
	C1059,1001,879,1224,823,1491z M1465,829c24,32,181,246,322,505c307-115,437-290,452-312c-152-135-353-217-572-217
	C1598,805,1530,814,1465,829z M2335,1123c-18,24-163,210-482,340c20,41,39,83,57,125c6,15,13,30,19,45c287-36,573,22,601,28
	c-2-204-75-391-195-537V1123z"/>
</svg>
