<?xml version="1.0" encoding="utf-8"?>
<!-- Generator: Adobe Illustrator 25.3.0, SVG Export Plug-In . SVG Version: 6.00 Build 0)  -->
<svg version="1.1" id="Layer_1" xmlns="http://www.w3.org/2000/svg" xmlns:xlink="http://www.w3.org/1999/xlink" x="0px" y="0px"
	 width="122.9px" height="122.9px" viewBox="0 0 122.9 122.9" style="enable-background:new 0 0 122.9 122.9;" xml:space="preserve"
	>
<style type="text/css">
	.st0{fill-rule:evenodd;clip-rule:evenodd;fill:#FFFFFF;}
</style>
<path class="st0" d="M61.4,0c33.9,0,61.4,27.5,61.4,61.4s-27.5,61.4-61.4,61.4S0,95.4,0,61.4c0,0,0,0,0,0C0,27.5,27.5,0,61.4,0z
	 M30.7,38L62,63.5L91.9,38H30.7z M28.7,80.9L51,58.5L28.7,40.4L28.7,80.9L28.7,80.9z M53.4,60.5l-23,23h61.7l-21.9-23L63,66.7l0,0
	c-0.6,0.5-1.4,0.5-2,0L53.4,60.5L53.4,60.5z M72.7,58.5l21.5,22.5V40.2L72.7,58.5L72.7,58.5z"/>
</svg>
