<?xml version="1.0" encoding="utf-8"?>
<!-- Generator: Adobe Illustrator 27.2.0, SVG Export Plug-In . SVG Version: 6.00 Build 0)  -->
<svg version="1.1" id="Layer_1" xmlns="http://www.w3.org/2000/svg" xmlns:xlink="http://www.w3.org/1999/xlink" x="0px" y="0px"
	 viewBox="0 0 256 256" style="enable-background:new 0 0 256 256;" xml:space="preserve">
<style type="text/css">
	.st0{fill:#FFFFFF;}
</style>
<g>
	<g>
		<path class="st0" d="M128,10C62.8,10,10,62.8,10,128s52.8,118,118,118s118-52.8,118-118S193.2,10,128,10z M187.1,124.3
			c3.8,3.7,3.8,9.9-0.1,13.8l-3.5,3.5c-3.9,3.8-10.1,3.8-13.9,0l-4.1-4.1v38.9h-26.8v-21.7h-21.3v21.7h-27v-39.2l-4.5,4.5
			c-3.9,3.8-10.1,3.8-13.9,0l-3.5-3.5c-3.8-3.8-3.8-10.1,0-13.9l51.9-52.7c2-2,4.7-3,7.4-2.9c2.6-0.1,5.3,0.8,7.4,2.9L187.1,124.3z"
			/>
	</g>
</g>
</svg>
