<?xml version="1.0" encoding="utf-8"?>
<!-- Generator: Adobe Illustrator 25.3.0, SVG Export Plug-In . SVG Version: 6.00 Build 0)  -->
<svg version="1.1" id="visual" xmlns="http://www.w3.org/2000/svg" xmlns:xlink="http://www.w3.org/1999/xlink" x="0px" y="0px"
	 width="900px" height="226.8px" viewBox="0 0 900 226.8" style="enable-background:new 0 0 900 226.8;" xml:space="preserve">
<style type="text/css">
	.st0{fill:#E1CBFC;}
	.st1{fill:#C098F7;}
	.st2{fill:#9A66F1;}
	.st3{fill:#6A2FEA;}
</style>
<path class="st0" d="M0,118.8l22.1-9.9c18.9-8.5,54.3-15.1,91.8-9.6s73.8,24.5,111.3,27.8c37.5,3.4,75.6-15.6,110.8-32.4
	c47.5-22.8,91.2-15.8,127.9,0.8c35.1,15.9,61.4,26.6,98.9,29.3s78-32.1,115.6-31.6c41.4,0.5,106.3,50.5,141.5,49.6
	c30.5-11.1,33.1-16.5,59.9-35L900,93.2v196.6h-18.7c-18.6,0-56,0-93.5,0s-75.1,0-112.6,0s-74.9,0-112.4,0s-75.1,0-112.6,0
	s-74.9,0-112.4,0s-75.1,0-112.6,0s-74.9,0-112.4,0s-75.1,0-94,0H0V118.8z"/>
<path class="st1" d="M0,148.8l18.8-10.2c18.9-10.1,57.6-36.8,95.1-40.1s73.8,16.6,111.3,26.8s75.1,16.8,112.6,16
	s74.9-9.2,112.4-15.2s75.8-21.6,113.3-17.6s76.2,23.8,111.7,33.6c36.6,10.1,73.4,15.3,110.9,8.8s49.8-15.6,95.2-35.4l18.7-6.7v158
	h-18.7c-18.6,0-56,0-93.5,0s-75.1,0-112.6,0s-74.9,0-112.4,0s-75.1,0-112.6,0s-74.9,0-112.4,0s-75.1,0-112.6,0s-74.9,0-112.4,0
	s-75.1,0-94,0H0V148.8z"/>
<path class="st2" d="M0,168.8l19.7-9c19.9-10,56.7-39.8,94.2-39.6c37.5,0.1,87.9,36.9,125.4,35.7s62.3-22.8,99.8-25.5
	S412.3,153.6,450,173c46.6,23.3,69.1,30.6,104.4,44.4c35.7,9.4,33.7,5.7,75.8-9.2c33.5-19.2,55.4-35.3,80.4-49.6
	c21.4-10.8,69.4-33.2,112.9-33.7c36.6,0.1,52.1,6.1,76.5,22.9l0.2,4.7v92.3h-18.7c-18.6,0-56,0-93.5,0s-75.1,0-112.6,0
	s-74.9,0-112.4,0s-75.1,0-112.6,0s-74.9,0-112.4,0s-75.1,0-112.6,0s-74.9,0-112.4,0s-75.1,0-94,0H0V168.8z"/>
<path class="st3" d="M0,183.8l18.8-4.7c18.9-4.6,56.5-14,94-19.1c37.5-5.2,74.9-6.2,112.4,2c37.5,8.1,75.1,25.5,112.6,29.1
	c37.5,3.7,68.9,5.2,112.2,11.3c51.7,9.2,72.4,20,109.9,20.4c37.5,0.3,54.1-11.2,112.3-21.4c46-5.1,78-3.9,115.5-8.8
	c37.5-4.8,74.9-24.8,93.5-34.8l18.7-10v85h-18.7c-18.6,0-56,0-93.5,0s-75.1,0-112.6,0s-74.9,0-112.4,0s-75.1,0-112.6,0
	s-74.9,0-112.4,0s-75.1,0-112.6,0s-74.9,0-112.4,0s-75.1,0-94,0H0V183.8z"/>
</svg>
