<svg xmlns="http://www.w3.org/2000/svg" viewBox="0 0 125.86 137.81"><defs><style>.cls-1{isolation:isolate;}.cls-2{fill:url(#linear-gradient);}.cls-3,.cls-4,.cls-5,.cls-6{mix-blend-mode:overlay;}.cls-3{fill:url(#linear-gradient-2);}.cls-4{fill:url(#linear-gradient-3);}.cls-5{fill:url(#linear-gradient-4);}.cls-6{fill:url(#linear-gradient-5);}</style><linearGradient id="linear-gradient" x1="98.8" y1="262.69" x2="203.64" y2="407.4" gradientUnits="userSpaceOnUse"><stop offset="0.14" stop-color="#7510f7" stop-opacity="0.95"/><stop offset="0.35" stop-color="#7313f7" stop-opacity="0.95"/><stop offset="0.48" stop-color="#6c1bf6" stop-opacity="0.95"/><stop offset="0.59" stop-color="#6129f5" stop-opacity="0.96"/><stop offset="0.68" stop-color="#513df3" stop-opacity="0.97"/><stop offset="0.77" stop-color="#3d57f0" stop-opacity="0.97"/><stop offset="0.85" stop-color="#2477ed" stop-opacity="0.98"/><stop offset="0.92" stop-color="#069dea"/><stop offset="0.93" stop-color="#00a5e9"/></linearGradient><linearGradient id="linear-gradient-2" x1="95.39" y1="325.4" x2="147.6" y2="325.4" gradientUnits="userSpaceOnUse"><stop offset="0" stop-color="#fff" stop-opacity="0.43"/><stop offset="0.03" stop-color="#fff" stop-opacity="0.4"/><stop offset="0.2" stop-color="#fff" stop-opacity="0.23"/><stop offset="0.35" stop-color="#fff" stop-opacity="0.1"/><stop offset="0.48" stop-color="#fff" stop-opacity="0.03"/><stop offset="0.57" stop-color="#fff" stop-opacity="0"/></linearGradient><linearGradient id="linear-gradient-3" x1="106.23" y1="325.37" x2="218.4" y2="325.37" gradientUnits="userSpaceOnUse"><stop offset="0" stop-color="#fff" stop-opacity="0"/><stop offset="0.17" stop-color="#fff" stop-opacity="0.12"/><stop offset="0.45" stop-color="#fff" stop-opacity="0.32"/><stop offset="0.67" stop-color="#fff" stop-opacity="0.44"/><stop offset="0.8" stop-color="#fff" stop-opacity="0.48"/></linearGradient><linearGradient id="linear-gradient-4" x1="137.45" y1="361.06" x2="191.05" y2="361.06" gradientUnits="userSpaceOnUse"><stop offset="0" stop-color="#fff" stop-opacity="0"/><stop offset="0.08" stop-color="#d1d1d1" stop-opacity="0.05"/><stop offset="1" stop-opacity="0.28"/></linearGradient><linearGradient id="linear-gradient-5" x1="136.93" y1="289.86" x2="191.21" y2="289.86" xlink:href="#linear-gradient-4"/></defs><g class="cls-1"><g id="OBJECTS"><path class="cls-2" d="M168,257.58a54.74,54.74,0,0,0-11.06-1.12H108.45a10.2,10.2,0,0,0-2.22.23h0a5.05,5.05,0,0,0-.56.12,11.45,11.45,0,0,0-2.2.76l-.52.26a9.65,9.65,0,0,0-1.49.92,10.85,10.85,0,0,0-1.31,1.06c-.16.14-.32.29-.47.45s-.27.28-.41.44-.53.62-.78.94c-.12.15-.23.31-.33.46s-.21.3-.31.47a2.84,2.84,0,0,0-.22.34,4.91,4.91,0,0,0-.25.44l-.17.31c-.1.18-.19.36-.28.55a5.38,5.38,0,0,0-.24.55c-.09.19-.17.39-.25.6-.17.46-.32.91-.45,1.39a5.8,5.8,0,0,0-.16.63.57.57,0,0,0,0,.14c0,.21-.09.42-.12.62s-.08.43-.11.65-.07.53-.09.8c0,.5-.07,1-.07,1.5V379.64c0,.25,0,.5,0,.75s0,.59.06.88,0,.39.07.59v0c0,.24.07.47.12.7s.07.37.11.56a14.65,14.65,0,0,0,1,3.06c.15.33.3.65.47,1s.41.73.64,1.09l.34.5c.26.35.53.7.81,1l.34.38a11.23,11.23,0,0,0,.85.84l.45.39a12.3,12.3,0,0,0,5.14,2.57l.57.12.13,0h0a11.14,11.14,0,0,0,1.92.16H156.9a55.41,55.41,0,0,0,18.23-3.07,60.72,60.72,0,0,0,25.26-17.11c11.13-12.46,18-29.69,18-48.73C218.4,291.53,196.65,263.4,168,257.58ZM173.12,348a29.32,29.32,0,0,1-21.39,9.38H133.31v-64.1h17.8c16.55,0,30.49,13.78,30.86,31.31A33,33,0,0,1,173.12,348Z" transform="translate(-92.54 -256.46)"/><path class="cls-3" d="M147.6,382a91.17,91.17,0,0,1-41.07,12.16h0l-.13,0-.57-.12a12.3,12.3,0,0,1-5.14-2.57l-.45-.39a11.23,11.23,0,0,1-.85-.84l-.34-.38c-.28-.33-.55-.68-.81-1l-.34-.5c-.23-.36-.44-.72-.64-1.09s-.32-.63-.47-1a14.65,14.65,0,0,1-1-3.06c0-.19-.08-.37-.11-.56s-.08-.46-.12-.7v0c0-.2-.05-.39-.07-.59s0-.57-.06-.88,0-.5,0-.75V271.09c0-.5,0-1,.07-1.5,0-.27.05-.53.09-.8s.07-.43.11-.65.07-.41.12-.62a.57.57,0,0,1,0-.14,5.8,5.8,0,0,1,.16-.63c.13-.48.28-.93.45-1.39.08-.21.16-.41.25-.6a5.38,5.38,0,0,1,.24-.55c.09-.19.18-.37.28-.55l.17-.31a4.91,4.91,0,0,1,.25-.44,2.84,2.84,0,0,1,.22-.34c.1-.17.2-.31.31-.47s.21-.31.33-.46c.25-.32.51-.64.78-.94s.27-.3.41-.44.31-.31.47-.45a12.93,12.93,0,0,1,1.31-1.06,11.09,11.09,0,0,1,1.49-.92l.52-.26a13.94,13.94,0,0,1,2.2-.76,5.05,5.05,0,0,1,.56-.12h0a91.53,91.53,0,0,1,38.22,10.41c-.69.41-8.48,10.35-11.14,26.22-3.19,19-1.17,45.76,0,64.1C134.18,371,144.54,380.32,147.6,382Z" transform="translate(-92.54 -256.46)"/><path class="cls-4" d="M218.4,325.36c0,19-6.88,36.27-18,48.73a60.72,60.72,0,0,1-25.26,17.11,55.41,55.41,0,0,1-18.23,3.07H108.45a11.14,11.14,0,0,1-1.92-.16A91.17,91.17,0,0,0,147.6,382a69.29,69.29,0,0,0,11.12-7.85c2.83-2.48,23.17-20.85,23.26-48.7.11-35.64-33-55.66-37.53-58.3a78.7,78.7,0,0,0-38.22-10.41,10.2,10.2,0,0,1,2.22-.23H156.9A54.74,54.74,0,0,1,168,257.58C196.65,263.4,218.4,291.53,218.4,325.36Z" transform="translate(-92.54 -256.46)"/><path class="cls-5" d="M181.75,330.33a65.06,65.06,0,0,1-2.66,12.92c-.12.36-.43,1.31-.9,2.55a64.78,64.78,0,0,1-3.45,7.67,74.47,74.47,0,0,1-7.81,11.95,75.84,75.84,0,0,1-5.33,6C151.84,381.21,140,386,135.13,388A75.14,75.14,0,0,1,117,392.78c-7.06.92-12.53,1.56-16.59-1.64-3-2.39-3.71-6.08-5-11.5a70.68,70.68,0,0,1,0-31.57c6.45,10.46,13.73,14.38,17.82,16,11.73,4.66,26.54,2.12,40.8-6.74a29.14,29.14,0,0,0,10.3-2.78,30.86,30.86,0,0,0,8.81-6.51,32.07,32.07,0,0,0,5.13-7.23,32.77,32.77,0,0,0,2.17-5.25,30.06,30.06,0,0,0,1.21-5.27c.09-.7.19-1.71.22-1.71S181.77,330,181.75,330.33Z" transform="translate(-92.54 -256.46)"/><path class="cls-6" d="M181.9,323.07l-.06-.8c-.05-.49-.11-1-.17-1.41-2-14.9-13.92-26.34-28.25-27.46h0c-14.07-8.55-28.62-10.95-40.18-6.36-4.09,1.62-11.37,5.54-17.83,16-4.59-29.34-2.92-37.94-.1-39.69.41-.26,4.16-2.41,3.78-4.16-.16-.79-1-1-1-1.46.14-.88,3.87-1.19,8.33-1l.51,0A114.59,114.59,0,0,1,121,258.27c11.5,2.21,22.37,8.22,22.37,8.22a84.24,84.24,0,0,1,31.51,31.27,66.91,66.91,0,0,1,3.42,7.45c.18.48.76,2.07,1.39,4.22a55,55,0,0,1,2,9.76C181.84,320.86,181.89,322.22,181.9,323.07Z" transform="translate(-92.54 -256.46)"/></g></g></svg>