<?xml version="1.0" encoding="utf-8"?>
<!-- Generator: Adobe Illustrator 25.3.0, SVG Export Plug-In . SVG Version: 6.00 Build 0)  -->
<svg version="1.1" id="Layer_1" xmlns="http://www.w3.org/2000/svg" xmlns:xlink="http://www.w3.org/1999/xlink" x="0px" y="0px"
	 viewBox="0 0 100 100" style="enable-background:new 0 0 100 100;" xml:space="preserve">
<style type="text/css">
	.st0{opacity:0.3;}
	.st1{fill:#1D79FF;}
	.st2{enable-background:new    ;}
	.st3{fill:#FFFFFF;}
</style>
<g class="st0">
	<polygon class="st1" points="100.1,101 0.1,1 50,1 100,51.2 	"/>
</g>
<polygon class="st1" points="100.1,100 0.1,0 50,0 100,50.2 "/>
<g class="st2">
	<path class="st3" d="M54.3,17.9L41.4,30.7l-3.6-3.6l1-10.7l-5.9,5.8L28.7,18L41.6,5.2l3.6,3.6l-1,10.7l5.9-5.8L54.3,17.9z"/>
	<path class="st3" d="M57.4,40.3l-3.3,3.3L43.5,32.8L56.4,20l10.4,10.5l-3.3,3.3l-6.2-6.2l-1.5,1.5l5.4,5.5l-3.1,3.1l-5.4-5.5
		L51,33.9L57.4,40.3z"/>
	<path class="st3" d="M89.4,53.2l-17,8.7l-4.6-4.7l4.8-8.9L63.5,53l-4.6-4.7l8.8-17l4.5,4.5L67,45.4l9.7-4.9l4,4l-5.2,9.6l9.8-5
		L89.4,53.2z"/>
	<path class="st3" d="M78.4,67.1c0-0.9,0.3-1.6,0.9-2.2c0.6-0.6,1.4-0.9,2.2-0.9c0.9,0,1.7,0.4,2.4,1.1s1.1,1.5,1.1,2.4
		s-0.3,1.6-0.9,2.2c-0.6,0.6-1.4,0.9-2.2,0.9c-0.9,0-1.7-0.4-2.4-1.1C78.8,68.8,78.5,68,78.4,67.1z M90.2,54l4.9,5l-8.8,7.1L83,62.8
		L90.2,54z"/>
</g>
</svg>
