<?xml version="1.0" encoding="utf-8"?>
<!-- Generator: Adobe Illustrator 25.3.0, SVG Export Plug-In . SVG Version: 6.00 Build 0)  -->
<svg version="1.1" xmlns="http://www.w3.org/2000/svg" xmlns:xlink="http://www.w3.org/1999/xlink" x="0px" y="0px"
	 width="1111.1px" height="1003px" viewBox="0 0 1111.1 1003" style="enable-background:new 0 0 1111.1 1003;" xml:space="preserve"
	>
<style type="text/css">
	.st0{fill:#1387FF;}
	.st1{fill:url(#SVGID_1_);}
	.st2{fill:url(#SVGID_2_);}
	.st3{opacity:0.9;filter:url(#f3);}
	.st4{fill:url(#SVGID_3_);}
	.st5{fill:url(#SVGID_4_);}
	.st6{fill:url(#SVGID_5_);}
</style>
<filter  height="104%" id="f3" width="200%" x="0" y="0">
	<feOffset  dx="10" dy="7" in="SourceAlpha" result="offOut"></feOffset>
	<feGaussianBlur  in="offOut" result="blurOut" stdDeviation="15"></feGaussianBlur>
	<feBlend  in="SourceGraphic" in2="blurOut" mode="normal"></feBlend>
</filter>
<g id="Layer_2">
	<circle class="st0" cx="55.9" cy="939.4" r="11"/>
	<circle class="st0" cx="159.9" cy="955.1" r="13.3"/>
	<circle class="st0" cx="109.5" cy="913.9" r="18.1"/>
	<circle class="st0" cx="22" cy="913.9" r="13"/>
	<circle class="st0" cx="95.6" cy="978.4" r="23.2"/>
	<circle class="st0" cx="59.5" cy="869" r="29.1"/>
	<circle class="st0" cx="180.8" cy="879.4" r="40.9"/>
</g>
<g id="Layer_1">
	<linearGradient id="SVGID_1_" gradientUnits="userSpaceOnUse" x1="277.7244" y1="280.8008" x2="267.9185" y2="842.5812">
		<stop  offset="0.402" style="stop-color:#FFFFFF"/>
		<stop  offset="0.4458" style="stop-color:#DBEDFF"/>
		<stop  offset="0.527" style="stop-color:#9FCEFF"/>
		<stop  offset="0.6052" style="stop-color:#6DB5FF"/>
		<stop  offset="0.6784" style="stop-color:#46A1FF"/>
		<stop  offset="0.7453" style="stop-color:#2A93FF"/>
		<stop  offset="0.8037" style="stop-color:#198AFF"/>
		<stop  offset="0.8474" style="stop-color:#1387FF"/>
		<stop  offset="0.8955" style="stop-color:#62AAFC"/>
		<stop  offset="0.9377" style="stop-color:#1387FF"/>
	</linearGradient>
	<path class="st1" d="M460.7,360.9c-12.8,30.8-48.2,122.7-84.4,215.2c-42.1,107.6-85.2,215.9-95.3,230
		c-21.7,28.5-39.8,31.2-57.8,19.9c-11.5-11.8-7.4-20.8-30.8-28c-46.2-9-44.8,55.3-88.9,39.4c-24.9-13-23-49.4-9.3-66.4
		c20.9-18.9,30.9-7.8,49.6-45.2c12.4-23.4,25.1-51.9,38-83.5v0c21-51.5,42.7-111.4,64.2-170.6c0-0.1,0.1-0.1,0.1-0.2
		c16.4-42.9,34.8-90.9,54.2-140.9c24.9-64.3,123.6-64.1,148.1,0.5L460.7,360.9z"/>
	
		<linearGradient id="SVGID_2_" gradientUnits="userSpaceOnUse" x1="441.4247" y1="382.196" x2="959.3419" y2="634.801" gradientTransform="matrix(1 0 0 -1 0 1004)">
		<stop  offset="0.1467" style="stop-color:#6A2FEA"/>
		<stop  offset="0.9444" style="stop-color:#FFFFFF"/>
	</linearGradient>
	<path class="st2" d="M641.6,806.5c-19.9,0-39.2-0.6-57.7-1.1l-5.1-0.1c-44.3-1.3-79.2-38.3-78-82.6s38.3-79.3,82.6-78l5.1,0.1
		c81.3,2.4,173.5,5.1,211.2-46.6c1.4-1.9,2.9-3.8,4.4-5.5c36.2-41.4,39.2-113.7,6.6-157.9c-1.2-1.6-2.4-3.3-3.4-5
		c-15.3-24.3-39-39.9-74.7-49c-42.9-10.9-94.2-9.6-128.9-7.6c-44.3,2.5-82.2-31.4-84.7-75.6c-2.5-44.3,31.4-82.2,75.6-84.7
		c45.4-2.6,113.2-4.1,177.6,12.3c74.9,19.1,131.9,58.3,169.5,116.6c36.3,50.4,54.8,114,52.1,179.6c-2.7,65.4-26.2,127.2-66.4,174.4
		c-39.8,53-98.6,87.2-174.6,101.7C715.3,804.7,677.5,806.5,641.6,806.5z"/>
	<g class="st3">
		<linearGradient id="SVGID_3_" gradientUnits="userSpaceOnUse" x1="552.7426" y1="780.0765" x2="652.2887" y2="661.4421">
			<stop  offset="0.3495" style="stop-color:#6A2FEA"/>
			<stop  offset="0.5137" style="stop-color:#5425C8"/>
			<stop  offset="1" style="stop-color:#140966"/>
		</linearGradient>
		<path class="st4" d="M633.7,645.8l1.9,5l-8.3,7.3l19,33c24.1,44.4-8.9,99.8-57.8,107.5c-4.2,0.7-7.7,1.1-12.7,0.9L589.5,646
			L633.7,645.8z"/>
	</g>
	
		<linearGradient id="SVGID_4_" gradientUnits="userSpaceOnUse" x1="259.3774" y1="714.8475" x2="597.6397" y2="193.9694" gradientTransform="matrix(1 0 0 -1 0 1004)">
		<stop  offset="0.1605" style="stop-color:#6A2FEA"/>
		<stop  offset="1" style="stop-color:#FFFFFF"/>
	</linearGradient>
	<path class="st5" d="M581.2,805.3c-31.5,0-61.3-18.6-74.2-49.5L403.4,507.1l-2.1-5.1c-7.3-15.9-16.1-31.2-26.5-43
		c-5.5-6.2-20.8-19.8-36.6-22c-56.8-7.9-128.5,137.5-129.7,136.7c0,0,0-0.2,0.1-0.4l0,0c0,0,0.5-1.3,0.5-1.3
		c21.2-56.4,42-113,63.4-169.4c0,0,0.3-0.7,0.3-0.7c16.4-42.9,35.1-90.2,54.5-140.2c24.9-64.3,123.6-64.1,148.1,0.5l12.4,29.8
		l167.6,402.2C678.1,745.5,637,806.4,581.2,805.3z"/>
	<linearGradient id="SVGID_5_" gradientUnits="userSpaceOnUse" x1="273.0191" y1="402.5525" x2="273.0808" y2="402.6475">
		<stop  offset="0.2842" style="stop-color:#6A2FEA"/>
		<stop  offset="1" style="stop-color:#281286"/>
	</linearGradient>
	<line class="st6" x1="273" y1="402.7" x2="273.1" y2="402.5"/>
</g>
</svg>
