<?xml version="1.0" encoding="utf-8"?>
<!-- Generator: Adobe Illustrator 25.3.0, SVG Export Plug-In . SVG Version: 6.00 Build 0)  -->
<svg version="1.1" id="Layer_1" xmlns="http://www.w3.org/2000/svg" xmlns:xlink="http://www.w3.org/1999/xlink" x="0px" y="0px"
	 width="220.78133px" height="256.95126px" viewBox="0 0 220.78133 256.95126"
	 style="enable-background:new 0 0 220.78133 256.95126;" xml:space="preserve">
<style type="text/css">
	.st0{fill:#6A2FE9;}
	.st1{fill:#464A6B;}
	.st2{fill:#FEFEFE;}
	.st3{fill:#37241B;}
	.st4{fill:#38251C;}
	.st5{fill:#210E08;}
	.st6{fill:#F6B891;}
	.st7{fill:#361E0C;}
	.st8{fill:#3F4361;}
	.st9{fill:#6F625C;}
	.st10{fill:#1A0701;}
	.st11{fill:#040101;}
	.st12{fill:#712920;}
	.st13{fill:#040403;}
	.st14{fill:#37200C;}
	.st15{fill:#D58165;}
	.st16{fill:#C25E49;}
	.st17{fill:#F4B790;}
	.st18{fill:#FBFBFB;}
	.st19{fill:#475A4C;}
	.st20{fill:#F5F5F5;}
	.st21{fill:#040303;}
	.st22{fill:#5B0202;}
	.st23{fill:#939191;}
</style>
<g>
	<g>
		<path class="st0" d="M0.99799,160.64026c-0.39996-2.89001-0.67999-5.81-0.83997-8.73004
			c0.09998,0.80005,0.20996,1.59003,0.25995,2.39001C0.54797,156.42023,0.73798,158.54022,0.99799,160.64026z"/>
		<path class="st0" d="M47.21802,110.70026c-1.71002,0.46997-2.94,1.47998-3.80005,2.83997
			C44.198,111.96027,45.638,110.98022,47.21802,110.70026z"/>
		<path class="st0" d="M43.68799,135.58026c-1.21997-3.92999-1.96002-8.19-1.98999-12.21002
			c0.22998,4.28998,1.19,8.65997,1.81,11.39001C43.55798,135.04022,43.61798,135.31024,43.68799,135.58026z"/>
		<path class="st0" d="M48.31799,145.51025c-0.02997-0.04004-0.07001-0.08002-0.09998-0.12
			c-0.34003-0.5-0.67004-1.02002-0.98004-1.57001C47.58801,144.39026,47.948,144.95026,48.31799,145.51025z"/>
		<path class="st0" d="M53.66797,152.80023c-1.02997-1.03998-1.87994-2.29999-2.70996-3.58002
			c0.46997,0.63,0.94,1.26001,1.39996,1.89001C52.77802,151.69025,53.198,152.27026,53.66797,152.80023z"/>
		<path class="st0" d="M61.42798,177.86023c-2.07001-5.58002-3.23999-12.63-4.41998-22.45996
			C58.06799,162.93024,59.008,170.63025,61.42798,177.86023z"/>
		<path class="st0" d="M94.328,205.50024c-0.48999-0.22003-0.98999-0.44-1.48999-0.66003
			c-1.29999-0.60999-2.61005-1.21997-3.92004-1.81995c-2.65997-1.48004-5.07996-2.86005-7.26996-4.18005
			c2.39996,1.39001,4.82996,2.68005,7.19,3.89001c1.33997,0.69,2.64996,1.35004,3.91998,1.98004v0.00995
			C93.28802,204.98022,93.81799,205.24023,94.328,205.50024z"/>
		<path class="st0" d="M131.17798,203.42023c-0.45996,0.23999-0.91998,0.48004-1.38,0.72003
			c-0.58997,0.26001-1.17999,0.51996-1.75995,0.76996c0.58997-0.29999,1.19995-0.58997,1.81-0.87
			C130.28802,203.84021,130.73798,203.63025,131.17798,203.42023z"/>
		<path class="st0" d="M136.49799,208.43024c-0.15997,0.03003-0.33997,0.02002-0.53998,0H136.49799z"/>
		<path class="st0" d="M149.26801,192.07025c-0.23999,0.20001-0.47998,0.39001-0.72998,0.58997
			c-0.75,0.59003-1.54004,1.17999-2.38,1.78003c-0.01001,0.01001-0.03003,0.02002-0.05005,0.03998
			c-0.44,0.29999-0.88995,0.62-1.35999,0.94c-1.14001,0.77002-2.35999,1.56-3.65997,2.35999
			c-0.36005,0.23004-0.73999,0.46002-1.12,0.69c-1.90002,1.15002-3.98004,2.35004-6.24005,3.62
			C138.89801,198.93024,144.45801,195.90027,149.26801,192.07025z"/>
		<path class="st0" d="M164.15802,154.86023c-0.99005,7.35999-1.84003,13.16003-3.03003,17.97003
			C162.54797,166.94025,163.12799,160.76025,164.15802,154.86023z"/>
		<path class="st0" d="M176.89801,135.75024c-0.84998,2.92999-1.82996,5.40997-2.70001,6.90002
			C175.09808,140.96027,176.06805,138.53021,176.89801,135.75024z"/>
		<path class="st0" d="M174.54797,107.46027c-0.02997,0.60999-0.06,1.20996-0.08997,1.81995
			c0.02997-0.57996,0.04999-1.14996,0.06-1.71997C174.52802,107.53021,174.53802,107.49023,174.54797,107.46027z"/>
		<path class="st0" d="M179.08807,121.03021c-0.17017-3.87-1.14014-7.25-3.40015-9.25995
			C178.01801,113.50024,178.97797,116.97021,179.08807,121.03021z"/>
		<path class="st1" d="M87.04797,210.45026v-2.23999C86.98798,208.98022,86.98798,209.73022,87.04797,210.45026z"/>
		<path class="st2" d="M0.99799,160.64026c-0.39996-2.89001-0.67999-5.81-0.83997-8.73004
			c0.09998,0.80005,0.20996,1.59003,0.25995,2.39001C0.54797,156.42023,0.73798,158.54022,0.99799,160.64026z"/>
		<path class="st3" d="M119.95801,70.46027c0.53998-0.60004,0.97998-1.35004,1.42999-2.05005
			c0.32001-0.56,0.59998-1.12,0.84998-1.69995C121.638,68.02026,120.888,69.27026,119.95801,70.46027z M113.61798,72.04022
			c1.09003,0.04004,2.25-0.20001,3.66003-0.33997c0.39996,0.02997,0.76001-0.01001,1.08997-0.12
			C116.78802,71.70026,115.198,71.86023,113.61798,72.04022z M110.11798,70.51025c0.63,0.57001,1.21002,0.95001,1.79004,1.17999
			C111.36798,71.33026,110.78802,70.96027,110.11798,70.51025z M104.59802,69.68024c1.57996,1.12,3.27997,1.72998,5.03998,1.03998
			C107.948,71.33026,106.22797,70.79022,104.59802,69.68024z M98.77802,69.18024c0.19,0.28003,0.38995,0.58002,0.59998,0.89001
			H99.388c0.06,0.02997,0.12,0.04999,0.17999,0.07001C99.29797,69.82025,99.03802,69.50024,98.77802,69.18024z M80.258,70.17023
			c1.67999-0.26996,3.35999-0.62,4.96997-0.89996C83.578,69.49023,81.90802,69.89026,80.258,70.17023z M77.39801,70.47021
			c-1.96002,0.16003-3.90002-0.00995-5.76001-0.58997c2.12,0.77002,4.46997,0.79999,6.84998,0.52997
			C78.12799,70.44025,77.758,70.46027,77.39801,70.47021z"/>
		<path class="st4" d="M171.53802,110.15027c0.12994-0.28003,0.20996-0.65002,0.27997-1.14001
			C171.70801,109.47021,171.61798,109.83026,171.53802,110.15027z M170.12799,111.17023
			c0.35999-0.10999,0.63-0.21997,0.84998-0.35999C170.698,110.92023,170.40802,111.04022,170.12799,111.17023z M168.04797,113.40027
			c-0.01996,0.07996-0.02997,0.15997-0.04999,0.23999c0.29004-0.81,0.66998-1.48999,1.17999-1.94
			C168.62799,112.10022,168.198,112.61023,168.04797,113.40027z M166.72797,121.17023c0.16003-0.77997,0.26001-1.87,0.39001-3.03998
			C166.948,119.13025,166.81799,120.15027,166.72797,121.17023z M165.43799,77.88025c0.69-1.56,1.19-3.16998,1.28998-4.94
			C166.45801,74.71027,166.09802,76.22021,165.43799,77.88025z M157.008,73.80023c2.29999,2.34003,3.46997,5.33002,4.10999,8.58002
			C160.49799,79.06024,159.328,76.04022,157.008,73.80023z M159.30798,69.45026c0.26001-0.73999,0.45001-1.48999,0.57001-2.25
			L159.30798,69.45026z"/>
		<path class="st3" d="M153.02802,69.06024c0.58997-0.57001,1.10999-1.21002,1.56-1.91998
			C154.06799,67.76025,153.52802,68.40027,153.02802,69.06024z M141.16797,70.54022c2.48004,1.04004,4.71002,1.34003,6.66003,1.06
			C145.58801,71.82025,143.34802,71.30023,141.16797,70.54022z"/>
		<path class="st5" d="M145.03802,67.43024c-0.75,0.78003-1.59003,1.5-2.49005,2.15997
			C143.43799,68.93024,144.28802,68.21027,145.03802,67.43024z"/>
		<path class="st5" d="M159.87799,67.20026c-0.12,0.76001-0.31,1.51001-0.57001,2.25L159.87799,67.20026z"/>
		<path class="st6" d="M179.08807,121.03021c-0.11011-4.06-1.07007-7.52997-3.40015-9.25995
			c-1.06995-0.79004-2.42993-1.21002-4.13995-1.14001c-0.03998,0.01001-0.08997,0.01001-0.13,0
			c-0.13995,0.06-0.27997,0.10999-0.41998,0.16998c0,0-0.01001,0.01001-0.02002,0.01001
			c-0.27997,0.10999-0.56995,0.22998-0.84998,0.35999c-0.33997,0.15002-0.65997,0.32001-0.95001,0.53003
			c-0.54999,0.39996-0.97998,0.90997-1.13,1.70001c-0.01996,0.07996-0.02997,0.15997-0.04999,0.23999
			c-0.31,1.48999-0.63,2.97998-0.88,4.48999c-0.16998,1-0.29999,2.02002-0.39001,3.03998c-0.26996,1.19-0.56,2.38-0.84998,3.56
			c-0.33997-3.64996,0.31-7.47998,0.16998-11.20001c-0.06-5.35999-3.46997-10.03998-3.64996-15.42999
			c-0.08002-0.57001-0.14001-1.14996-0.19-1.75c-0.04999-0.52997-0.09003-1.07001-0.12-1.60999
			c-0.10004-1.62-0.16003-3.28998-0.23004-4.98999c-0.02997-0.65002-0.06995-1.31-0.10999-1.96002
			c-0.02002-0.32001-0.03998-0.63995-0.07001-0.95996c-0.06-0.88-0.14996-1.76001-0.26996-2.62
			c-0.04004-0.31-0.08002-0.62006-0.13-0.92004c-0.04004-0.31-0.10004-0.60999-0.16003-0.90997
			c-0.62-3.32001-1.78998-6.34003-4.10999-8.58002c-0.12-0.12-0.25-0.23999-0.38-0.34998
			c-0.90997-0.79999-1.97998-1.48999-3.25-2.04999c0.33002-0.44,0.62-0.84003,1.03003-1.38
			c-0.5-0.16003-0.91003-0.23004-1.28003-0.23004c-0.01001,0-0.01001,0-0.01001,0c-0.73999,0.01001-1.29999,0.34003-2.06,0.90002
			c-0.95001,0.45001-1.89996,0.72998-2.85999,0.85999c-0.13,0.02002-0.25,0.03003-0.37,0.04999
			c-2.23999,0.22003-4.47998-0.29999-6.66003-1.06c-0.00995-0.01001-0.01996-0.01001-0.02997-0.01001
			c-1-0.34998-1.97998-0.75995-2.95001-1.15997c-2.96002,1.29999-6.08002,1.97998-9.33002,1.65002
			c-2.03998,0.04999-4.06995,0.13-6.10999,0.25c-0.02997,0.00995-0.06,0.00995-0.08997,0.00995
			c-1.42004,0.08002-2.85004,0.18005-4.27002,0.30005c-0.01001,0-0.01001,0-0.02002,0c-1.57996,0.12-3.16998,0.27997-4.75,0.45996
			c-0.01001,0-0.01996,0-0.01996,0c-0.33002,0.03003-0.65002,0.07001-0.98004,0.11005
			c-4.04999,0.22998-7.95001-0.70001-11.76996-1.96002c-0.83002,0.19-1.67004,0.33997-2.51001,0.45001
			c-0.03003,0-0.06,0.01001-0.09003,0.01001c-2.09998,0.25995-4.20996,0.20996-6.23999-0.29004
			c-1-0.23999-1.98999-0.58997-2.94-1.07001c-0.09998-0.03998-0.19-0.08997-0.28998-0.13995
			c-0.12-0.01001-0.23999-0.02002-0.37-0.03003c-0.98004-0.08002-1.97003-0.01001-2.96002,0.10999
			c-0.02002,0.01001-0.03003,0.01001-0.04999,0.01001c-0.06,0.01001-0.10999,0.01001-0.17004,0.03003
			c-1.64996,0.21997-3.31995,0.62-4.96997,0.89996c-0.57001,0.09003-1.13,0.16998-1.69,0.23004
			c-0.02997,0-0.04999,0.00995-0.08002,0.00995c-0.35999,0.03003-0.72998,0.05005-1.08997,0.06
			c-1.96002,0.16003-3.90002-0.00995-5.76001-0.58997c-0.01001,0.01001-0.01001,0-0.02002-0.01001
			c-0.01001,0-0.01001,0-0.01996-0.01001c-0.64001-0.19-1.29004-0.42999-1.91003-0.72998
			c-0.42999,0.14996-0.84998,0.28998-1.46997,0.51001c0.47998,0.44995,0.83997,0.77997,1.07001,1
			c-1.51001,0.73999-2.77002,1.58997-3.82001,2.53998c-0.87,0.77002-1.60004,1.60999-2.21002,2.5
			c-0.25,0.40002-0.48999,0.79999-0.72998,1.20001c-0.92999,1.67999-1.53003,3.51001-1.92004,5.46997
			c-0.01996,0.07001-0.02997,0.14001-0.03998,0.22003c-0.58002,3-0.70001,6.26996-0.82001,9.62v0.21002
			c0,0.00995,0,0.00995,0,0.01996c0,1.79999-0.15997,3.58002-0.42999,5.33002c0,0.02002-0.01001,0.04999-0.01001,0.07001
			c-0.37,2.32001-0.91998,4.60999-1.56,6.88c-0.01001,0.01001-0.01001,0.01001-0.01001,0.01996
			c-0.52997,1.85004-1.09998,3.68005-1.66998,5.52002c0,0,0,0.01001,0,0.02002c-0.09998,0.31-0.20001,0.62-0.28998,0.92999
			c-0.31,2.21997-0.35004,4.46002-0.34003,6.71997v0.15002c0.01001,2.45001,0.08002,4.90997-0.10999,7.37
			c-1.04999-3.83002-1.51001-7.77002-2.25-11.65997c-0.03998-0.27002-0.16998-0.54004-0.33002-0.79004
			c-0.06-0.08997-0.10999-0.16998-0.16998-0.25c-0.10999-0.15997-0.22998-0.31-0.37-0.44
			c-0.07001-0.07996-0.14001-0.14996-0.22003-0.21997c-0.06-0.07001-0.13995-0.13-0.20996-0.19
			c-0.78003-0.66998-1.70001-1.06-2.64001-1.21002c-0.01001,0-0.01001,0-0.02002,0c-0.62-0.10999-1.26001-0.09998-1.87,0.02002
			c-0.01001,0-0.02002,0-0.02997,0.01001c-1.58002,0.27997-3.02002,1.26001-3.80005,2.83997
			c-0.03998,0.04999-0.06995,0.10004-0.08997,0.15002c-0.06,0.10999-0.10004,0.21997-0.15002,0.33997
			c-1.06,2.71002-1.51996,5.89001-1.47998,9.23004c0,0.01001,0,0.01001,0,0.01996v0.09003
			c0.02997,4.02002,0.77002,8.28003,1.98999,12.21002c0,0.00995,0.01001,0.02997,0.01001,0.03998
			c0.91998,2.97998,2.12,5.78003,3.51001,8.15002c0.01001,0.01996,0.01996,0.02997,0.02997,0.04999
			c0.31,0.54999,0.64001,1.07001,0.98004,1.57001c0.02997,0.03998,0.07001,0.07996,0.09998,0.12l0.01001,0.01001
			c0.92999,1.07996,1.75,2.35999,2.59998,3.64996c0,0.01001,0.01001,0.03003,0.03003,0.04999
			c0.83002,1.28003,1.67999,2.54004,2.70996,3.58002c0.02002,0.02002,0.04004,0.03998,0.06,0.07001
			c0.87006,0.87,1.87006,1.57001,3.08002,1.96997c0.07001,0.18005,0.14001,0.38,0.20001,0.56006
			c0.01001,0.00995,0.01001,0.00995,0.01001,0.01996c2.08997,4.48999,3.38,9.79999,7.60999,12.83002v-2.82001
			c1.84003,2.87,2.64001,6.23999,5.94,7.82001v-2.87c0.04999-0.02002,0.09998-0.04004,0.15002-0.04999
			c0.42999,0.82001,0.84998,1.63,1.34998,2.59998c4.88-15.97998,23.31-9.12,35.06-6.77997c3.14001,0.42999,6.63,0,10.22003-0.70001
			c0.46997-0.09003,0.94995-0.19,1.42999-0.29004c0.08997-0.01996,0.17999-0.03998,0.26996-0.06
			c0.48004-0.09998,0.96002-0.19995,1.44-0.31c0.52002-0.10999,1.05005-0.22998,1.58002-0.34998
			c0.78998-0.16998,1.58002-0.35004,2.37-0.52002c0.52002-0.10999,1.04999-0.21997,1.57001-0.33002
			c4.84998-0.97998,9.54999-1.56995,13.54999-0.29999c0.32001,0.10004,0.64001,0.22003,0.95001,0.34003
			c0.15997,0.07001,0.32001,0.13,0.47998,0.20996c0.26001,0.12006,0.51001,0.24005,0.76001,0.37006
			c1.10999,0.60999,2.14001,1.39996,3.09003,2.41998c0.26001,0.27997,0.51001,0.57001,0.75,0.88c0,0,0,0.01001,0.01001,0.01001
			c0.23999,0.31,0.47998,0.63995,0.70996,0.98999c0.69,1.04999,1.32001,2.26001,1.88,3.65997
			c0.35999-0.69,0.67999-1.29999,0.98999-1.90997c0.04999,0.01001,0.09003,0.02997,0.14001,0.03998v3.03003
			c0.65002-0.45001,1.29999-0.72003,1.65997-1.20001c1.55005-2.16003,3.06006-4.07001,4.40002-6.41003v2.41003
			c0.08002,0.04999,0.16998,0.10999,0.25,0.15997c1.35999-1.29999,2.53003-2.76001,3.54999-4.29999
			c0.08002-0.12,0.16003-0.23999,0.23004-0.35999c1.23999-1.91003,2.26996-3.97003,3.20996-6.06
			c0.28003-0.62,0.54999-1.25,0.82001-1.88c0.14001-0.32001,0.47003-0.56,0.72003-0.83002
			c1.94-0.77002,3.20996-2.25,4.28998-3.95996c1.84003-2.75,4.02002-5.31006,5.70001-8.16003
			c0.01996-0.02997,0.02997-0.06,0.04999-0.08997c0.87006-1.49005,1.85004-3.97003,2.70001-6.90002
			c0.04993-0.16003,0.09998-0.32001,0.14001-0.47998c0.06995-0.26001,0.13989-0.52002,0.21997-0.78003
			c1.06006-3.95001,1.84009-8.53998,1.84009-12.65002C179.09808,121.57025,179.09808,121.30023,179.08807,121.03021z
			 M55.42798,147.79022c-2-0.89996-3.40997-2.38995-4.51001-4.13995c-0.04999-0.07001-0.08997-0.14001-0.12994-0.22003
			c-0.98004-1.62-1.72003-3.46002-2.43005-5.28998c-0.00995-0.01001-0.00995-0.02002-0.00995-0.03003
			c-0.54004-1.37-1.06-2.73999-1.69-3.98999c-0.03003-0.06-0.05005-0.12-0.07001-0.17999
			c-0.03003-0.08002-0.07001-0.16003-0.11005-0.23999c-0.18994-0.48004-0.37994-1.10004-0.56-1.79999
			c-0.01996-0.03003-0.02997-0.07001-0.01996-0.10004c-0.34003-1.37-0.64001-3.07001-0.81-4.84998
			c-0.01001-0.02002-0.01001-0.04004-0.01001-0.07001c-0.16998-1.90002-0.19-3.88,0.04999-5.60999
			c0-0.01001,0.01001-0.03003,0.01001-0.05005c0.21002-1.53998,0.63-2.88,1.33997-3.81
			c0.06006-0.07996,0.13-0.15997,0.20001-0.22998c0.19-0.21997,0.41003-0.41998,0.65002-0.57001
			c0.01001-0.01001,0.02997-0.02002,0.03998-0.02997c-0.56-0.44-1.10999-0.91003-1.69-1.36005
			c-0.13995-0.12-0.26001-0.21997-0.34998-0.29999c0.14996-0.25,0.31-0.42999,0.48999-0.54999
			c0.07001-0.04999,0.14001-0.09003,0.21002-0.12c0.03998-0.02002,0.08997-0.03998,0.13995-0.04999
			c0.05005-0.02002,0.11005-0.02002,0.16003-0.03003c0.02997-0.01001,0.06-0.01001,0.09998-0.01001
			c0.03003-0.00995,0.07001-0.00995,0.10004-0.00995c0.08997,0,0.17999,0.00995,0.27997,0.02997
			c0.02002,0,0.03003,0,0.04999,0.01001c0.03003,0,0.07001,0.01001,0.10004,0.02002
			c0.03998,0.00995,0.08997,0.01996,0.14001,0.04999c0.12,0.03998,0.23999,0.08997,0.35999,0.14001
			c0.13,0.06,0.25,0.12994,0.38,0.20996c0.01996,0,0.02997,0.01001,0.03998,0.02002
			c0.10999,0.07001,0.22998,0.14996,0.34003,0.22998c0.28998,0.21002,0.58997,0.46002,0.88995,0.73999
			c0.17004,0.15002,0.34003,0.31,0.5,0.48004c0.07001,0.07001,0.13,0.13,0.20001,0.20996l0.10004,0.10004
			c0.07996,0.07996,0.15997,0.15997,0.22998,0.25c0.14001,0.14996,0.27997,0.29999,0.40997,0.44995
			c0.21002,0.24005,0.42004,0.48004,0.61005,0.72003c0.12,0.13,0.22998,0.27002,0.33997,0.40002
			c0.5,0.60999,0.95001,1.19,1.31,1.62994c0.10004,0.13,0.20001,0.25,0.29004,0.35004c0.07996,0.09998,0.15997,0.19,0.22998,0.26001
			c0.92999,1.42999,0.64996,3.39996,0.64996,5.03998c0.01001,0.52002,0.01001,1.03998,0.03003,1.56c0,0.01001,0,0.01001,0,0.02002
			c0.02002,1.42999,0.04999,2.87,0.09998,4.31v0.20996c0.07001,1.97003,0.17004,3.91003,0.32001,5.88
			c0.01001,0.12,0.02002,0.23004,0.03003,0.35004c0.15997,2.25,0.39001,4.5,0.70996,6.71997c0.15002,1.03003,0.31,2.06,0.5,3.08002
			C55.58801,147.68024,55.508,147.73022,55.42798,147.79022z M118.61798,127.61023c2.33002,6.5,1.17004,13.27002,0.12,19.87
			c-0.10999,0-0.21997,0.01001-0.32996,0.02002c-0.81-6.53998,0.12-13.22998-0.18005-19.83002
			C118.35797,127.65027,118.48798,127.63025,118.61798,127.61023z M65.17798,113.06024
			c0.08002-0.26001,0.16003-0.52002,0.25-0.77002c0.09003-0.25,0.17999-0.48999,0.28003-0.73999
			c0.08997-0.21997,0.19-0.44,0.29999-0.65997c0.09998-0.22003,0.21002-0.42999,0.33002-0.64001
			c0.07996-0.15002,0.16998-0.29999,0.26001-0.45001c0.06995-0.14001,0.14996-0.27002,0.23999-0.40997
			c0.07996-0.14001,0.16998-0.27002,0.26001-0.40002c0.25995-0.40997,0.54999-0.81,0.85999-1.21002
			c0.12-0.14996,0.22998-0.31,0.34998-0.45996c0.16998-0.22003,0.35999-0.44,0.54004-0.66003
			c5.58997-4.29999,13.57996-3.94995,20.26996-3.37c2.41003,0.29999,4.78003,0.98004,7.17004,1.48999
			c0.35999,0.05005,0.63995,0.18005,0.85999,0.34003c0.10999,0.08002,0.20996,0.17999,0.29999,0.28998
			c0.45001,0.53003,0.64001,1.31,0.89001,2.02002h0.28998c0.08002-0.47998,0.16998-0.95001,0.25-1.40002
			c0.10999,0.41003,0.19,0.79004,0.25,1.14001c1.53003,9.64001-18.79999-6.95001-34.20001,6.95001
			C64.99799,113.76025,65.078,113.41022,65.17798,113.06024z M72.33801,132.64026c-2.71002-1.65002-5.62-4.22003-6.04999-7.41003
			c0.06995-0.31,0.14996-0.60999,0.25-0.89001c0.01996-0.06,0.03998-0.12994,0.06995-0.18994
			c0.03003-0.10004,0.07001-0.20001,0.11005-0.30005c0.03998-0.12,0.08997-0.22998,0.14996-0.33997
			c0.04999-0.12,0.12-0.25,0.17999-0.37c0.08002-0.15002,0.17004-0.29004,0.26001-0.42999
			c0.04004-0.07001,0.09003-0.14001,0.14001-0.21002c0.03998-0.06,0.09003-0.13,0.14001-0.19c0.08997-0.13,0.19-0.25,0.29999-0.37
			c0.27002-0.31,0.57001-0.58002,0.89001-0.83002c0.19-0.14996,0.38995-0.28998,0.60999-0.40997
			c0.21002-0.13,0.42999-0.25,0.65002-0.35004c0.17999-0.07996,0.35999-0.15997,0.54999-0.22998
			c0.16998-0.07001,0.33997-0.13,0.51001-0.17999c0.23999-0.08002,0.48999-0.15002,0.75-0.21002
			c0.15997-0.03998,0.32996-0.07996,0.50995-0.10999c0.35004-0.07001,0.70001-0.13,1.07001-0.16998
			c0.27002-0.03003,0.54004-0.06,0.82001-0.08002c0.26001-0.03003,0.54004-0.04999,0.81-0.04999
			c0.02002-0.01001,0.04004-0.01001,0.07001,0c0.41003-0.02002,0.83002-0.03003,1.25-0.03003
			c0.57001,0,1.15002,0.01001,1.72998,0.03003c0.87,0.02997,1.73004,0.07001,2.57001,0.10999
			c0.42004,0.02002,0.84003,0.03998,1.25,0.04999c0.79004,0.03003,1.54004,0.03003,2.25,0
			c3.38,0.06,6.77002,0.22003,10.15002,0.29004c2.20001,0.04999,3.76001,1.21997,5.17999,2.69
			c-1.10999-0.08002-2.17999-0.16003-3.26001-0.23004c0.08002,0.08002,0.16003,0.17999,0.23999,0.28003
			c0.31,0.39996,0.67004,0.97998,1.03003,1.64996c0.07001,0.14001,0.14001,0.27002,0.20996,0.41003
			c0.29004,0.56,0.57001,1.17999,0.82001,1.81s0.48004,1.27002,0.67004,1.89996c0.04999,0.16003,0.08997,0.31,0.13,0.46002
			c0.04999,0.19,0.08997,0.38,0.12994,0.56c0.08002,0.33002,0.13,0.65002,0.16003,0.94
			c0.01001,0.03998,0.01001,0.09003,0.01001,0.14001c0.01996,0.28998,0.01996,0.56,0,0.78998
			c-0.03003,0.25-0.08002,0.47003-0.17004,0.65002c-0.04999,0.08997-0.09998,0.16998-0.15997,0.23999
			C90.92798,136.32025,80.83801,137.31024,72.33801,132.64026z M123.90802,157.47021c-0.05005,0.70001-0.19,1.31-0.43005,1.85004
			c-0.07996,0.19-0.16998,0.35999-0.25995,0.52997c-0.01001,0.03003-0.02002,0.05005-0.04004,0.08002
			c-0.02997,0.04999-0.06,0.09998-0.09998,0.15002c-0.47003,0.67999-1.13,1.17999-1.98999,1.5
			c-0.01001,0.00995-0.01001,0.00995-0.02002,0.00995c-0.23999,0.08002-0.5,0.16003-0.77997,0.22003
			c-1.66003,1.31-3.73004,1.76001-5.66003,2.51001c-2.38,2.23999-5.78998,2.25-8.32001,0.01996
			c-2.08997-0.51996-4.09998-1.20996-5.83002-2.52997c-0.22998-0.04999-0.43994-0.12-0.63995-0.20001
			c-0.17999-0.07001-0.36005-0.14996-0.53003-0.23999c-0.23999-0.12-0.45996-0.26001-0.64996-0.41998
			c-0.10004-0.08002-0.19-0.15002-0.28003-0.23999c-0.08997-0.09003-0.16998-0.17004-0.25-0.26001
			c-0.16998-0.17999-0.31-0.37-0.42999-0.57001c-0.03003-0.04999-0.06-0.10004-0.09003-0.16003
			c-0.06-0.08997-0.10999-0.19-0.14996-0.28998c-0.14001-0.27997-0.25-0.58002-0.32001-0.89001
			c-0.03998-0.17999-0.07001-0.35999-0.09003-0.53998c-0.01996-0.17999-0.02997-0.35999-0.02997-0.53998
			c0-0.13,0.01001-0.26001,0.02002-0.40002c0.00995-0.21002,0.03998-0.41998,0.08997-0.63
			c0.02002-0.09003,0.03998-0.17999,0.06-0.27002c0.03003-0.10999,0.06-0.20996,0.10004-0.31
			c0.00995-0.04999,0.02997-0.08997,0.03998-0.13c0.01001-0.03998,0.02997-0.07996,0.04999-0.12
			c0.03003-0.07996,0.06-0.16998,0.09998-0.25c0.04004-0.07996,0.08002-0.15997,0.12006-0.23999
			c0.07996-0.15997,0.16998-0.32001,0.26996-0.46997c0.04999-0.08002,0.10999-0.16003,0.16003-0.23004
			c0.04999-0.07001,0.10999-0.14996,0.16998-0.21997c0.08002-0.10004,0.15997-0.19,0.25-0.28998
			c0.14001-0.15002,0.27997-0.28003,0.42999-0.40002c0.09003-0.09003,0.19-0.16998,0.28998-0.23999
			c0.12006-0.09003,0.25-0.17999,0.38-0.26001c0.16003-0.09998,0.32001-0.19,0.49005-0.28003
			c-0.83002,2.01001-1.99005,3.67004-1.24005,5.82001c0.45001,1.41003,1.27002,1.86005,2.71002,1.45001
			c1.09998-0.31,2.21002-0.82001,3.28003-0.01001c0.41998,0.56,0.90997,1.03003,1.43994,1.42999
			c0.01001,0,0.01001,0.01001,0.01001,0.01001c0.08002,0.04999,0.14001,0.10004,0.22003,0.16003
			c0.73999,0.48999,1.54999,0.83997,2.40997,1.02997c0.04999,0.02002,0.10999,0.02002,0.17004,0.03003
			c1.08997,0.22998,2.25,0.19,3.37-0.11005c0.33997-0.07996,0.67999-0.19,1-0.31995c0.31-0.13,0.60999-0.28003,0.90997-0.44
			c0.04999-0.07001,0.10999-0.14001,0.15997-0.21002c0.15002-0.19,0.30005-0.38,0.47003-0.57001
			c0.21997-0.23999,0.46002-0.46997,0.71002-0.66998c0.12-0.10004,0.22998-0.17999,0.35999-0.26001
			c0.73999-0.48999,1.59998-0.70001,2.56-0.31c5.32001,1.22998,3.89001-3.84003,2.40997-6.89001
			c0.10004,0.04004,0.20001,0.08002,0.29004,0.13c0.95996,0.47003,1.78998,1.46002,2.25,2.52002
			c0.01996,0.04999,0.03998,0.08997,0.04999,0.13C123.828,156.25024,123.95801,156.89026,123.90802,157.47021z M154.56799,126.44025
			c-0.15002,0.27997-0.31,0.53998-0.46997,0.79999c-0.16003,0.26001-0.34003,0.52002-0.51001,0.77002
			c-0.11005,0.15997-0.23004,0.31-0.34003,0.46997c-0.09998,0.14001-0.20001,0.27002-0.31,0.40002
			c-0.17999,0.22998-0.38,0.45996-0.58002,0.67999c-0.12,0.14001-0.25,0.27997-0.38995,0.41998
			c-0.19,0.20001-0.39001,0.40002-0.59003,0.59003s-0.40997,0.38-0.62,0.56c-0.21997,0.19-0.45001,0.37-0.67999,0.53998
			c-0.62,0.48999-1.28003,0.91998-1.96002,1.31c-0.27997,0.16003-0.56,0.31-0.84998,0.45001
			c-0.58002,0.28998-1.16998,0.54999-1.78003,0.78003c-0.29999,0.12-0.60999,0.22998-0.91998,0.32996
			c-0.40997,0.14001-0.83002,0.26001-1.26001,0.37c-0.41998,0.12-0.84998,0.22003-1.27997,0.30005
			c-0.42999,0.08997-0.86005,0.15997-1.30005,0.22998c-0.00995,0-0.00995,0-0.00995,0c-0.44,0.06-0.88,0.10999-1.32001,0.15997
			H139.388c-1.28003,0.12-2.58002,0.15002-3.88,0.10004c-0.39001-0.02002-0.78998-0.04004-1.19-0.07001
			c-0.34998-0.03003-0.70001-0.06-1.04999-0.10004c-0.27002-0.02997-0.54004-0.06-0.81-0.09998
			c-0.27002-0.02997-0.54004-0.07001-0.79999-0.12c-0.58002-0.09003-1.15002-0.19-1.72003-0.32001
			c-0.27997-0.06-0.56-0.13-0.83997-0.19c-0.28003-0.07001-0.56-0.14001-0.84003-0.21997
			c-0.28998-0.07001-0.57001-0.15002-0.84998-0.24005c-0.34003-0.08997-0.68005-0.19995-1.01001-0.31
			c-0.12-0.03998-0.25-0.07996-0.38-0.12994c-0.12-0.04004-0.25-0.08002-0.37-0.13
			c-0.48004-0.17004-0.95001-0.35004-1.42004-0.54004c-0.45996-0.19-0.90997-0.39001-1.35999-0.59998
			c-0.33997-0.16003-0.66998-0.32001-1-0.48999c-0.29999-0.19-0.66998-0.69-0.60999-0.97003
			c0.65002-3.27997,1.39001-6.39996,3.79999-8.95996c-1.28998,0.08997-2.33997,0.15997-3.33997,0.22998
			c0.60999-1.16003,2.82996-2.58002,4.5-2.63c6.81-0.17999,13.60999-0.32001,20.41998-0.42999c0.32001-0.01001,0.63,0,0.94,0.02997
			c0.20001,0.01001,0.40997,0.03003,0.59998,0.06c0.03003,0,0.06,0.01001,0.09003,0.01001
			c0.45996,0.07001,0.89996,0.17004,1.33997,0.29999c0.59003,0.18005,1.15002,0.41003,1.67004,0.72003
			c0.12,0.06,0.23999,0.13,0.34998,0.21002c0.08002,0.04999,0.16998,0.09998,0.25,0.15997
			c0.08002,0.04999,0.15002,0.10999,0.22003,0.15997c0.31995,0.23004,0.60999,0.49005,0.87994,0.78003
			c0.15002,0.15002,0.30005,0.32001,0.43005,0.48999c0.27997,0.35004,0.51996,0.72003,0.71997,1.12
			c0.20001,0.40002,0.37,0.83002,0.5,1.28003c0.07001,0.22998,0.12,0.46997,0.16998,0.70996
			C154.86798,125.72021,154.71802,126.13025,154.56799,126.44025z M124.49799,110.40027c-0.20996,0-0.40997-0.01001-0.59998-0.03003
			c-0.14001-0.02002-0.28003-0.03998-0.41003-0.07001c-0.13-0.02997-0.25-0.06-0.35999-0.09998
			c-0.15997-0.04999-0.29999-0.12-0.41998-0.20001c-0.13-0.08002-0.25-0.17999-0.34003-0.28998
			c-0.06-0.06-0.09998-0.11005-0.14001-0.18005c-0.08997-0.12-0.15997-0.25995-0.21997-0.41998
			c-0.03998-0.09998-0.07001-0.20996-0.09003-0.33002c-0.03998-0.12994-0.06-0.27997-0.06995-0.44995
			c-0.01001-0.12-0.02002-0.25-0.02002-0.38c0-0.19,0.01001-0.40002,0.03998-0.62c0.01001-0.09003,0.02002-0.19,0.03003-0.30005
			c0.03998-0.31,0.09998-0.64996,0.17999-1.00995c0.15997,0.56995,0.27997,0.98999,0.46997,1.67999
			c0.63-1.41003,0.70001-2.58002,2.31-2.97003c5.20001-1.70996,10.54004-1.96997,15.94-1.64996
			c0.38,0.02997,0.75,0.06,1.11005,0.08997c0.34998,0.04004,0.69,0.07001,1.02997,0.10999
			c0.69,0.08002,1.35999,0.18005,2.01001,0.30005c0.64001,0.12,1.26001,0.25995,1.84998,0.41998
			c0.15002,0.03998,0.30005,0.08002,0.46002,0.13c0.15002,0.04999,0.29999,0.08997,0.44,0.14001
			c0.27997,0.08997,0.56,0.19,0.83002,0.29999c0.19,0.07001,0.37,0.14996,0.56,0.22998
			c0.62,0.28003,1.20996,0.60004,1.76996,0.96002c0.41003,0.27997,0.81,0.57996,1.19,0.90997
			c0.09003,0.07001,0.17004,0.15002,0.26001,0.23004c0.04004,0.02997,0.08002,0.06995,0.10999,0.10999
			c0.17004,0.16998,0.34003,0.33997,0.5,0.51996c0.14001,0.14001,0.27002,0.29004,0.39001,0.45001
			c0.45001,0.54999,0.85004,1.16003,1.22003,1.84003c0.02997,0.06,0.06,0.12,0.08997,0.16998
			c0.17004,0.31,0.32001,0.65002,0.47003,1c0.10999,0.25,0.20996,0.51001,0.31,0.77002
			c0.09998,0.26996,0.19,0.54999,0.27997,0.83997c0.06,0.19,0.12,0.38,0.17004,0.58002c0.06995,0.25,0.13995,0.5,0.19995,0.76001
			C143.79797,103.71027,130.14801,110.40027,124.49799,110.40027z M174.078,134.06024
			c-0.14001,0.42999-0.28998,0.84003-0.45001,1.26001c-0.13,0.37-0.27002,0.73999-0.41998,1.09998
			c-0.13,0.32001-0.26001,0.63-0.39001,0.94c-0.47998,1.12-0.97998,2.15002-1.47998,3.07001
			c-0.13,0.25-0.27002,0.48999-0.40002,0.72003c-0.09998,0.15997-0.19,0.31-0.27002,0.44995l-0.00995,0.01001
			c-0.05005,0.15002-0.10004,0.29999-0.17004,0.45001c-0.17999,0.45001-0.39996,0.89001-0.64996,1.33002
			c-0.17004,0.28998-0.36005,0.57996-0.56,0.85999c-0.20001,0.28998-0.41003,0.56-0.63,0.83002
			c-0.14001,0.15997-0.28003,0.32001-0.42999,0.47998c-0.10004,0.10999-0.21002,0.21997-0.32001,0.33002
			c-0.10004,0.10999-0.21002,0.20996-0.32001,0.31c-0.12,0.13-0.25,0.23999-0.38,0.33997
			c-0.22003,0.20001-0.45001,0.37-0.66998,0.53003c-0.09003,0.07001-0.19,0.13-0.28003,0.19
			c-0.21997,0.15997-0.45001,0.29999-0.66998,0.41998c0.02997-0.15997,0.06-0.31,0.08997-0.45001
			c0.11005-0.51001,0.20001-1.01996,0.29004-1.52997c0-0.03003,0.01001-0.07001,0.01996-0.10004
			c0.18005-1.06,0.34003-2.12,0.46002-3.17999c0-0.03998,0.01001-0.08002,0.01001-0.12
			c0.25-1.96997,0.39001-3.95001,0.46997-5.92999c0.01001-0.10999,0.01001-0.21002,0.01001-0.32001
			c0.11005-2.87,0.09003-5.75,0.02002-8.63v-1.58997c-0.04999-1.56-0.13-3.12-0.21002-4.67004v-0.00995
			c0.06-0.08002,0.13-0.17004,0.22003-0.28003c0.03998-0.06,0.08997-0.12,0.13-0.17999c0.38-0.48999,0.92999-1.19,1.57001-1.95001
			c0.16998-0.20001,0.33997-0.40002,0.51996-0.59998l0.01001-0.01001c0.14001-0.16003,0.28998-0.33002,0.44-0.48999
			c0.14001-0.17004,0.29999-0.33002,0.46002-0.5c0.15997-0.17004,0.32001-0.34003,0.47998-0.5
			c0.28998-0.29004,0.58002-0.57001,0.87-0.83002c0.19-0.17999,0.38-0.34003,0.57001-0.48999
			c0.45001-0.35004,0.88-0.65002,1.28003-0.85004c0.12-0.06,0.22998-0.10999,0.33997-0.14996
			c0.09003-0.04004,0.19-0.07001,0.28003-0.09003c0.04999-0.01001,0.10999-0.02997,0.14996-0.02997
			c0.56-0.10004,1.03009,0.08997,1.32001,0.70996c-0.08997,0.08002-0.20007,0.17999-0.33997,0.29004
			c-0.58002,0.45996-1.14001,0.90997-1.69,1.37c0.01996,0.01996,0.02997,0.02997,0.03998,0.04999
			c0.34998,0.34998,0.64001,0.72998,0.90002,1.14001c0.08997,0.13,0.16998,0.26996,0.25,0.40997
			c0.12994,0.21002,0.22998,0.42999,0.32996,0.65002c0.03003,0.08002,0.06995,0.15997,0.09998,0.22998
			c0.11011,0.25,0.20996,0.51001,0.29004,0.77002c0.04004,0.14001,0.08008,0.26996,0.12,0.40997
			c0.03992,0.13,0.07996,0.27002,0.10999,0.41003c0.03003,0.12,0.06006,0.23999,0.08008,0.35999
			c0.04993,0.21002,0.08997,0.41998,0.11987,0.63c0.06006,0.31,0.1001,0.63,0.12012,0.95001
			c0.03003,0.26996,0.04993,0.53998,0.05994,0.82001c0.04993,1.02997,0.01001,2.09998-0.10999,3.19995
			c-0.04004,0.40002-0.09009,0.79004-0.15002,1.19c-0.04993,0.40002-0.12,0.79999-0.19995,1.21002
			c-0.06995,0.40002-0.15002,0.79999-0.25,1.21002c-0.08997,0.39996-0.19006,0.79999-0.29004,1.19995
			c-0.09998,0.39001-0.20996,0.79004-0.32996,1.17999c-0.06006,0.20001-0.12006,0.40002-0.18005,0.59003
			c0,0.02002-0.00995,0.03003-0.00995,0.03998C174.258,133.50024,174.16797,133.78021,174.078,134.06024z"/>
		<path class="st7" d="M162.61798,157.57025c-1.06,2.01996-2.02997,4.10999-3.20996,6.06
			c-0.07001,0.12-0.15002,0.23999-0.23004,0.35999c-0.96997,1.57001-2.10999,3.03998-3.54999,4.29999
			c-0.08002-0.04999-0.16998-0.10999-0.25-0.15997v-2.41003c-1.33997,2.34003-2.84998,4.25-4.40002,6.41003
			c-0.35999,0.47998-1.00995,0.75-1.65997,1.20001v-3.03003c-0.04999-0.01001-0.09003-0.02997-0.14001-0.03998
			c-0.31,0.60999-0.63,1.21997-0.98999,1.90997c-0.56-1.39996-1.19-2.60999-1.88-3.65997
			c-0.22998-0.35004-0.46997-0.67999-0.70996-0.98999c-0.01001,0-0.01001-0.01001-0.01001-0.01001
			c-0.23999-0.31-0.48999-0.60004-0.75-0.88c-0.95001-1.02002-1.98004-1.81-3.09003-2.41998c-0.25-0.13-0.5-0.25-0.76001-0.37006
			c-0.15997-0.07996-0.32001-0.13995-0.47998-0.20996c-0.31-0.12-0.63-0.23999-0.95001-0.34003
			c-4-1.26996-8.70001-0.67999-13.54999,0.29999c-0.52002,0.11005-1.04999,0.22003-1.57001,0.33002
			c-0.78998,0.16998-1.58002,0.35004-2.37,0.52002c-0.52997,0.12-1.06,0.23999-1.58002,0.34998
			c-0.47998,0.11005-0.95996,0.21002-1.44,0.31c-0.08997,0.02002-0.17999,0.04004-0.26996,0.06
			c-0.48004,0.10004-0.96002,0.20001-1.42999,0.29004c-3.59003,0.70001-7.08002,1.13-10.22003,0.70001
			c-11.75-2.34003-30.17999-9.20001-35.06,6.77997c-0.5-0.96997-0.91998-1.77997-1.34998-2.59998
			c-0.05005,0.00995-0.10004,0.02997-0.15002,0.04999v2.87c-3.29999-1.58002-4.09998-4.95001-5.94-7.82001v2.82001
			c-4.22998-3.03003-5.52002-8.34003-7.60999-12.83002c0-0.01001,0-0.01001-0.01001-0.01996
			c1.17999,9.82996,2.34998,16.87994,4.41998,22.45996c0.04999,0.16003,0.11005,0.32001,0.17004,0.47998
			c3.26996,8.56006,8.75,13.68005,19.81995,20.36005c0.08002,0.03998,0.15002,0.08997,0.23004,0.13995
			c2.19,1.32001,4.60999,2.70001,7.26996,4.18005c-0.02997-0.10004-0.06-0.19-0.07996-0.29004
			c-0.28003-0.95001-0.53003-1.90997-0.72003-2.87c-0.07996-0.41998-0.14996-0.83997-0.20996-1.27002
			c-0.07001-0.5-0.13-1-0.16003-1.50995c0.08002-0.04004,0.15002-0.07001,0.22003-0.11005
			c1.59998,2.59003,3.19995,5.16003,4.78998,7.74005v0.00995c0.03003,0.04004,0.06,0.08002,0.08002,0.12
			c0.5,0.22003,1,0.44,1.48999,0.66003c0.03998,0.02002,0.07001,0.02997,0.09998,0.04999
			c0.16003,0.07001,0.31,0.14001,0.47003,0.21002c-0.54999-1.85999-1.25-3.53003-1.48999-5.5
			c1.34998,2.25,2.78998,4.20001,3.90997,6.45001c1.29999,0.37994,2.58002,0.96997,3.90002,1.10999
			c0.58997,0.04999,1.17999,0.09998,1.77997,0.14996c3.98999,0.37,8.10999,0.76001,12.13,0.53003
			c0.06-0.01001,0.10999-0.01001,0.16003-0.01001c3.26996-0.19,6.47998-0.79999,9.50995-2.15002
			c0.25-0.10999,0.49005-0.21997,0.73004-0.33997c0.57996-1.13,1.15997-2.27002,1.73999-3.39001
			c0.12-0.26001,0.23999-0.52002,0.34998-0.78998c0.03003,0.01996,0.04999,0.03998,0.08002,0.04999
			c-0.16998,0.37-0.28003,0.77002-0.38,1.16998c0,0.03003-0.01001,0.07001-0.02002,0.11005
			c-0.13995,0.57996-0.21997,1.16998-0.34998,1.75v0.00995c-0.03998,0.17999-0.08002,0.36005-0.13,0.53003
			c0.40997-0.17999,0.81-0.35004,1.22003-0.53003c0.57996-0.25,1.16998-0.50995,1.75995-0.76996
			c0.02002-0.03003,0.04004-0.07001,0.05005-0.10004c1.39996-2.46997,2.42999-5.26001,4.02997-7.56
			c0.70001,1.98004,0.16998,3.79004-0.15002,5.60999c2.26001-1.26996,4.34003-2.46997,6.24005-3.62
			c0.38-0.22998,0.75995-0.45996,1.12-0.69c1.29999-0.79999,2.51996-1.58997,3.65997-2.35999
			c0.47003-0.32001,0.91998-0.64001,1.35999-0.94c0.02002-0.01996,0.04004-0.02997,0.05005-0.03998
			c0.83997-0.60004,1.63-1.19,2.38-1.78003c0.25-0.19995,0.48999-0.38995,0.72998-0.58997
			c0.33002-0.25,0.64001-0.52002,0.95001-0.78003c0.28998-0.25,0.57996-0.5,0.85999-0.75
			c0.03998-0.03998,0.08997-0.08997,0.14001-0.13c0.27997-0.25995,0.56-0.51996,0.82996-0.76996
			c0.23004-0.23004,0.46002-0.46002,0.69-0.67999c3.34003-3.43005,5.51001-7.07001,7.10004-11.66003
			c0.12-0.34998,0.23999-0.70001,0.34998-1.06c0.26001-0.83002,0.5-1.67999,0.72998-2.57001
			c0.08002-0.27997,0.15002-0.56,0.21002-0.83997c1.19-4.81,2.03998-10.61005,3.03003-17.97003
			C163.60797,155.73022,163.10797,156.64026,162.61798,157.57025z M70.48798,185.01025
			c-0.51996-3.41003-2.44-6.35999-2.53998-9.85999c0.16998-0.04004,0.33002-0.07001,0.48999-0.10004
			c1.28003,4.06,2.56,8.13,3.87,12.32001C71.27802,187.05023,70.66797,186.35022,70.48798,185.01025z M145.60797,183.93024
			c0.05005,0.98999,0.07001,1.79999,0.05005,2.48999c0,0.17999-0.01001,0.35004-0.02002,0.51001
			c-0.01001,0.13-0.02002,0.26001-0.03003,0.38c-0.00995,0.12-0.01996,0.23999-0.02997,0.34998
			c-0.02002,0.17999-0.04999,0.35004-0.08002,0.5c-0.02002,0.12-0.03998,0.24005-0.07001,0.35004
			c-0.01001,0.06-0.01996,0.10999-0.03998,0.15997c-0.03003,0.10999-0.06,0.22003-0.09003,0.32001
			c-0.07001,0.22003-0.14996,0.41998-0.22998,0.62c-0.06,0.14001-0.12,0.27002-0.19,0.40002
			c-0.09998,0.20001-0.21002,0.39996-0.33002,0.60999c-0.15997,0.28003-0.33997,0.57001-0.53998,0.89001
			c-0.34998,0.56-0.75,1.21997-1.21997,2.06c-0.13,0.23999-0.27002,0.5-0.41003,0.76996c-0.15002-0.06-0.28998-0.12-0.44-0.17999
			C143.67798,190.92023,144.29797,187.33026,145.60797,183.93024z M133.64801,192.84021
			c-0.26001,0.28003-0.52002,0.55005-0.79004,0.82001c-0.32996,0.33002-0.66998,0.65002-1.00995,0.96002
			c-0.34003,0.31-0.69,0.60999-1.04004,0.90002c-0.15997,0.13-0.32001,0.26996-0.48999,0.39996
			c-0.44,0.34003-0.89001,0.66998-1.34003,0.98999c-0.21997,0.15002-0.44995,0.30005-0.67999,0.44
			c-0.22998,0.15002-0.45996,0.29004-0.69,0.42004c-0.77997,0.45996-1.56995,0.84998-2.37,1.19
			c-0.21997,0.08997-0.44,0.16998-0.64996,0.25c-0.21002,0.06995-0.42999,0.14996-0.64001,0.21997
			c-0.22998,0.07001-0.46002,0.14001-0.67999,0.20001c-0.22998,0.06-0.45001,0.10999-0.66998,0.15997
			c-0.22003,0.04999-0.45001,0.09003-0.67004,0.13c-0.01996,0.01001-0.03998,0.01001-0.06,0.01001
			c-0.20001,0.03003-0.40997,0.04999-0.60999,0.08002c-0.69,0.07001-1.38,0.08997-2.06,0.04999
			c-0.16998-0.01001-0.33002-0.02002-0.48999-0.04999c-0.09003-0.01001-0.16998-0.02002-0.25-0.03003
			c-0.12-0.01001-0.23004-0.01996-0.33002-0.03998c-0.19-0.03003-0.35999-0.07001-0.52002-0.13
			c-0.12-0.03998-0.22998-0.09003-0.33997-0.15002c-0.12-0.06-0.23999-0.13-0.35004-0.20996
			c-0.10999-0.07001-0.20996-0.16003-0.31-0.25c-0.08997-0.08002-0.16998-0.17004-0.23999-0.26001
			c-0.09998-0.10999-0.19-0.22998-0.26996-0.35999c-0.10004-0.15002-0.20001-0.30005-0.28003-0.47003
			c-0.07001-0.12-0.13-0.25-0.17999-0.38c-0.03003-0.04999-0.06-0.10999-0.08002-0.16998
			c-0.07001-0.15997-0.14001-0.33002-0.20996-0.5c-0.06,0.01001-0.12006,0.02002-0.18005,0.02002
			c-0.37994,0.07001-0.78998,0.12-1.20996,0.15997c-1.42999,0.14001-2.85999,0.12-4.28003,0.04999
			c-0.31-0.01001-0.60999-0.02997-0.89996-0.04999c-0.11005-0.01001-0.22003-0.01001-0.33002-0.02002
			c-0.10999,0-0.21002-0.00995-0.31-0.01996c-0.41998-0.02002-0.82001-0.04999-1.17999-0.08002
			c-0.10004,0-0.17999-0.01001-0.27002-0.02002c-0.32001-0.02997-0.60999-0.04999-0.85999-0.07001
			c-0.19-0.00995-0.35004-0.01996-0.5-0.02997c-0.78003,2.58997-2.66998,3.08997-5.14001,3.07001
			c-0.28998-0.02002-0.58997-0.04999-0.88-0.10004c-0.19-0.02997-0.38-0.04999-0.57001-0.09998l-0.14996-0.03003
			c-0.14001-0.02997-0.28003-0.06-0.42004-0.09998c-0.41998-0.09998-0.84998-0.22998-1.26996-0.38
			c-0.10999-0.03998-0.22003-0.08002-0.33002-0.12c-0.48999-0.17999-0.97998-0.39001-1.46997-0.63
			c-0.24005-0.12-0.49005-0.23999-0.73004-0.37s-0.48999-0.27002-0.72998-0.40997c-1.97003-1.15002-3.89001-2.67999-5.66003-4.46002
			c-0.15997-0.15997-0.31995-0.32001-0.46997-0.47998c-0.39001-0.41003-0.77002-0.83002-1.15002-1.26001
			c-0.25-0.29004-0.5-0.59003-0.75-0.89001c-0.47998-0.58997-0.94-1.20001-1.37-1.82001
			c-0.16998-0.22998-0.33997-0.46997-0.48999-0.70996c-0.14996-0.23004-0.31-0.47003-0.45996-0.70001
			c-0.85004-1.33002-1.58002-2.70001-2.17004-4.07001c-0.10999-0.27002-0.21997-0.53003-0.32996-0.79999
			c-0.10004-0.26001-0.20001-0.52002-0.29004-0.79004c-0.08997-0.26001-0.17999-0.51996-0.26001-0.78998
			c-0.10999-0.35999-0.19995-0.71002-0.28998-1.04999c-0.06-0.23004-0.12-0.47003-0.15997-0.70001
			c0-0.03003-0.01001-0.07001-0.02002-0.10999c-0.04999-0.26001-0.10004-0.51001-0.13-0.77002v-0.01001
			c-0.03003-0.23999-0.06-0.46997-0.08002-0.70001c-0.01996-0.13995-0.02997-0.28998-0.03998-0.42999
			c-0.04004-0.63-0.03003-1.25,0.02002-1.83997c0.25-1.12,0.62994-2.04999,1.12994-2.81c0.25-0.38,0.53003-0.72003,0.84003-1.01001
			c0.09998-0.10999,0.20001-0.20001,0.31-0.28003c0.15002-0.13,0.29999-0.25,0.46002-0.35999
			c0.32001-0.21997,0.65997-0.40997,1.01996-0.58002c0.17999-0.07996,0.36005-0.14996,0.55005-0.21997
			c0.62994-0.22998,1.31-0.38,2.02997-0.47003c0.92999-0.12,1.91998-0.13995,2.96002-0.07996
			c1.16998,0.07001,2.38995,0.22998,3.63,0.44995c0.38995,0.07001,0.78998,0.15002,1.19,0.23004
			c0.41998,0.08002,0.82996,0.16998,1.25,0.26001c0.82996,0.17999,1.66998,0.38,2.5,0.57001
			c1.75995,0.40997,3.5,0.82996,5.12,1.14996c0.20996,0.03998,0.40997,0.08002,0.60999,0.10999
			c0.51001,0.09003,1.02002,0.17999,1.51001,0.24005c0.17999,0.02997,0.34998,0.04999,0.51001,0.06
			c0.63,0.07996,1.23999,0.12,1.81,0.12c0.25,0,0.48999,0,0.72998-0.02002c1.35999,0.08002,2.71997,0.09003,4.06,0.02997
			c0.52002-0.01996,1.04999-0.03998,1.57001-0.07996c0.27997-0.02002,0.56-0.04004,0.83997-0.07001
			c0.29004-0.02002,0.59003-0.04999,0.88-0.08002c0.84003-0.08002,1.67004-0.17999,2.51001-0.31
			c0.26001-0.03998,0.53003-0.08002,0.79999-0.12c0.83002-0.12,1.65002-0.27002,2.48004-0.42999
			c0.60999-0.10999,1.22998-0.22998,1.83997-0.35999c0.37-0.07001,0.75-0.15002,1.15002-0.23999
			c1.19-0.26001,2.51001-0.56006,3.87-0.81006c0.41998-0.07996,0.84003-0.14996,1.26001-0.21997
			c0.07001-0.02002,0.14996-0.03003,0.21997-0.03003c0.42999-0.06995,0.86005-0.12994,1.29004-0.17999
			c0.59998-0.07996,1.19995-0.13,1.78998-0.14996c0.12-0.01001,0.25-0.02002,0.38-0.02002
			c0.01001-0.01001,0.01001-0.01001,0.02002,0c0.00995-0.01001,0.00995-0.01001,0.01996,0
			c0.01001-0.01001,0.02002-0.01001,0.03003,0c0.06-0.01001,0.12-0.01001,0.17999-0.01001
			c0.22998-0.01001,0.46002-0.01001,0.67999,0.01001c0.44,0,0.85999,0.03003,1.27002,0.08002
			c0.26996,0.02997,0.52997,0.07001,0.78998,0.12c0.13,0.02002,0.26001,0.03998,0.38,0.07001
			c0.04999,0.01001,0.09003,0.01996,0.13,0.02997c0.19,0.04004,0.37,0.09003,0.54999,0.15002
			c0.12,0.02997,0.22998,0.07001,0.34003,0.12c0.20996,0.07001,0.41998,0.15002,0.60999,0.25
			c0.15002,0.07001,0.29999,0.13,0.42999,0.21997c0.02002,0.01001,0.03003,0.01001,0.04999,0.03003
			c0.10004,0.06,0.20001,0.12,0.29999,0.19c0.11005,0.06,0.22003,0.14001,0.33002,0.22998
			c0.16998,0.13,0.33002,0.27002,0.48999,0.42004c0.16003,0.14996,0.31,0.31,0.45001,0.48999
			c0.12,0.14996,0.23999,0.31,0.35004,0.47998c0.10999,0.15997,0.21997,0.34003,0.31,0.53003
			c0.08997,0.15997,0.16998,0.32996,0.23999,0.5c0.09998,0.22998,0.17999,0.47998,0.26001,0.72998
			c0.04999,0.15997,0.08997,0.33002,0.12994,0.51001c0.04004,0.16998,0.08002,0.34998,0.11005,0.53998
			c0.03998,0.21002,0.07001,0.42999,0.09998,0.65997c0.01001,0.15002,0.01001,0.30005,0.01001,0.46002
			c0,0.60999-0.04999,1.22998-0.13,1.87c-0.03998,0.29999-0.09003,0.62-0.15002,0.92999c-0.04999,0.31-0.12,0.63-0.19995,0.94
			c-0.08002,0.33002-0.17004,0.67004-0.27002,1.01001c0,0.01001,0,0.03003-0.01001,0.03998
			c-0.08997,0.29004-0.17999,0.58002-0.27997,0.87006c-0.11005,0.31-0.22003,0.60999-0.34003,0.91998
			c-0.09003,0.22998-0.17999,0.46997-0.27997,0.70001c-0.14001,0.32996-0.29004,0.66998-0.44,1
			c-0.12006,0.25-0.24005,0.5-0.37006,0.75c-0.06995,0.12-0.12994,0.25-0.18994,0.37
			c-0.15002,0.28998-0.31006,0.57001-0.47003,0.85999c-0.19,0.33002-0.38,0.65002-0.58002,0.97998
			c-0.19995,0.32001-0.39996,0.63-0.60999,0.94c-0.27002,0.42004-0.56,0.83002-0.85999,1.23999
			c-0.16003,0.22003-0.32001,0.43005-0.48999,0.65002c-0.12,0.15002-0.23999,0.29999-0.36005,0.46002
			c-0.17999,0.22998-0.35999,0.44995-0.54999,0.66998C134.29797,192.12024,133.97797,192.48022,133.64801,192.84021z"/>
		<path class="st6" d="M102.99799,207.97021c-0.59998-0.04999-1.19-0.09998-1.77997-0.14996
			c-1.32001-0.14001-2.60004-0.73004-3.90002-1.10999C99.03802,207.22021,100.95801,207.65027,102.99799,207.97021z"/>
		<path class="st6" d="M124.79797,206.34021c-3.02997,1.35004-6.23999,1.96002-9.50995,2.15002
			C118.74799,208.21027,122.04797,207.53021,124.79797,206.34021z"/>
		<path class="st4" d="M59.74799,92.19025v0.21002c0.16998-3.29004,0.28003-6.59003,0.82001-9.83002
			C59.98798,85.57025,59.86798,88.84021,59.74799,92.19025z M58.23798,70.76025c0.33002,0.46997,0.69,0.90997,1.10004,1.28998
			C58.93799,71.66022,58.578,71.22021,58.23798,70.76025z M57.74799,104.70026c0.01001-0.04999,0.04004-0.10004,0.06-0.15002
			c0.78003-2.20001,1.22003-4.46002,1.5-6.72998C58.93799,100.14026,58.388,102.43024,57.74799,104.70026z M55.77802,111.19025
			c-0.31,2.21997-0.35004,4.46002-0.34003,6.71997c0.03998-2.57996,0.16998-5.13995,0.63-7.64996
			C55.96802,110.57025,55.86798,110.88025,55.77802,111.19025z M52.74799,112.98022c0.13,0.23999,0.25,0.5,0.33002,0.79004
			C53.03802,113.50024,52.90802,113.23022,52.74799,112.98022z M49.138,110.67023c0.94,0.23004,1.89001,0.62,2.64001,1.21002
			C50.99799,111.21027,50.078,110.82025,49.138,110.67023z"/>
		<path class="st8" d="M87.04797,208.21027v2.23999C86.98798,209.73022,86.98798,208.98022,87.04797,208.21027z"/>
		<path class="st5" d="M69.28802,70.64026c-1.26001,0.83997-2.54004,1.69-3.82001,2.53998
			C66.51801,72.23022,67.77802,71.38025,69.28802,70.64026z"/>
		<path class="st9" d="M59.33801,72.05023c-0.41003-0.38-0.77002-0.82001-1.10004-1.28998
			C58.578,71.22021,58.93799,71.66022,59.33801,72.05023z"/>
		<path class="st10" d="M92.83801,204.84021c-1.29999-0.60999-2.61005-1.21997-3.92004-1.81995
			c-0.02997-0.10004-0.06-0.19-0.07996-0.29004c-0.28003-0.95001-0.53003-1.90997-0.72003-2.87
			c-0.07996-0.41998-0.14996-0.83997-0.20996-1.27002c-0.07001-0.5-0.13-1-0.16003-1.50995
			c0.08002-0.04004,0.15002-0.07001,0.22003-0.11005c1.59998,2.59003,3.19995,5.16003,4.78998,7.74005v0.00995
			C92.78802,204.76025,92.81799,204.80023,92.83801,204.84021z"/>
		<path class="st10" d="M97.31799,206.71027c-0.51001-0.19-1.02997-0.34003-1.53998-0.54004
			c-0.30005-0.10999-0.60004-0.25-0.88-0.40997c-0.54999-1.85999-1.25-3.53003-1.48999-5.5
			C94.758,202.51025,96.198,204.46027,97.31799,206.71027z"/>
		<path class="st5" d="M166.72797,72.94025c-0.09998,1.77002-0.59998,3.38-1.28998,4.94
			C166.09802,76.22021,166.45801,74.71027,166.72797,72.94025z"/>
		<path class="st10" d="M133.72797,202.09021c-0.84998,0.44-1.69995,0.89001-2.54999,1.33002
			c-0.45996,0.23999-0.91998,0.48004-1.38,0.72003c0.02002-0.03003,0.04004-0.07001,0.05005-0.10004
			c1.39996-2.46997,2.42999-5.26001,4.02997-7.56C134.578,198.46027,134.04797,200.27026,133.72797,202.09021z"/>
		<path class="st10" d="M127.55798,202.07025c-0.10999,0.29999-0.17999,0.63-0.23999,0.96997
			c0,0.03003-0.01001,0.07001-0.02002,0.11005c-0.08997,0.59998-0.15997,1.20996-0.34998,1.75v0.00995
			c-0.12,0.34003-0.28998,0.65002-0.54999,0.90002c-0.29004,0.07001-0.59003,0.14001-0.88,0.21002
			c0-0.01001,0.01001-0.01001,0.01001-0.02002c0.57996-1.13,1.15997-2.27002,1.73999-3.39001
			c0.08997-0.17999,0.19-0.35999,0.27997-0.53998H127.55798z"/>
		<path class="st5" d="M174.54797,107.46027c-0.02997,0.60999-0.06,1.20996-0.08997,1.81995
			c-0.02002,0.52002-0.04999,1.05005-0.08002,1.57001c-0.23999-0.07996-0.47998-0.15997-0.72998-0.23999
			c0.28998-1.02002,0.57996-2.02997,0.87-3.04999C174.52802,107.53021,174.53802,107.49023,174.54797,107.46027z"/>
		<path class="st8" d="M50.26801,219.48022c-0.35999,0.31-0.69,0.62-1,0.94
			C49.56799,220.10022,49.90802,219.79022,50.26801,219.48022z"/>
		<path class="st8" d="M172.18799,219.46027c-0.71002-0.63-1.44-1.24005-2.15997-1.83002
			C170.74799,218.22021,171.47797,218.82025,172.18799,219.46027z"/>
		<path class="st5" d="M86.698,67.80023c-0.06-0.12-0.13-0.23999-0.21002-0.33997
			C86.58801,67.54022,86.64801,67.66022,86.698,67.80023z"/>
		<path class="st5" d="M89.06799,69.29022c-0.21997-0.07001-0.44-0.13-0.65997-0.16998c0.13,0.01001,0.25,0.02002,0.37,0.03003
			C88.87799,69.20026,88.96802,69.25024,89.06799,69.29022z"/>
		<path class="st5" d="M98.24799,70.65027c-1.39996,0.26996-2.81,0.26996-4.26001,0.10999
			c-0.69-0.03003-1.33997-0.19-1.97998-0.40002C94.03802,70.86023,96.14801,70.91022,98.24799,70.65027z"/>
		<path class="st5" d="M99.56799,70.14026c0,0.06,0,0.12-0.01001,0.17999c-0.06-0.09003-0.12-0.16998-0.16998-0.25
			C99.448,70.10022,99.508,70.12024,99.56799,70.14026z"/>
		<path class="st5" d="M122.23798,66.71027c-0.25,0.57996-0.52997,1.13995-0.84998,1.69995
			c-0.45001,0.70001-0.89001,1.45001-1.42999,2.05005C120.888,69.27026,121.638,68.02026,122.23798,66.71027z"/>
		<path class="st5" d="M128.85797,71.02026c-2.03998,0.08997-4.07996,0.16998-6.10999,0.25
			C124.78802,71.15027,126.81799,71.07025,128.85797,71.02026z"/>
		<path class="st11" d="M86.698,67.80023c-0.06-0.12-0.13-0.23999-0.21002-0.33997
			C86.58801,67.54022,86.64801,67.66022,86.698,67.80023z"/>
		<path class="st5" d="M109.638,70.72021c-1.76001,0.69-3.46002,0.08002-5.03998-1.03998
			C106.22797,70.79022,107.948,71.33026,109.638,70.72021z"/>
		<path class="st5" d="M111.90802,71.69025c-0.58002-0.22998-1.16003-0.60999-1.79004-1.17999
			C110.78802,70.96027,111.36798,71.33026,111.90802,71.69025z"/>
		<path class="st11" d="M99.56799,70.14026c0,0.06,0,0.12-0.01001,0.17999c-0.06-0.09003-0.12-0.16998-0.16998-0.25h-0.01001
			c-0.21002-0.31-0.40997-0.60999-0.59998-0.89001C99.03802,69.50024,99.29797,69.82025,99.56799,70.14026z"/>
		<path class="st5" d="M154.58801,67.14026c-0.45001,0.70996-0.97003,1.34998-1.56,1.91998
			C153.52802,68.40027,154.06799,67.76025,154.58801,67.14026z"/>
		<path class="st5" d="M154.40802,70.02026c-0.49005-0.09003-0.90002-0.16003-1.28003-0.23004
			C153.49799,69.79022,153.90802,69.86023,154.40802,70.02026z"/>
		<path class="st12" d="M166.73169,121.17409c1.04173-1.39984,7.15788-9.44674,8.64729-6.26714
			c-1.01184,0.89109-6.06537,4.85172-5.11684,6.09059c2.27614,4.28194,3.94038,10.70705,0.20679,14.6263l0.01361,0.0117
			c1.59109-4.5321,1.03743-9.21969-1.66496-13.20879c-0.81091,0.95142-1.18883,1.45597-1.8674,2.35513
			c-0.06976-1.20898-0.13953-2.41795-0.20917-3.6269C166.74115,121.155,166.73169,121.17409,166.73169,121.17409z"/>
		<path class="st9" d="M167.55798,91.14026c0.12,1.76996-2.03998,4.90997-3.96997,5.88l-0.04004-0.04004
			C164.87799,95.00024,166.10797,93.05023,167.55798,91.14026z"/>
		<path class="st10" d="M172.72797,110.25024c-0.41998,0.14001-0.77997,0.25-1.12994,0.35999
			c-0.01001,0.01001-0.03003,0.01001-0.05005,0.02002c-0.03998,0.01001-0.08997,0.01001-0.13,0
			c0.04004-0.15002,0.08002-0.29999,0.11005-0.46002c0.01001-0.01001,0.01001-0.01001,0.01001-0.01996
			c0.07996-0.32001,0.16998-0.68005,0.27997-1.14001C172.198,109.52026,172.43799,109.86023,172.72797,110.25024z"/>
		<path class="st9" d="M164.73798,90.14026c-0.07001,0.09998-0.13995,0.20996-0.20996,0.31
			c-0.04004-0.03003-0.08002-0.06-0.12-0.09003c0.08997-0.09998,0.16998-0.19,0.25995-0.28998
			C164.68799,90.09021,164.71802,90.12024,164.73798,90.14026z"/>
		<path class="st9" d="M163.758,69.57025c-0.02002,0.08002-0.03998,0.16998-0.06,0.25
			c-0.03003-0.02002-0.04999-0.03003-0.08002-0.04999C163.66797,69.70026,163.70801,69.63025,163.758,69.57025z"/>
		<path class="st9" d="M163.58801,97.02026c-0.04004,0.01996-0.08002,0.04999-0.12,0.06995
			c0.02997-0.03998,0.04999-0.06995,0.07996-0.10999L163.58801,97.02026z"/>
		<path class="st3" d="M114.29964,12.64552c-0.04706-0.19234-0.09411-0.38468-0.14092-0.57707
			C114.20584,12.26077,114.25274,12.45315,114.29964,12.64552z"/>
		<path class="st3" d="M106.90816,18.45397c0.0407-0.13191,0.08141-0.26382,0.12215-0.39572
			C106.98961,18.19016,106.94889,18.32206,106.90816,18.45397z"/>
		<path class="st13" d="M99.50922,122.45675c-1.11213-0.07872-2.1852-0.15469-3.25829-0.23064
			c1.51314,1.63083,4.413,8.28362,3.07177,9.83585c-8.39349,4.26123-18.4835,5.24686-26.98806,0.57852
			c-2.70889-1.64731-5.61869-4.21782-6.04419-7.40688c1.82447-8.09585,11.69956-5.47675,17.8856-5.75369
			c3.38534,0.06284,6.76897,0.21597,10.15422,0.29102C96.52564,119.81959,98.08714,120.98554,99.50922,122.45675z
			 M80.36967,122.22083c-2.49508,0.1051-4.99178,0.28006-7.48795,0.30576c-2.15999-0.00169-3.12764,1.41611-3.81712,3.13483
			c-0.58,1.86073,1.56065,3.5712,2.79311,4.64848c7.40816,5.37294,17.14375,4.97353,25.20425,1.32861
			c1.01714-0.35852,0.79881-1.05666,0.63963-1.85765c-0.92089-6.30696-6.52335-7.14266-11.60073-7.48119
			c2.32253,2.9716,0.93974,7.35963-3.31149,6.40674c-2.08034-0.64603-3.15058-3.45684-1.91553-4.82419
			c1.36144,1.4381,3.87157,0.47121,3.77451-1.66141C83.1956,122.22083,81.78263,122.22083,80.36967,122.22083z"/>
		<path class="st14" d="M156.04959,113.93648c-16.9921-14.18987-36.68328,4.17177-33.96724-7.91764
			c0.15969,0.57427,0.27536,0.99022,0.4674,1.68083c0.63028-1.41261,0.69728-2.57973,2.3121-2.96526
			c5.19246-1.71712,10.53796-1.97229,15.93225-1.65908C148.62659,103.6504,154.05652,105.61808,156.04959,113.93648z"/>
		<path class="st14" d="M98.62894,107.42546c0.08302-0.47509,0.16603-0.95017,0.24413-1.39705
			c3.25934,12.01221-17.99531-6.31213-33.94897,8.08923c0.55738-2.8839,2.06647-5.2573,3.9282-7.4529
			c5.58147-4.30633,13.57089-3.95769,20.2632-3.37627c2.4165,0.2975,4.7854,0.98161,7.17502,1.49393
			c1.40041,0.20325,1.65158,1.50462,2.0521,2.64288C98.43805,107.42535,98.53349,107.4254,98.62894,107.42546z"/>
		<path class="st13" d="M125.05895,122.2103c-1.28916,0.08892-2.34421,0.16168-3.33867,0.23028
			c0.60864-1.16459,2.83219-2.58514,4.49819-2.62877c6.8065-0.17832,13.61409-0.3247,20.4221-0.4272
			c3.88196-0.09853,7.4299,2.07263,8.15381,6.02293c0.07681,0.30773-0.07867,0.71913-0.23117,1.03142
			c-6.2928,11.43662-22.40758,10.99941-32.69602,5.70005c-0.30197-0.18433-0.67047-0.68597-0.61385-0.96379
			C121.91071,127.88746,122.64885,124.77017,125.05895,122.2103z M138.01413,122.38162
			c-2.98772,0.32837-8.74335-0.11509-11.1097,1.41161c-1.41917,1.01035-5.14243,6.57507-3.06544,7.75635
			c8.12771,3.39293,17.12811,4.28419,24.75574-0.80643c3.91821-2.36745,5.28143-6.8383-0.15443-8.17723
			C144.96042,122.38876,141.48972,122.10493,138.01413,122.38162z"/>
		<path class="st15" d="M49.8596,141.40779c-2.19231-4.87405-4.86134-9.74556-4.78941-15.24478
			c0.20295-3.23322-0.74659-7.39677,2.29662-9.57817c0.77122,1.23,3.94721,2.99036,3.05051,4.48898
			c-2.29543,4.23992-3.88013,10.52449-0.23664,14.47607c-1.4248-4.29984-1.23031-9.46468,1.90672-13.0808
			c3.10297,3.56844,1.57615,8.17744,2.15289,12.49812c0.16803,3.80365,0.94283,7.58812,1.007,11.38745
			C52.6793,145.85597,51.54668,143.1302,49.8596,141.40779z"/>
		<path class="st15" d="M170.46895,135.62384c3.73305-3.91965,2.07005-10.34374-0.20624-14.62607
			c-0.74318-1.32378,2.3567-3.27885,3.08394-4.43024c5.48997,5.58127,0.92374,19.17866-2.68683,25.04653
			c0,0,0.01242-0.01593,0.01244-0.0159c-1.48254,1.61057-2.51254,3.92839-4.77504,4.56332
			c0.34433-2.74139,0.89742-5.47594,1.01828-8.23759c0.03185-4.38052,0.02667-8.76131,0.03465-13.14199
			c0.67912-0.89494,1.05589-1.40644,1.86743-2.35514c2.75385,4.0504,3.25995,8.84415,1.59235,13.42662
			C170.4296,135.77687,170.44926,135.70036,170.46895,135.62384z"/>
		<path class="st12" d="M114.70924,161.24934c0.99381-1.14726,2.28582-2.13843,3.87096-1.49557
			c5.31755,1.22504,3.88562-3.84758,2.40498-6.89116c4.93978,1.94316,3.05404,10.75368-2.45261,8.42421
			c-2.18261-0.82974-2.99535,1.56403-3.90845,3.03812c-2.37406,2.23366-5.78901,2.24146-8.31564,0.01901
			c-1.39975-2.90193-2.68391-3.95668-5.83317-2.5379c-4.44279-1.05353-4.62123-6.97852-0.43317-9.08998
			c-0.83072,2.00963-1.99315,3.67169-1.24519,5.82764c0.45396,1.41026,1.27504,1.8549,2.70939,1.44641
			c1.10112-0.31358,2.2158-0.82201,3.28218-0.00604c2.38131,1.46498,2.09766,4.63197,5.27117,4.41815
			c2.64223,0.03259,3.46643-0.47562,4.25563-2.63104c0.05395-0.0699,0.10796-0.13976,0.16198-0.20963
			c-0.00001,0-0.00187,0.002-0.00182,0.00201C114.55342,161.45883,114.63133,161.35408,114.70924,161.24934z"/>
		<path class="st12" d="M53.97818,125.49356c-0.60565-0.96881-1.21131-1.93761-1.89077-3.02447
			c-3.13669,3.61581-3.33179,8.78075-1.90672,13.0808c-3.64329-3.95351-2.05914-10.23413,0.2361-14.47581
			c1.15989-1.32751-4.0507-5.17885-5.09253-6.15809c1.83416-3.11279,6.67628,4.11626,8.00502,5.53435
			C54.25792,121.87937,53.97366,123.84531,53.97818,125.49356z"/>
		<path class="st12" d="M118.62188,127.60599c2.32644,6.50877,1.16784,13.27533,0.11623,19.87292
			c-0.10865,0.00589-0.21729,0.0118-0.32594,0.01768c-0.81049-6.53912,0.11316-13.22935-0.18279-19.82701
			C118.36021,127.64838,118.49105,127.62719,118.62188,127.60599z"/>
		<path class="st16" d="M114.31541,161.7735c-0.79247,2.15419-1.61318,2.66113-4.25565,2.62871
			c-1.87159-0.02298-2.62613-0.57167-3.2749-2.38081C109.15056,162.99695,112.06422,163.08163,114.31541,161.7735z"/>
		<path class="st15" d="M100.47539,161.80571c3.1587-1.42026,4.42846-0.36162,5.83308,2.53824
			C104.22286,163.82254,102.2105,163.13274,100.47539,161.80571z"/>
		<path class="st15" d="M114.6241,164.32486c1.55551-3.01065,2.27363-3.88782,5.66374-2.51807
			C118.63297,163.12111,116.55625,163.56989,114.6241,164.32486z"/>
		<path class="st12" d="M49.8596,141.40779c1.6869,1.72215,2.81974,4.4483,5.38769,4.94687
			c0.13876,0.4216,0.27792,0.8428,0.41707,1.26401c-0.08007,0.05737-0.16014,0.11473-0.2402,0.17212
			C52.54311,146.60536,50.96136,144.22694,49.8596,141.40779z"/>
		<path class="st12" d="M165.89722,146.16148c2.26215-0.63467,3.29268-2.95287,4.77504-4.56332
			c-0.83469,2.40468-2.86006,4.85336-5.09818,6.07991C165.70952,147.04239,165.80336,146.60194,165.89722,146.16148z"/>
		<path class="st12" d="M170.65982,141.61406c0.05141-0.12271,0.10283-0.24542,0.1541-0.368
			C170.76247,141.3688,170.71115,141.49144,170.65982,141.61406z"/>
		<path class="st16" d="M114.70924,161.24934c-0.07791,0.10474-0.15582,0.20949-0.23377,0.31422
			C114.55338,161.45882,114.63131,161.35408,114.70924,161.24934z"/>
		<path class="st16" d="M114.47729,161.56155c-0.05402,0.06987-0.10803,0.13972-0.16198,0.20963
			C114.36935,161.70134,114.42332,161.63145,114.47729,161.56155z"/>
		<path class="st16" d="M106.60557,161.7868c-0.05062-0.06723-0.10124-0.13448-0.15189-0.20168
			C106.5043,161.65236,106.55494,161.71959,106.60557,161.7868z"/>
		<path class="st17" d="M105.32352,196.99858c-0.7777,2.59004-2.66393,3.09503-5.13107,3.07492
			c-9.65572-0.65274-21.53635-15.04518-20.65816-24.62045c2.59803-11.73949,20.06346-2.06874,28.16128-2.64816
			c5.07561,0.30132,10.03725-0.38881,14.98344-1.41324c6.23987-1.25584,17.44617-4.71948,18.51341,4.70065
			c0.36815,10.21249-11.85962,25.33638-22.73743,23.89296c-1.8567-0.16206-2.52959-1.46083-3.10328-2.92181
			c1.01842-0.59369,3.36559-0.60635,3.1906-2.1879c-5.5834,0-11.12923,0-16.67503,0
			c-0.05779,0.10031-0.11556,0.20064-0.17335,0.30095C102.70794,196.1848,103.97045,196.63927,105.32352,196.99858z
			 M110.96936,190.38051c10.43436,0.36008,19.27122-6.78514,24.06699-15.59303c0.51962-0.905,0.96935-1.58231,2.1953-1.19934
			c0.79962,0.10736,1.62201-0.98781,1.05528-1.77464c-0.77563-1.22412-3.53079-1.59337-4.68872-0.73595
			c-14.27353,4.58455-33.78556,4.75389-47.7995-0.62845c-1.16315,0.07529-3.64813,0.3967-3.26897,1.90387
			c0.2141,0.9015,0.88698,1.00243,1.67026,0.90231c0.70752-0.09045,1.18042,0.13524,1.55005,0.84035
			C90.88319,183.85812,99.64023,190.44536,110.96936,190.38051z"/>
		<path class="st16" d="M105.32352,196.99858c-1.35311-0.3593-2.61564-0.81386-3.6296-1.82208
			c0.05779-0.10031,0.11556-0.20064,0.17335-0.30095c5.54581,0,11.09163,0,16.67503,0
			C118.07825,198.3763,108.00853,197.14789,105.32352,196.99858z"/>
		<path class="st10" d="M68.43744,175.04581c1.27834,4.06497,2.55668,8.12994,3.87481,12.32143
			c-1.03765-0.31706-1.64725-1.0154-1.82837-2.35208c-0.51624-3.41937-2.43657-6.36929-2.53101-9.86819
			C68.1144,175.11325,68.27592,175.07953,68.43744,175.04581z"/>
		<path class="st10" d="M141.93555,194.16074c1.73973-3.24548,2.36429-6.82961,3.67488-10.23154
			c0.31113,6.11548-0.6312,5.46399-3.23007,10.41415C142.23209,194.28249,142.08382,194.2216,141.93555,194.16074z"/>
		<path class="st10" d="M127.55007,202.06804c0.02426-0.08093,0.04851-0.1619,0.07276-0.24284
			c0.0234,0.01607,0.04679,0.03212,0.07019,0.04816c-0.04616,0.06639-0.09232,0.13277-0.13844,0.19919
			C127.55463,202.07256,127.55007,202.06804,127.55007,202.06804z"/>
		<path class="st10" d="M125.5276,206.00087c-0.06941,0.04964-0.13883,0.09926-0.20824,0.1489
			C125.38877,206.10013,125.45819,206.05051,125.5276,206.00087z"/>
		<path class="st2" d="M219.36798,127.72021c0.70007,4.59003,1.02002,9.24005,1.52002,13.85004
			c0.02002,0.20001,0.10999,0.39996,0.16003,0.58997V-5.63977H0.08801v147.23999c-0.14001,3.42999-0.11005,6.86005,0.07001,10.28003
			c-0.03003-0.19-0.05005-0.38-0.07001-0.57001v105.63h110.28998c2.88,0.02002,5.73999,0.06,8.59003-0.39001
			c2.98999-0.34998,5.97998-0.71002,8.96997-1.06c0.48999-0.08997,0.97998-0.16998,1.47998-0.26001
			c6.84003-1.14996,13.52002-2.94,19.95001-5.34998c-10.63,4.08997-21.98999,6.53998-33.76001,7.06h105.44006V150.93024
			c-0.38013,10.83002-2.41003,21.32001-5.86011,31.20001c10.1001-30.47998,6.33008-64.72003-9.85986-92.40002
			c2.05994,3.44,3.94995,7.03003,5.67993,10.76001C215.03802,109.18024,217.92792,118.25024,219.36798,127.72021z
			 M164.73798,90.14026c0.44-0.34003,0.86005-0.71002,1.26001-1.10004c-0.46997,0.5-0.95996,0.96002-1.46997,1.41003
			c-0.04004-0.03003-0.08002-0.06-0.12-0.09003c0.28998-0.41998,0.56-0.87,0.81995-1.31c-0.18994,0.34003-0.37,0.67999-0.56,1.02002
			C164.68799,90.09021,164.71802,90.12024,164.73798,90.14026z M167.55798,91.14026c0.12,1.76996-2.03998,4.90997-3.96997,5.88
			c-0.04004,0.01996-0.08002,0.04999-0.12,0.06995c0.02997-0.03998,0.04999-0.06995,0.07996-0.10999
			C164.87799,95.00024,166.10797,93.05023,167.55798,91.14026z M166.72797,72.94025
			c0.01001-0.16998,0.02002-0.34003,0.02002-0.51001c0.12-0.58002,0.21002-1.15997,0.26001-1.72998
			C166.92798,71.50024,166.828,72.24023,166.72797,72.94025c-0.09998,1.77002-0.59998,3.38-1.28998,4.94
			C166.09802,76.22021,166.45801,74.71027,166.72797,72.94025z M164.138,67.28021c-0.09003,0.75-0.22003,1.51001-0.38,2.29004
			c0.52002-0.83002,0.94-1.70001,1.25-2.59003c-0.31,0.98004-0.75,1.92999-1.31,2.84003
			c-0.03003-0.02002-0.04999-0.03003-0.08002-0.04999C163.83801,68.93024,164.01801,68.11023,164.138,67.28021z M165.42798,77.90027
			c-0.54999,1.37994-1.31,2.85999-2.38995,4.66998C163.85797,80.99023,164.73798,79.47021,165.42798,77.90027z M159.87799,67.20026
			c-0.12,0.76001-0.31,1.51001-0.57001,2.25L159.87799,67.20026z M159.29797,69.47021c0,0.03003-0.00995,0.06-0.01996,0.09003
			v0.01001c0.15997-0.06,0.32001-0.13,0.46997-0.21002c-0.15997,0.10004-0.33002,0.20001-0.51001,0.29004
			C159.258,69.59021,159.27802,69.53021,159.29797,69.47021z M140.09802,67.40027c-0.04004,0.06-0.08002,0.10999-0.12006,0.16998
			c-0.06995,0.09998-0.25995,0.10999-0.45996,0.12C139.74799,67.65027,139.93799,67.55023,140.09802,67.40027z M122.23798,66.71027
			c-0.25,0.57996-0.52997,1.13995-0.84998,1.69995c-0.45001,0.70001-0.89001,1.45001-1.42999,2.05005
			C120.888,69.27026,121.638,68.02026,122.23798,66.71027z M111.90802,71.69025c-0.58002-0.22998-1.16003-0.60999-1.79004-1.17999
			C110.78802,70.96027,111.36798,71.33026,111.90802,71.69025z M109.638,70.72021c-1.76001,0.69-3.46002,0.08002-5.03998-1.03998
			C106.22797,70.79022,107.948,71.33026,109.638,70.72021z M86.698,67.80023c-0.06-0.12-0.13-0.23999-0.21002-0.33997
			C86.58801,67.54022,86.64801,67.66022,86.698,67.80023z M68.55798,68.26025c-0.44-0.17999-0.89996-0.33002-1.21997-0.64001
			c-0.19-0.16998-0.39001-0.34003-0.58002-0.51001C67.328,67.55023,67.92798,67.93024,68.55798,68.26025z M59.33801,72.05023
			c-0.41003-0.38-0.77002-0.82001-1.10004-1.28998C58.578,71.22021,58.93799,71.66022,59.33801,72.05023z M0.15802,151.91022
			c0.09998,0.80005,0.20996,1.59003,0.25995,2.39001c0.13,2.12,0.32001,4.23999,0.58002,6.34003
			C0.59802,157.75024,0.31799,154.83026,0.15802,151.91022z M87.04797,208.21027v2.23999
			C86.98798,209.73022,86.98798,208.98022,87.04797,208.21027c-1.82996,0.25-3.64996,0.50995-5.47998,0.75995
			c2.63-0.38995,5.26001-0.78998,7.90002-1.20996C88.59802,207.92023,87.81799,208.06024,87.04797,208.21027z M134.078,208.04022
			c-0.15002-0.03998-0.28998-0.07996-0.41998-0.09998c0.47998,0.06,1.01996,0.21997,1.52997,0.33997
			C134.81799,208.20026,134.448,208.12024,134.078,208.04022z M135.258,208.51025c0.19-0.04004,0.35999-0.07001,0.53003-0.10004
			c0.06,0.01001,0.12,0.02002,0.16998,0.02002h0.53998c1.10004,0.13,2.20001,0.27002,3.29999,0.41998
			C138.28802,208.70026,136.77802,208.58026,135.258,208.51025z M177.258,134.49023
			c-0.08008,0.26001-0.15002,0.52002-0.21997,0.78003c-0.04004,0.15997-0.09009,0.31995-0.14001,0.47998
			c-0.84998,2.92999-1.82996,5.40997-2.70001,6.90002c-0.02002,0.02997-0.03003,0.06-0.04999,0.08997
			c-1.67999,2.84998-3.85999,5.41003-5.70001,8.16003c-1.08002,1.70996-2.34998,3.18994-4.28998,3.95996
			c-0.99005,7.35999-1.84003,13.16003-3.03003,17.97003c-0.06,0.27997-0.13,0.56-0.21002,0.83997
			c-0.22998,0.89001-0.46997,1.73999-0.72998,2.57001c-0.10999,0.35999-0.22998,0.71002-0.34998,1.06
			c-0.87,2.62-1.98999,5.14001-3.48004,7.51001c-1.09998,1.5-2.31,2.89001-3.62,4.15002
			c-0.22998,0.21997-0.45996,0.44995-0.69,0.67999c-0.26996,0.25-0.54999,0.51001-0.82996,0.76996
			c-0.05005,0.04004-0.10004,0.09003-0.14001,0.13c-0.28003,0.25-0.57001,0.5-0.85999,0.75
			c-0.31,0.26001-0.62,0.53003-0.95001,0.78003c-0.23999,0.20001-0.47998,0.39001-0.72998,0.58997
			c-0.75,0.59003-1.54004,1.17999-2.38,1.78003c-0.01001,0.01001-0.03003,0.02002-0.05005,0.03998
			c-0.44,0.31-0.88995,0.62-1.35999,0.94c-1.14001,0.77002-2.35999,1.56-3.65997,2.35999
			c-0.36005,0.23004-0.73999,0.46002-1.12,0.69c-1.90002,1.15002-3.98004,2.35004-6.24005,3.62
			c-0.81995,0.49005-1.67999,0.92004-2.54999,1.33002c-0.45996,0.23999-0.91998,0.48004-1.38,0.72003
			c-0.58997,0.26001-1.17999,0.51996-1.75995,0.76996c-0.56006,0.28003-1.11005,0.58002-1.64001,0.90002
			c-0.29004,0.07001-0.59003,0.14001-0.88,0.21002c0-0.01001,0.01001-0.01001,0.01001-0.02002
			c-0.23999,0.12-0.48004,0.22998-0.73004,0.33997c-3.02997,1.35004-6.23999,1.96002-9.50995,2.15002
			c-0.05005,0-0.10004,0-0.16003,0.01001c-4.03998,0.31-8.27997,0.07001-12.13-0.53003
			c-0.59998-0.04999-1.19-0.09998-1.77997-0.14996c-1.32001-0.14001-2.60004-0.73004-3.90002-1.10999
			c-0.51001-0.19-1.02997-0.34003-1.53998-0.54004c-0.13-0.03998-0.25-0.08997-0.37-0.13
			c-0.32001-0.15997-0.65002-0.32001-0.98004-0.48999c-0.02997-0.02002-0.06-0.02997-0.09998-0.04999
			c-0.48999-0.22003-0.98999-0.44-1.48999-0.66003c-1.29999-0.60999-2.61005-1.21997-3.92004-1.81995
			c-2.65997-1.48004-5.07996-2.86005-7.26996-4.18005c-0.08002-0.04999-0.15002-0.09998-0.23004-0.13995
			c-7.91998-4.61005-15.44-10.31-18.85999-17.76001c-0.34998-0.85999-0.66998-1.72003-0.95996-2.60004
			c-0.06-0.15997-0.12006-0.31995-0.17004-0.47998c-2.07001-5.58002-3.23999-12.63-4.41998-22.45996
			c-0.06-0.18005-0.13-0.38-0.20001-0.56006c-1.31-0.31995-2.26996-1.06-3.08002-1.96997
			c-0.01996-0.03003-0.03998-0.04999-0.06-0.07001c-1.02997-1.03998-1.87994-2.29999-2.70996-3.58002
			c-0.02002-0.01996-0.03003-0.03998-0.03003-0.04999c-0.88995-1.20001-1.76996-2.40997-2.59998-3.64996l-0.01001-0.01001
			c-0.02997-0.04004-0.07001-0.08002-0.09998-0.12c-0.34003-0.5-0.67004-1.02002-0.98004-1.57001
			c-0.01001-0.02002-0.01996-0.03003-0.02997-0.04999c-1.54004-2.53003-2.82001-5.20001-3.51001-8.15002
			c0-0.01001-0.01001-0.03003-0.01001-0.03998c-1.21997-3.92999-1.96002-8.19-1.98999-12.21002
			c-0.01001-0.03003-0.01001-0.06,0-0.09003c0-0.00995,0-0.00995,0-0.01996c-0.19-3.60004,0.14001-7.12,1.63-9.57001
			c0.02002-0.04999,0.04999-0.10004,0.08997-0.15002c0.78003-1.57996,2.22003-2.56,3.80005-2.83997
			c0.00995-0.01001,0.01996-0.01001,0.02997-0.01001c0.31-0.08002,0.64001-0.15002,0.97998-0.20001
			c0.29004,0.03998,0.59003,0.09998,0.89001,0.17999c0.01001,0,0.01001,0,0.02002,0c0.94,0.15002,1.85999,0.54004,2.64001,1.21002
			c0.07001,0.06,0.14996,0.12,0.20996,0.19c0.08002,0.07001,0.16003,0.14001,0.22003,0.21997
			c0.14001,0.13,0.26001,0.28003,0.37,0.44c0.06,0.08002,0.10999,0.16003,0.16998,0.25
			c0.16003,0.25,0.29004,0.52002,0.33002,0.79004c0.73999,3.88995,1.20001,7.82996,2.25,11.65997
			c0.09998-2.46002,0.06-4.91998,0.10999-7.37v-0.15002c-0.01001-2.25995,0.03003-4.5,0.34003-6.71997
			c0.08997-0.31,0.19-0.62,0.28998-0.92999c0-0.01001,0-0.02002,0-0.02002c0.34003-1.87,0.85999-3.71002,1.66998-5.52002
			c0-0.00995,0-0.00995,0.01001-0.01996c0.64001-2.27002,1.19-4.56,1.56-6.88c0-0.02002,0.01001-0.04999,0.01001-0.07001
			c0.21002-1.77002,0.33002-3.54999,0.42999-5.33002c0-0.01001,0-0.01001,0-0.01996v-0.21002
			c0.12-3.35004,0.23999-6.62,0.82001-9.62c0.01001-0.08002,0.02002-0.15002,0.03998-0.22003
			c0.39001-1.95996,0.99005-3.78998,1.92004-5.46997c0.23999-0.40002,0.47998-0.79999,0.72998-1.20001
			c0.21997-0.35999,0.44-0.71997,0.65997-1.08002c0.25-0.29999,0.5-0.58997,0.75-0.88995
			c0.27002-0.18005,0.53003-0.36005,0.80005-0.53003c1.04999-0.95001,2.31-1.79999,3.82001-2.53998
			c-0.23004-0.22003-0.59003-0.55005-1.07001-1c0.62-0.22003,1.03998-0.36005,1.46997-0.51001
			c-0.10999-0.25-0.28998-0.41998-0.5-0.56c0.03998,0.01996,0.07001,0.02997,0.10999,0.04999
			c0.73004,0.53998,1.5,0.94,2.30005,1.23999c0.00995,0.01001,0.00995,0.01001,0.01996,0.01001
			c0.01001,0.01001,0.01001,0.02002,0.02002,0.01001c1.85999,0.58002,3.79999,0.75,5.76001,0.58997
			c0.35999-0.00995,0.72998-0.02997,1.08997-0.06c0.03003,0,0.05005-0.00995,0.08002-0.00995
			c0.56-0.06006,1.12-0.14001,1.69-0.23004c1.65002-0.27997,3.32001-0.67999,4.96997-0.89996
			c0.06006-0.02002,0.11005-0.02002,0.17004-0.03003c0.01996,0,0.02997,0,0.04999-0.01001
			c0.60999-0.09998,1.21002-0.19,1.79999-0.26001c-1.06-0.60999-2.02997-1.28998-2.90997-2.01996
			c0.77997,0.53998,1.62,0.98999,2.52997,1.31c-0.06-0.13-0.09998-0.29004-0.15997-0.42999
			c0.17999,0.37,0.31,0.82001,0.53998,1.13995c0.40002,0.01001,0.78003,0.06,1.16003,0.15002
			c0.13,0.01001,0.25,0.02002,0.37,0.03003c0.09998,0.04999,0.19,0.09998,0.28998,0.13995c0.98999,0.29004,1.94,0.75,2.94,1.07001
			c2.03003,0.5,4.14001,0.54999,6.23999,0.29004c0.03003,0,0.06-0.01001,0.09003-0.01001
			c0.40997-0.09003,0.82001-0.19,1.21997-0.32001c-0.06-0.09003-0.12-0.16998-0.16998-0.25h-0.01001
			c-0.21002-0.31-0.40997-0.60999-0.59998-0.89001c0.26001,0.32001,0.51996,0.64001,0.78998,0.96002c0,0.06,0,0.12-0.01001,0.17999
			c0.42999-0.04004,0.85999-0.08002,1.29004-0.13c3.81995,1.26001,7.71997,2.19,11.76996,1.96002
			c-0.22998-0.15002-0.45996-0.30005-0.70001-0.46002c0.56,0.22998,1.11005,0.33002,1.68005,0.34998c0,0,0.00995,0,0.01996,0
			c1.58002-0.17999,3.17004-0.33997,4.75-0.45996c0.01001,0,0.01001,0,0.02002,0c0.59998-0.19,1.08002-0.57001,1.5-1.04004
			c-0.22998,0.29999-0.47003,0.59003-0.72998,0.88c1.16998-0.04999,2.32996-0.08997,3.5-0.14001c0.02997,0,0.06,0,0.08997-0.00995
			c2.04004-0.12,4.07001-0.20001,6.10999-0.25c3.25,0.32996,6.37-0.35004,9.33002-1.65002
			c0.97998,0.39001,1.97003,0.77002,2.95001,1.15997c0.01001,0,0.02002,0,0.02997,0.01001
			c2.18005,0.76001,4.42004,1.28003,6.66003,1.06c0.12-0.01996,0.23999-0.02997,0.37-0.04999
			c1.90997-0.33997,3.52997-1.21997,4.83002-2.48999c0.5-0.65997,1.03998-1.29999,1.56-1.91998
			c-0.45001,0.70996-0.97003,1.34998-1.56,1.91998c-0.16003,0.21002-0.31,0.41998-0.46002,0.64001
			c0.17999,0.02997,0.35999,0.06,0.54999,0.08997c0,0,0,0,0.01001,0c0.37,0,0.78003,0.07001,1.28003,0.23004
			c-0.41003,0.53998-0.70001,0.94-1.03003,1.38c0.17999,0.00995,0.32001,0.02997,0.47003,0.03998
			c1.09998-1.22998,2.29999-2.39001,3.32996-3.66998c-0.82996,1.12-1.91998,2.26996-3.32996,3.66998
			c1.06995,0.58002,1.98999,1.25,2.77997,2.01001c0.13,0.10999,0.26001,0.22998,0.38,0.34998
			c2.32001,2.23999,3.48999,5.26001,4.10999,8.58002c0.06,0.29999,0.12,0.59998,0.16003,0.90997
			c0.04999,0.29999,0.08997,0.61005,0.13,0.92004c0.12,0.85999,0.20996,1.73999,0.26996,2.62
			c0.03003,0.32001,0.04999,0.63995,0.07001,0.95996c0.04004,0.65002,0.08002,1.31,0.10999,1.96002
			c0.08002,1.69,0.14001,3.35999,0.23004,4.98999c0.02997,0.53998,0.07001,1.08002,0.12,1.60999
			c0.04999,0.60004,0.10999,1.17999,0.19,1.75c0.17999,5.39001,3.58997,10.07001,3.64996,15.42999
			c0.14001,3.72003-0.50995,7.55005-0.16998,11.20001c0.28998-1.17999,0.58002-2.37,0.84998-3.56
			c0.09003-1.01996,0.22003-2.03998,0.39001-3.03998c0.17999-1.51001,0.40002-3.16998,0.88-4.48999
			c0.02002-0.08002,0.03003-0.16003,0.04999-0.23999c0.15002-0.79004,0.58002-1.30005,1.13-1.70001
			c0.26001-0.23004,0.54999-0.41003,0.88-0.51001c0.02002-0.01001,0.04999-0.02002,0.07001-0.02002
			c0.28003-0.13,0.57001-0.25,0.84998-0.35999c0.01001,0,0.02002-0.01001,0.02002-0.01001
			c0.23999-0.15997,0.41003-0.35999,0.53003-0.63c0.01001-0.01001,0.01001-0.01001,0.01001-0.01996
			c0.07996-0.32001,0.16998-0.68005,0.27997-1.14001c0.38,0.51001,0.62,0.84998,0.90997,1.23999
			c-0.41998,0.14001-0.77997,0.25-1.12994,0.35999h2.04999c0.28998-1.02002,0.57996-2.02997,0.87-3.04999
			c0.01001-0.03003,0.02002-0.07001,0.02997-0.09998c-0.02997,0.60999-0.06,1.20996-0.08997,1.81995
			c-0.02002,0.52002-0.04999,1.05005-0.08002,1.57001c0.47998,0.26001,0.91003,0.57001,1.30994,0.92004
			c2.33008,1.72998,3.29004,5.19995,3.40015,9.25995c0.01001,0.27002,0.01001,0.54004,0.01001,0.81
			C179.16791,125.93024,178.36798,130.50024,177.258,134.49023z"/>
		<path class="st18" d="M90.79369,122.89729c3.65961,0.2737,6.4737,3.35381,6.98742,7.3427
			c0.18,0.68501,0.04366,1.08717-0.71912,1.39877c-8.06034,3.64447-17.79655,4.04431-25.20399-1.32924
			c-1.24483-1.08275-3.36192-2.78156-2.79369-4.64796c0.68977-1.71887,1.65742-3.13667,3.81741-3.13501
			c1.49032,0.00115,2.98072-0.10277,4.47108-0.15972C72.90474,135.18906,93.50834,136.38519,90.79369,122.89729z"/>
		<path class="st19" d="M90.79369,122.89729c2.71051,13.4974-17.8911,12.28225-13.44088-0.53045
			c1.00562-0.04868,2.01124-0.09735,3.01685-0.14601c0.16806,0.5538,0.33613,1.1076,0.5042,1.66141
			c-1.23505,1.36735-0.16481,4.17816,1.91574,4.82407c4.25315,0.95233,5.63279-3.43607,3.31128-6.40662
			C87.66515,122.49888,89.22942,122.69808,90.79369,122.89729z"/>
		<path class="st20" d="M80.87386,123.88223c-0.16807-0.55381-0.33614-1.1076-0.5042-1.66141c1.41297,0,2.82594,0,4.27871,0
			C84.74557,124.3531,82.23528,125.32058,80.87386,123.88223z"/>
		<path class="st18" d="M143.78464,122.35339c3.10432,0.08469,7.72273-0.28616,8.38211,3.72366
			c-2.55272,7.44881-14.1936,9.3836-21.06889,7.75523c-1.0986-0.42337-8.60545-2.04184-7.86732-3.2327
			c0.51562-3.64595,2.97371-8.03381,7.12515-7.68314C127.01259,136.08157,147.88489,135.40454,143.78464,122.35339z"/>
		<path class="st19" d="M143.78464,122.35339c4.09702,13.06127-16.77526,13.71853-13.42896,0.56305
			c1.11124-0.12053,2.22247-0.24105,3.33369-0.36156c0.13966,0.43401,0.27936,0.868,0.41904,1.30199
			c-1.27895,2.16106,0.47543,4.43033,1.99704,4.86395c3.82515,1.18762,6.26848-4.25002,2.84935-6.3464
			C140.56499,122.15153,142.17026,122.20882,143.78464,122.35339z"/>
		<path class="st11" d="M138.9548,122.37441c3.41887,2.09693,0.97591,7.53413-2.84955,6.34632
			c-1.52141-0.43355-3.27579-2.70281-1.99684-4.86388c1.67099,1.38152,3.41753,0.72183,3.90572-1.47523
			C138.32768,122.37922,138.64125,122.37682,138.9548,122.37441z"/>
		<path class="st20" d="M138.01413,122.38162c-0.42397,2.86325-3.95691,2.89027-4.32475,0.17325
			C135.13098,122.49712,136.57254,122.43936,138.01413,122.38162z"/>
		<path class="st12" d="M170.46895,135.62384c-0.01968,0.07652-0.03935,0.15303-0.05902,0.22954
			C170.42152,135.77934,170.49277,135.68651,170.46895,135.62384z"/>
		<path class="st21" d="M110.96936,190.38051c-11.32639,0.06609-20.08988-6.52332-25.21928-16.285
			c-0.36967-0.70499-0.84257-0.93068-1.55009-0.84023c-2.68617,0.19447-2.32877-2.85406,1.59875-2.80719
			c14.00767,5.38136,33.52273,5.21573,47.7995,0.63078c1.15788-0.85875,3.91304-0.4895,4.68886,0.73462
			c0.5253,0.78967-0.21144,1.87935-1.05562,1.77464c-1.2258-0.38297-1.67552,0.29434-2.19501,1.19954
			C130.2403,183.59476,121.40399,190.74142,110.96936,190.38051z M90.57392,177.27435
			c7.33817,11.44032,24.85937,14.66997,35.15734,5.37894c2.69492-2.4133,4.80017-5.39145,6.94893-8.28372
			c-14.80079,3.07921-29.43926,3.27078-44.21136,0.01294C89.17054,175.34647,89.87223,176.31041,90.57392,177.27435z"/>
		<path class="st22" d="M129.25258,178.96736c-8.7703,12.14027-27.9782,11.85757-37.15226,0.34785
			C104.18919,182.32059,117.19636,182.09097,129.25258,178.96736z"/>
		<path class="st20" d="M90.57393,177.27435c-0.7017-0.96394-1.40339-1.92789-2.10509-2.89185
			c14.77209,3.25784,29.41057,3.06627,44.21136-0.01294c-2.92195,5.10274-10.70917,4.86644-15.98447,5.42804
			C107.92796,180.05266,98.93631,180.36407,90.57393,177.27435z"/>
		<path class="st23" d="M90.57392,177.27435c4.1182,1.35674,8.36108,2.40683,12.7071,2.52373
			c9.20028,0.15108,18.70292,0.75891,27.40337-2.76108C129.21284,182.57468,92.02742,183.11847,90.57392,177.27435z"/>
	</g>
</g>
</svg>
