<?xml version="1.0" encoding="utf-8"?>
<!-- Generator: Adobe Illustrator 25.3.0, SVG Export Plug-In . SVG Version: 6.00 Build 0)  -->
<svg version="1.1" id="Layer_1" xmlns="http://www.w3.org/2000/svg" xmlns:xlink="http://www.w3.org/1999/xlink" x="0px" y="0px"
	 viewBox="0 0 128 128" style="enable-background:new 0 0 128 128;" xml:space="preserve">
<path class="st0" d="M122,0H6C2.7,0,0,2.7,0,6v116c0,3.3,2.7,6,6,6h116c3.3,0,6-2.7,6-6V6C128,2.7,125.3,0,122,0z M69,64.5H50.7V116
	H36.2V64.5H18V53h51V64.5z M115,107.1c-1.3,2.4-3.1,4.3-5.4,5.8c-2.3,1.5-4.9,2.5-7.9,3.2c-3,0.6-6.2,1-9.5,1
	c-3.4,0-6.7-0.3-9.8-0.9c-3.1-0.6-5.8-1.5-8.1-2.6v-14c2.5,2.1,5.3,3.7,8.3,4.8c3,1.1,6,1.6,9,1.6c1.8,0,3.3-0.2,4.7-0.5
	c1.3-0.3,2.4-0.8,3.3-1.3s1.5-1.2,2-2c0.4-0.8,0.7-1.6,0.7-2.5c0-1.2-0.4-2.3-1-3.3c-0.7-1-1.7-1.8-2.9-2.7
	c-1.2-0.8-2.6-1.6-4.3-2.4c-1.7-0.8-3.5-1.5-5.4-2.3c-4.9-2-8.5-4.5-10.9-7.5c-2.4-3-3.6-6.5-3.6-10.7c0-3.3,0.7-6.1,2-8.4
	c1.3-2.3,3.1-4.3,5.4-5.8s4.9-2.6,7.8-3.4c3-0.7,6.1-1.1,9.4-1.1c3.3,0,6.2,0.2,8.7,0.6c2.5,0.4,4.8,1,7,1.8v13.1
	c-1-0.7-2.2-1.4-3.4-1.9c-1.2-0.6-2.5-1-3.8-1.4c-1.3-0.4-2.6-0.6-3.9-0.8c-1.3-0.2-2.5-0.3-3.7-0.3c-1.6,0-3.1,0.2-4.4,0.5
	c-1.3,0.3-2.4,0.7-3.3,1.3c-0.9,0.5-1.6,1.2-2.1,2c-0.5,0.8-0.7,1.6-0.7,2.6c0,1,0.3,2,0.8,2.8c0.5,0.8,1.3,1.6,2.4,2.4
	c1,0.8,2.3,1.5,3.7,2.2c1.5,0.7,3.1,1.5,4.9,2.2c2.5,1,4.8,2.2,6.8,3.3c2,1.2,3.7,2.5,5.1,4c1.4,1.5,2.5,3.2,3.3,5.1
	c0.8,1.9,1.1,4.1,1.1,6.7C117,101.8,116.3,104.7,115,107.1z"/>
</svg>
