<?xml version="1.0" encoding="UTF-8"?>
<svg id="Layer_2" data-name="Layer 2" xmlns="http://www.w3.org/2000/svg" viewBox="0 0 236 236">
  <defs>
    <style>
      .cls-1 {
        fill: #fff;
      }
    </style>
  </defs>
  <g id="Layer_1-2" data-name="Layer 1">
    <path class="cls-1" d="m118,0C52.8,0,0,52.8,0,118s52.8,118,118,118,118-52.8,118-118S183.2,0,118,0Zm78.54,114.79c4.85,4.73,4.85,12.64-.13,17.62l-4.47,4.47c-4.98,4.85-12.9,4.85-17.75,0l-5.24-5.24v49.68h-34.23v-27.71h-27.2v27.71h-34.48v-50.06l-5.75,5.75c-4.98,4.85-12.9,4.85-17.75,0l-4.47-4.47c-4.85-4.85-4.85-12.9,0-17.75L111.35,47.48c2.55-2.55,6-3.83,9.45-3.7,3.32-.13,6.77,1.02,9.45,3.7l66.29,67.31Z"/>
  </g>
</svg>