<?xml version="1.0" encoding="utf-8"?>
<!-- Generator: Adobe Illustrator 25.3.0, SVG Export Plug-In . SVG Version: 6.00 Build 0)  -->
<svg version="1.1" id="visual" xmlns="http://www.w3.org/2000/svg" xmlns:xlink="http://www.w3.org/1999/xlink" x="0px" y="0px"
	 width="900px" height="204.4px" viewBox="0 0 900 204.4" style="enable-background:new 0 0 900 204.4;" xml:space="preserve">
<style type="text/css">
	.st0{fill:#C4B1EF;}
	.st1{display:none;fill:#9A74EF;}
	.st2{display:none;fill:#6A2FEA;}
</style>
<path class="st0" d="M0,29.4l18.8,5.2c18.9,5.1,56.5,15.5,94,11.6c37.5-3.8,74.9-21.8,112.4-24.8s75.1,9,112.6,23.3
	c37.5,14.4,74.9,31,112.4,25.9c37.5-5.2,75.1-32.2,112.6-34.4c37.5-2.1,74.9,20.5,112.4,16.5s75.1-34.6,112.6-38.6
	s74.9,18.6,93.5,30L900,55.4v150h-18.7c-18.6,0-56,0-93.5,0s-75.1,0-112.6,0s-74.9,0-112.4,0s-75.1,0-112.6,0s-74.9,0-112.4,0
	s-75.1,0-112.6,0s-74.9,0-112.4,0s-75.1,0-94,0H0V29.4z"/>
<path class="st1" d="M0,104.4l18.8-10c18.9-10,56.5-30,94-27.7c37.5,2.4,74.9,27,112.4,28.2s75.1-21.2,112.6-27.8
	c37.5-6.7,78.6,22,112.2,38.1c33.7,18.1,92.1,29.1,129.6,15.9c38.3-11.6,65.1-40.1,102.6-40.4c37.5-0.4,99.6,20.2,137.1,21.5
	s59.8-18.5,72-29.2l8.7-8.6v141h-18.7c-18.6,0-56,0-93.5,0s-75.1,0-112.6,0s-74.9,0-112.4,0s-75.1,0-112.6,0s-74.9,0-112.4,0
	s-75.1,0-112.6,0s-74.9,0-112.4,0s-75.1,0-94,0H0V104.4z"/>
<path class="st2" d="M0,162.4l18.8-10c18.9-10,56.5-30,94-31.2c37.5-1.1,77,10.8,110.6,30.7c34,17.6,42.1,19.3,71.5,20.7
	c32,1.5,44.3,21.4,51.1,19.9c37.5-8.3,60.5-1.7,98,0c37.5,1.6,52.9-3.3,90.4,7.7s56.2-31.2,111.8-27.6
	c37.1,2.4,72.8-44.1,110.3-48.3s106.2,35.7,124.8,28.8l18.7-6.8v59h-18.7c-18.6,0-56,0-93.5,0s-75.1,0-112.6,0s-74.9,0-112.4,0
	s-75.1,0-112.6,0s-74.9,0-112.4,0s-75.1,0-112.6,0s-74.9,0-112.4,0s-75.1,0-94,0H0V162.4z"/>
</svg>
