<?xml version="1.0" encoding="utf-8"?>
<!-- Generator: Adobe Illustrator 25.3.0, SVG Export Plug-In . SVG Version: 6.00 Build 0)  -->
<svg version="1.1" id="visual" xmlns="http://www.w3.org/2000/svg" xmlns:xlink="http://www.w3.org/1999/xlink" x="0px" y="0px"
	 width="900px" height="190px" viewBox="0 0 900 190" style="enable-background:new 0 0 900 190;" xml:space="preserve">
<style type="text/css">
	.st0{fill:#E1CBFC;}
	.st1{fill:#C098F7;}
	.st2{fill:#9A66F1;}
	.st3{fill:#6A2FEA;}
</style>
<path class="st0" d="M0,144l18.8-1.2c18.9-1.1,54.3,7.4,91.8,13.1s77.1,8.4,114.6,7.8c37.5-0.7,75.1-15.7,112.6-17.7
	s74.9,9,112.4,12s75.1-2,112.6,1.3c37.5,3.4,74.9,15,112.4,12.2s75.1-20.2,112.6-25.7s74.9,0.9,93.5,4L900,153V0h-18.7
	c-18.6,0-56,0-93.5,0s-75.1,0-112.6,0s-74.9,0-112.4,0s-75.1,0-112.6,0s-74.9,0-112.4,0s-75.1,0-112.6,0s-74.9,0-112.4,0
	s-75.1,0-94,0H0V144z"/>
<path class="st1" d="M0,149l18.8-5.7c18.9-5.6,56.5-17,94-24.5s74.9-11.1,112.4-5.3s75.1,21.2,112.6,23.5s74.9-8.3,112.4-6.3
	s75.1,16.6,112.6,15.5c37.5-1.2,76.4-12.2,113.9-21.9c37.5-9.6,74.2,11.8,112,8.1c37.8-3.8,74.8-22.9,94-27.5L900,101V0h-18.7
	c-18.6,0-56,0-93.5,0s-75.1,0-112.6,0s-74.9,0-112.4,0s-75.1,0-112.6,0s-74.9,0-112.4,0s-75.1,0-112.6,0s-74.9,0-112.4,0
	s-75.1,0-94,0H0V149z"/>
<path class="st2" d="M0,70l18.8,1.5c18.9,1.5,56.5,4.5,94,5.2c37.5,0.6,74.9-1,112.4,2s75.1,10.6,112.6,14.6s74.7,18,112.2,14.6
	c37.5-3.3,75.3-23.9,112.8-25.9s74.9,1,112.4,1.3c37.5,0.4,75.1-2,112.6,2.7s74.9,16.3,93.5,22.2L900,114V0h-18.7
	c-18.6,0-56,0-93.5,0s-75.1,0-112.6,0s-74.9,0-112.4,0s-75.1,0-112.6,0s-74.9,0-112.4,0s-75.1,0-112.6,0s-74.9,0-112.4,0
	s-75.1,0-94,0H0V70z"/>
<path class="st3" d="M0,26l18.8,3.3c18.9,3.4,56.5,10,94,12.7s69.6,14.3,107.1,15s79.9-20.2,117.4-18.5S412.7,51.3,450.2,51
	s74.3-10.5,111.8-9.5S635.8,68.7,673.3,66c37.5-2.7,77-25.3,114.5-27.3s74.9,2.6,93.5,5L900,46V0h-18.7c-18.6,0-56,0-93.5,0
	s-75.1,0-112.6,0s-74.9,0-112.4,0s-75.1,0-112.6,0s-74.9,0-112.4,0s-75.1,0-112.6,0s-74.9,0-112.4,0s-75.1,0-94,0H0V26z"/>
</svg>
