<?xml version="1.0" encoding="utf-8"?>
<!-- Generator: Adobe Illustrator 27.2.0, SVG Export Plug-In . SVG Version: 6.00 Build 0)  -->
<svg version="1.1" id="Layer_1" xmlns="http://www.w3.org/2000/svg" xmlns:xlink="http://www.w3.org/1999/xlink" x="0px" y="0px"
	 viewBox="0 0 122.8 122.8" style="enable-background:new 0 0 122.8 122.8;" xml:space="preserve">
<style type="text/css">
	.st0{fill-rule:evenodd;clip-rule:evenodd;fill:#FFFFFF;}
</style>
<path class="st0" d="M61.4,0C27.5,0,0,27.5,0,61.4c0,33.9,27.5,61.4,61.4,61.4c33.9,0,61.4-27.5,61.4-61.4C122.8,27.5,95.3,0,61.4,0
	z M21.8,36.6c0.5-0.7,1.7-1.8,2.3-2C25.2,34,22.5,34,61.5,34c25.9,0,36,0,36.3,0.1c1.2,0.3,2.2,1.1,2.8,2.1c0.3,0.5,0.3,0.8,0.1,1.1
	c-0.1,0.1-0.2,0.3-0.2,0.3c0,0-0.2,0.4-0.4,0.7c-0.2,0.3-0.5,0.8-0.6,1c-0.3,0.5-0.5,0.9-1,1.8c-0.3,0.5-0.6,1-0.7,1.2
	c-0.1,0.2-0.3,0.4-0.4,0.6C97.3,43,97,43.6,96.7,44c-0.5,0.8-0.7,1.2-1,1.8c-0.1,0.2-0.3,0.5-0.5,0.8c-0.3,0.5-0.5,0.8-0.8,1.4
	c-0.1,0.2-0.4,0.6-0.6,1c-0.2,0.3-0.4,0.7-0.4,0.7c0,0.2-1,1.5-1.5,2c-1.3,1.3-2.6,2-4.9,2.7c-0.4,0.1-1.9,0.1-8.2,0.1
	c-5.2,0-7.8-0.4-7.8-1.3c-0.1-1.5-0.1-1.9-0.7-2.9c-0.6-1.2-1.6-2.2-2.9-2.8c-1.3-0.6-2-0.7-6.9-0.6c-3,0-4.1,0-4.4,0.2
	c-0.2,0.1-0.6,0.2-0.8,0.3c-1.2,0.5-2.6,1.7-3.2,2.9c-0.5,1.1-0.8,2.1-0.8,3.4c0,0.6-2.5,1-7.4,0.9c-4.1,0-7.6,0-7.9-0.1
	c-1.2-0.2-3.2-1.1-4.5-2c-1.3-1-2.1-2-3-3.6c-0.1-0.2-0.3-0.5-1-1.7c-0.5-0.8-0.7-1.2-1-1.8c-0.1-0.2-0.3-0.5-0.5-0.8
	c-0.2-0.3-0.4-0.7-0.5-0.8c-0.1-0.2-0.3-0.4-0.4-0.6c-0.1-0.2-0.3-0.5-0.5-0.8c-0.2-0.3-0.4-0.7-0.5-0.8c-0.4-0.6-0.5-0.9-1-1.8
	c-0.3-0.5-0.6-1-0.7-1.1c-0.1-0.2-0.3-0.6-0.5-0.9C21.7,37.1,21.6,36.8,21.8,36.6z M65.7,58.5c0,5.2,0,5.3-0.2,5.6
	c-0.1,0.2-1.4,0.2-3.8,0.2c-3.4,0-3.7,0-3.8-0.2c-0.1-0.2-0.2-0.7-0.2-5.6c0-4.3,0-5.4,0.1-5.5c0.2-0.2,7.7-0.1,7.8,0
	C65.7,53.1,65.7,55.6,65.7,58.5z M101.2,85.4c-0.2,0.7-0.7,1.5-1.2,2c-0.6,0.6-1,0.9-1.9,1.1c-0.4,0.1-12.7,0.2-36.8,0.2
	c-36,0-36.2,0-36.8-0.2c-0.7-0.2-1-0.4-1.5-1c-0.3-0.4-0.5-0.6-0.9-1.5c-0.1-0.2-0.1-3.3-0.2-18.8c0-10.7,0-18.6,0.1-18.7
	c0.1-0.1,0.1-0.1,0.2,0.1c0.1,0.2,0.2,0.5,0.3,0.6c0.1,0.2,0.3,0.5,0.4,0.7c0.1,0.2,0.3,0.5,0.4,0.7c0.1,0.2,0.3,0.5,0.4,0.7
	c0.1,0.2,0.3,0.5,0.4,0.7c0.9,1.6,1,1.7,1.4,2.3c2,2.7,5.4,4.9,8.9,5.8c0.2,0,0.6,0.1,0.8,0.2c0.3,0.1,2.2,0.1,8.4,0.2
	c5.5,0,8,0.1,8.1,0.1c0.1,0.1,0.1,0.6,0.1,2.2c0,2.3,0.1,2.7,0.6,3.8c0.9,1.9,2.5,3,4.7,3.5c0.7,0.2,8.4,0.2,9,0
	c0.9-0.2,1.2-0.3,2-0.7c1.4-0.7,2.5-2,3-3.4c0.3-0.9,0.4-1.2,0.4-3.4c0-1.4,2.7-2.1,8.1-2.2c8.4-0.1,8-0.1,9.5-0.5
	c0.5-0.2,1.5-0.5,1.9-0.7c1.7-0.7,3-1.5,4.1-2.4c0.8-0.6,2.3-2.2,2.7-2.8c0.5-0.7,3.3-5.5,3.3-5.7c0,0,0.1-0.1,0.1-0.1
	C101.4,48.3,101.4,84.9,101.2,85.4z"/>
</svg>
